<?xml version="1.0" encoding="utf-8"?>
<!-- Generator: Adobe Illustrator 18.0.0, SVG Export Plug-In . SVG Version: 6.00 Build 0)  -->
<!DOCTYPE svg PUBLIC "-//W3C//DTD SVG 1.1//EN" "http://www.w3.org/Graphics/SVG/1.1/DTD/svg11.dtd">
<svg version="1.1" id="Layer_1" xmlns="http://www.w3.org/2000/svg" xmlns:xlink="http://www.w3.org/1999/xlink" x="0px" y="0px"
	 viewBox="0 0 120 120" enable-background="new 0 0 120 120" xml:space="preserve">
<path fill="#4D4D4D" d="M-626.4,99c0,3.6-3,7.2-7.2,7.2h-54.6c-3.6,0-7.2-3-7.2-7.2c0-0.6,0-0.6,0-1.2l18.6-49.2l0,0V19.8h-2.4
	c-1.8,0-3-1.2-3-3s1.2-3,3-3h5.4c1.8,0,3,1.2,3,3V48v0.6c0,0.6,0,0.6,0,1.2l-11.4,30h40.8l-12-30c0-0.6,0-0.6,0-1.2l0,0
	c0,0,0,0,0-0.6V16.8c0-1.8,1.2-3,3-3h5.4c1.8,0,3,1.2,3,3s-1.2,3-3,3h-2.4V48l19.2,49.2C-626.4,97.8-626.4,98.4-626.4,99z"/>
<g>
	<g>
		<path fill="#4D4D4D" d="M-408.6,25.8h-79.2c-3,0-5.4,2.4-5.4,5.4v56.4c0,3,2.4,5.4,5.4,5.4h79.2c3,0,5.4-2.4,5.4-5.4V31.2
			C-403.2,28.2-405.6,25.8-408.6,25.8z M-461.4,65.4l13.2,9l13.2-9l22.8,22.8h-71.4L-461.4,65.4z M-487.8,84V47.4l21.6,15L-487.8,84
			z M-430.8,62.4l21.6-15V84L-430.8,62.4z M-408.6,31.2v9l0,0l-39.6,27l-39.6-27v-9H-408.6z"/>
	</g>
</g>
<text transform="matrix(1 0 0 1 -868.4072 100.2109)" fill="#4D4D4D" font-family="'MyriadPro-Regular'" font-size="125.1342">i</text>
<g id="lol">
	<g>
		<path fill="#4D4D4D" d="M49.8,85.2c1.8,1.8,4.2,1.8,6,0l27-27c0.6-0.6,1.2-1.8,1.2-3c0-1.2-0.6-2.4-1.2-3l-27.6-27
			c-1.8-1.8-4.2-1.8-6,0c-1.2,1.8-1.2,4.2,0.6,6l24,24l-24,24C48,81,48,83.4,49.8,85.2z"/>
	</g>
</g>
</svg>
