<?xml version="1.0" encoding="utf-8"?>
<!-- Generator: Adobe Illustrator 18.0.0, SVG Export Plug-In . SVG Version: 6.00 Build 0)  -->
<!DOCTYPE svg PUBLIC "-//W3C//DTD SVG 1.1//EN" "http://www.w3.org/Graphics/SVG/1.1/DTD/svg11.dtd">
<svg version="1.1" id="Layer_1" xmlns="http://www.w3.org/2000/svg" xmlns:xlink="http://www.w3.org/1999/xlink" x="0px" y="0px"
	 viewBox="0 0 73.9 47.2" enable-background="new 0 0 73.9 47.2" xml:space="preserve">
<polygon fill="#FFFFFF" points="73.7,45.9 73.7,50.2 0.2,50.2 0.2,45.9 0.4,45.9 0.4,11.9 1.9,11.9 1.9,45.9 2.6,45.9 2.6,11.9 
	4.1,11.9 4.1,45.9 6.6,45.9 6.6,20.1 8.1,20.1 8.1,45.9 8.9,45.9 8.9,20.1 12,20.1 12,45.9 14.4,45.9 14.4,33.6 17.6,33.6 
	17.6,45.9 18.4,45.9 18.4,33.6 19.9,33.6 19.9,45.9 22.3,45.9 22.3,33.6 23.8,33.6 23.8,45.9 24.5,45.9 24.5,33.6 26,33.6 26,45.9 
	28.6,45.9 28.6,33.6 30,33.6 30,45.9 30.8,45.9 30.8,33.6 32.2,33.6 32.2,45.9 33,45.9 33,33.6 34.5,33.6 34.5,45.9 36.9,45.9 
	36.9,33.6 40.1,33.6 40.1,45.9 41.7,45.9 41.7,25.3 43.3,25.3 43.3,45.9 44,45.9 44,25.3 45.5,25.3 45.5,45.9 48,45.9 48,25.3 
	51.2,25.3 51.2,45.9 53.6,45.9 53.6,21.2 55.1,21.2 55.1,45.9 55.9,45.9 55.9,21.2 57.3,21.2 57.3,45.9 58.1,45.9 58.1,21.2 
	59.6,21.2 59.6,45.9 62,45.9 62,21.2 65.2,21.2 65.2,45.9 67.7,45.9 67.7,10.3 69.2,10.3 69.2,45.9 70.8,45.9 70.8,10.3 73.9,10.3 
	73.9,45.9 "/>
</svg>
