<?xml version="1.0" encoding="utf-8"?>
<!-- Generator: Adobe Illustrator 18.0.0, SVG Export Plug-In . SVG Version: 6.00 Build 0)  -->
<!DOCTYPE svg PUBLIC "-//W3C//DTD SVG 1.1//EN" "http://www.w3.org/Graphics/SVG/1.1/DTD/svg11.dtd">
<svg version="1.1" id="Layer_1" xmlns="http://www.w3.org/2000/svg" xmlns:xlink="http://www.w3.org/1999/xlink" x="0px" y="0px"
	 viewBox="0 0 100 100" enable-background="new 0 0 100 100" xml:space="preserve">
<path fill="#222222" d="M95.4,43h-5.8c-1.1-5.8-3.4-11.2-6.8-16l4-4c0.4-0.4,0.6-0.9,0.6-1.5c0-0.6-0.2-1.1-0.6-1.5l-7-7
	c-0.8-0.8-2.1-0.8-3,0l-4.1,4.1C68,14,62.6,11.8,57,10.8V4.9c0-1.1-0.9-2.1-2.1-2.1H45c-1.2,0-2.1,0.9-2.1,2.1v5.9
	c-5.7,1-11,3.2-15.8,6.5l-4-4c-0.8-0.8-2.1-0.8-3,0l-7,7c-0.4,0.4-0.6,0.9-0.6,1.5c0,0.6,0.2,1.1,0.6,1.5l3.9,3.9
	c-3.4,4.7-5.7,10.2-6.8,15.9H5c-1.1,0-2.1,0.9-2.1,2.1V55c0,1.2,0.9,2.1,2.1,2.1h5.1c1,5.8,3.2,11.3,6.5,16.1L12.9,77
	c-0.8,0.8-0.8,2.1,0,3l7,7c0.4,0.4,0.9,0.6,1.5,0.6c0.6,0,1.1-0.2,1.5-0.6l3.6-3.6c4.9,3.5,10.5,5.9,16.4,6.9v5
	c0,1.2,0.9,2.1,2.1,2.1h9.9c1.1,0,2.1-0.9,2.1-2.1v-5c5.9-1,11.4-3.4,16.3-6.8l3.7,3.7c0.8,0.8,2.2,0.8,2.9,0l7-7
	c0.8-0.8,0.8-2.1,0-3l-3.8-3.8c3.4-4.9,5.6-10.4,6.6-16.2h5.6c1.2,0,2.1-0.9,2.1-2.1v-9.9C97.5,44,96.6,43,95.4,43z M50.2,72.1
	c-12.2,0-22-9.9-22-22c0-12.2,9.9-22,22-22c12.2,0,22,9.9,22,22C72.2,62.2,62.4,72.1,50.2,72.1z M58.6,50.1c0,4.6-3.7,8.4-8.4,8.4
	s-8.4-3.7-8.4-8.4c0-4.6,3.8-8.4,8.4-8.4S58.6,45.5,58.6,50.1z"/>
</svg>
