<?xml version="1.0" encoding="utf-8"?>
<!-- Generator: Adobe Illustrator 18.0.0, SVG Export Plug-In . SVG Version: 6.00 Build 0)  -->
<!DOCTYPE svg PUBLIC "-//W3C//DTD SVG 1.1//EN" "http://www.w3.org/Graphics/SVG/1.1/DTD/svg11.dtd">
<svg version="1.1" id="Layer_1" xmlns="http://www.w3.org/2000/svg" xmlns:xlink="http://www.w3.org/1999/xlink" x="0px" y="0px"
	 viewBox="-75 -10 200 49.5" enable-background="new -75 -10 200 49.5" xml:space="preserve">
<g>
	<g>
		<path fill="#262525" d="M-70.2-9.9c-0.6,0-0.9,0.3-0.9,0.9v39.3c0,0.6,0.3,0.9,0.9,0.9c1.3,0,2.1-0.3,2.1-0.9V-9
			C-68.2-9.6-68.9-9.9-70.2-9.9z M-64.9-9.9c-1.2,0-1.8,0.3-1.8,1v39.3c0,0.7,0.6,1,2,1c0.6,0,1-0.3,1-1V-8.9
			C-63.7-9.6-64.1-9.9-64.9-9.9z M-57.8-9.9c-0.6,0-0.9,0.3-0.9,0.9V1.8h2.9V-9C-56-9.7-56.7-9.9-57.8-9.9z M-58.9,19.7v10.7
			c0,0.6,0.3,0.9,1,0.9c1.3,0,2-0.3,2-0.9V19.7H-58.9z M-54.2,20.1c0,1.4-0.1,3.1-0.2,5.1v5.1c0,0.6,0.3,0.9,1,0.9h4.4
			c0.6,0,1-0.3,1-0.9V19.7h-6.3L-54.2,20.1L-54.2,20.1z M-50.2-9.9h-3.1c-0.6,0-0.9,0.3-0.9,1V1.8h6.3V-8.9
			C-48-9.5-48.7-9.9-50.2-9.9z"/>
		<path fill="#262525" d="M-37.7-9.9h-4.4c-0.6,0-1,0.3-1,0.9V1.8h6.4V-9C-36.6-9.6-37-9.9-37.7-9.9z M-43.1,19.7v10.7
			c0,0.6,0.3,0.9,1,0.9h0.9c2,0,2.8,0,2.7,0.1c1.3-0.2,1.9-0.5,1.9-1V19.7H-43.1z M-35.2,19.7v10.7c0,0.7,0.7,1,2,1c0.7,0,1-0.3,1-1
			V19.7H-35.2z M-34.1-9.9c-0.7,0-1,0.3-1,0.9V1.8h2.9V-9C-32.2-9.6-32.9-9.9-34.1-9.9z M-25.3-9.9h-1c-0.7,0-1,0.3-1,0.9V1.8h2.9
			V-9C-24.2-9.6-24.6-9.9-25.3-9.9z M-27.2,19.7v10.7c0,0.6,0.6,0.9,1.6,0.9h0.4c0.6,0,0.9-0.3,0.9-0.9V19.7H-27.2z M-22.7,30.4
			c0,0.7,0.7,1,2.1,1c0.6,0,0.9-0.4,0.9-1.2c0-0.8,0-2.4,0.1-5.2v-5.4h-2.9L-22.7,30.4L-22.7,30.4z M-20.9-9.9c-1.3,0-2,0.3-2,0.9
			V1.8h2.9V-9C-19.8-9.6-20.1-9.9-20.9-9.9z"/>
		<path fill="#262525" d="M-11.9-9c0-0.6-0.3-0.9-0.9-0.9c-1.3,0-2,0.3-2,0.9V1.8h2.9v-2.6C-11.9-4.5-11.9-7.3-11.9-9z M-14.9,19.7
			v10.7c0,0.7,0.3,1,0.9,1c1.3,0,2.1-0.3,2.1-1V19.7H-14.9z M-10.3,19.7v10.7c-0.1,0.6,0.3,0.9,1,0.9c1.3,0,2-0.3,2-0.9V19.7H-10.3z
			 M-8.4-9.9c-1.3,0-2,0.3-2,0.9V1.8h2.9V-9C-7.3-9.6-7.6-9.9-8.4-9.9z M-3.8-9.9c-1.3,0-2.1,0.3-2.1,0.9V1.8h3V-8.3
			C-2.9-9.4-3.2-9.9-3.8-9.9z M-5.9,19.7v8.5c0.1,0.9,0.1,1.7,0.1,2.2c0,0.6,0.3,0.9,0.9,0.9c1.4,0,2.1-0.3,2.1-0.9V19.7H-5.9z
			 M2,30.4c0,0.6,0.7,0.9,2.1,1c-0.3-0.1,0.7-0.1,2.7-0.1h0.7c0.6,0,0.9-0.3,0.9-0.9V19.7H2C2,19.7,2,30.4,2,30.4z M6.3-9.9H3
			C2.4-9.9,2-9.6,2-9V1.8h6.4V-9C8.4-9.6,7.8-9.9,6.3-9.9z"/>
		<path fill="#262525" d="M13.6-9.9c-1.3,0-2,0.3-2,0.9c0,1.1,0,2.7-0.1,4.9v5.8h3V-9.1C14.7-9.6,14.3-9.9,13.6-9.9z M11.7,19.7v3.1
			c0.1,3.3,0.1,5.9,0.1,7.5c0,0.6,0.3,0.9,1,0.9c1.3,0,2-0.3,2-0.9V19.7H11.7z M19.1,24.5v-4.8h-2.9v10.7c0,0.6,0.3,0.9,1,0.9
			c1.3,0,2-0.3,2-0.9c0-0.6,0-1.7,0.1-2.9C19.1,26.2,19.1,25.2,19.1,24.5z M18.1-9.9c-1.3,0-2,0.3-2,0.9V1.8H19V-9
			C19.1-9.6,18.7-9.9,18.1-9.9z M29.4-9.9H25c-0.6,0-1,0.3-1,0.9V1.8h6.5V-9C30.5-9.5,30.2-9.9,29.4-9.9z M24,19.7v6.6v2.9
			c0.1,1.5,0.5,2.2,1,2.2h1.2c2,0,3.1-0.1,3.6-0.3s0.7-0.7,0.7-1.6v-9.8C30.5,19.7,24,19.7,24,19.7z M35.2,30.4c0,0.7,0.7,1,2.1,1
			c0.6,0,0.9-0.3,0.9-1V19.7h-2.9V30.4z M38.1-9.1c0-0.6-0.3-0.9-0.9-0.9c-1.3,0-2,0.3-2,0.9V1.7h2.9v-8.4
			C38.1-7.7,38.1-8.5,38.1-9.1z"/>
		<path fill="#262525" d="M41.8-9.9h-0.3c-1.1,0-1.7,0.3-1.7,0.9V1.8h2.9V-9C42.7-9.6,42.5-9.9,41.8-9.9z M39.8,19.7v10.7
			c0,0.6,0.3,0.9,1,0.9c1.3,0,2-0.3,2-0.9V19.7H39.8z M44.4,19.7v10.7c0,0.7,0.6,1,2,1c0.7,0,1-0.3,1-1V19.7H44.4z M46.3-9.9
			c-1.3,0-2,0.3-2,0.9V1.8h2.9V-9C47.4-9.6,47-9.9,46.3-9.9z M57.5-9.9h-4.4c-0.6,0-1,0.3-1,0.9V1.8h6.4V-9
			C58.6-9.5,58.2-9.9,57.5-9.9z M52.2,19.7v10.7c0,0.6,0.3,0.9,1,0.9h4.3c0.7,0,1-0.3,1-0.9V19.7H52.2z M66.4-9
			c0-0.6-0.3-0.9-0.9-0.9c-1.3,0-2,0.3-2,0.9V1.8h2.9v-1v-4.9C66.4-6.3,66.4-7.8,66.4-9z M63.5,30.4c0,0.6,0.6,0.9,2,0.9
			c0.6,0,0.9-0.3,0.9-0.9V19.7h-2.9L63.5,30.4L63.5,30.4z"/>
		<path fill="#262525" d="M76-8.9c0-0.6-0.3-0.9-0.9-0.9c-0.3-0.1-1.3-0.1-2.8-0.1h-1.7c-0.6,0-1,0.3-1,1V1.8H76v-6.3
			C76.1-6.5,76-7.9,76-8.9z M69.7,19.7v10.7c0,0.7,0.3,1,0.9,1h1.8c1.7,0,2.6-0.1,3.1-0.3c0.4-0.2,0.6-0.7,0.6-1.6v-9.8H69.7z
			 M77.5,19.7v10.7c0,0.6,0.6,0.9,2,0.9c0.7,0,1-0.3,1-0.9V19.7H77.5z M78.4-9.9c-0.6,0-0.9,0.3-0.9,1V1.8h2.9V-8.9
			C80.5-9.6,79.8-9.9,78.4-9.9z M83.8-9.9c-1.3,0-1.9,0.6-1.9,1.7c0,0.2,0,0.6,0.1,1.1c0.1,0.5,0.1,0.9,0.1,1.2v7.7h2.9V-8.9
			C85.1-9.6,84.7-9.9,83.8-9.9z M82.1,19.7v10.7c0,0.6,0.3,0.9,1,0.9h0.7c0.9,0,1.3-0.3,1.3-0.9V19.7H82.1z M90,30.4
			c0,0.7,0.3,1,0.9,1c1.3,0,2.1-0.3,2.1-1V19.7H90V30.4z M92-9.9h-1c-0.6,0-0.9,0.3-0.9,0.9V1.8h2.9V-9C92.9-9.6,92.6-9.9,92-9.9z"
			/>
		<path fill="#262525" d="M99.8-9.9c-1.3,0-2,0.3-2,0.9V1.8h2.9V-9C100.8-9.6,100.5-9.9,99.8-9.9z M97.8,19.7v10.7
			c0,0.6,0.3,0.9,1,0.9h0.7c0.9,0,1.3-0.3,1.3-0.9V19.7H97.8z M102.3,30.4c0,0.6,0.3,0.9,1,0.9c2.6,0,4.1-0.1,4.5-0.2
			c0.6-0.2,0.9-0.8,0.9-1.7v-9.7h-6.4V30.4L102.3,30.4z M107.7-9.9h-4.4c-0.7,0-1,0.3-1,0.9V1.8h6.4V-9
			C108.8-9.6,108.4-9.9,107.7-9.9z M115.1-9.9c-1.3,0-2.1,0.3-2.1,0.9v39.3c0,0.7,0.3,1,1,1c1.3,0,2-0.3,2-1V-9
			C116.1-9.6,115.8-9.9,115.1-9.9z M119.5-9.9c-1.3,0-1.9,0.3-1.9,0.9v39.4c0,0.7,0.3,1,0.9,1c1.4,0,2.1-0.3,2.1-1V-8.3
			C120.5-9.4,120.2-9.9,119.5-9.9z"/>
	</g>
	<g>
		<path fill="#262525" d="M-54.9,16.1c-1.4,0-2.4-0.6-3.1-1.9c-0.6-1-0.9-2.3-0.9-3.6c0-1.5,0.3-2.7,0.9-3.7
			c0.7-1.3,1.8-1.9,3.1-1.9c0.8,0,1.5,0.2,2.2,0.5c0.9,0.4,1.3,0.9,1.3,1.6s-0.3,1.1-1,1.1c-0.3,0-0.6-0.2-0.9-0.5
			c-0.3-0.3-0.8-0.5-1.3-0.5c-1.3,0-2.1,1.3-2.1,3.6c0,2.1,0.7,3.1,2.1,3.1c0.6,0,0.9-0.1,1.3-0.2c0,0.1,0-0.2,0-0.9
			c0-0.1,0-0.2,0.1-0.4c0.1-0.2,0.1-0.3,0.1-0.4c0-0.2-0.2-0.3-0.5-0.3c-0.1,0-0.2,0-0.5,0.1c-0.2,0.1-0.4,0.1-0.6,0.1
			c-0.7,0-1.1-0.3-1.1-1c0-0.8,0.7-1.1,2.1-1.1c1.7,0,2.4,0.4,2.4,1.3v3.1C-51.3,15.4-52.5,16.1-54.9,16.1z"/>
		<path fill="#262525" d="M-37.5,11.5c0-1.3,0-2,0-2.1c0-2.1,0-2.8,0-2.6C-37.4,5.6-37,5-36.4,5c0.6,0,1,0.4,1,1.1
			c0,1,0,2.4,0.1,4.3c0,2,0.1,3.4,0.1,4.3s-0.4,1.3-1.3,1.3c-0.6,0-1.2-0.3-1.5-1c-1-2-1.9-3.7-2.6-5.3v5.2c0,0.7-0.4,1.1-1.1,1.1
			c-0.7,0-1.1-0.4-1.1-1.1V8.1c0-1.3,0-2.1,0.1-2.2c0.2-0.8,0.6-1.2,1.4-1.2c0.6,0,0.9,0.3,1.3,0.9C-39.5,7.3-38.5,9.2-37.5,11.5z"
			/>
		<path fill="#262525" d="M-23.1,16.3c-1.3,0-2.3-0.7-2.9-2.1c-0.6-1-0.9-2.3-0.9-3.6S-26.6,8-26,7.1c0.7-1.3,1.7-2,2.9-2
			c1.2,0,2.2,0.6,2.9,2c0.6,1.1,1,2.4,1,3.5c0,1.3-0.3,2.4-1,3.6C-21,15.6-21.9,16.3-23.1,16.3z M-23.1,7.2c-0.6,0-1.1,0.5-1.4,1.3
			c-0.2,0.7-0.4,1.4-0.4,2.1s0.2,1.4,0.4,2.2c0.3,0.9,0.8,1.4,1.4,1.4c0.6,0,0.9-0.5,1.3-1.4c0.3-0.8,0.5-1.5,0.5-2.1
			c0-0.7-0.2-1.4-0.4-2.1C-22.1,7.6-22.6,7.2-23.1,7.2z"/>
		<path fill="#262525" d="M-5.1,8.6c-0.7,0-1-0.4-1-1.1c-0.4-0.2-0.8-0.4-1.2-0.4c-0.9,0-1.3,0.3-1.3,0.9c0,0.4,0.4,0.9,1.2,1.3
			c1.2,0.6,2,0.9,2.3,1.3c0.8,0.6,1.2,1.5,1.2,2.5c0,0.9-0.3,1.7-1,2.4c-0.7,0.6-1.6,0.9-2.4,0.9s-1.7-0.2-2.4-0.7
			c-0.7-0.6-1.1-1.3-1.1-2.2c0-0.7,0.4-1.1,1.1-1.1c0.5,0,0.9,0.3,1,0.9c0.2,0.6,0.6,0.9,1.3,0.9c0.3,0,0.6-0.1,0.9-0.3
			c0.3-0.2,0.5-0.5,0.5-0.8c0-0.4-0.8-1-2.4-2s-2.4-1.9-2.4-3c0-0.9,0.3-1.6,1-2.2s1.5-0.9,2.4-0.9c0.8,0,1.5,0.2,2.3,0.8
			C-4.5,6.4-4.1,7-4.1,7.6C-4,8.3-4.4,8.6-5.1,8.6z"/>
		<path fill="#262525" d="M11.7,7.4c-0.9,0-1.6,0-1.9-0.1L9.7,7.9c0,0.1,0,0.2,0.1,0.5c0,0.2,0.1,0.4,0.1,0.5c0,0.6,0,1.5,0.1,2.7
			c0,1.3,0.1,2.1,0.1,2.7c0,1.4-0.4,2.1-1.1,2.1c-0.6,0-1-0.6-1.1-1.8c0,0.1,0.1-0.8,0.1-2.4c0-2.5,0.1-4.1,0.2-4.6L8.1,7.5
			C7.7,7.6,7.5,7.6,7.3,7.6c-1.3,0-2.1-0.3-2.1-1c0-0.6,0.3-0.9,0.9-1c0.2,0,0.7-0.1,1.7-0.1h4.1c0.7,0,1,0.4,1,1.1
			C12.7,7.1,12.3,7.4,11.7,7.4z"/>
		<path fill="#262525" d="M24.9,8.9c0,0,0-0.2,0.1-0.5c0.1-0.4,0.4-1.1,1-2.1C26.6,5.5,27.1,5,27.4,5c0.7,0,1.1,0.4,1.1,1.1
			c0,0.3-0.4,1.1-1.3,2.4c-0.8,1.4-1.3,2.2-1.3,2.4c0,0,0,0.5,0,1.3c0,1.6,0,2.4,0,2.3c-0.2,1-0.5,1.5-1.1,1.5
			c-0.8,0-1.1-0.8-1.1-2.3c0-0.3,0-0.8,0-1.3c0-0.6,0-0.9,0-0.9c0-0.5-0.4-1.4-1.3-2.7S21.2,6.4,21.2,6c0-0.7,0.3-1.1,1-1.1
			c0.4,0,0.8,0.2,1,0.6C23.7,6.6,24.2,7.6,24.9,8.9z"/>
		<path fill="#262525" d="M40.8,8.7c0.2-0.6,0.6-1.3,0.9-1.9c0.6-1.1,1.1-1.7,1.7-1.7c0.8,0,1.2,0.3,1.2,1c0,0.2-0.7,1.4-2.1,3.6
			c-0.3,0.6-0.5,0.7-0.5,0.6c0,0.2,0.4,0.9,1.3,2.1c0.9,1.3,1.3,2.1,1.3,2.4c0,0.9-0.4,1.3-1.1,1.3c-0.4,0-0.9-0.4-1.3-1.2
			c-0.4-0.7-0.8-1.6-1.3-2.5c-0.3,0.7-0.6,1.3-0.9,2.1c-0.6,1.2-1.1,1.7-1.7,1.7c-0.7,0-1.1-0.4-1.1-1.1c0-0.4,0.4-1.3,1.3-2.4
			c0.9-1.3,1.3-2,1.3-2c0-0.2-0.4-0.9-1.3-2.1s-1.3-2-1.3-2.4c0-0.7,0.4-1.1,1.1-1.1c0.4,0,0.9,0.5,1.6,1.4
			C40.4,7.5,40.8,8.2,40.8,8.7z"/>
		<path fill="#262525" d="M57.7,16.4c-1.2,0-1.8,0-1.9-0.1c-0.8-0.2-1.2-0.5-1.2-1.1v-0.4c0-1.5,0.4-2.2,1.1-2.2
			c1.2,0,1.9,0,1.9,0.1c0.8,0.1,1.3,0.5,1.3,1.1C58.9,15.5,58.5,16.4,57.7,16.4z"/>
		<path fill="#262525" d="M72.9,16.2c-1.2,0-2.2-0.6-2.7-1.7c-0.6-0.9-0.9-2.1-0.9-3.3c0-4.1,1.3-6.2,3.6-6.2c0.6,0,1.3,0.2,2,0.7
			c0.6,0.5,0.9,1,0.9,1.7s-0.3,1-1,1c-0.5,0-0.8-0.2-1-0.6c-0.2-0.4-0.5-0.6-0.8-0.6c-0.5,0-0.9,0.3-1.2,0.9
			c-0.3,0.6-0.5,1.2-0.5,1.7c0,2.8,0.6,4.2,1.7,4.2c0.3,0,0.6-0.2,0.8-0.6c0.2-0.4,0.6-0.6,1-0.6c0.7,0,1,0.4,1,1.1
			c0,0.6-0.3,1.2-0.9,1.7C74.2,16,73.6,16.2,72.9,16.2z"/>
		<path fill="#262525" d="M88.7,16.3c-1.3,0-2.3-0.7-2.9-2.1c-0.6-1-0.9-2.3-0.9-3.6s0.3-2.5,0.9-3.5c0.7-1.3,1.7-2,2.9-2
			c1.2,0,2.2,0.6,2.9,2c0.6,1.1,1,2.4,1,3.5c0,1.3-0.3,2.4-1,3.6C90.9,15.6,89.9,16.3,88.7,16.3z M88.7,7.2c-0.6,0-1.1,0.5-1.4,1.3
			c-0.2,0.7-0.4,1.4-0.4,2.1s0.2,1.4,0.4,2.2c0.3,0.9,0.8,1.4,1.4,1.4c0.6,0,0.9-0.5,1.3-1.4c0.3-0.8,0.5-1.5,0.5-2.1
			c0-0.7-0.2-1.4-0.4-2.1C89.8,7.6,89.3,7.2,88.7,7.2z"/>
		<path fill="#262525" d="M103,9.9c0,0.4,0,1.3,0,2.6c0,1.1,0,2.1,0,2.6c0,0.7-0.4,1.1-1.1,1.1c-0.8,0-1.1-0.9-1.1-2.6V6.6
			c0-0.9,0.8-1.3,2.4-1.3c0.6,0,1.2,1.2,1.8,3.4c0.6-2.4,1.1-3.4,1.7-3.4c0.8,0,1.3,0.1,1.6,0.2c0.6,0.2,0.8,0.5,0.8,1.1
			c0,0.7,0,1.8,0,3.2s0,2.5,0,3.2c0,1.2,0,1.8-0.1,2c-0.2,0.8-0.5,1.3-1.1,1.3c-0.8,0-1.2-0.7-1.2-2.2c0-0.4,0-0.8,0.1-1.3
			c0.1-0.5,0.1-0.9,0.1-1.1c0-0.2,0-0.5,0-0.9c0-0.4,0-0.7,0-0.9c-0.2,0.7-0.4,1.4-0.6,2.1c-0.3,0.9-0.8,1.4-1.3,1.4
			s-0.9-0.4-1.3-1.3C103.4,11.2,103.2,10.6,103,9.9z"/>
	</g>
</g>
</svg>
