<?xml version="1.0" encoding="utf-8"?>
<!-- Generator: Adobe Illustrator 18.0.0, SVG Export Plug-In . SVG Version: 6.00 Build 0)  -->
<!DOCTYPE svg PUBLIC "-//W3C//DTD SVG 1.1//EN" "http://www.w3.org/Graphics/SVG/1.1/DTD/svg11.dtd">
<svg version="1.1" id="Layer_1" xmlns="http://www.w3.org/2000/svg" xmlns:xlink="http://www.w3.org/1999/xlink" x="0px" y="0px"
	 viewBox="0 0 1500 650" enable-background="new 0 0 1500 650" xml:space="preserve">
<g>
	<path fill="none" stroke="#F2F2F2" stroke-miterlimit="10" d="M746.4,23.1L482.7,195.6v278.8L747.9,624l264.2-151.1V194.4
		L746.4,23.1z"/>
</g>
<circle fill="#F2F2F2" cx="482.7" cy="195.6" r="7"/>
<circle fill="#F2F2F2" cx="602.7" cy="184.1" r="9.5"/>
<circle fill="#F2F2F2" cx="896.7" cy="183.1" r="9.5"/>
<circle fill="#F2F2F2" cx="602.7" cy="503.1" r="9.5"/>
<circle fill="#F2F2F2" cx="896.7" cy="503.1" r="9.5"/>
<circle fill="#F2F2F2" cx="475.7" cy="624" r="9.5"/>
<circle fill="#F2F2F2" cx="286.6" cy="571.1" r="9.5"/>
<circle fill="#F2F2F2" cx="482.7" cy="473.3" r="7"/>
<circle fill="#F2F2F2" cx="482.7" cy="336.3" r="7"/>
<circle fill="#F2F2F2" cx="293.6" cy="256.1" r="7"/>
<circle fill="#F2F2F2" cx="114.1" cy="164.1" r="7"/>
<circle fill="#F2F2F2" cx="258" cy="69.3" r="7"/>
<circle fill="#F2F2F2" cx="459.7" cy="87.1" r="7"/>
<circle fill="#F2F2F2" cx="277.1" cy="174.6" r="7"/>
<circle fill="#F2F2F2" cx="29.6" cy="520" r="7"/>
<circle fill="#F2F2F2" cx="244.8" cy="347.9" r="7"/>
<circle fill="#F2F2F2" cx="10.1" cy="209.2" r="7"/>
<circle fill="#F2F2F2" cx="1179.1" cy="257" r="7"/>
<path fill="#F2F2F2" d="M1302.2,335.5c5.7,7.5-2.8,16-10.2,10.2C1286.2,338.2,1294.7,329.8,1302.2,335.5z"/>
<path fill="#F2F2F2" d="M1311.7,239c5.7,7.5-2.8,16-10.2,10.2C1295.7,241.7,1304.2,233.3,1311.7,239z"/>
<path fill="#F2F2F2" d="M1494.1,306c5.7,7.5-2.8,16-10.2,10.2C1478.2,308.7,1486.6,300.3,1494.1,306z"/>
<path fill="#F2F2F2" d="M1482.2,177.1c5.7,7.5-2.8,16-10.2,10.2C1466.2,179.9,1474.7,171.4,1482.2,177.1z"/>
<circle fill="#F2F2F2" cx="1163.6" cy="507.1" r="7"/>
<circle fill="#F2F2F2" cx="1087.8" cy="610.5" r="7"/>
<circle fill="#F2F2F2" cx="1307.6" cy="563.1" r="7"/>
<path fill="#F2F2F2" d="M1364.9,463.2c0.9,4.9-3.3,9.2-8.2,8.2c-2.8-0.5-5-2.7-5.5-5.5c-0.9-4.9,3.3-9.2,8.2-8.2
	C1362.2,458.3,1364.4,460.5,1364.9,463.2z"/>
<circle fill="#F2F2F2" cx="1012.1" cy="194.4" r="7"/>
<circle fill="#F2F2F2" cx="625" cy="260" r="7"/>
<circle fill="#F2F2F2" cx="876" cy="264" r="7"/>
<circle fill="#F2F2F2" cx="1179.1" cy="124.1" r="7"/>
<circle fill="#F2F2F2" cx="1095.6" cy="30.1" r="7"/>
<circle fill="#F2F2F2" cx="1367.1" cy="94.1" r="7"/>
<circle fill="#F2F2F2" cx="622.3" cy="449.3" r="7"/>
<circle fill="#F2F2F2" cx="877.7" cy="451.7" r="7"/>
<circle fill="#F2F2F2" cx="1012.1" cy="471.8" r="7"/>
<circle fill="#F2F2F2" cx="1012.1" cy="332" r="7"/>
<circle fill="#F2F2F2" cx="747.4" cy="624" r="7"/>
<circle fill="#F2F2F2" cx="745" cy="23.1" r="7"/>
<line fill="none" stroke="#F2F2F2" stroke-miterlimit="10" x1="745" y1="23.1" x2="625" y2="260"/>
<line fill="none" stroke="#F2F2F2" stroke-miterlimit="10" x1="745" y1="23.1" x2="876" y2="260"/>
<line fill="none" stroke="#F2F2F2" stroke-miterlimit="10" x1="747.9" y1="624" x2="625.1" y2="454.7"/>
<line fill="none" stroke="#F2F2F2" stroke-miterlimit="10" x1="747.4" y1="624" x2="877.7" y2="451.7"/>
<line fill="none" stroke="#F2F2F2" stroke-miterlimit="10" x1="622.3" y1="260" x2="622.3" y2="449.3"/>
<line fill="none" stroke="#F2F2F2" stroke-miterlimit="10" x1="876" y1="264" x2="875" y2="451.7"/>
<path fill="none" stroke="#F2F2F2" stroke-miterlimit="10" d="M1012.1,201.4"/>
<path fill="none" stroke="#F2F2F2" stroke-miterlimit="10" d="M875,451.7"/>
<g>
	<g>
		<line fill="none" stroke="#F2F2F2" stroke-miterlimit="10" x1="479.6" y1="193.8" x2="260.1" y2="69.8"/>
		<g>
			<circle fill="#F2F2F2" cx="479.4" cy="193.7" r="3.8"/>
		</g>
		<g>
			<circle fill="#F2F2F2" cx="260.3" cy="69.9" r="3.8"/>
		</g>
	</g>
</g>
<g>
	<g>
		<line fill="none" stroke="#F2F2F2" stroke-miterlimit="10" x1="258.1" y1="70" x2="117.1" y2="162.1"/>
		<g>
			<circle fill="#F2F2F2" cx="258" cy="70.1" r="3.8"/>
		</g>
		<g>
			<circle fill="#F2F2F2" cx="117.3" cy="162" r="3.8"/>
		</g>
	</g>
</g>
<line fill="none" stroke="#F2F2F2" stroke-miterlimit="10" x1="876" y1="264" x2="1012.1" y2="194.4"/>
<line fill="none" stroke="#F2F2F2" stroke-miterlimit="10" x1="622.3" y1="260" x2="482.7" y2="195.6"/>
<line fill="none" stroke="#F2F2F2" stroke-miterlimit="10" x1="482.7" y1="473.3" x2="622.3" y2="449.3"/>
<line fill="none" stroke="#F2F2F2" stroke-miterlimit="10" x1="877.7" y1="451.7" x2="1012.1" y2="471.8"/>
<line fill="none" stroke="#F2F2F2" stroke-miterlimit="10" x1="622.3" y1="449.3" x2="877.7" y2="451.7"/>
<line fill="none" stroke="#F2F2F2" stroke-miterlimit="10" x1="623.3" y1="262.3" x2="875.7" y2="263.7"/>
<g>
	<g>
		<line fill="none" stroke="#F2F2F2" stroke-miterlimit="10" x1="479.1" y1="336.5" x2="245.4" y2="347.8"/>
		<g>
			<circle fill="#F2F2F2" cx="478.9" cy="336.5" r="3.8"/>
		</g>
		<g>
			<circle fill="#F2F2F2" cx="245.6" cy="347.8" r="3.8"/>
		</g>
	</g>
</g>
<g>
	<g>
		<line fill="none" stroke="#F2F2F2" stroke-miterlimit="10" x1="244" y1="348.2" x2="30.4" y2="518.7"/>
		<g>
			<circle fill="#F2F2F2" cx="243.8" cy="348.4" r="3.8"/>
		</g>
		<g>
			<circle fill="#F2F2F2" cx="30.6" cy="518.6" r="3.8"/>
		</g>
	</g>
</g>
<g>
	<g>
		<polyline fill="none" stroke="#F2F2F2" stroke-miterlimit="10" points="1015.4,193 1179.1,124.1 1304.9,241.6 		"/>
		<g>
			<circle fill="#F2F2F2" cx="1015.6" cy="193" r="3.8"/>
		</g>
		<g>
			<circle fill="#F2F2F2" cx="1304.8" cy="241.5" r="3.8"/>
		</g>
	</g>
</g>
<g>
	<g>
		<line fill="none" stroke="#F2F2F2" stroke-miterlimit="10" x1="1305" y1="246.2" x2="1490.6" y2="304"/>
		<g>
			<circle fill="#F2F2F2" cx="1305.1" cy="246.2" r="3.8"/>
		</g>
		<g>
			<circle fill="#F2F2F2" cx="1490.4" cy="304" r="3.8"/>
		</g>
	</g>
</g>
<line fill="none" stroke="#F2F2F2" stroke-miterlimit="10" x1="482.7" y1="473.3" x2="295.6" y2="256.1"/>
<line fill="none" stroke="#F2F2F2" stroke-miterlimit="10" x1="295.6" y1="256.1" x2="10.1" y2="209.1"/>
<polyline fill="none" stroke="#F2F2F2" stroke-miterlimit="10" points="482.7,195.6 602.7,184.1 896.7,184.4 1012.1,195.6 "/>
<polyline fill="none" stroke="#F2F2F2" stroke-miterlimit="10" points="482.7,473.3 599.6,503.3 896.7,503.1 1012.1,473.3 "/>
<line fill="none" stroke="#F2F2F2" stroke-miterlimit="10" x1="745" y1="23.6" x2="604.1" y2="185.4"/>
<line fill="none" stroke="#F2F2F2" stroke-miterlimit="10" x1="745" y1="23.1" x2="903.6" y2="184.4"/>
<line fill="none" stroke="#F2F2F2" stroke-miterlimit="10" x1="602.7" y1="184.1" x2="602.7" y2="503.3"/>
<line fill="none" stroke="#F2F2F2" stroke-miterlimit="10" x1="896.7" y1="184.4" x2="896.7" y2="501.8"/>
<line fill="none" stroke="#F2F2F2" stroke-miterlimit="10" x1="602.7" y1="503.3" x2="747.4" y2="624"/>
<line fill="none" stroke="#F2F2F2" stroke-miterlimit="10" x1="747.4" y1="624" x2="896.7" y2="501.8"/>
<path fill="none" stroke="#F2F2F2" stroke-miterlimit="10" d="M623.3,262.3"/>
<path fill="none" stroke="#F2F2F2" stroke-miterlimit="10" d="M482.7,473.3"/>
<path fill="none" stroke="#F2F2F2" stroke-miterlimit="10" d="M1012.1,471.8"/>
<path fill="none" stroke="#F2F2F2" stroke-miterlimit="10" d="M875.7,263.7"/>
<line fill="none" stroke="#F2F2F2" stroke-miterlimit="10" x1="1012.1" y1="473.3" x2="1163.6" y2="508.1"/>
<line fill="none" stroke="#F2F2F2" stroke-miterlimit="10" x1="1163.6" y1="508.1" x2="1358.1" y2="464.6"/>
<line fill="none" stroke="#F2F2F2" stroke-miterlimit="10" x1="1012.1" y1="332" x2="1179.1" y2="256.1"/>
<line fill="none" stroke="#F2F2F2" stroke-miterlimit="10" x1="1179.1" y1="256.1" x2="1297.1" y2="340.6"/>
<line fill="none" stroke="#F2F2F2" stroke-miterlimit="10" x1="1297.1" y1="340.6" x2="1477.1" y2="182.2"/>
<line fill="none" stroke="#F2F2F2" stroke-miterlimit="10" x1="602.7" y1="503.3" x2="475.7" y2="624"/>
<line fill="none" stroke="#F2F2F2" stroke-miterlimit="10" x1="475.7" y1="624" x2="286.6" y2="571.1"/>
<line fill="none" stroke="#F2F2F2" stroke-miterlimit="10" x1="286.6" y1="571.1" x2="114.1" y2="650"/>
<line fill="none" stroke="#F2F2F2" stroke-miterlimit="10" x1="896.7" y1="501.8" x2="1084.6" y2="610.5"/>
<line fill="none" stroke="#F2F2F2" stroke-miterlimit="10" x1="1084.6" y1="610.5" x2="1307.6" y2="562.6"/>
<line fill="none" stroke="#F2F2F2" stroke-miterlimit="10" x1="1307.6" y1="562.6" x2="1500" y2="650"/>
<line fill="none" stroke="#F2F2F2" stroke-miterlimit="10" x1="602.7" y1="184.1" x2="459.7" y2="87.1"/>
<line fill="none" stroke="#F2F2F2" stroke-miterlimit="10" x1="459.7" y1="87.1" x2="277.1" y2="174.6"/>
<line fill="none" stroke="#F2F2F2" stroke-miterlimit="10" x1="277.1" y1="174.6" x2="0" y2="10.1"/>
<line fill="none" stroke="#F2F2F2" stroke-miterlimit="10" x1="896.7" y1="183.1" x2="1095.6" y2="30.1"/>
<line fill="none" stroke="#F2F2F2" stroke-miterlimit="10" x1="1095.6" y1="30.1" x2="1367.1" y2="94.1"/>
<line fill="none" stroke="#F2F2F2" stroke-miterlimit="10" x1="1367.1" y1="94.1" x2="1500" y2="0"/>
</svg>
