<?xml version="1.0" encoding="utf-8"?>
<!-- Generator: Adobe Illustrator 18.0.0, SVG Export Plug-In . SVG Version: 6.00 Build 0)  -->
<!DOCTYPE svg PUBLIC "-//W3C//DTD SVG 1.1//EN" "http://www.w3.org/Graphics/SVG/1.1/DTD/svg11.dtd">
<svg version="1.1" id="Layer_1" xmlns="http://www.w3.org/2000/svg" xmlns:xlink="http://www.w3.org/1999/xlink" x="0px" y="0px"
	 viewBox="0 0 20 20" enable-background="new 0 0 20 20" xml:space="preserve">
<path fill="#4D4D4D" d="M-104.4,16.5c0,0.6-0.5,1.2-1.2,1.2h-9.1c-0.6,0-1.2-0.5-1.2-1.2c0-0.1,0-0.1,0-0.2l3.1-8.2c0,0,0,0,0,0V3.3
	h-0.4c-0.3,0-0.5-0.2-0.5-0.5c0-0.3,0.2-0.5,0.5-0.5h0.9c0.3,0,0.5,0.2,0.5,0.5V8c0,0,0,0.1,0,0.1c0,0.1,0,0.1,0,0.2l-1.9,5h6.8
	l-2-5c0-0.1,0-0.1,0-0.2l0,0c0,0,0,0,0-0.1V2.8c0-0.3,0.2-0.5,0.5-0.5h0.9c0.3,0,0.5,0.2,0.5,0.5c0,0.3-0.2,0.5-0.5,0.5h-0.4V8
	l3.2,8.2C-104.4,16.3-104.4,16.4-104.4,16.5z"/>
<g>
	<g>
		<path fill="#4D4D4D" d="M-30.6,3.2h-15c-0.3,0-0.5,0.2-0.5,0.5v12.5c0,0.3,0.2,0.5,0.5,0.5h15c0.3,0,0.5-0.2,0.5-0.5V3.7
			C-30.1,3.4-30.4,3.2-30.6,3.2z M-31.1,4.2v2h-14v-2H-31.1z M-45.1,15.7V7.2h14v8.5H-45.1z"/>
		<path fill="#4D4D4D" d="M-43.6,5.7c0.1,0,0.3-0.1,0.4-0.1c0.1-0.1,0.1-0.2,0.1-0.4s-0.1-0.3-0.1-0.4c-0.2-0.2-0.5-0.2-0.7,0
			c-0.1,0.1-0.1,0.2-0.1,0.4c0,0.1,0.1,0.3,0.1,0.4C-43.9,5.6-43.8,5.7-43.6,5.7z"/>
		<path fill="#4D4D4D" d="M-42.1,5.7c0.1,0,0.3-0.1,0.4-0.1c0.1-0.1,0.1-0.2,0.1-0.4s-0.1-0.3-0.1-0.4c-0.2-0.2-0.5-0.2-0.7,0
			c-0.1,0.1-0.1,0.2-0.1,0.4s0.1,0.3,0.1,0.4C-42.4,5.6-42.3,5.7-42.1,5.7z"/>
		<path fill="#4D4D4D" d="M-40.6,5.7c0.1,0,0.3-0.1,0.4-0.1c0.1-0.1,0.1-0.2,0.1-0.4c0-0.1-0.1-0.3-0.1-0.4c-0.2-0.2-0.5-0.2-0.7,0
			c-0.1,0.1-0.1,0.2-0.1,0.4c0,0.1,0.1,0.3,0.1,0.4C-40.9,5.6-40.8,5.7-40.6,5.7z"/>
		<path fill="#4D4D4D" d="M-38.4,8.2h-5.3c-0.3,0-0.5,0.2-0.5,0.5s0.2,0.5,0.5,0.5h5.3c0.3,0,0.5-0.2,0.5-0.5S-38.1,8.2-38.4,8.2z"
			/>
		<path fill="#4D4D4D" d="M-38.4,10.2h-5.3c-0.3,0-0.5,0.2-0.5,0.5s0.2,0.5,0.5,0.5h5.3c0.3,0,0.5-0.2,0.5-0.5S-38.1,10.2-38.4,10.2
			z"/>
		<path fill="#4D4D4D" d="M-38.4,12.2h-5.3c-0.3,0-0.5,0.2-0.5,0.5c0,0.3,0.2,0.5,0.5,0.5h5.3c0.3,0,0.5-0.2,0.5-0.5
			C-37.9,12.4-38.1,12.2-38.4,12.2z"/>
		<path fill="#4D4D4D" d="M-32.6,8.2h-3.8c-0.3,0-0.5,0.2-0.5,0.5v4c0,0.3,0.2,0.5,0.5,0.5h3.8c0.3,0,0.5-0.2,0.5-0.5v-4
			C-32.1,8.4-32.4,8.2-32.6,8.2z M-33.1,12.2h-2.8v-3h2.8V12.2z"/>
	</g>
</g>
<g>
	<g>
		<path fill="#4D4D4D" d="M-68.1,4.3h-13.2c-0.5,0-0.9,0.4-0.9,0.9v9.4c0,0.5,0.4,0.9,0.9,0.9h13.2c0.5,0,0.9-0.4,0.9-0.9V5.2
			C-67.2,4.7-67.6,4.3-68.1,4.3z M-76.9,10.9l2.2,1.5l2.2-1.5l3.8,3.8h-11.9L-76.9,10.9z M-81.3,14V7.9l3.6,2.5L-81.3,14z
			 M-71.8,10.4l3.6-2.5V14L-71.8,10.4z M-68.1,5.2v1.5l0,0l-6.6,4.5l-6.6-4.5V5.2H-68.1z"/>
	</g>
</g>
<g>
	<path fill="#4D4D4D" d="M3.6,19.6c0,0,0,0.4,0.4,0.4c0.5,0,4.4,0,4.4,0l0-3.6c0,0-0.1-0.6,0.5-0.6h1.8c0.7,0,0.6,0.6,0.6,0.6l0,3.6
		c0,0,3.7,0,4.3,0c0.5,0,0.5-0.5,0.5-0.5v-7.6l-6-5.4l-6.4,5.4V19.6z"/>
	<path fill="#4D4D4D" d="M1.2,12.4c0,0,0.5,1,1.7,0l7.1,1l6.6-1c1.4,1,1.9,0,1.9,0L10,4.6L1.2,12.4z"/>
</g>
<text transform="matrix(1 0 0 1 -144.7345 16.702)" fill="#4D4D4D" font-family="'MyriadPro-Regular'" font-size="20.8557">i</text>
</svg>
