<?xml version="1.0" encoding="utf-8"?>
<!-- Generator: Adobe Illustrator 18.0.0, SVG Export Plug-In . SVG Version: 6.00 Build 0)  -->
<!DOCTYPE svg PUBLIC "-//W3C//DTD SVG 1.1//EN" "http://www.w3.org/Graphics/SVG/1.1/DTD/svg11.dtd">
<svg version="1.1" id="Layer_1" xmlns="http://www.w3.org/2000/svg" xmlns:xlink="http://www.w3.org/1999/xlink" x="0px" y="0px"
	 viewBox="0 0 50 50" enable-background="new 0 0 50 50" xml:space="preserve">
<circle fill="none" stroke="#CCCCCC" stroke-width="2" stroke-miterlimit="10" cx="25.2" cy="24.2" r="23.2"/>
<polygon fill="none" stroke="#546778" stroke-miterlimit="10" points="-9,31.6 -28.2,31.5 -24.5,21.5 -12.4,21.1 "/>
<g>
	<path fill="#E6E6E6" d="M-27.9-18.9h-2.6c-0.4,0-0.8,0.3-0.8,0.8v2.5l-1.3,0.5l-2-2c-0.3-0.3-0.8-0.3-1.1,0l-3.1,3.1
		c-0.3,0.3-0.3,0.8,0,1.1l2,2l-0.4,1.3h-2.5c-0.4,0-0.8,0.3-0.8,0.8v4.6c0,0.4,0.3,0.8,0.8,0.8h2.5l0.4,1.3l-2,2
		c-0.3,0.3-0.3,0.8,0,1.1l3.1,3.1c0.3,0.3,0.8,0.3,1.1,0l2-2l0.3,0.1l0.7-1.4l-0.9-0.3c-0.3-0.1-0.6,0-0.8,0.2l-1.8,1.8l-2-2
		l1.8-1.8c0.2-0.2,0.3-0.5,0.2-0.8l-0.8-2.3c-0.1-0.3-0.4-0.5-0.7-0.5h-2.3v-3.1h2.3c0.3,0,0.6-0.2,0.7-0.5l0.8-2.3
		c0.1-0.3,0-0.6-0.2-0.8l-1.8-1.8l2-2l1.8,1.8c0.2,0.2,0.5,0.3,0.8,0.2l2.3-0.8c0.3-0.1,0.5-0.4,0.5-0.7v-2.3h1.9L-27.9-18.9z"/>
</g>
<path fill="#E6E6E6" d="M16.1,27v2.5c0,0.3,0.2,0.5,0.5,0.5H18c0.2,1.5,0.8,2.9,1.7,4.1l-1,1c-0.2,0.2-0.2,0.5,0,0.7l1.8,1.8
	c0.2,0.2,0.5,0.2,0.7,0l0.9-0.9c1.2,0.9,2.6,1.5,4.1,1.7v1.3c0,0.3,0.2,0.5,0.5,0.5h2.5c0.3,0,0.5-0.2,0.5-0.5v-1.3
	c1.5-0.3,2.9-0.9,4.2-1.8l0.9,0.9c0.1,0.1,0.2,0.2,0.4,0.2c0.1,0,0.3-0.1,0.4-0.2l1.8-1.8c0.2-0.2,0.2-0.5,0-0.7l-0.9-0.9
	c0.8-1.2,1.4-2.6,1.6-4.1h1.3c0.3,0,0.5-0.2,0.5-0.5V27c0-0.3-0.2-0.5-0.5-0.5h-1.3c-0.3-1.4-0.9-2.8-1.7-4l1-1
	c0.1-0.1,0.2-0.2,0.2-0.4c0-0.1-0.1-0.3-0.2-0.4l-1.8-1.8c-0.2-0.2-0.5-0.2-0.7,0l-1,1c-1.2-0.8-2.6-1.4-4-1.6v-1.5
	c0-0.3-0.2-0.5-0.5-0.5h-2.5c-0.3,0-0.5,0.2-0.5,0.5v1.5c-1.4,0.3-2.8,0.8-4,1.6l-1-1c-0.2-0.2-0.5-0.2-0.7,0l-1.8,1.8
	c-0.1,0.1-0.2,0.2-0.2,0.4c0,0.1,0.1,0.3,0.2,0.4l1,1c-0.9,1.2-1.5,2.6-1.7,4h-1.5C16.3,26.5,16.1,26.7,16.1,27z M22.5,28.3
	c0-3.1,2.5-5.6,5.6-5.6c3.1,0,5.6,2.5,5.6,5.6c0,3.1-2.5,5.6-5.6,5.6C25,33.8,22.5,31.3,22.5,28.3z M28,26.1c1.2,0,2.1,0.9,2.1,2.1
	c0,1.2-0.9,2.1-2.1,2.1s-2.1-0.9-2.1-2.1C25.9,27.1,26.9,26.1,28,26.1z M8.3,16.8l0.6,1.3c0.1,0.1,0.3,0.2,0.4,0.2L10,18
	c0.5,0.7,1.1,1.3,1.8,1.8l-0.3,0.7c-0.1,0.2,0,0.3,0.2,0.4l1.3,0.5c0.2,0.1,0.3,0,0.4-0.2l0.3-0.7c0.9,0.2,1.7,0.2,2.6-0.1l0.3,0.7
	c0,0.1,0.1,0.1,0.2,0.2c0.1,0,0.2,0,0.2,0l1.3-0.6c0.2-0.1,0.2-0.2,0.2-0.4l-0.3-0.7c0.7-0.5,1.3-1.1,1.7-1.8l0.7,0.3
	c0.2,0.1,0.3,0,0.4-0.2l0.5-1.3c0.1-0.2,0-0.3-0.2-0.4l-0.7-0.3c0.2-0.8,0.1-1.7-0.1-2.5l0.7-0.3c0.1,0,0.1-0.1,0.2-0.2
	c0-0.1,0-0.2,0-0.2l-0.6-1.3c-0.1-0.2-0.2-0.2-0.4-0.2l-0.8,0.3c-0.5-0.7-1.1-1.3-1.8-1.7L18.3,9c0.1-0.2,0-0.3-0.2-0.4l-1.3-0.5
	c-0.2-0.1-0.3,0-0.4,0.2l-0.3,0.8c-0.8-0.2-1.6-0.2-2.4,0l-0.3-0.8c-0.1-0.1-0.2-0.2-0.4-0.2l-1.3,0.6c-0.1,0-0.1,0.1-0.2,0.2
	c0,0.1,0,0.2,0,0.2l0.3,0.8C11,10.3,10.4,11,10,11.7l-0.8-0.3c-0.2-0.1-0.3,0-0.4,0.2l-0.5,1.3c-0.1,0.2,0,0.3,0.2,0.4l0.8,0.3
	c-0.2,0.8-0.2,1.7,0,2.5l-0.7,0.3C8.3,16.5,8.3,16.6,8.3,16.8z M11.9,13.5c0.7-1.6,2.5-2.4,4.1-1.8c1.6,0.7,2.4,2.5,1.8,4.1
	c-0.7,1.6-2.5,2.4-4.1,1.8C12.1,17,11.3,15.2,11.9,13.5z M15.3,13.6c0.6,0.2,0.9,0.9,0.7,1.6c-0.2,0.6-0.9,0.9-1.6,0.7
	c-0.6-0.2-0.9-1-0.7-1.6C14,13.7,14.7,13.4,15.3,13.6z"/>
</svg>
