<?xml version="1.0" encoding="utf-8"?>
<!-- Generator: Adobe Illustrator 18.0.0, SVG Export Plug-In . SVG Version: 6.00 Build 0)  -->
<!DOCTYPE svg PUBLIC "-//W3C//DTD SVG 1.1//EN" "http://www.w3.org/Graphics/SVG/1.1/DTD/svg11.dtd">
<svg version="1.1" id="Layer_1" xmlns="http://www.w3.org/2000/svg" xmlns:xlink="http://www.w3.org/1999/xlink" x="0px" y="0px"
	 viewBox="0 0 20 20" enable-background="new 0 0 20 20" xml:space="preserve">
<path fill="#4D4D4D" d="M-56,16.5c0,0.6-0.5,1.2-1.2,1.2h-9.1c-0.6,0-1.2-0.5-1.2-1.2c0-0.1,0-0.1,0-0.2l3.1-8.2c0,0,0,0,0,0V3.3
	h-0.4c-0.3,0-0.5-0.2-0.5-0.5c0-0.3,0.2-0.5,0.5-0.5h0.9c0.3,0,0.5,0.2,0.5,0.5V8c0,0,0,0.1,0,0.1c0,0.1,0,0.1,0,0.2l-1.9,5h6.8
	l-2-5c0-0.1,0-0.1,0-0.2l0,0c0,0,0,0,0-0.1V2.8c0-0.3,0.2-0.5,0.5-0.5h0.9c0.3,0,0.5,0.2,0.5,0.5c0,0.3-0.2,0.5-0.5,0.5h-0.4V8
	l3.2,8.2C-56,16.3-56,16.4-56,16.5z"/>
<g>
	<g>
		<path fill="#4D4D4D" d="M17.8,3.2h-15c-0.3,0-0.5,0.2-0.5,0.5v12.5c0,0.3,0.2,0.5,0.5,0.5h15c0.3,0,0.5-0.2,0.5-0.5V3.7
			C18.3,3.4,18.1,3.2,17.8,3.2z M17.3,4.2v2h-14v-2H17.3z M3.3,15.7V7.2h14v8.5H3.3z"/>
		<path fill="#4D4D4D" d="M4.8,5.7c0.1,0,0.3-0.1,0.4-0.1c0.1-0.1,0.1-0.2,0.1-0.4S5.3,4.9,5.2,4.8C5,4.7,4.7,4.7,4.5,4.8
			C4.4,4.9,4.3,5.1,4.3,5.2c0,0.1,0.1,0.3,0.1,0.4C4.6,5.6,4.7,5.7,4.8,5.7z"/>
		<path fill="#4D4D4D" d="M6.3,5.7c0.1,0,0.3-0.1,0.4-0.1c0.1-0.1,0.1-0.2,0.1-0.4S6.8,4.9,6.7,4.8C6.5,4.7,6.2,4.7,6,4.8
			C5.9,4.9,5.8,5.1,5.8,5.2S5.9,5.5,6,5.6C6.1,5.6,6.2,5.7,6.3,5.7z"/>
		<path fill="#4D4D4D" d="M7.8,5.7c0.1,0,0.3-0.1,0.4-0.1c0.1-0.1,0.1-0.2,0.1-0.4c0-0.1-0.1-0.3-0.1-0.4C8,4.7,7.7,4.7,7.5,4.8
			C7.4,4.9,7.3,5.1,7.3,5.2c0,0.1,0.1,0.3,0.1,0.4C7.6,5.6,7.7,5.7,7.8,5.7z"/>
		<path fill="#4D4D4D" d="M10.1,8.2H4.8c-0.3,0-0.5,0.2-0.5,0.5s0.2,0.5,0.5,0.5h5.3c0.3,0,0.5-0.2,0.5-0.5S10.4,8.2,10.1,8.2z"/>
		<path fill="#4D4D4D" d="M10.1,10.2H4.8c-0.3,0-0.5,0.2-0.5,0.5s0.2,0.5,0.5,0.5h5.3c0.3,0,0.5-0.2,0.5-0.5S10.4,10.2,10.1,10.2z"
			/>
		<path fill="#4D4D4D" d="M10.1,12.2H4.8c-0.3,0-0.5,0.2-0.5,0.5c0,0.3,0.2,0.5,0.5,0.5h5.3c0.3,0,0.5-0.2,0.5-0.5
			C10.6,12.4,10.4,12.2,10.1,12.2z"/>
		<path fill="#4D4D4D" d="M15.8,8.2h-3.8c-0.3,0-0.5,0.2-0.5,0.5v4c0,0.3,0.2,0.5,0.5,0.5h3.8c0.3,0,0.5-0.2,0.5-0.5v-4
			C16.3,8.4,16.1,8.2,15.8,8.2z M15.3,12.2h-2.8v-3h2.8V12.2z"/>
	</g>
</g>
<g>
	<g>
		<path fill="#4D4D4D" d="M-19.7,4.3h-13.2c-0.5,0-0.9,0.4-0.9,0.9v9.4c0,0.5,0.4,0.9,0.9,0.9h13.2c0.5,0,0.9-0.4,0.9-0.9V5.2
			C-18.7,4.7-19.1,4.3-19.7,4.3z M-28.5,10.9l2.2,1.5l2.2-1.5l3.8,3.8h-11.9L-28.5,10.9z M-32.9,14V7.9l3.6,2.5L-32.9,14z
			 M-23.3,10.4l3.6-2.5V14L-23.3,10.4z M-19.7,5.2v1.5l0,0l-6.6,4.5l-6.6-4.5V5.2H-19.7z"/>
	</g>
</g>
<g>
	<path fill="#4D4D4D" d="M52,16.5c0,0,0,0.4,0.4,0.4c0.5,0,4.4,0,4.4,0l0-3.6c0,0-0.1-0.6,0.5-0.6h1.8c0.7,0,0.6,0.6,0.6,0.6l0,3.6
		c0,0,3.7,0,4.3,0c0.5,0,0.5-0.5,0.5-0.5V9.8l-6-5.4L52,9.8V16.5z"/>
	<path fill="#4D4D4D" d="M49.7,9.3c0,0,0.5,1,1.7,0l7.1-6l6.6,6c1.4,1,1.9,0,1.9,0l-8.5-7.7L49.7,9.3z"/>
	<polygon fill="#4D4D4D" points="65,3.3 63.3,3.3 63.3,5.3 65,6.8 	"/>
</g>
<text transform="matrix(1 0 0 1 -96.2648 16.702)" fill="#4D4D4D" font-family="'MyriadPro-Regular'" font-size="20.8557">i</text>
</svg>
