<?xml version="1.0" encoding="utf-8"?>
<!-- Generator: Adobe Illustrator 18.0.0, SVG Export Plug-In . SVG Version: 6.00 Build 0)  -->
<!DOCTYPE svg PUBLIC "-//W3C//DTD SVG 1.1//EN" "http://www.w3.org/Graphics/SVG/1.1/DTD/svg11.dtd">
<svg version="1.1" id="Layer_1" xmlns="http://www.w3.org/2000/svg" xmlns:xlink="http://www.w3.org/1999/xlink" x="0px" y="0px"
	 viewBox="0 0 50 50" enable-background="new 0 0 50 50" xml:space="preserve">
<polygon fill="none" stroke="#546778" stroke-miterlimit="10" points="-9,31.6 -28.2,31.5 -24.5,21.5 -12.4,21.1 "/>
<g>
	<path fill="#E6E6E6" d="M-91.4-34.6l-2.3-1.3c-0.4-0.2-0.8-0.1-1,0.3l-1.2,2.2l-1.4-0.3l-0.8-2.7c-0.1-0.4-0.5-0.6-0.9-0.5
		l-4.2,1.2c-0.4,0.1-0.6,0.5-0.5,0.9l0.8,2.7l-1,0.9l-2.2-1.2c-0.4-0.2-0.8-0.1-1,0.3l-2.2,4c-0.2,0.4-0.1,0.8,0.3,1l2.2,1.2
		l-0.3,1.4l-2.7,0.8c-0.4,0.1-0.6,0.5-0.5,0.9l1.2,4.2c0.1,0.4,0.5,0.6,0.9,0.5l2.7-0.8l0.2,0.2l1.3-0.9l-0.7-0.7
		c-0.2-0.2-0.5-0.3-0.8-0.2l-2.4,0.7l-0.8-2.7l2.4-0.7c0.3-0.1,0.5-0.3,0.5-0.6l0.5-2.4c0.1-0.3-0.1-0.7-0.4-0.8l-2-1.1l1.5-2.7
		l2,1.1c0.3,0.2,0.6,0.1,0.9-0.1l1.8-1.6c0.2-0.2,0.3-0.5,0.2-0.8l-0.7-2.4l2.7-0.8l0.7,2.4c0.1,0.3,0.3,0.5,0.6,0.5l2.4,0.4
		c0.3,0.1,0.6-0.1,0.8-0.4l1.1-2l1.6,0.9L-91.4-34.6z"/>
</g>
<path fill="#E6E6E6" d="M100.7,7.9v2.5c0,0.3,0.2,0.5,0.5,0.5h1.4c0.2,1.5,0.8,2.9,1.7,4.1l-1,1c-0.2,0.2-0.2,0.5,0,0.7l1.8,1.8
	c0.2,0.2,0.5,0.2,0.7,0l0.9-0.9c1.2,0.9,2.6,1.5,4.1,1.7v1.3c0,0.3,0.2,0.5,0.5,0.5h2.5c0.3,0,0.5-0.2,0.5-0.5v-1.3
	c1.5-0.3,2.9-0.9,4.2-1.8l0.9,0.9c0.1,0.1,0.2,0.2,0.4,0.2c0.1,0,0.3-0.1,0.4-0.2l1.8-1.8c0.2-0.2,0.2-0.5,0-0.7l-0.9-0.9
	c0.8-1.2,1.4-2.6,1.6-4.1h1.3c0.3,0,0.5-0.2,0.5-0.5V7.9c0-0.3-0.2-0.5-0.5-0.5h-1.3c-0.3-1.4-0.9-2.8-1.7-4l1-1
	c0.1-0.1,0.2-0.2,0.2-0.4c0-0.1-0.1-0.3-0.2-0.4l-1.8-1.8c-0.2-0.2-0.5-0.2-0.7,0l-1,1c-1.2-0.8-2.6-1.4-4-1.6v-1.5
	c0-0.3-0.2-0.5-0.5-0.5h-2.5c-0.3,0-0.5,0.2-0.5,0.5v1.5c-1.4,0.3-2.8,0.8-4,1.6l-1-1c-0.2-0.2-0.5-0.2-0.7,0l-1.8,1.8
	c-0.1,0.1-0.2,0.2-0.2,0.4c0,0.1,0.1,0.3,0.2,0.4l1,1c-0.9,1.2-1.5,2.6-1.7,4h-1.5C101,7.4,100.7,7.6,100.7,7.9z M107.1,9.2
	c0-3.1,2.5-5.6,5.6-5.6c3.1,0,5.6,2.5,5.6,5.6c0,3.1-2.5,5.6-5.6,5.6C109.6,14.8,107.1,12.3,107.1,9.2z M112.7,7.1
	c1.2,0,2.1,0.9,2.1,2.1c0,1.2-0.9,2.1-2.1,2.1s-2.1-0.9-2.1-2.1C110.6,8,111.5,7.1,112.7,7.1z M93-2.3L93.6-1
	c0.1,0.1,0.3,0.2,0.4,0.2l0.7-0.3c0.5,0.7,1.1,1.3,1.8,1.8l-0.3,0.7c-0.1,0.2,0,0.3,0.2,0.4l1.3,0.5c0.2,0.1,0.3,0,0.4-0.2l0.3-0.7
	c0.9,0.2,1.7,0.2,2.6-0.1l0.3,0.7c0,0.1,0.1,0.1,0.2,0.2c0.1,0,0.2,0,0.2,0l1.3-0.6c0.2-0.1,0.2-0.2,0.2-0.4l-0.3-0.7
	c0.7-0.5,1.3-1.1,1.7-1.8l0.7,0.3c0.2,0.1,0.3,0,0.4-0.2l0.5-1.3c0.1-0.2,0-0.3-0.2-0.4l-0.7-0.3c0.2-0.8,0.1-1.7-0.1-2.5L106-6
	c0.1,0,0.1-0.1,0.2-0.2c0-0.1,0-0.2,0-0.2l-0.6-1.3c-0.1-0.2-0.2-0.2-0.4-0.2l-0.8,0.3c-0.5-0.7-1.1-1.3-1.8-1.7L103-10
	c0.1-0.2,0-0.3-0.2-0.4l-1.3-0.5c-0.2-0.1-0.3,0-0.4,0.2l-0.3,0.8c-0.8-0.2-1.6-0.2-2.4,0L98-10.8c-0.1-0.1-0.2-0.2-0.4-0.2
	l-1.3,0.6c-0.1,0-0.1,0.1-0.2,0.2c0,0.1,0,0.2,0,0.2l0.3,0.8c-0.7,0.5-1.3,1.1-1.8,1.8l-0.8-0.3c-0.2-0.1-0.3,0-0.4,0.2l-0.5,1.3
	c-0.1,0.2,0,0.3,0.2,0.4l0.8,0.3c-0.2,0.8-0.2,1.7,0,2.5l-0.7,0.3C93-2.6,92.9-2.4,93-2.3z M96.6-5.5c0.7-1.6,2.5-2.4,4.1-1.8
	c1.6,0.7,2.4,2.5,1.8,4.1c-0.7,1.6-2.5,2.4-4.1,1.8C96.7-2.1,95.9-3.9,96.6-5.5z M100-5.5c0.6,0.2,0.9,0.9,0.7,1.6
	c-0.2,0.6-0.9,0.9-1.6,0.7c-0.6-0.2-0.9-1-0.7-1.6C98.7-5.4,99.4-5.7,100-5.5z"/>
<g>
	<g>
		<path fill="#E6E6E6" d="M-106.6,6.3h-7.2v2.9c0,0.8-0.6,1.4-1.4,1.4h0.7c1.2,0,2.2-1,2.2-2.2c0-0.3,0-0.5,0-0.7h5.8v15.8h-20.1
			V7.8h5.8c0,0.2,0,0.4,0,0.7c0,1.2,1,2.2,2.2,2.2h0.7c-0.8,0-1.4-0.6-1.4-1.4V6.3h-7.2c-0.8,0-1.4,0.6-1.4,1.4v15.8
			c0,0.8,0.6,1.4,1.4,1.4h20.1c0.8,0,1.4-0.6,1.4-1.4V7.8C-105.1,7-105.8,6.3-106.6,6.3z M-108.6,16.4h-8.7c-0.4,0-0.7,0.3-0.7,0.7
			s0.3,0.7,0.7,0.7h8.7c0.4,0,0.7-0.3,0.7-0.7S-108.2,16.4-108.6,16.4z M-108.6,19.2h-8.7c-0.4,0-0.7,0.3-0.7,0.7s0.3,0.7,0.7,0.7
			h8.7c0.4,0,0.7-0.3,0.7-0.7S-108.2,19.2-108.6,19.2z M-117.3,14.9h8.7c0.4,0,0.7-0.3,0.7-0.7s-0.3-0.7-0.7-0.7h-8.7
			c-0.4,0-0.7,0.3-0.7,0.7S-117.7,14.9-117.3,14.9z M-124.1,13.8c0,1,0.8,1.7,1.7,1.7c1,0,1.7-0.8,1.7-1.7v0c0-1-0.8-1.7-1.7-1.7
			C-123.3,12.1-124.1,12.8-124.1,13.8L-124.1,13.8z M-122.3,16.2c-1.6,0-2.8,1.7-2.8,3.8s5.7,2.1,5.7,0S-120.8,16.2-122.3,16.2z
			 M-119.5,9.2c0,0.8,0.6,1.4,1.4,1.4h2.9c0.8,0,1.4-0.6,1.4-1.4V6.3V3.4c0-0.8-0.6-1.4-1.4-1.4h-2.9c-0.8,0-1.4,0.6-1.4,1.4v2.9
			V9.2z M-115.2,9.2h-2.9V3.4h2.9V9.2z"/>
	</g>
</g>
<g>
	<g>
		<path fill="#798B99" d="M126.4,47v1.6h1.4V47H126.4z M126.4,53.4V55h1.4v-1.6H126.4z M126.4,56.5v0.3h-7.5
			c-0.1,0.1-0.1,0.3-0.1,0.5c0,0.4,0.4,0.8,0.8,0.8h8.1c0.1-0.1,0.2-0.3,0.2-0.5v-1.1H126.4z M115.5,58.3h1.6v-1.4h-1.6V58.3z
			 M126.4,50.2v1.6h1.4v-1.6H126.4z M126.4,42.3v1h-10.8v1.4h1.6v-0.9h10.7v-1.6H126.4z M123.9,44.7h0.7
			C124.4,44.6,124.1,44.6,123.9,44.7z M121.5,44.7h0.7C122,44.6,121.8,44.6,121.5,44.7z M119.2,44.7h0.7
			C119.6,44.6,119.4,44.6,119.2,44.7z"/>
		<path fill="#FFFFFF" d="M127.8,39.7v0.8h-1.4v-0.1h-20v2.9h7.7v1.4h-7.7v12.2h7.7v1.4h-8.4c-0.4,0-0.7-0.3-0.7-0.7V39.7
			c0-0.4,0.3-0.7,0.7-0.7h21.5C127.5,39,127.8,39.3,127.8,39.7z"/>
	</g>
</g>
<g>
	<path fill="#FFFFFF" d="M137,50.2h-6c-0.4,0-0.8,0.4-0.8,0.8v6.4c0,0.4,0.4,0.8,0.8,0.8h6c0.4,0,0.8-0.4,0.8-0.8V51
		C137.8,50.5,137.4,50.2,137,50.2z M136.2,56.5h-4.4v-4.8h4.4V56.5z"/>
	<path fill="#FFFFFF" d="M120.1,44.9c-0.1-0.1-0.1-0.1-0.2-0.1c-0.2-0.1-0.5-0.1-0.7,0c-0.1,0-0.2,0.1-0.2,0.2
		c-0.1,0.1-0.2,0.3-0.2,0.6s0.1,0.4,0.2,0.6c0.1,0.1,0.4,0.2,0.6,0.2c0.2,0,0.4-0.1,0.6-0.2c0.2-0.1,0.2-0.4,0.2-0.6
		S120.2,45,120.1,44.9z M122.4,44.9c-0.1-0.1-0.1-0.1-0.2-0.1c-0.2-0.1-0.5-0.1-0.7,0c-0.1,0-0.2,0.1-0.2,0.2
		c-0.1,0.1-0.2,0.4-0.2,0.6s0.1,0.4,0.2,0.6c0.1,0.1,0.4,0.2,0.6,0.2c0.2,0,0.4-0.1,0.6-0.2c0.1-0.1,0.2-0.4,0.2-0.6
		S122.6,45,122.4,44.9z M124.8,44.9c-0.1-0.1-0.1-0.1-0.2-0.1c-0.2-0.1-0.5-0.1-0.7,0c-0.1,0-0.2,0.1-0.2,0.2
		c-0.1,0.1-0.2,0.4-0.2,0.6c0,0.2,0.1,0.4,0.2,0.6c0.1,0.2,0.4,0.2,0.6,0.2c0.2,0,0.4-0.1,0.6-0.2c0.2-0.1,0.2-0.4,0.2-0.6
		C125.1,45.2,125,45,124.8,44.9z M124.8,44.9c-0.1-0.1-0.1-0.1-0.2-0.1c-0.2-0.1-0.5-0.1-0.7,0c-0.1,0-0.2,0.1-0.2,0.2
		c-0.1,0.1-0.2,0.4-0.2,0.6c0,0.2,0.1,0.4,0.2,0.6c0.1,0.2,0.4,0.2,0.6,0.2c0.2,0,0.4-0.1,0.6-0.2c0.2-0.1,0.2-0.4,0.2-0.6
		C125.1,45.2,125,45,124.8,44.9z M122.4,44.9c-0.1-0.1-0.1-0.1-0.2-0.1c-0.2-0.1-0.5-0.1-0.7,0c-0.1,0-0.2,0.1-0.2,0.2
		c-0.1,0.1-0.2,0.4-0.2,0.6s0.1,0.4,0.2,0.6c0.1,0.1,0.4,0.2,0.6,0.2c0.2,0,0.4-0.1,0.6-0.2c0.1-0.1,0.2-0.4,0.2-0.6
		S122.6,45,122.4,44.9z M120.1,44.9c-0.1-0.1-0.1-0.1-0.2-0.1c-0.2-0.1-0.5-0.1-0.7,0c-0.1,0-0.2,0.1-0.2,0.2
		c-0.1,0.1-0.2,0.3-0.2,0.6s0.1,0.4,0.2,0.6c0.1,0.1,0.4,0.2,0.6,0.2c0.2,0,0.4-0.1,0.6-0.2c0.2-0.1,0.2-0.4,0.2-0.6
		S120.2,45,120.1,44.9z M120.1,44.9c-0.1-0.1-0.1-0.1-0.2-0.1c-0.2-0.1-0.5-0.1-0.7,0c-0.1,0-0.2,0.1-0.2,0.2
		c-0.1,0.1-0.2,0.3-0.2,0.6s0.1,0.4,0.2,0.6c0.1,0.1,0.4,0.2,0.6,0.2c0.2,0,0.4-0.1,0.6-0.2c0.2-0.1,0.2-0.4,0.2-0.6
		S120.2,45,120.1,44.9z M122.4,44.9c-0.1-0.1-0.1-0.1-0.2-0.1c-0.2-0.1-0.5-0.1-0.7,0c-0.1,0-0.2,0.1-0.2,0.2
		c-0.1,0.1-0.2,0.4-0.2,0.6s0.1,0.4,0.2,0.6c0.1,0.1,0.4,0.2,0.6,0.2c0.2,0,0.4-0.1,0.6-0.2c0.1-0.1,0.2-0.4,0.2-0.6
		S122.6,45,122.4,44.9z M124.8,44.9c-0.1-0.1-0.1-0.1-0.2-0.1c-0.2-0.1-0.5-0.1-0.7,0c-0.1,0-0.2,0.1-0.2,0.2
		c-0.1,0.1-0.2,0.4-0.2,0.6c0,0.2,0.1,0.4,0.2,0.6c0.1,0.2,0.4,0.2,0.6,0.2c0.2,0,0.4-0.1,0.6-0.2c0.2-0.1,0.2-0.4,0.2-0.6
		C125.1,45.2,125,45,124.8,44.9z M124.8,44.9c-0.1-0.1-0.1-0.1-0.2-0.1c-0.2-0.1-0.5-0.1-0.7,0c-0.1,0-0.2,0.1-0.2,0.2
		c-0.1,0.1-0.2,0.4-0.2,0.6c0,0.2,0.1,0.4,0.2,0.6c0.1,0.2,0.4,0.2,0.6,0.2c0.2,0,0.4-0.1,0.6-0.2c0.2-0.1,0.2-0.4,0.2-0.6
		C125.1,45.2,125,45,124.8,44.9z M122.4,44.9c-0.1-0.1-0.1-0.1-0.2-0.1c-0.2-0.1-0.5-0.1-0.7,0c-0.1,0-0.2,0.1-0.2,0.2
		c-0.1,0.1-0.2,0.4-0.2,0.6s0.1,0.4,0.2,0.6c0.1,0.1,0.4,0.2,0.6,0.2c0.2,0,0.4-0.1,0.6-0.2c0.1-0.1,0.2-0.4,0.2-0.6
		S122.6,45,122.4,44.9z M120.1,44.9c-0.1-0.1-0.1-0.1-0.2-0.1c-0.2-0.1-0.5-0.1-0.7,0c-0.1,0-0.2,0.1-0.2,0.2
		c-0.1,0.1-0.2,0.3-0.2,0.6s0.1,0.4,0.2,0.6c0.1,0.1,0.4,0.2,0.6,0.2c0.2,0,0.4-0.1,0.6-0.2c0.2-0.1,0.2-0.4,0.2-0.6
		S120.2,45,120.1,44.9z M120.1,44.9c-0.1-0.1-0.1-0.1-0.2-0.1c-0.2-0.1-0.5-0.1-0.7,0c-0.1,0-0.2,0.1-0.2,0.2
		c-0.1,0.1-0.2,0.3-0.2,0.6s0.1,0.4,0.2,0.6c0.1,0.1,0.4,0.2,0.6,0.2c0.2,0,0.4-0.1,0.6-0.2c0.2-0.1,0.2-0.4,0.2-0.6
		S120.2,45,120.1,44.9z M122.4,44.9c-0.1-0.1-0.1-0.1-0.2-0.1c-0.2-0.1-0.5-0.1-0.7,0c-0.1,0-0.2,0.1-0.2,0.2
		c-0.1,0.1-0.2,0.4-0.2,0.6s0.1,0.4,0.2,0.6c0.1,0.1,0.4,0.2,0.6,0.2c0.2,0,0.4-0.1,0.6-0.2c0.1-0.1,0.2-0.4,0.2-0.6
		S122.6,45,122.4,44.9z M124.8,44.9c-0.1-0.1-0.1-0.1-0.2-0.1c-0.2-0.1-0.5-0.1-0.7,0c-0.1,0-0.2,0.1-0.2,0.2
		c-0.1,0.1-0.2,0.4-0.2,0.6c0,0.2,0.1,0.4,0.2,0.6c0.1,0.2,0.4,0.2,0.6,0.2c0.2,0,0.4-0.1,0.6-0.2c0.2-0.1,0.2-0.4,0.2-0.6
		C125.1,45.2,125,45,124.8,44.9z M127.8,50.2h-8.3c-0.4,0-0.8,0.4-0.8,0.8c0,0.4,0.4,0.8,0.8,0.8h8.3c0.4,0,0.8-0.4,0.8-0.8
		C128.6,50.5,128.3,50.2,127.8,50.2z M124.8,44.9c-0.1-0.1-0.1-0.1-0.2-0.1c-0.2-0.1-0.5-0.1-0.7,0c-0.1,0-0.2,0.1-0.2,0.2
		c-0.1,0.1-0.2,0.4-0.2,0.6c0,0.2,0.1,0.4,0.2,0.6c0.1,0.2,0.4,0.2,0.6,0.2c0.2,0,0.4-0.1,0.6-0.2c0.2-0.1,0.2-0.4,0.2-0.6
		C125.1,45.2,125,45,124.8,44.9z M122.4,44.9c-0.1-0.1-0.1-0.1-0.2-0.1c-0.2-0.1-0.5-0.1-0.7,0c-0.1,0-0.2,0.1-0.2,0.2
		c-0.1,0.1-0.2,0.4-0.2,0.6s0.1,0.4,0.2,0.6c0.1,0.1,0.4,0.2,0.6,0.2c0.2,0,0.4-0.1,0.6-0.2c0.1-0.1,0.2-0.4,0.2-0.6
		S122.6,45,122.4,44.9z M120.1,44.9c-0.1-0.1-0.1-0.1-0.2-0.1c-0.2-0.1-0.5-0.1-0.7,0c-0.1,0-0.2,0.1-0.2,0.2
		c-0.1,0.1-0.2,0.3-0.2,0.6s0.1,0.4,0.2,0.6c0.1,0.1,0.4,0.2,0.6,0.2c0.2,0,0.4-0.1,0.6-0.2c0.2-0.1,0.2-0.4,0.2-0.6
		S120.2,45,120.1,44.9z M127.8,50.2h-8.3c-0.4,0-0.8,0.4-0.8,0.8c0,0.4,0.4,0.8,0.8,0.8h8.3c0.4,0,0.8-0.4,0.8-0.8
		C128.6,50.5,128.3,50.2,127.8,50.2z M120.1,44.9c-0.1-0.1-0.1-0.1-0.2-0.1c-0.2-0.1-0.5-0.1-0.7,0c-0.1,0-0.2,0.1-0.2,0.2
		c-0.1,0.1-0.2,0.3-0.2,0.6s0.1,0.4,0.2,0.6c0.1,0.1,0.4,0.2,0.6,0.2c0.2,0,0.4-0.1,0.6-0.2c0.2-0.1,0.2-0.4,0.2-0.6
		S120.2,45,120.1,44.9z M122.4,44.9c-0.1-0.1-0.1-0.1-0.2-0.1c-0.2-0.1-0.5-0.1-0.7,0c-0.1,0-0.2,0.1-0.2,0.2
		c-0.1,0.1-0.2,0.4-0.2,0.6s0.1,0.4,0.2,0.6c0.1,0.1,0.4,0.2,0.6,0.2c0.2,0,0.4-0.1,0.6-0.2c0.1-0.1,0.2-0.4,0.2-0.6
		S122.6,45,122.4,44.9z M124.8,44.9c-0.1-0.1-0.1-0.1-0.2-0.1c-0.2-0.1-0.5-0.1-0.7,0c-0.1,0-0.2,0.1-0.2,0.2
		c-0.1,0.1-0.2,0.4-0.2,0.6c0,0.2,0.1,0.4,0.2,0.6c0.1,0.2,0.4,0.2,0.6,0.2c0.2,0,0.4-0.1,0.6-0.2c0.2-0.1,0.2-0.4,0.2-0.6
		C125.1,45.2,125,45,124.8,44.9z M127.8,50.2h-8.3c-0.4,0-0.8,0.4-0.8,0.8c0,0.4,0.4,0.8,0.8,0.8h8.3c0.4,0,0.8-0.4,0.8-0.8
		C128.6,50.5,128.3,50.2,127.8,50.2z M127.8,56.5h-8.3c-0.3,0-0.5,0.1-0.7,0.3c-0.1,0.1-0.1,0.3-0.1,0.5c0,0.4,0.4,0.8,0.8,0.8h8.3
		c0.4,0,0.8-0.4,0.8-0.8C128.6,56.9,128.3,56.5,127.8,56.5z M127.8,53.4h-8.3c-0.4,0-0.8,0.4-0.8,0.8c0,0.4,0.4,0.8,0.8,0.8h8.3
		c0.4,0,0.8-0.4,0.8-0.8C128.6,53.7,128.3,53.4,127.8,53.4z M124.8,44.9c-0.1-0.1-0.1-0.1-0.2-0.1c-0.2-0.1-0.5-0.1-0.7,0
		c-0.1,0-0.2,0.1-0.2,0.2c-0.1,0.1-0.2,0.4-0.2,0.6c0,0.2,0.1,0.4,0.2,0.6c0.1,0.2,0.4,0.2,0.6,0.2c0.2,0,0.4-0.1,0.6-0.2
		c0.2-0.1,0.2-0.4,0.2-0.6C125.1,45.2,125,45,124.8,44.9z M122.2,44.7c-0.2-0.1-0.5-0.1-0.7,0c-0.1,0-0.2,0.1-0.2,0.2
		c-0.1,0.1-0.2,0.4-0.2,0.6s0.1,0.4,0.2,0.6c0.1,0.1,0.4,0.2,0.6,0.2c0.2,0,0.4-0.1,0.6-0.2c0.1-0.1,0.2-0.4,0.2-0.6
		s-0.1-0.4-0.2-0.6C122.4,44.8,122.3,44.8,122.2,44.7z M119.8,44.7c-0.2-0.1-0.5-0.1-0.7,0c-0.1,0-0.2,0.1-0.2,0.2
		c-0.1,0.1-0.2,0.3-0.2,0.6s0.1,0.4,0.2,0.6c0.1,0.1,0.4,0.2,0.6,0.2c0.2,0,0.4-0.1,0.6-0.2c0.2-0.1,0.2-0.4,0.2-0.6
		s-0.1-0.4-0.2-0.6C120,44.8,119.9,44.8,119.8,44.7z M127.8,53.4h-8.3c-0.4,0-0.8,0.4-0.8,0.8c0,0.4,0.4,0.8,0.8,0.8h8.3
		c0.4,0,0.8-0.4,0.8-0.8C128.6,53.7,128.3,53.4,127.8,53.4z M127.8,56.5h-8.3c-0.3,0-0.5,0.1-0.7,0.3c-0.1,0.1-0.1,0.3-0.1,0.5
		c0,0.4,0.4,0.8,0.8,0.8h8.3c0.4,0,0.8-0.4,0.8-0.8C128.6,56.9,128.3,56.5,127.8,56.5z M119.5,51.8h8.3c0.4,0,0.8-0.4,0.8-0.8
		c0-0.4-0.4-0.8-0.8-0.8h-8.3c-0.4,0-0.8,0.4-0.8,0.8C118.7,51.4,119.1,51.8,119.5,51.8z M140.1,42.3h-23.8c-0.4,0-0.8,0.4-0.8,0.8
		v19.8c0,0.4,0.4,0.8,0.8,0.8h23.8c0.4,0,0.8-0.4,0.8-0.8V43.1C140.9,42.6,140.6,42.3,140.1,42.3z M139.3,62.1h-22.2V48.6h22.2V62.1
		z M139.3,47h-22.2v-3.2h22.2V47z M127.8,53.4h-8.3c-0.4,0-0.8,0.4-0.8,0.8c0,0.4,0.4,0.8,0.8,0.8h8.3c0.4,0,0.8-0.4,0.8-0.8
		C128.6,53.7,128.3,53.4,127.8,53.4z M127.8,56.5h-8.3c-0.3,0-0.5,0.1-0.7,0.3c-0.1,0.1-0.1,0.3-0.1,0.5c0,0.4,0.4,0.8,0.8,0.8h8.3
		c0.4,0,0.8-0.4,0.8-0.8C128.6,56.9,128.3,56.5,127.8,56.5z M119.5,50.2c-0.4,0-0.8,0.4-0.8,0.8c0,0.4,0.4,0.8,0.8,0.8h8.3
		c0.4,0,0.8-0.4,0.8-0.8c0-0.4-0.4-0.8-0.8-0.8H119.5z M124.6,44.7c-0.2-0.1-0.5-0.1-0.7,0c-0.1,0-0.2,0.1-0.2,0.2
		c-0.1,0.1-0.2,0.4-0.2,0.6c0,0.2,0.1,0.4,0.2,0.6c0.1,0.2,0.4,0.2,0.6,0.2c0.2,0,0.4-0.1,0.6-0.2c0.2-0.1,0.2-0.4,0.2-0.6
		c0-0.2-0.1-0.4-0.2-0.6C124.8,44.8,124.7,44.8,124.6,44.7z M122.2,44.7c-0.2-0.1-0.5-0.1-0.7,0c-0.1,0-0.2,0.1-0.2,0.2
		c-0.1,0.1-0.2,0.4-0.2,0.6s0.1,0.4,0.2,0.6c0.1,0.1,0.4,0.2,0.6,0.2c0.2,0,0.4-0.1,0.6-0.2c0.1-0.1,0.2-0.4,0.2-0.6
		s-0.1-0.4-0.2-0.6C122.4,44.8,122.3,44.8,122.2,44.7z M119.8,44.7c-0.2-0.1-0.5-0.1-0.7,0c-0.1,0-0.2,0.1-0.2,0.2
		c-0.1,0.1-0.2,0.3-0.2,0.6s0.1,0.4,0.2,0.6c0.1,0.1,0.4,0.2,0.6,0.2c0.2,0,0.4-0.1,0.6-0.2c0.2-0.1,0.2-0.4,0.2-0.6
		s-0.1-0.4-0.2-0.6C120,44.8,119.9,44.8,119.8,44.7z M127.8,50.2h-8.3c-0.4,0-0.8,0.4-0.8,0.8c0,0.4,0.4,0.8,0.8,0.8h8.3
		c0.4,0,0.8-0.4,0.8-0.8C128.6,50.5,128.3,50.2,127.8,50.2z M127.8,53.4h-8.3c-0.4,0-0.8,0.4-0.8,0.8c0,0.4,0.4,0.8,0.8,0.8h8.3
		c0.4,0,0.8-0.4,0.8-0.8C128.6,53.7,128.3,53.4,127.8,53.4z M120.1,44.9c-0.1-0.1-0.1-0.1-0.2-0.1c-0.2-0.1-0.5-0.1-0.7,0
		c-0.1,0-0.2,0.1-0.2,0.2c-0.1,0.1-0.2,0.3-0.2,0.6s0.1,0.4,0.2,0.6c0.1,0.1,0.4,0.2,0.6,0.2c0.2,0,0.4-0.1,0.6-0.2
		c0.2-0.1,0.2-0.4,0.2-0.6S120.2,45,120.1,44.9z M122.4,44.9c-0.1-0.1-0.1-0.1-0.2-0.1c-0.2-0.1-0.5-0.1-0.7,0
		c-0.1,0-0.2,0.1-0.2,0.2c-0.1,0.1-0.2,0.4-0.2,0.6s0.1,0.4,0.2,0.6c0.1,0.1,0.4,0.2,0.6,0.2c0.2,0,0.4-0.1,0.6-0.2
		c0.1-0.1,0.2-0.4,0.2-0.6S122.6,45,122.4,44.9z M124.8,44.9c-0.1-0.1-0.1-0.1-0.2-0.1c-0.2-0.1-0.5-0.1-0.7,0
		c-0.1,0-0.2,0.1-0.2,0.2c-0.1,0.1-0.2,0.4-0.2,0.6c0,0.2,0.1,0.4,0.2,0.6c0.1,0.2,0.4,0.2,0.6,0.2c0.2,0,0.4-0.1,0.6-0.2
		c0.2-0.1,0.2-0.4,0.2-0.6C125.1,45.2,125,45,124.8,44.9z M127.8,53.4h-8.3c-0.4,0-0.8,0.4-0.8,0.8c0,0.4,0.4,0.8,0.8,0.8h8.3
		c0.4,0,0.8-0.4,0.8-0.8C128.6,53.7,128.3,53.4,127.8,53.4z M127.8,50.2h-8.3c-0.4,0-0.8,0.4-0.8,0.8c0,0.4,0.4,0.8,0.8,0.8h8.3
		c0.4,0,0.8-0.4,0.8-0.8C128.6,50.5,128.3,50.2,127.8,50.2z M124.8,44.9c-0.1-0.1-0.1-0.1-0.2-0.1c-0.2-0.1-0.5-0.1-0.7,0
		c-0.1,0-0.2,0.1-0.2,0.2c-0.1,0.1-0.2,0.4-0.2,0.6c0,0.2,0.1,0.4,0.2,0.6c0.1,0.2,0.4,0.2,0.6,0.2c0.2,0,0.4-0.1,0.6-0.2
		c0.2-0.1,0.2-0.4,0.2-0.6C125.1,45.2,125,45,124.8,44.9z M122.4,44.9c-0.1-0.1-0.1-0.1-0.2-0.1c-0.2-0.1-0.5-0.1-0.7,0
		c-0.1,0-0.2,0.1-0.2,0.2c-0.1,0.1-0.2,0.4-0.2,0.6s0.1,0.4,0.2,0.6c0.1,0.1,0.4,0.2,0.6,0.2c0.2,0,0.4-0.1,0.6-0.2
		c0.1-0.1,0.2-0.4,0.2-0.6S122.6,45,122.4,44.9z M120.1,44.9c-0.1-0.1-0.1-0.1-0.2-0.1c-0.2-0.1-0.5-0.1-0.7,0
		c-0.1,0-0.2,0.1-0.2,0.2c-0.1,0.1-0.2,0.3-0.2,0.6s0.1,0.4,0.2,0.6c0.1,0.1,0.4,0.2,0.6,0.2c0.2,0,0.4-0.1,0.6-0.2
		c0.2-0.1,0.2-0.4,0.2-0.6S120.2,45,120.1,44.9z M119.5,50.2c-0.4,0-0.8,0.4-0.8,0.8c0,0.4,0.4,0.8,0.8,0.8h6.9v-1.6H119.5z
		 M127.8,50.2L127.8,50.2l0,1.6h0c0.4,0,0.8-0.4,0.8-0.8C128.6,50.5,128.3,50.2,127.8,50.2z M120.1,44.9c-0.1-0.1-0.1-0.1-0.2-0.1
		c-0.2-0.1-0.5-0.1-0.7,0c-0.1,0-0.2,0.1-0.2,0.2c-0.1,0.1-0.2,0.3-0.2,0.6s0.1,0.4,0.2,0.6c0.1,0.1,0.4,0.2,0.6,0.2
		c0.2,0,0.4-0.1,0.6-0.2c0.2-0.1,0.2-0.4,0.2-0.6S120.2,45,120.1,44.9z M122.4,44.9c-0.1-0.1-0.1-0.1-0.2-0.1
		c-0.2-0.1-0.5-0.1-0.7,0c-0.1,0-0.2,0.1-0.2,0.2c-0.1,0.1-0.2,0.4-0.2,0.6s0.1,0.4,0.2,0.6c0.1,0.1,0.4,0.2,0.6,0.2
		c0.2,0,0.4-0.1,0.6-0.2c0.1-0.1,0.2-0.4,0.2-0.6S122.6,45,122.4,44.9z M124.8,44.9c-0.1-0.1-0.1-0.1-0.2-0.1
		c-0.2-0.1-0.5-0.1-0.7,0c-0.1,0-0.2,0.1-0.2,0.2c-0.1,0.1-0.2,0.4-0.2,0.6c0,0.2,0.1,0.4,0.2,0.6c0.1,0.2,0.4,0.2,0.6,0.2
		c0.2,0,0.4-0.1,0.6-0.2c0.2-0.1,0.2-0.4,0.2-0.6C125.1,45.2,125,45,124.8,44.9z M124.8,44.9c-0.1-0.1-0.1-0.1-0.2-0.1
		c-0.2-0.1-0.5-0.1-0.7,0c-0.1,0-0.2,0.1-0.2,0.2c-0.1,0.1-0.2,0.4-0.2,0.6c0,0.2,0.1,0.4,0.2,0.6c0.1,0.2,0.4,0.2,0.6,0.2
		c0.2,0,0.4-0.1,0.6-0.2c0.2-0.1,0.2-0.4,0.2-0.6C125.1,45.2,125,45,124.8,44.9z M122.4,44.9c-0.1-0.1-0.1-0.1-0.2-0.1
		c-0.2-0.1-0.5-0.1-0.7,0c-0.1,0-0.2,0.1-0.2,0.2c-0.1,0.1-0.2,0.4-0.2,0.6s0.1,0.4,0.2,0.6c0.1,0.1,0.4,0.2,0.6,0.2
		c0.2,0,0.4-0.1,0.6-0.2c0.1-0.1,0.2-0.4,0.2-0.6S122.6,45,122.4,44.9z M120.1,44.9c-0.1-0.1-0.1-0.1-0.2-0.1
		c-0.2-0.1-0.5-0.1-0.7,0c-0.1,0-0.2,0.1-0.2,0.2c-0.1,0.1-0.2,0.3-0.2,0.6s0.1,0.4,0.2,0.6c0.1,0.1,0.4,0.2,0.6,0.2
		c0.2,0,0.4-0.1,0.6-0.2c0.2-0.1,0.2-0.4,0.2-0.6S120.2,45,120.1,44.9z M120.1,44.9c-0.1-0.1-0.1-0.1-0.2-0.1
		c-0.2-0.1-0.5-0.1-0.7,0c-0.1,0-0.2,0.1-0.2,0.2c-0.1,0.1-0.2,0.3-0.2,0.6s0.1,0.4,0.2,0.6c0.1,0.1,0.4,0.2,0.6,0.2
		c0.2,0,0.4-0.1,0.6-0.2c0.2-0.1,0.2-0.4,0.2-0.6S120.2,45,120.1,44.9z M122.4,44.9c-0.1-0.1-0.1-0.1-0.2-0.1
		c-0.2-0.1-0.5-0.1-0.7,0c-0.1,0-0.2,0.1-0.2,0.2c-0.1,0.1-0.2,0.4-0.2,0.6s0.1,0.4,0.2,0.6c0.1,0.1,0.4,0.2,0.6,0.2
		c0.2,0,0.4-0.1,0.6-0.2c0.1-0.1,0.2-0.4,0.2-0.6S122.6,45,122.4,44.9z M124.8,44.9c-0.1-0.1-0.1-0.1-0.2-0.1
		c-0.2-0.1-0.5-0.1-0.7,0c-0.1,0-0.2,0.1-0.2,0.2c-0.1,0.1-0.2,0.4-0.2,0.6c0,0.2,0.1,0.4,0.2,0.6c0.1,0.2,0.4,0.2,0.6,0.2
		c0.2,0,0.4-0.1,0.6-0.2c0.2-0.1,0.2-0.4,0.2-0.6C125.1,45.2,125,45,124.8,44.9z M124.8,44.9c-0.1-0.1-0.1-0.1-0.2-0.1
		c-0.2-0.1-0.5-0.1-0.7,0c-0.1,0-0.2,0.1-0.2,0.2c-0.1,0.1-0.2,0.4-0.2,0.6c0,0.2,0.1,0.4,0.2,0.6c0.1,0.2,0.4,0.2,0.6,0.2
		c0.2,0,0.4-0.1,0.6-0.2c0.2-0.1,0.2-0.4,0.2-0.6C125.1,45.2,125,45,124.8,44.9z M122.4,44.9c-0.1-0.1-0.1-0.1-0.2-0.1
		c-0.2-0.1-0.5-0.1-0.7,0c-0.1,0-0.2,0.1-0.2,0.2c-0.1,0.1-0.2,0.4-0.2,0.6s0.1,0.4,0.2,0.6c0.1,0.1,0.4,0.2,0.6,0.2
		c0.2,0,0.4-0.1,0.6-0.2c0.1-0.1,0.2-0.4,0.2-0.6S122.6,45,122.4,44.9z M120.1,44.9c-0.1-0.1-0.1-0.1-0.2-0.1
		c-0.2-0.1-0.5-0.1-0.7,0c-0.1,0-0.2,0.1-0.2,0.2c-0.1,0.1-0.2,0.3-0.2,0.6s0.1,0.4,0.2,0.6c0.1,0.1,0.4,0.2,0.6,0.2
		c0.2,0,0.4-0.1,0.6-0.2c0.2-0.1,0.2-0.4,0.2-0.6S120.2,45,120.1,44.9z M120.1,44.9c-0.1-0.1-0.1-0.1-0.2-0.1
		c-0.2-0.1-0.5-0.1-0.7,0c-0.1,0-0.2,0.1-0.2,0.2c-0.1,0.1-0.2,0.3-0.2,0.6s0.1,0.4,0.2,0.6c0.1,0.1,0.4,0.2,0.6,0.2
		c0.2,0,0.4-0.1,0.6-0.2c0.2-0.1,0.2-0.4,0.2-0.6S120.2,45,120.1,44.9z M122.4,44.9c-0.1-0.1-0.1-0.1-0.2-0.1
		c-0.2-0.1-0.5-0.1-0.7,0c-0.1,0-0.2,0.1-0.2,0.2c-0.1,0.1-0.2,0.4-0.2,0.6s0.1,0.4,0.2,0.6c0.1,0.1,0.4,0.2,0.6,0.2
		c0.2,0,0.4-0.1,0.6-0.2c0.1-0.1,0.2-0.4,0.2-0.6S122.6,45,122.4,44.9z M124.8,44.9c-0.1-0.1-0.1-0.1-0.2-0.1
		c-0.2-0.1-0.5-0.1-0.7,0c-0.1,0-0.2,0.1-0.2,0.2c-0.1,0.1-0.2,0.4-0.2,0.6c0,0.2,0.1,0.4,0.2,0.6c0.1,0.2,0.4,0.2,0.6,0.2
		c0.2,0,0.4-0.1,0.6-0.2c0.2-0.1,0.2-0.4,0.2-0.6C125.1,45.2,125,45,124.8,44.9z M124.8,44.9c-0.1-0.1-0.1-0.1-0.2-0.1
		c-0.2-0.1-0.5-0.1-0.7,0c-0.1,0-0.2,0.1-0.2,0.2c-0.1,0.1-0.2,0.4-0.2,0.6c0,0.2,0.1,0.4,0.2,0.6c0.1,0.2,0.4,0.2,0.6,0.2
		c0.2,0,0.4-0.1,0.6-0.2c0.2-0.1,0.2-0.4,0.2-0.6C125.1,45.2,125,45,124.8,44.9z M122.4,44.9c-0.1-0.1-0.1-0.1-0.2-0.1
		c-0.2-0.1-0.5-0.1-0.7,0c-0.1,0-0.2,0.1-0.2,0.2c-0.1,0.1-0.2,0.4-0.2,0.6s0.1,0.4,0.2,0.6c0.1,0.1,0.4,0.2,0.6,0.2
		c0.2,0,0.4-0.1,0.6-0.2c0.1-0.1,0.2-0.4,0.2-0.6S122.6,45,122.4,44.9z M120.1,44.9c-0.1-0.1-0.1-0.1-0.2-0.1
		c-0.2-0.1-0.5-0.1-0.7,0c-0.1,0-0.2,0.1-0.2,0.2c-0.1,0.1-0.2,0.3-0.2,0.6s0.1,0.4,0.2,0.6c0.1,0.1,0.4,0.2,0.6,0.2
		c0.2,0,0.4-0.1,0.6-0.2c0.2-0.1,0.2-0.4,0.2-0.6S120.2,45,120.1,44.9z"/>
	<g>
		<path fill="#FFFFFF" d="M140.1,42.3h-23.8c-0.4,0-0.8,0.4-0.8,0.8v19.8c0,0.4,0.4,0.8,0.8,0.8h23.8c0.4,0,0.8-0.4,0.8-0.8V43.1
			C140.9,42.6,140.6,42.3,140.1,42.3z M139.3,62.1h-22.2V48.6h22.2V62.1z M139.3,47h-22.2v-3.2h22.2V47z"/>
		<path fill="#FFFFFF" d="M120.3,45.4c0,0.2-0.1,0.4-0.2,0.6c-0.1,0.2-0.4,0.2-0.6,0.2c-0.2,0-0.4-0.1-0.6-0.2
			c-0.2-0.2-0.2-0.4-0.2-0.6s0.1-0.4,0.2-0.6c0.1-0.1,0.1-0.1,0.2-0.2c0.2-0.1,0.5-0.1,0.7,0c0.1,0,0.2,0.1,0.2,0.1
			C120.2,45,120.3,45.2,120.3,45.4z"/>
		<path fill="#FFFFFF" d="M122.7,45.4c0,0.2-0.1,0.4-0.2,0.6c-0.2,0.2-0.4,0.2-0.6,0.2c-0.2,0-0.4-0.1-0.6-0.2
			c-0.1-0.2-0.2-0.4-0.2-0.6s0.1-0.4,0.2-0.6c0.1-0.1,0.1-0.1,0.2-0.2c0.2-0.1,0.5-0.1,0.7,0c0.1,0,0.2,0.1,0.2,0.1
			C122.6,45,122.7,45.2,122.7,45.4z"/>
		<path fill="#FFFFFF" d="M125.1,45.4c0,0.2-0.1,0.4-0.2,0.6c-0.1,0.2-0.3,0.2-0.6,0.2c-0.2,0-0.4-0.1-0.6-0.2
			c-0.2-0.1-0.2-0.4-0.2-0.6c0-0.2,0.1-0.4,0.2-0.6c0.1-0.1,0.1-0.1,0.2-0.2c0.2-0.1,0.5-0.1,0.7,0c0.1,0,0.2,0.1,0.2,0.1
			C125,45,125.1,45.2,125.1,45.4z"/>
		<path fill="#FFFFFF" d="M128.6,51c0,0.4-0.4,0.8-0.8,0.8h-8.3c-0.4,0-0.8-0.4-0.8-0.8c0-0.4,0.4-0.8,0.8-0.8h8.3
			C128.3,50.2,128.6,50.5,128.6,51z"/>
		<path fill="#FFFFFF" d="M128.6,54.2c0,0.4-0.4,0.8-0.8,0.8h-8.3c-0.4,0-0.8-0.4-0.8-0.8c0-0.4,0.4-0.8,0.8-0.8h8.3
			C128.3,53.4,128.6,53.7,128.6,54.2z"/>
		<path fill="#FFFFFF" d="M128.6,57.3c0,0.4-0.4,0.8-0.8,0.8h-8.3c-0.4,0-0.8-0.4-0.8-0.8c0-0.2,0.1-0.3,0.1-0.5
			c0.1-0.2,0.4-0.3,0.7-0.3h8.3C128.3,56.5,128.6,56.9,128.6,57.3z"/>
		<path fill="#FFFFFF" d="M137,50.2h-6c-0.4,0-0.8,0.4-0.8,0.8v6.4c0,0.4,0.4,0.8,0.8,0.8h6c0.4,0,0.8-0.4,0.8-0.8V51
			C137.8,50.5,137.4,50.2,137,50.2z M136.2,56.5h-4.4v-4.8h4.4V56.5z"/>
	</g>
</g>
<g>
	<path fill="#353535" d="M30.7,13.7H16.5v22.7h17V16.9L30.7,13.7z M17.9,34.9V15.1h11.3v2.8h2.8v17H17.9z"/>
	<rect x="19.3" y="26.4" fill="#353535" width="11.3" height="1.4"/>
	<rect x="19.3" y="23.6" fill="#353535" width="11.3" height="1.4"/>
	<rect x="19.3" y="19.3" fill="#353535" width="5.7" height="1.4"/>
	<rect x="19.3" y="16.5" fill="#353535" width="2.8" height="1.4"/>
	<rect x="19.3" y="29.2" fill="#353535" width="11.3" height="1.4"/>
	<rect x="19.3" y="32.1" fill="#353535" width="11.3" height="1.4"/>
</g>
<path fill="#353535" d="M112.4,127.5c0,2.8-2.3,5-5,5h-39c-2.8,0-5-2.3-5-5c0-0.3,0.1-0.5,0.1-0.8L77,91.4c0-0.1,0-0.1,0-0.2V70.9
	h-1.6c-1.2,0-2.2-1-2.2-2.2c0-1.2,1-2.2,2.2-2.2h3.8c1.2,0,2.2,1,2.2,2.2v22.7c0,0.1,0,0.3,0,0.4c0,0.3-0.1,0.6-0.2,0.9l-8.1,21.3
	h29.3L94,92.7c-0.1-0.2-0.1-0.5-0.1-0.7l0-0.1c0-0.1,0-0.2,0-0.3V68.7c0-1.2,1-2.2,2.2-2.2h3.9c1.2,0,2.2,1,2.2,2.2
	c0,1.2-1,2.2-2.2,2.2h-1.7v20.4l14,35.4C112.3,127,112.4,127.3,112.4,127.5z"/>
</svg>
