<?xml version="1.0" encoding="utf-8"?>
<!-- Generator: Adobe Illustrator 18.0.0, SVG Export Plug-In . SVG Version: 6.00 Build 0)  -->
<!DOCTYPE svg PUBLIC "-//W3C//DTD SVG 1.1//EN" "http://www.w3.org/Graphics/SVG/1.1/DTD/svg11.dtd">
<svg version="1.1" id="Layer_1" xmlns="http://www.w3.org/2000/svg" xmlns:xlink="http://www.w3.org/1999/xlink" x="0px" y="0px"
	 viewBox="0 0 92 80" enable-background="new 0 0 92 80" xml:space="preserve">
<g id="open">
	<rect x="13" y="12" fill="#BFC1BF" width="20" height="3"/>
	<rect x="13" y="19" fill="#BFC1BF" width="20" height="3"/>
	<rect x="13" y="26" fill="#BFC1BF" width="20" height="3"/>
</g>
<g id="open_1_">
	<rect x="13" y="52" fill="#FFFFFF" width="20" height="3"/>
	<rect x="13" y="59" fill="#FFFFFF" width="20" height="3"/>
	<rect x="13" y="66" fill="#FFFFFF" width="20" height="3"/>
</g>
<rect x="59" y="18.5" transform="matrix(-0.7071 -0.7071 0.7071 -0.7071 103.6358 82.9126)" fill="#BFC1BF" width="20" height="3"/>
<rect x="59" y="18.5" transform="matrix(-0.7071 0.7071 -0.7071 -0.7071 131.9273 -14.6254)" fill="#BFC1BF" width="20" height="3"/>
<rect x="59" y="58.5" transform="matrix(-0.7071 -0.7071 0.7071 -0.7071 75.3609 151.1888)" fill="#FFFFFF" width="20" height="3"/>
<rect x="59" y="58.5" transform="matrix(-0.7071 0.7071 -0.7071 -0.7071 160.1988 53.6521)" fill="#FFFFFF" width="20" height="3"/>
</svg>
