<?xml version="1.0" encoding="utf-8"?>
<!-- Generator: Adobe Illustrator 18.0.0, SVG Export Plug-In . SVG Version: 6.00 Build 0)  -->
<!DOCTYPE svg PUBLIC "-//W3C//DTD SVG 1.1//EN" "http://www.w3.org/Graphics/SVG/1.1/DTD/svg11.dtd">
<svg version="1.1" id="Layer_1" xmlns="http://www.w3.org/2000/svg" xmlns:xlink="http://www.w3.org/1999/xlink" x="0px" y="0px"
	 viewBox="0 0 1440 900" enable-background="new 0 0 1440 900" xml:space="preserve">
<rect x="525.1" y="10.6" opacity="0.1" fill="#666666" width="360" height="840"/>
<circle fill="none" stroke="#666666" stroke-width="7" stroke-miterlimit="10" cx="588.9" cy="705.4" r="40.2"/>
<circle fill="none" stroke="#666666" stroke-width="6" stroke-miterlimit="10" cx="814.7" cy="502.1" r="38.2"/>
<circle fill="none" stroke="#666666" stroke-width="4" stroke-miterlimit="10" cx="587.2" cy="300.2" r="38.2"/>
<circle fill="none" stroke="#666666" stroke-width="4" stroke-miterlimit="10" cx="810.3" cy="80.6" r="38.2"/>
<path fill="#222222" d="M3530.9-1021.8c-0.3-0.4-0.9-0.5-1.3-0.3c-0.4,0.3-0.6,0.8-0.3,1.3c0.3,0.4,0.9,0.5,1.3,0.2
	C3531.1-1020.8,3531.2-1021.4,3530.9-1021.8z M3530.9-1021.8c-0.3-0.4-0.9-0.5-1.3-0.3c-0.4,0.3-0.6,0.8-0.3,1.3
	c0.3,0.4,0.9,0.5,1.3,0.2C3531.1-1020.8,3531.2-1021.4,3530.9-1021.8z M3530.9-1021.8c-0.3-0.4-0.9-0.5-1.3-0.3
	c-0.4,0.3-0.6,0.8-0.3,1.3c0.3,0.4,0.9,0.5,1.3,0.2C3531.1-1020.8,3531.2-1021.4,3530.9-1021.8z M3530.9-1021.8
	c-0.3-0.4-0.9-0.5-1.3-0.3c-0.4,0.3-0.6,0.8-0.3,1.3c0.3,0.4,0.9,0.5,1.3,0.2C3531.1-1020.8,3531.2-1021.4,3530.9-1021.8z
	 M3530.9-1021.8c-0.3-0.4-0.9-0.5-1.3-0.3c-0.4,0.3-0.6,0.8-0.3,1.3c0.3,0.4,0.9,0.5,1.3,0.2
	C3531.1-1020.8,3531.2-1021.4,3530.9-1021.8z M3543.9-1013.8c-0.2-0.9-1.1-1.4-1.9-1.3c-0.9,0.2-1.5,1-1.3,1.9
	c0.2,0.9,1,1.4,1.9,1.3C3543.5-1012.1,3544.1-1012.9,3543.9-1013.8z M3543.9-1013.8c-0.2-0.9-1.1-1.4-1.9-1.3
	c-0.9,0.2-1.5,1-1.3,1.9c0.2,0.9,1,1.4,1.9,1.3C3543.5-1012.1,3544.1-1012.9,3543.9-1013.8z M3543.9-1013.8
	c-0.2-0.9-1.1-1.4-1.9-1.3c-0.9,0.2-1.5,1-1.3,1.9c0.2,0.9,1,1.4,1.9,1.3C3543.5-1012.1,3544.1-1012.9,3543.9-1013.8z
	 M3543.9-1013.8c-0.2-0.9-1.1-1.4-1.9-1.3c-0.9,0.2-1.5,1-1.3,1.9c0.2,0.9,1,1.4,1.9,1.3C3543.5-1012.1,3544.1-1012.9,3543.9-1013.8
	z M3543.9-1013.8c-0.2-0.9-1.1-1.4-1.9-1.3c-0.9,0.2-1.5,1-1.3,1.9c0.2,0.9,1,1.4,1.9,1.3
	C3543.5-1012.1,3544.1-1012.9,3543.9-1013.8z M3543.9-1013.8c-0.2-0.9-1.1-1.4-1.9-1.3c-0.9,0.2-1.5,1-1.3,1.9
	c0.2,0.9,1,1.4,1.9,1.3C3543.5-1012.1,3544.1-1012.9,3543.9-1013.8z M3543.9-1013.8c-0.2-0.9-1.1-1.4-1.9-1.3
	c-0.9,0.2-1.5,1-1.3,1.9c0.2,0.9,1,1.4,1.9,1.3C3543.5-1012.1,3544.1-1012.9,3543.9-1013.8z M3543.9-1013.8
	c-0.2-0.9-1.1-1.4-1.9-1.3c-0.9,0.2-1.5,1-1.3,1.9c0.2,0.9,1,1.4,1.9,1.3C3543.5-1012.1,3544.1-1012.9,3543.9-1013.8z
	 M3543.9-1013.8c-0.2-0.9-1.1-1.4-1.9-1.3c-0.9,0.2-1.5,1-1.3,1.9c0.2,0.9,1,1.4,1.9,1.3C3543.5-1012.1,3544.1-1012.9,3543.9-1013.8
	z M3543.9-1013.8c-0.2-0.9-1.1-1.4-1.9-1.3c-0.9,0.2-1.5,1-1.3,1.9c0.2,0.9,1,1.4,1.9,1.3
	C3543.5-1012.1,3544.1-1012.9,3543.9-1013.8z M3543.9-1013.8c-0.2-0.9-1.1-1.4-1.9-1.3c-0.9,0.2-1.5,1-1.3,1.9
	c0.2,0.9,1,1.4,1.9,1.3C3543.5-1012.1,3544.1-1012.9,3543.9-1013.8z M3543.9-1013.8c-0.2-0.9-1.1-1.4-1.9-1.3
	c-0.9,0.2-1.5,1-1.3,1.9c0.2,0.9,1,1.4,1.9,1.3C3543.5-1012.1,3544.1-1012.9,3543.9-1013.8z M3530.9-1021.8
	c-0.3-0.4-0.9-0.5-1.3-0.3c-0.4,0.3-0.6,0.8-0.3,1.3c0.3,0.4,0.9,0.5,1.3,0.2C3531.1-1020.8,3531.2-1021.4,3530.9-1021.8z
	 M3530.9-1021.8c-0.3-0.4-0.9-0.5-1.3-0.3c-0.4,0.3-0.6,0.8-0.3,1.3c0.3,0.4,0.9,0.5,1.3,0.2
	C3531.1-1020.8,3531.2-1021.4,3530.9-1021.8z M3530.9-1021.8c-0.3-0.4-0.9-0.5-1.3-0.3c-0.4,0.3-0.6,0.8-0.3,1.3
	c0.3,0.4,0.9,0.5,1.3,0.2C3531.1-1020.8,3531.2-1021.4,3530.9-1021.8z M3530.9-1021.8c-0.3-0.4-0.9-0.5-1.3-0.3
	c-0.4,0.3-0.6,0.8-0.3,1.3c0.3,0.4,0.9,0.5,1.3,0.2C3531.1-1020.8,3531.2-1021.4,3530.9-1021.8z M3530.9-1021.8
	c-0.3-0.4-0.9-0.5-1.3-0.3c-0.4,0.3-0.6,0.8-0.3,1.3c0.3,0.4,0.9,0.5,1.3,0.2C3531.1-1020.8,3531.2-1021.4,3530.9-1021.8z
	 M3530.9-1021.8c-0.3-0.4-0.9-0.5-1.3-0.3c-0.4,0.3-0.6,0.8-0.3,1.3c0.3,0.4,0.9,0.5,1.3,0.2
	C3531.1-1020.8,3531.2-1021.4,3530.9-1021.8z M3530.9-1021.8c-0.3-0.4-0.9-0.5-1.3-0.3c-0.4,0.3-0.6,0.8-0.3,1.3
	c0.3,0.4,0.9,0.5,1.3,0.2C3531.1-1020.8,3531.2-1021.4,3530.9-1021.8z M3530.9-1021.8c-0.3-0.4-0.9-0.5-1.3-0.3
	c-0.4,0.3-0.6,0.8-0.3,1.3c0.3,0.4,0.9,0.5,1.3,0.2C3531.1-1020.8,3531.2-1021.4,3530.9-1021.8z M3530.9-1021.8
	c-0.3-0.4-0.9-0.5-1.3-0.3c-0.4,0.3-0.6,0.8-0.3,1.3c0.3,0.4,0.9,0.5,1.3,0.2C3531.1-1020.8,3531.2-1021.4,3530.9-1021.8z
	 M3530.9-1021.8c-0.3-0.4-0.9-0.5-1.3-0.3c-0.4,0.3-0.6,0.8-0.3,1.3c0.3,0.4,0.9,0.5,1.3,0.2
	C3531.1-1020.8,3531.2-1021.4,3530.9-1021.8z M3543.9-1013.8c-0.2-0.9-1.1-1.4-1.9-1.3c-0.9,0.2-1.5,1-1.3,1.9
	c0.2,0.9,1,1.4,1.9,1.3C3543.5-1012.1,3544.1-1012.9,3543.9-1013.8z M3543.9-1013.8c-0.2-0.9-1.1-1.4-1.9-1.3
	c-0.9,0.2-1.5,1-1.3,1.9c0.2,0.9,1,1.4,1.9,1.3C3543.5-1012.1,3544.1-1012.9,3543.9-1013.8z M3543.9-1013.8
	c-0.2-0.9-1.1-1.4-1.9-1.3c-0.9,0.2-1.5,1-1.3,1.9c0.2,0.9,1,1.4,1.9,1.3C3543.5-1012.1,3544.1-1012.9,3543.9-1013.8z
	 M3543.9-1013.8c-0.2-0.9-1.1-1.4-1.9-1.3c-0.9,0.2-1.5,1-1.3,1.9c0.2,0.9,1,1.4,1.9,1.3C3543.5-1012.1,3544.1-1012.9,3543.9-1013.8
	z M3530.9-1021.8c-0.3-0.4-0.9-0.5-1.3-0.3c-0.4,0.3-0.6,0.8-0.3,1.3c0.3,0.4,0.9,0.5,1.3,0.2
	C3531.1-1020.8,3531.2-1021.4,3530.9-1021.8z M3530.9-1021.8c-0.3-0.4-0.9-0.5-1.3-0.3c-0.4,0.3-0.6,0.8-0.3,1.3
	c0.3,0.4,0.9,0.5,1.3,0.2C3531.1-1020.8,3531.2-1021.4,3530.9-1021.8z M3530.9-1021.8c-0.3-0.4-0.9-0.5-1.3-0.3
	c-0.4,0.3-0.6,0.8-0.3,1.3c0.3,0.4,0.9,0.5,1.3,0.2C3531.1-1020.8,3531.2-1021.4,3530.9-1021.8z M3530.9-1021.8
	c-0.3-0.4-0.9-0.5-1.3-0.3c-0.4,0.3-0.6,0.8-0.3,1.3c0.3,0.4,0.9,0.5,1.3,0.2C3531.1-1020.8,3531.2-1021.4,3530.9-1021.8z
	 M3530.9-1021.8c-0.3-0.4-0.9-0.5-1.3-0.3c-0.4,0.3-0.6,0.8-0.3,1.3c0.3,0.4,0.9,0.5,1.3,0.2
	C3531.1-1020.8,3531.2-1021.4,3530.9-1021.8z M3530.9-1021.8c-0.3-0.4-0.9-0.5-1.3-0.3c-0.4,0.3-0.6,0.8-0.3,1.3
	c0.3,0.4,0.9,0.5,1.3,0.2C3531.1-1020.8,3531.2-1021.4,3530.9-1021.8z M3530.9-1021.8c-0.3-0.4-0.9-0.5-1.3-0.3
	c-0.4,0.3-0.6,0.8-0.3,1.3c0.3,0.4,0.9,0.5,1.3,0.2C3531.1-1020.8,3531.2-1021.4,3530.9-1021.8z M3530.9-1021.8
	c-0.3-0.4-0.9-0.5-1.3-0.3c-0.4,0.3-0.6,0.8-0.3,1.3c0.3,0.4,0.9,0.5,1.3,0.2C3531.1-1020.8,3531.2-1021.4,3530.9-1021.8z
	 M3530.9-1021.8c-0.3-0.4-0.9-0.5-1.3-0.3c-0.4,0.3-0.6,0.8-0.3,1.3c0.3,0.4,0.9,0.5,1.3,0.2
	C3531.1-1020.8,3531.2-1021.4,3530.9-1021.8z M3530.9-1021.8c-0.3-0.4-0.9-0.5-1.3-0.3c-0.4,0.3-0.6,0.8-0.3,1.3
	c0.3,0.4,0.9,0.5,1.3,0.2C3531.1-1020.8,3531.2-1021.4,3530.9-1021.8z M3543.9-1013.8c-0.2-0.9-1.1-1.4-1.9-1.3
	c-0.9,0.2-1.5,1-1.3,1.9c0.2,0.9,1,1.4,1.9,1.3C3543.5-1012.1,3544.1-1012.9,3543.9-1013.8z M3543.9-1013.8
	c-0.2-0.9-1.1-1.4-1.9-1.3c-0.9,0.2-1.5,1-1.3,1.9c0.2,0.9,1,1.4,1.9,1.3C3543.5-1012.1,3544.1-1012.9,3543.9-1013.8z
	 M3530.9-1021.8c-0.3-0.4-0.9-0.5-1.3-0.3c-0.4,0.3-0.6,0.8-0.3,1.3c0.3,0.4,0.9,0.5,1.3,0.2
	C3531.1-1020.8,3531.2-1021.4,3530.9-1021.8z M3530.9-1021.8c-0.3-0.4-0.9-0.5-1.3-0.3c-0.4,0.3-0.6,0.8-0.3,1.3
	c0.3,0.4,0.9,0.5,1.3,0.2C3531.1-1020.8,3531.2-1021.4,3530.9-1021.8z M3530.9-1021.8c-0.3-0.4-0.9-0.5-1.3-0.3
	c-0.4,0.3-0.6,0.8-0.3,1.3c0.3,0.4,0.9,0.5,1.3,0.2C3531.1-1020.8,3531.2-1021.4,3530.9-1021.8z M3530.9-1021.8
	c-0.3-0.4-0.9-0.5-1.3-0.3c-0.4,0.3-0.6,0.8-0.3,1.3c0.3,0.4,0.9,0.5,1.3,0.2C3531.1-1020.8,3531.2-1021.4,3530.9-1021.8z
	 M3543.9-1013.8c-0.2-0.9-1.1-1.4-1.9-1.3c-0.9,0.2-1.5,1-1.3,1.9c0.2,0.9,1,1.4,1.9,1.3C3543.5-1012.1,3544.1-1012.9,3543.9-1013.8
	z M3543.9-1013.8c-0.2-0.9-1.1-1.4-1.9-1.3c-0.9,0.2-1.5,1-1.3,1.9c0.2,0.9,1,1.4,1.9,1.3
	C3543.5-1012.1,3544.1-1012.9,3543.9-1013.8z M3530.9-1021.8c-0.3-0.4-0.9-0.5-1.3-0.3c-0.4,0.3-0.6,0.8-0.3,1.3
	c0.3,0.4,0.9,0.5,1.3,0.2C3531.1-1020.8,3531.2-1021.4,3530.9-1021.8z M3530.9-1021.8c-0.3-0.4-0.9-0.5-1.3-0.3
	c-0.4,0.3-0.6,0.8-0.3,1.3c0.3,0.4,0.9,0.5,1.3,0.2C3531.1-1020.8,3531.2-1021.4,3530.9-1021.8z M3543.9-1013.8
	c-0.2-0.9-1.1-1.4-1.9-1.3c-0.9,0.2-1.5,1-1.3,1.9c0.2,0.9,1,1.4,1.9,1.3C3543.5-1012.1,3544.1-1012.9,3543.9-1013.8z
	 M3543.9-1013.8c-0.2-0.9-1.1-1.4-1.9-1.3c-0.9,0.2-1.5,1-1.3,1.9c0.2,0.9,1,1.4,1.9,1.3C3543.5-1012.1,3544.1-1012.9,3543.9-1013.8
	z M3530.9-1021.8c-0.3-0.4-0.9-0.5-1.3-0.3c-0.4,0.3-0.6,0.8-0.3,1.3c0.3,0.4,0.9,0.5,1.3,0.2
	C3531.1-1020.8,3531.2-1021.4,3530.9-1021.8z M3530.9-1021.8c-0.3-0.4-0.9-0.5-1.3-0.3c-0.4,0.3-0.6,0.8-0.3,1.3
	c0.3,0.4,0.9,0.5,1.3,0.2C3531.1-1020.8,3531.2-1021.4,3530.9-1021.8z M3543.9-1013.8c-0.2-0.9-1.1-1.4-1.9-1.3
	c-0.9,0.2-1.5,1-1.3,1.9c0.2,0.9,1,1.4,1.9,1.3C3543.5-1012.1,3544.1-1012.9,3543.9-1013.8z M3543.9-1013.8
	c-0.2-0.9-1.1-1.4-1.9-1.3c-0.9,0.2-1.5,1-1.3,1.9c0.2,0.9,1,1.4,1.9,1.3C3543.5-1012.1,3544.1-1012.9,3543.9-1013.8z
	 M3530.9-1021.8c-0.3-0.4-0.9-0.5-1.3-0.3c-0.4,0.3-0.6,0.8-0.3,1.3c0.3,0.4,0.9,0.5,1.3,0.2
	C3531.1-1020.8,3531.2-1021.4,3530.9-1021.8z M3530.9-1021.8c-0.3-0.4-0.9-0.5-1.3-0.3c-0.4,0.3-0.6,0.8-0.3,1.3
	c0.3,0.4,0.9,0.5,1.3,0.2C3531.1-1020.8,3531.2-1021.4,3530.9-1021.8z M3543.9-1013.8c-0.2-0.9-1.1-1.4-1.9-1.3
	c-0.9,0.2-1.5,1-1.3,1.9c0.2,0.9,1,1.4,1.9,1.3C3543.5-1012.1,3544.1-1012.9,3543.9-1013.8z M3543.9-1013.8
	c-0.2-0.9-1.1-1.4-1.9-1.3c-0.9,0.2-1.5,1-1.3,1.9c0.2,0.9,1,1.4,1.9,1.3C3543.5-1012.1,3544.1-1012.9,3543.9-1013.8z
	 M3530.9-1021.8c-0.3-0.4-0.9-0.5-1.3-0.3c-0.4,0.3-0.6,0.8-0.3,1.3c0.3,0.4,0.9,0.5,1.3,0.2
	C3531.1-1020.8,3531.2-1021.4,3530.9-1021.8z M3530.9-1021.8c-0.3-0.4-0.9-0.5-1.3-0.3c-0.4,0.3-0.6,0.8-0.3,1.3
	c0.3,0.4,0.9,0.5,1.3,0.2C3531.1-1020.8,3531.2-1021.4,3530.9-1021.8z M3543.9-1013.8c-0.2-0.9-1.1-1.4-1.9-1.3
	c-0.9,0.2-1.5,1-1.3,1.9c0.2,0.9,1,1.4,1.9,1.3C3543.5-1012.1,3544.1-1012.9,3543.9-1013.8z M3535.3-831.9
	c-23.8,0-43.2,19.4-43.2,43.2c0,23.8,19.4,43.2,43.2,43.2c23.8,0,43.2-19.4,43.2-43.2C3578.5-812.6,3559.1-831.9,3535.3-831.9z
	 M3535.3-749.9c-21.4,0-38.8-17.4-38.8-38.8c0-21.4,17.4-38.9,38.8-38.9c21.4,0,38.9,17.4,38.9,38.9
	C3574.1-767.3,3556.7-749.9,3535.3-749.9z M3543.9-1013.8c-0.2-0.9-1.1-1.4-1.9-1.3c-0.9,0.2-1.5,1-1.3,1.9c0.2,0.9,1,1.4,1.9,1.3
	C3543.5-1012.1,3544.1-1012.9,3543.9-1013.8z M3530.9-1021.8c-0.3-0.4-0.9-0.5-1.3-0.3c-0.4,0.3-0.6,0.8-0.3,1.3
	c0.3,0.4,0.9,0.5,1.3,0.2C3531.1-1020.8,3531.2-1021.4,3530.9-1021.8z M3530.9-1021.8c-0.3-0.4-0.9-0.5-1.3-0.3
	c-0.4,0.3-0.6,0.8-0.3,1.3c0.3,0.4,0.9,0.5,1.3,0.2C3531.1-1020.8,3531.2-1021.4,3530.9-1021.8z M3543.9-1013.8
	c-0.2-0.9-1.1-1.4-1.9-1.3c-0.9,0.2-1.5,1-1.3,1.9c0.2,0.9,1,1.4,1.9,1.3C3543.5-1012.1,3544.1-1012.9,3543.9-1013.8z
	 M3543.9-1013.8c-0.2-0.9-1.1-1.4-1.9-1.3c-0.9,0.2-1.5,1-1.3,1.9c0.2,0.9,1,1.4,1.9,1.3C3543.5-1012.1,3544.1-1012.9,3543.9-1013.8
	z M3529.6-1022c-0.4,0.3-0.6,0.8-0.3,1.3c0.3,0.4,0.9,0.5,1.3,0.2c0.4-0.3,0.5-0.9,0.3-1.3C3530.6-1022.2,3530-1022.3,3529.6-1022z
	 M3535.3-1044c-23.8,0-43.2,19.4-43.2,43.2c0,23.8,19.4,43.2,43.2,43.2c23.8,0,43.2-19.4,43.2-43.2
	C3578.5-1024.6,3559.1-1044,3535.3-1044z M3556.4-981.7c-1.6,1.2-3.4,2.3-5.2,3.2c-2.5,1.2-5.1,2.1-7.9,2.6
	c-1.4,0.3-2.8,0.5-4.2,0.5c-0.7,0-1.5,0.1-2.2,0.1c-0.9,0-1.8-0.1-2.8-0.2c-1-0.1-1.9-0.2-2.9-0.4c-0.7-0.1-0.7-0.1-0.4-0.7
	c0.2-0.4,0.4-0.9,0.6-1.3c0.8-1.6,1.5-3.1,2.3-4.7c0.2-0.5,0.4-0.9,0.6-1.4c0.1-0.4,0.1-0.7-0.1-1c-0.9-1.1-1.9-2.3-2.8-3.4
	c-0.8-1-1.6-2.1-2.2-3.2c-0.3-0.6-0.7-1.1-1.4-1.3c-0.2,0-0.4,0-0.6,0c-0.4,0-0.8,0.1-1.2,0.1c-0.8,0-1.6,0.1-2.3,0.1
	c-1.7,0-3.1-0.8-3.9-2.3c-0.3-0.5-0.4-1.2-0.3-1.8c0.1-0.7,0.1-1.2-0.4-1.8c-0.5-0.5-0.5-1.2-0.4-1.8c0.1-0.3,0.1-0.6-0.1-0.8
	c-0.5-0.6-0.5-1.2-0.3-1.9c0.1-0.3,0.1-0.7,0.2-1c0.1-0.5,0-0.7-0.5-0.9c-0.3-0.1-0.7-0.2-1-0.4c-0.2-0.1-0.3-0.2-0.5-0.2
	c-0.6-0.4-0.7-0.9-0.4-1.5c0.6-0.9,1.1-1.8,1.7-2.7c0.2-0.4,0.5-0.7,0.8-1c0.4-0.5,0.5-0.9,0.3-1.5c-0.4-1-0.3-2.1-0.2-3.2
	c0.1-0.7,0.2-1.4,0.3-2.1c0.1-1,0.5-2,0.9-3c0.2-0.5,0.3-1.1,0.5-1.7c0-0.1,0-0.2,0-0.3c-0.2-1,0.3-1.8,1-2.5c0.5-0.5,1.1-1,1.7-1.5
	c1.8-1.4,3.9-2.1,6.1-2.7c1.3-0.3,2.6-0.6,3.9-0.8c0.5-0.1,1.1-0.1,1.7-0.2c0.9-0.1,1.7-0.1,2.6-0.2c2.8,0,5.4,0.5,7.9,1.6
	c1.7,0.7,3.3,1.6,4.5,3.1c0.9,1,1.6,2.2,2.1,3.4c0.7,1.6,1.2,3.4,1.5,5.1c0.1,0.5,0.1,1.1,0.1,1.6c0,0.5,0.1,0.9,0.1,1.3
	c-0.1,1-0.1,2-0.2,3c-0.2,2-0.7,4-1.4,5.9c-0.6,1.7-1.3,3.2-2.4,4.7c-0.2,0.4-0.5,0.7-0.8,1c-0.6,0.9-0.7,1.8-0.3,2.7
	c0.4,0.9,0.9,1.7,1.5,2.4c0.8,0.9,1.5,1.8,2.2,2.8c1.3,2,2.4,4.1,3.5,6.2c0.3,0.7,0.6,1.4,0.9,2.1c0.1,0.2,0.1,0.4,0.2,0.6
	C3557-982.1,3557-982.1,3556.4-981.7z M3542-1015.1c-0.9,0.2-1.5,1-1.3,1.9c0.2,0.9,1,1.4,1.9,1.3c0.9-0.2,1.4-1,1.3-1.9
	C3543.8-1014.7,3542.9-1015.3,3542-1015.1z M3529.6-1022c-0.4,0.3-0.6,0.8-0.3,1.3c0.3,0.4,0.9,0.5,1.3,0.2c0.4-0.3,0.5-0.9,0.3-1.3
	C3530.6-1022.2,3530-1022.3,3529.6-1022z M3530.9-1021.8c-0.3-0.4-0.9-0.5-1.3-0.3c-0.4,0.3-0.6,0.8-0.3,1.3
	c0.3,0.4,0.9,0.5,1.3,0.2C3531.1-1020.8,3531.2-1021.4,3530.9-1021.8z M3543.9-1013.8c-0.2-0.9-1.1-1.4-1.9-1.3
	c-0.9,0.2-1.5,1-1.3,1.9c0.2,0.9,1,1.4,1.9,1.3C3543.5-1012.1,3544.1-1012.9,3543.9-1013.8z M3543.9-1013.8
	c-0.2-0.9-1.1-1.4-1.9-1.3c-0.9,0.2-1.5,1-1.3,1.9c0.2,0.9,1,1.4,1.9,1.3C3543.5-1012.1,3544.1-1012.9,3543.9-1013.8z
	 M3530.9-1021.8c-0.3-0.4-0.9-0.5-1.3-0.3c-0.4,0.3-0.6,0.8-0.3,1.3c0.3,0.4,0.9,0.5,1.3,0.2
	C3531.1-1020.8,3531.2-1021.4,3530.9-1021.8z M3535.3-1256.7c-23.8,0-43.2,19.4-43.2,43.2c0,23.8,19.4,43.2,43.2,43.2
	c23.8,0,43.2-19.4,43.2-43.2C3578.5-1237.3,3559.1-1256.7,3535.3-1256.7z M3552.9-1192.6l-13.9-13.9l1.4-1.4l-3.1-3.1l-13.2,15.6
	l-4,1.4l-1.6-1.2l0.8-4.1l13.4-16.2l-7.4-7.4l-5.4,5.4l-6.4-6.4l9.3-9.3c3.5,3.5,7.6,0.6,7.6,0.6l2.3,2.3l-6.1,6.1l7.3,7.3l5.9-7.2
	l-0.2-2.7c0-0.3,0-0.6,0-0.8c0-3.1,1.7-6.1,7.9-6.6l-1.9,5.6l2.9,2.5l5.2-3c0.6,6.7-2.6,8.7-6,9l-2.7,0.2l-6.4,7.6l3.2,3.2l1.6-1.7
	l14,13.9L3552.9-1192.6z M3535.3-1256.7c-23.8,0-43.2,19.4-43.2,43.2c0,23.8,19.4,43.2,43.2,43.2c23.8,0,43.2-19.4,43.2-43.2
	C3578.5-1237.3,3559.1-1256.7,3535.3-1256.7z M3552.9-1192.6l-13.9-13.9l1.4-1.4l-3.1-3.1l-13.2,15.6l-4,1.4l-1.6-1.2l0.8-4.1
	l13.4-16.2l-7.4-7.4l-5.4,5.4l-6.4-6.4l9.3-9.3c3.5,3.5,7.6,0.6,7.6,0.6l2.3,2.3l-6.1,6.1l7.3,7.3l5.9-7.2l-0.2-2.7
	c0-0.3,0-0.6,0-0.8c0-3.1,1.7-6.1,7.9-6.6l-1.9,5.6l2.9,2.5l5.2-3c0.6,6.7-2.6,8.7-6,9l-2.7,0.2l-6.4,7.6l3.2,3.2l1.6-1.7l14,13.9
	L3552.9-1192.6z M3530.9-1021.8c-0.3-0.4-0.9-0.5-1.3-0.3c-0.4,0.3-0.6,0.8-0.3,1.3c0.3,0.4,0.9,0.5,1.3,0.2
	C3531.1-1020.8,3531.2-1021.4,3530.9-1021.8z M3543.9-1013.8c-0.2-0.9-1.1-1.4-1.9-1.3c-0.9,0.2-1.5,1-1.3,1.9
	c0.2,0.9,1,1.4,1.9,1.3C3543.5-1012.1,3544.1-1012.9,3543.9-1013.8z M3543.9-1013.8c-0.2-0.9-1.1-1.4-1.9-1.3
	c-0.9,0.2-1.5,1-1.3,1.9c0.2,0.9,1,1.4,1.9,1.3C3543.5-1012.1,3544.1-1012.9,3543.9-1013.8z M3529.6-1022c-0.4,0.3-0.6,0.8-0.3,1.3
	c0.3,0.4,0.9,0.5,1.3,0.2c0.4-0.3,0.5-0.9,0.3-1.3C3530.6-1022.2,3530-1022.3,3529.6-1022z M3535.3-1044
	c-23.8,0-43.2,19.4-43.2,43.2c0,23.8,19.4,43.2,43.2,43.2c23.8,0,43.2-19.4,43.2-43.2C3578.5-1024.6,3559.1-1044,3535.3-1044z
	 M3556.4-981.7c-1.6,1.2-3.4,2.3-5.2,3.2c-2.5,1.2-5.1,2.1-7.9,2.6c-1.4,0.3-2.8,0.5-4.2,0.5c-0.7,0-1.5,0.1-2.2,0.1
	c-0.9,0-1.8-0.1-2.8-0.2c-1-0.1-1.9-0.2-2.9-0.4c-0.7-0.1-0.7-0.1-0.4-0.7c0.2-0.4,0.4-0.9,0.6-1.3c0.8-1.6,1.5-3.1,2.3-4.7
	c0.2-0.5,0.4-0.9,0.6-1.4c0.1-0.4,0.1-0.7-0.1-1c-0.9-1.1-1.9-2.3-2.8-3.4c-0.8-1-1.6-2.1-2.2-3.2c-0.3-0.6-0.7-1.1-1.4-1.3
	c-0.2,0-0.4,0-0.6,0c-0.4,0-0.8,0.1-1.2,0.1c-0.8,0-1.6,0.1-2.3,0.1c-1.7,0-3.1-0.8-3.9-2.3c-0.3-0.5-0.4-1.2-0.3-1.8
	c0.1-0.7,0.1-1.2-0.4-1.8c-0.5-0.5-0.5-1.2-0.4-1.8c0.1-0.3,0.1-0.6-0.1-0.8c-0.5-0.6-0.5-1.2-0.3-1.9c0.1-0.3,0.1-0.7,0.2-1
	c0.1-0.5,0-0.7-0.5-0.9c-0.3-0.1-0.7-0.2-1-0.4c-0.2-0.1-0.3-0.2-0.5-0.2c-0.6-0.4-0.7-0.9-0.4-1.5c0.6-0.9,1.1-1.8,1.7-2.7
	c0.2-0.4,0.5-0.7,0.8-1c0.4-0.5,0.5-0.9,0.3-1.5c-0.4-1-0.3-2.1-0.2-3.2c0.1-0.7,0.2-1.4,0.3-2.1c0.1-1,0.5-2,0.9-3
	c0.2-0.5,0.3-1.1,0.5-1.7c0-0.1,0-0.2,0-0.3c-0.2-1,0.3-1.8,1-2.5c0.5-0.5,1.1-1,1.7-1.5c1.8-1.4,3.9-2.1,6.1-2.7
	c1.3-0.3,2.6-0.6,3.9-0.8c0.5-0.1,1.1-0.1,1.7-0.2c0.9-0.1,1.7-0.1,2.6-0.2c2.8,0,5.4,0.5,7.9,1.6c1.7,0.7,3.3,1.6,4.5,3.1
	c0.9,1,1.6,2.2,2.1,3.4c0.7,1.6,1.2,3.4,1.5,5.1c0.1,0.5,0.1,1.1,0.1,1.6c0,0.5,0.1,0.9,0.1,1.3c-0.1,1-0.1,2-0.2,3
	c-0.2,2-0.7,4-1.4,5.9c-0.6,1.7-1.3,3.2-2.4,4.7c-0.2,0.4-0.5,0.7-0.8,1c-0.6,0.9-0.7,1.8-0.3,2.7c0.4,0.9,0.9,1.7,1.5,2.4
	c0.8,0.9,1.5,1.8,2.2,2.8c1.3,2,2.4,4.1,3.5,6.2c0.3,0.7,0.6,1.4,0.9,2.1c0.1,0.2,0.1,0.4,0.2,0.6
	C3557-982.1,3557-982.1,3556.4-981.7z M3542-1015.1c-0.9,0.2-1.5,1-1.3,1.9c0.2,0.9,1,1.4,1.9,1.3c0.9-0.2,1.4-1,1.3-1.9
	C3543.8-1014.7,3542.9-1015.3,3542-1015.1z M3529.6-1022c-0.4,0.3-0.6,0.8-0.3,1.3c0.3,0.4,0.9,0.5,1.3,0.2c0.4-0.3,0.5-0.9,0.3-1.3
	C3530.6-1022.2,3530-1022.3,3529.6-1022z M3530.9-1021.8c-0.3-0.4-0.9-0.5-1.3-0.3c-0.4,0.3-0.6,0.8-0.3,1.3
	c0.3,0.4,0.9,0.5,1.3,0.2C3531.1-1020.8,3531.2-1021.4,3530.9-1021.8z M3543.9-1013.8c-0.2-0.9-1.1-1.4-1.9-1.3
	c-0.9,0.2-1.5,1-1.3,1.9c0.2,0.9,1,1.4,1.9,1.3C3543.5-1012.1,3544.1-1012.9,3543.9-1013.8z M3535.3-831.9
	c-23.8,0-43.2,19.4-43.2,43.2c0,23.8,19.4,43.2,43.2,43.2c23.8,0,43.2-19.4,43.2-43.2C3578.5-812.6,3559.1-831.9,3535.3-831.9z
	 M3535.3-749.9c-21.4,0-38.8-17.4-38.8-38.8c0-21.4,17.4-38.9,38.8-38.9c21.4,0,38.9,17.4,38.9,38.9
	C3574.1-767.3,3556.7-749.9,3535.3-749.9z M3543.9-1013.8c-0.2-0.9-1.1-1.4-1.9-1.3c-0.9,0.2-1.5,1-1.3,1.9c0.2,0.9,1,1.4,1.9,1.3
	C3543.5-1012.1,3544.1-1012.9,3543.9-1013.8z M3530.9-1021.8c-0.3-0.4-0.9-0.5-1.3-0.3c-0.4,0.3-0.6,0.8-0.3,1.3
	c0.3,0.4,0.9,0.5,1.3,0.2C3531.1-1020.8,3531.2-1021.4,3530.9-1021.8z M3530.9-1021.8c-0.3-0.4-0.9-0.5-1.3-0.3
	c-0.4,0.3-0.6,0.8-0.3,1.3c0.3,0.4,0.9,0.5,1.3,0.2C3531.1-1020.8,3531.2-1021.4,3530.9-1021.8z M3543.9-1013.8
	c-0.2-0.9-1.1-1.4-1.9-1.3c-0.9,0.2-1.5,1-1.3,1.9c0.2,0.9,1,1.4,1.9,1.3C3543.5-1012.1,3544.1-1012.9,3543.9-1013.8z M3535.3-831.9
	c-23.8,0-43.2,19.4-43.2,43.2c0,23.8,19.4,43.2,43.2,43.2c23.8,0,43.2-19.4,43.2-43.2C3578.5-812.6,3559.1-831.9,3535.3-831.9z
	 M3535.3-749.9c-21.4,0-38.8-17.4-38.8-38.8c0-21.4,17.4-38.9,38.8-38.9c21.4,0,38.9,17.4,38.9,38.9
	C3574.1-767.3,3556.7-749.9,3535.3-749.9z M3543.9-1013.8c-0.2-0.9-1.1-1.4-1.9-1.3c-0.9,0.2-1.5,1-1.3,1.9c0.2,0.9,1,1.4,1.9,1.3
	C3543.5-1012.1,3544.1-1012.9,3543.9-1013.8z M3529.6-1022c-0.4,0.3-0.6,0.8-0.3,1.3c0.3,0.4,0.9,0.5,1.3,0.2
	c0.4-0.3,0.5-0.9,0.3-1.3C3530.6-1022.2,3530-1022.3,3529.6-1022z M3535.3-1044c-23.8,0-43.2,19.4-43.2,43.2
	c0,23.8,19.4,43.2,43.2,43.2c23.8,0,43.2-19.4,43.2-43.2C3578.5-1024.6,3559.1-1044,3535.3-1044z M3556.4-981.7
	c-1.6,1.2-3.4,2.3-5.2,3.2c-2.5,1.2-5.1,2.1-7.9,2.6c-1.4,0.3-2.8,0.5-4.2,0.5c-0.7,0-1.5,0.1-2.2,0.1c-0.9,0-1.8-0.1-2.8-0.2
	c-1-0.1-1.9-0.2-2.9-0.4c-0.7-0.1-0.7-0.1-0.4-0.7c0.2-0.4,0.4-0.9,0.6-1.3c0.8-1.6,1.5-3.1,2.3-4.7c0.2-0.5,0.4-0.9,0.6-1.4
	c0.1-0.4,0.1-0.7-0.1-1c-0.9-1.1-1.9-2.3-2.8-3.4c-0.8-1-1.6-2.1-2.2-3.2c-0.3-0.6-0.7-1.1-1.4-1.3c-0.2,0-0.4,0-0.6,0
	c-0.4,0-0.8,0.1-1.2,0.1c-0.8,0-1.6,0.1-2.3,0.1c-1.7,0-3.1-0.8-3.9-2.3c-0.3-0.5-0.4-1.2-0.3-1.8c0.1-0.7,0.1-1.2-0.4-1.8
	c-0.5-0.5-0.5-1.2-0.4-1.8c0.1-0.3,0.1-0.6-0.1-0.8c-0.5-0.6-0.5-1.2-0.3-1.9c0.1-0.3,0.1-0.7,0.2-1c0.1-0.5,0-0.7-0.5-0.9
	c-0.3-0.1-0.7-0.2-1-0.4c-0.2-0.1-0.3-0.2-0.5-0.2c-0.6-0.4-0.7-0.9-0.4-1.5c0.6-0.9,1.1-1.8,1.7-2.7c0.2-0.4,0.5-0.7,0.8-1
	c0.4-0.5,0.5-0.9,0.3-1.5c-0.4-1-0.3-2.1-0.2-3.2c0.1-0.7,0.2-1.4,0.3-2.1c0.1-1,0.5-2,0.9-3c0.2-0.5,0.3-1.1,0.5-1.7
	c0-0.1,0-0.2,0-0.3c-0.2-1,0.3-1.8,1-2.5c0.5-0.5,1.1-1,1.7-1.5c1.8-1.4,3.9-2.1,6.1-2.7c1.3-0.3,2.6-0.6,3.9-0.8
	c0.5-0.1,1.1-0.1,1.7-0.2c0.9-0.1,1.7-0.1,2.6-0.2c2.8,0,5.4,0.5,7.9,1.6c1.7,0.7,3.3,1.6,4.5,3.1c0.9,1,1.6,2.2,2.1,3.4
	c0.7,1.6,1.2,3.4,1.5,5.1c0.1,0.5,0.1,1.1,0.1,1.6c0,0.5,0.1,0.9,0.1,1.3c-0.1,1-0.1,2-0.2,3c-0.2,2-0.7,4-1.4,5.9
	c-0.6,1.7-1.3,3.2-2.4,4.7c-0.2,0.4-0.5,0.7-0.8,1c-0.6,0.9-0.7,1.8-0.3,2.7c0.4,0.9,0.9,1.7,1.5,2.4c0.8,0.9,1.5,1.8,2.2,2.8
	c1.3,2,2.4,4.1,3.5,6.2c0.3,0.7,0.6,1.4,0.9,2.1c0.1,0.2,0.1,0.4,0.2,0.6C3557-982.1,3557-982.1,3556.4-981.7z M3542-1015.1
	c-0.9,0.2-1.5,1-1.3,1.9c0.2,0.9,1,1.4,1.9,1.3c0.9-0.2,1.4-1,1.3-1.9C3543.8-1014.7,3542.9-1015.3,3542-1015.1z M3529.6-1022
	c-0.4,0.3-0.6,0.8-0.3,1.3c0.3,0.4,0.9,0.5,1.3,0.2c0.4-0.3,0.5-0.9,0.3-1.3C3530.6-1022.2,3530-1022.3,3529.6-1022z M3535.3-1256.7
	c-23.8,0-43.2,19.4-43.2,43.2c0,23.8,19.4,43.2,43.2,43.2c23.8,0,43.2-19.4,43.2-43.2C3578.5-1237.3,3559.1-1256.7,3535.3-1256.7z
	 M3552.9-1192.6l-13.9-13.9l1.4-1.4l-3.1-3.1l-13.2,15.6l-4,1.4l-1.6-1.2l0.8-4.1l13.4-16.2l-7.4-7.4l-5.4,5.4l-6.4-6.4l9.3-9.3
	c3.5,3.5,7.6,0.6,7.6,0.6l2.3,2.3l-6.1,6.1l7.3,7.3l5.9-7.2l-0.2-2.7c0-0.3,0-0.6,0-0.8c0-3.1,1.7-6.1,7.9-6.6l-1.9,5.6l2.9,2.5
	l5.2-3c0.6,6.7-2.6,8.7-6,9l-2.7,0.2l-6.4,7.6l3.2,3.2l1.6-1.7l14,13.9L3552.9-1192.6z M3535.3-1170.3c23.8,0,43.2-19.4,43.2-43.2
	c0-23.8-19.4-43.2-43.2-43.2c-23.8,0-43.2,19.4-43.2,43.2C3492.1-1189.7,3511.5-1170.3,3535.3-1170.3z M3522.8-1233.4
	c3.5,3.5,7.6,0.6,7.6,0.6l2.3,2.3l-6.1,6.1l7.3,7.3l5.9-7.2l-0.2-2.7c0-0.3,0-0.6,0-0.8c0-3.1,1.7-6.1,7.9-6.6l-1.9,5.6l2.9,2.5
	l5.2-3c0.6,6.7-2.6,8.7-6,9l-2.7,0.2l-6.4,7.6l3.2,3.2l1.6-1.7l14,13.9l-4.4,4.4l-13.9-13.9l1.4-1.4l-3.1-3.1l-13.2,15.6l-4,1.4
	l-1.6-1.2l0.8-4.1l13.4-16.2l-7.4-7.4l-5.4,5.4l-6.4-6.4L3522.8-1233.4z M3535.3-1044c-23.8,0-43.2,19.4-43.2,43.2
	c0,23.8,19.4,43.2,43.2,43.2c23.8,0,43.2-19.4,43.2-43.2C3578.5-1024.6,3559.1-1044,3535.3-1044z M3556.4-981.7
	c-1.6,1.2-3.4,2.3-5.2,3.2c-2.5,1.2-5.1,2.1-7.9,2.6c-1.4,0.3-2.8,0.5-4.2,0.5c-0.7,0-1.5,0.1-2.2,0.1c-0.9,0-1.8-0.1-2.8-0.2
	c-1-0.1-1.9-0.2-2.9-0.4c-0.7-0.1-0.7-0.1-0.4-0.7c0.2-0.4,0.4-0.9,0.6-1.3c0.8-1.6,1.5-3.1,2.3-4.7c0.2-0.5,0.4-0.9,0.6-1.4
	c0.1-0.4,0.1-0.7-0.1-1c-0.9-1.1-1.9-2.3-2.8-3.4c-0.8-1-1.6-2.1-2.2-3.2c-0.3-0.6-0.7-1.1-1.4-1.3c-0.2,0-0.4,0-0.6,0
	c-0.4,0-0.8,0.1-1.2,0.1c-0.8,0-1.6,0.1-2.3,0.1c-1.7,0-3.1-0.8-3.9-2.3c-0.3-0.5-0.4-1.2-0.3-1.8c0.1-0.7,0.1-1.2-0.4-1.8
	c-0.5-0.5-0.5-1.2-0.4-1.8c0.1-0.3,0.1-0.6-0.1-0.8c-0.5-0.6-0.5-1.2-0.3-1.9c0.1-0.3,0.1-0.7,0.2-1c0.1-0.5,0-0.7-0.5-0.9
	c-0.3-0.1-0.7-0.2-1-0.4c-0.2-0.1-0.3-0.2-0.5-0.2c-0.6-0.4-0.7-0.9-0.4-1.5c0.6-0.9,1.1-1.8,1.7-2.7c0.2-0.4,0.5-0.7,0.8-1
	c0.4-0.5,0.5-0.9,0.3-1.5c-0.4-1-0.3-2.1-0.2-3.2c0.1-0.7,0.2-1.4,0.3-2.1c0.1-1,0.5-2,0.9-3c0.2-0.5,0.3-1.1,0.5-1.7
	c0-0.1,0-0.2,0-0.3c-0.2-1,0.3-1.8,1-2.5c0.5-0.5,1.1-1,1.7-1.5c1.8-1.4,3.9-2.1,6.1-2.7c1.3-0.3,2.6-0.6,3.9-0.8
	c0.5-0.1,1.1-0.1,1.7-0.2c0.9-0.1,1.7-0.1,2.6-0.2c2.8,0,5.4,0.5,7.9,1.6c1.7,0.7,3.3,1.6,4.5,3.1c0.9,1,1.6,2.2,2.1,3.4
	c0.7,1.6,1.2,3.4,1.5,5.1c0.1,0.5,0.1,1.1,0.1,1.6c0,0.5,0.1,0.9,0.1,1.3c-0.1,1-0.1,2-0.2,3c-0.2,2-0.7,4-1.4,5.9
	c-0.6,1.7-1.3,3.2-2.4,4.7c-0.2,0.4-0.5,0.7-0.8,1c-0.6,0.9-0.7,1.8-0.3,2.7c0.4,0.9,0.9,1.7,1.5,2.4c0.8,0.9,1.5,1.8,2.2,2.8
	c1.3,2,2.4,4.1,3.5,6.2c0.3,0.7,0.6,1.4,0.9,2.1c0.1,0.2,0.1,0.4,0.2,0.6C3557-982.1,3557-982.1,3556.4-981.7z M3535.3-831.9
	c-23.8,0-43.2,19.4-43.2,43.2c0,23.8,19.4,43.2,43.2,43.2c23.8,0,43.2-19.4,43.2-43.2C3578.5-812.6,3559.1-831.9,3535.3-831.9z
	 M3535.3-749.9c-21.4,0-38.8-17.4-38.8-38.8c0-21.4,17.4-38.9,38.8-38.9c21.4,0,38.9,17.4,38.9,38.9
	C3574.1-767.3,3556.7-749.9,3535.3-749.9z M3542-1015.1c-0.9,0.2-1.5,1-1.3,1.9c0.2,0.9,1,1.4,1.9,1.3c0.9-0.2,1.4-1,1.3-1.9
	C3543.8-1014.7,3542.9-1015.3,3542-1015.1z M3529.6-1022c-0.4,0.3-0.6,0.8-0.3,1.3c0.3,0.4,0.9,0.5,1.3,0.2c0.4-0.3,0.5-0.9,0.3-1.3
	C3530.6-1022.2,3530-1022.3,3529.6-1022z M3535.3-1170.3c23.8,0,43.2-19.4,43.2-43.2c0-23.8-19.4-43.2-43.2-43.2
	c-23.8,0-43.2,19.4-43.2,43.2C3492.1-1189.7,3511.5-1170.3,3535.3-1170.3z M3522.8-1233.4c3.5,3.5,7.6,0.6,7.6,0.6l2.3,2.3l-6.1,6.1
	l7.3,7.3l5.9-7.2l-0.2-2.7c0-0.3,0-0.6,0-0.8c0-3.1,1.7-6.1,7.9-6.6l-1.9,5.6l2.9,2.5l5.2-3c0.6,6.7-2.6,8.7-6,9l-2.7,0.2l-6.4,7.6
	l3.2,3.2l1.6-1.7l14,13.9l-4.4,4.4l-13.9-13.9l1.4-1.4l-3.1-3.1l-13.2,15.6l-4,1.4l-1.6-1.2l0.8-4.1l13.4-16.2l-7.4-7.4l-5.4,5.4
	l-6.4-6.4L3522.8-1233.4z M3535.3-1044c-23.8,0-43.2,19.4-43.2,43.2c0,23.8,19.4,43.2,43.2,43.2c23.8,0,43.2-19.4,43.2-43.2
	C3578.5-1024.6,3559.1-1044,3535.3-1044z M3556.4-981.7c-1.6,1.2-3.4,2.3-5.2,3.2c-2.5,1.2-5.1,2.1-7.9,2.6
	c-1.4,0.3-2.8,0.5-4.2,0.5c-0.7,0-1.5,0.1-2.2,0.1c-0.9,0-1.8-0.1-2.8-0.2c-1-0.1-1.9-0.2-2.9-0.4c-0.7-0.1-0.7-0.1-0.4-0.7
	c0.2-0.4,0.4-0.9,0.6-1.3c0.8-1.6,1.5-3.1,2.3-4.7c0.2-0.5,0.4-0.9,0.6-1.4c0.1-0.4,0.1-0.7-0.1-1c-0.9-1.1-1.9-2.3-2.8-3.4
	c-0.8-1-1.6-2.1-2.2-3.2c-0.3-0.6-0.7-1.1-1.4-1.3c-0.2,0-0.4,0-0.6,0c-0.4,0-0.8,0.1-1.2,0.1c-0.8,0-1.6,0.1-2.3,0.1
	c-1.7,0-3.1-0.8-3.9-2.3c-0.3-0.5-0.4-1.2-0.3-1.8c0.1-0.7,0.1-1.2-0.4-1.8c-0.5-0.5-0.5-1.2-0.4-1.8c0.1-0.3,0.1-0.6-0.1-0.8
	c-0.5-0.6-0.5-1.2-0.3-1.9c0.1-0.3,0.1-0.7,0.2-1c0.1-0.5,0-0.7-0.5-0.9c-0.3-0.1-0.7-0.2-1-0.4c-0.2-0.1-0.3-0.2-0.5-0.2
	c-0.6-0.4-0.7-0.9-0.4-1.5c0.6-0.9,1.1-1.8,1.7-2.7c0.2-0.4,0.5-0.7,0.8-1c0.4-0.5,0.5-0.9,0.3-1.5c-0.4-1-0.3-2.1-0.2-3.2
	c0.1-0.7,0.2-1.4,0.3-2.1c0.1-1,0.5-2,0.9-3c0.2-0.5,0.3-1.1,0.5-1.7c0-0.1,0-0.2,0-0.3c-0.2-1,0.3-1.8,1-2.5c0.5-0.5,1.1-1,1.7-1.5
	c1.8-1.4,3.9-2.1,6.1-2.7c1.3-0.3,2.6-0.6,3.9-0.8c0.5-0.1,1.1-0.1,1.7-0.2c0.9-0.1,1.7-0.1,2.6-0.2c2.8,0,5.4,0.5,7.9,1.6
	c1.7,0.7,3.3,1.6,4.5,3.1c0.9,1,1.6,2.2,2.1,3.4c0.7,1.6,1.2,3.4,1.5,5.1c0.1,0.5,0.1,1.1,0.1,1.6c0,0.5,0.1,0.9,0.1,1.3
	c-0.1,1-0.1,2-0.2,3c-0.2,2-0.7,4-1.4,5.9c-0.6,1.7-1.3,3.2-2.4,4.7c-0.2,0.4-0.5,0.7-0.8,1c-0.6,0.9-0.7,1.8-0.3,2.7
	c0.4,0.9,0.9,1.7,1.5,2.4c0.8,0.9,1.5,1.8,2.2,2.8c1.3,2,2.4,4.1,3.5,6.2c0.3,0.7,0.6,1.4,0.9,2.1c0.1,0.2,0.1,0.4,0.2,0.6
	C3557-982.1,3557-982.1,3556.4-981.7z M3535.3-831.9c-23.8,0-43.2,19.4-43.2,43.2c0,23.8,19.4,43.2,43.2,43.2
	c23.8,0,43.2-19.4,43.2-43.2C3578.5-812.6,3559.1-831.9,3535.3-831.9z M3535.3-749.9c-21.4,0-38.8-17.4-38.8-38.8
	c0-21.4,17.4-38.9,38.8-38.9c21.4,0,38.9,17.4,38.9,38.9C3574.1-767.3,3556.7-749.9,3535.3-749.9z M3542-1015.1
	c-0.9,0.2-1.5,1-1.3,1.9c0.2,0.9,1,1.4,1.9,1.3c0.9-0.2,1.4-1,1.3-1.9C3543.8-1014.7,3542.9-1015.3,3542-1015.1z M3529.6-1022
	c-0.4,0.3-0.6,0.8-0.3,1.3c0.3,0.4,0.9,0.5,1.3,0.2c0.4-0.3,0.5-0.9,0.3-1.3C3530.6-1022.2,3530-1022.3,3529.6-1022z M3530.9-1021.8
	c-0.3-0.4-0.9-0.5-1.3-0.3c-0.4,0.3-0.6,0.8-0.3,1.3c0.3,0.4,0.9,0.5,1.3,0.2C3531.1-1020.8,3531.2-1021.4,3530.9-1021.8z
	 M3543.9-1013.8c-0.2-0.9-1.1-1.4-1.9-1.3c-0.9,0.2-1.5,1-1.3,1.9c0.2,0.9,1,1.4,1.9,1.3C3543.5-1012.1,3544.1-1012.9,3543.9-1013.8
	z M3535.3-831.9c-23.8,0-43.2,19.4-43.2,43.2c0,23.8,19.4,43.2,43.2,43.2c23.8,0,43.2-19.4,43.2-43.2
	C3578.5-812.6,3559.1-831.9,3535.3-831.9z M3535.3-749.9c-21.4,0-38.8-17.4-38.8-38.8c0-21.4,17.4-38.9,38.8-38.9
	c21.4,0,38.9,17.4,38.9,38.9C3574.1-767.3,3556.7-749.9,3535.3-749.9z M3543.9-1013.8c-0.2-0.9-1.1-1.4-1.9-1.3
	c-0.9,0.2-1.5,1-1.3,1.9c0.2,0.9,1,1.4,1.9,1.3C3543.5-1012.1,3544.1-1012.9,3543.9-1013.8z M3529.6-1022c-0.4,0.3-0.6,0.8-0.3,1.3
	c0.3,0.4,0.9,0.5,1.3,0.2c0.4-0.3,0.5-0.9,0.3-1.3C3530.6-1022.2,3530-1022.3,3529.6-1022z M3535.3-1044
	c-23.8,0-43.2,19.4-43.2,43.2c0,23.8,19.4,43.2,43.2,43.2c23.8,0,43.2-19.4,43.2-43.2C3578.5-1024.6,3559.1-1044,3535.3-1044z
	 M3556.4-981.7c-1.6,1.2-3.4,2.3-5.2,3.2c-2.5,1.2-5.1,2.1-7.9,2.6c-1.4,0.3-2.8,0.5-4.2,0.5c-0.7,0-1.5,0.1-2.2,0.1
	c-0.9,0-1.8-0.1-2.8-0.2c-1-0.1-1.9-0.2-2.9-0.4c-0.7-0.1-0.7-0.1-0.4-0.7c0.2-0.4,0.4-0.9,0.6-1.3c0.8-1.6,1.5-3.1,2.3-4.7
	c0.2-0.5,0.4-0.9,0.6-1.4c0.1-0.4,0.1-0.7-0.1-1c-0.9-1.1-1.9-2.3-2.8-3.4c-0.8-1-1.6-2.1-2.2-3.2c-0.3-0.6-0.7-1.1-1.4-1.3
	c-0.2,0-0.4,0-0.6,0c-0.4,0-0.8,0.1-1.2,0.1c-0.8,0-1.6,0.1-2.3,0.1c-1.7,0-3.1-0.8-3.9-2.3c-0.3-0.5-0.4-1.2-0.3-1.8
	c0.1-0.7,0.1-1.2-0.4-1.8c-0.5-0.5-0.5-1.2-0.4-1.8c0.1-0.3,0.1-0.6-0.1-0.8c-0.5-0.6-0.5-1.2-0.3-1.9c0.1-0.3,0.1-0.7,0.2-1
	c0.1-0.5,0-0.7-0.5-0.9c-0.3-0.1-0.7-0.2-1-0.4c-0.2-0.1-0.3-0.2-0.5-0.2c-0.6-0.4-0.7-0.9-0.4-1.5c0.6-0.9,1.1-1.8,1.7-2.7
	c0.2-0.4,0.5-0.7,0.8-1c0.4-0.5,0.5-0.9,0.3-1.5c-0.4-1-0.3-2.1-0.2-3.2c0.1-0.7,0.2-1.4,0.3-2.1c0.1-1,0.5-2,0.9-3
	c0.2-0.5,0.3-1.1,0.5-1.7c0-0.1,0-0.2,0-0.3c-0.2-1,0.3-1.8,1-2.5c0.5-0.5,1.1-1,1.7-1.5c1.8-1.4,3.9-2.1,6.1-2.7
	c1.3-0.3,2.6-0.6,3.9-0.8c0.5-0.1,1.1-0.1,1.7-0.2c0.9-0.1,1.7-0.1,2.6-0.2c2.8,0,5.4,0.5,7.9,1.6c1.7,0.7,3.3,1.6,4.5,3.1
	c0.9,1,1.6,2.2,2.1,3.4c0.7,1.6,1.2,3.4,1.5,5.1c0.1,0.5,0.1,1.1,0.1,1.6c0,0.5,0.1,0.9,0.1,1.3c-0.1,1-0.1,2-0.2,3
	c-0.2,2-0.7,4-1.4,5.9c-0.6,1.7-1.3,3.2-2.4,4.7c-0.2,0.4-0.5,0.7-0.8,1c-0.6,0.9-0.7,1.8-0.3,2.7c0.4,0.9,0.9,1.7,1.5,2.4
	c0.8,0.9,1.5,1.8,2.2,2.8c1.3,2,2.4,4.1,3.5,6.2c0.3,0.7,0.6,1.4,0.9,2.1c0.1,0.2,0.1,0.4,0.2,0.6
	C3557-982.1,3557-982.1,3556.4-981.7z M3542-1015.1c-0.9,0.2-1.5,1-1.3,1.9c0.2,0.9,1,1.4,1.9,1.3c0.9-0.2,1.4-1,1.3-1.9
	C3543.8-1014.7,3542.9-1015.3,3542-1015.1z M3529.6-1022c-0.4,0.3-0.6,0.8-0.3,1.3c0.3,0.4,0.9,0.5,1.3,0.2c0.4-0.3,0.5-0.9,0.3-1.3
	C3530.6-1022.2,3530-1022.3,3529.6-1022z M3535.3-1256.7c-23.8,0-43.2,19.4-43.2,43.2c0,23.8,19.4,43.2,43.2,43.2
	c23.8,0,43.2-19.4,43.2-43.2C3578.5-1237.3,3559.1-1256.7,3535.3-1256.7z M3552.9-1192.6l-13.9-13.9l1.4-1.4l-3.1-3.1l-13.2,15.6
	l-4,1.4l-1.6-1.2l0.8-4.1l13.4-16.2l-7.4-7.4l-5.4,5.4l-6.4-6.4l9.3-9.3c3.5,3.5,7.6,0.6,7.6,0.6l2.3,2.3l-6.1,6.1l7.3,7.3l5.9-7.2
	l-0.2-2.7c0-0.3,0-0.6,0-0.8c0-3.1,1.7-6.1,7.9-6.6l-1.9,5.6l2.9,2.5l5.2-3c0.6,6.7-2.6,8.7-6,9l-2.7,0.2l-6.4,7.6l3.2,3.2l1.6-1.7
	l14,13.9L3552.9-1192.6z M3535.3-1256.7c-23.8,0-43.2,19.4-43.2,43.2c0,23.8,19.4,43.2,43.2,43.2c23.8,0,43.2-19.4,43.2-43.2
	C3578.5-1237.3,3559.1-1256.7,3535.3-1256.7z M3552.9-1192.6l-13.9-13.9l1.4-1.4l-3.1-3.1l-13.2,15.6l-4,1.4l-1.6-1.2l0.8-4.1
	l13.4-16.2l-7.4-7.4l-5.4,5.4l-6.4-6.4l9.3-9.3c3.5,3.5,7.6,0.6,7.6,0.6l2.3,2.3l-6.1,6.1l7.3,7.3l5.9-7.2l-0.2-2.7
	c0-0.3,0-0.6,0-0.8c0-3.1,1.7-6.1,7.9-6.6l-1.9,5.6l2.9,2.5l5.2-3c0.6,6.7-2.6,8.7-6,9l-2.7,0.2l-6.4,7.6l3.2,3.2l1.6-1.7l14,13.9
	L3552.9-1192.6z M3530.9-1021.8c-0.3-0.4-0.9-0.5-1.3-0.3c-0.4,0.3-0.6,0.8-0.3,1.3c0.3,0.4,0.9,0.5,1.3,0.2
	C3531.1-1020.8,3531.2-1021.4,3530.9-1021.8z M3543.9-1013.8c-0.2-0.9-1.1-1.4-1.9-1.3c-0.9,0.2-1.5,1-1.3,1.9
	c0.2,0.9,1,1.4,1.9,1.3C3543.5-1012.1,3544.1-1012.9,3543.9-1013.8z M3543.9-1013.8c-0.2-0.9-1.1-1.4-1.9-1.3
	c-0.9,0.2-1.5,1-1.3,1.9c0.2,0.9,1,1.4,1.9,1.3C3543.5-1012.1,3544.1-1012.9,3543.9-1013.8z M3529.6-1022c-0.4,0.3-0.6,0.8-0.3,1.3
	c0.3,0.4,0.9,0.5,1.3,0.2c0.4-0.3,0.5-0.9,0.3-1.3C3530.6-1022.2,3530-1022.3,3529.6-1022z M3535.3-1044
	c-23.8,0-43.2,19.4-43.2,43.2c0,23.8,19.4,43.2,43.2,43.2c23.8,0,43.2-19.4,43.2-43.2C3578.5-1024.6,3559.1-1044,3535.3-1044z
	 M3556.4-981.7c-1.6,1.2-3.4,2.3-5.2,3.2c-2.5,1.2-5.1,2.1-7.9,2.6c-1.4,0.3-2.8,0.5-4.2,0.5c-0.7,0-1.5,0.1-2.2,0.1
	c-0.9,0-1.8-0.1-2.8-0.2c-1-0.1-1.9-0.2-2.9-0.4c-0.7-0.1-0.7-0.1-0.4-0.7c0.2-0.4,0.4-0.9,0.6-1.3c0.8-1.6,1.5-3.1,2.3-4.7
	c0.2-0.5,0.4-0.9,0.6-1.4c0.1-0.4,0.1-0.7-0.1-1c-0.9-1.1-1.9-2.3-2.8-3.4c-0.8-1-1.6-2.1-2.2-3.2c-0.3-0.6-0.7-1.1-1.4-1.3
	c-0.2,0-0.4,0-0.6,0c-0.4,0-0.8,0.1-1.2,0.1c-0.8,0-1.6,0.1-2.3,0.1c-1.7,0-3.1-0.8-3.9-2.3c-0.3-0.5-0.4-1.2-0.3-1.8
	c0.1-0.7,0.1-1.2-0.4-1.8c-0.5-0.5-0.5-1.2-0.4-1.8c0.1-0.3,0.1-0.6-0.1-0.8c-0.5-0.6-0.5-1.2-0.3-1.9c0.1-0.3,0.1-0.7,0.2-1
	c0.1-0.5,0-0.7-0.5-0.9c-0.3-0.1-0.7-0.2-1-0.4c-0.2-0.1-0.3-0.2-0.5-0.2c-0.6-0.4-0.7-0.9-0.4-1.5c0.6-0.9,1.1-1.8,1.7-2.7
	c0.2-0.4,0.5-0.7,0.8-1c0.4-0.5,0.5-0.9,0.3-1.5c-0.4-1-0.3-2.1-0.2-3.2c0.1-0.7,0.2-1.4,0.3-2.1c0.1-1,0.5-2,0.9-3
	c0.2-0.5,0.3-1.1,0.5-1.7c0-0.1,0-0.2,0-0.3c-0.2-1,0.3-1.8,1-2.5c0.5-0.5,1.1-1,1.7-1.5c1.8-1.4,3.9-2.1,6.1-2.7
	c1.3-0.3,2.6-0.6,3.9-0.8c0.5-0.1,1.1-0.1,1.7-0.2c0.9-0.1,1.7-0.1,2.6-0.2c2.8,0,5.4,0.5,7.9,1.6c1.7,0.7,3.3,1.6,4.5,3.1
	c0.9,1,1.6,2.2,2.1,3.4c0.7,1.6,1.2,3.4,1.5,5.1c0.1,0.5,0.1,1.1,0.1,1.6c0,0.5,0.1,0.9,0.1,1.3c-0.1,1-0.1,2-0.2,3
	c-0.2,2-0.7,4-1.4,5.9c-0.6,1.7-1.3,3.2-2.4,4.7c-0.2,0.4-0.5,0.7-0.8,1c-0.6,0.9-0.7,1.8-0.3,2.7c0.4,0.9,0.9,1.7,1.5,2.4
	c0.8,0.9,1.5,1.8,2.2,2.8c1.3,2,2.4,4.1,3.5,6.2c0.3,0.7,0.6,1.4,0.9,2.1c0.1,0.2,0.1,0.4,0.2,0.6
	C3557-982.1,3557-982.1,3556.4-981.7z M3542-1015.1c-0.9,0.2-1.5,1-1.3,1.9c0.2,0.9,1,1.4,1.9,1.3c0.9-0.2,1.4-1,1.3-1.9
	C3543.8-1014.7,3542.9-1015.3,3542-1015.1z M3529.6-1022c-0.4,0.3-0.6,0.8-0.3,1.3c0.3,0.4,0.9,0.5,1.3,0.2c0.4-0.3,0.5-0.9,0.3-1.3
	C3530.6-1022.2,3530-1022.3,3529.6-1022z M3530.9-1021.8c-0.3-0.4-0.9-0.5-1.3-0.3c-0.4,0.3-0.6,0.8-0.3,1.3
	c0.3,0.4,0.9,0.5,1.3,0.2C3531.1-1020.8,3531.2-1021.4,3530.9-1021.8z M3543.9-1013.8c-0.2-0.9-1.1-1.4-1.9-1.3
	c-0.9,0.2-1.5,1-1.3,1.9c0.2,0.9,1,1.4,1.9,1.3C3543.5-1012.1,3544.1-1012.9,3543.9-1013.8z M3535.3-831.9
	c-23.8,0-43.2,19.4-43.2,43.2c0,23.8,19.4,43.2,43.2,43.2c23.8,0,43.2-19.4,43.2-43.2C3578.5-812.6,3559.1-831.9,3535.3-831.9z
	 M3535.3-749.9c-21.4,0-38.8-17.4-38.8-38.8c0-21.4,17.4-38.9,38.8-38.9c21.4,0,38.9,17.4,38.9,38.9
	C3574.1-767.3,3556.7-749.9,3535.3-749.9z M3543.9-1013.8c-0.2-0.9-1.1-1.4-1.9-1.3c-0.9,0.2-1.5,1-1.3,1.9c0.2,0.9,1,1.4,1.9,1.3
	C3543.5-1012.1,3544.1-1012.9,3543.9-1013.8z M3530.9-1021.8c-0.3-0.4-0.9-0.5-1.3-0.3c-0.4,0.3-0.6,0.8-0.3,1.3
	c0.3,0.4,0.9,0.5,1.3,0.2C3531.1-1020.8,3531.2-1021.4,3530.9-1021.8z M3530.9-1021.8c-0.3-0.4-0.9-0.5-1.3-0.3
	c-0.4,0.3-0.6,0.8-0.3,1.3c0.3,0.4,0.9,0.5,1.3,0.2C3531.1-1020.8,3531.2-1021.4,3530.9-1021.8z M3543.9-1013.8
	c-0.2-0.9-1.1-1.4-1.9-1.3c-0.9,0.2-1.5,1-1.3,1.9c0.2,0.9,1,1.4,1.9,1.3C3543.5-1012.1,3544.1-1012.9,3543.9-1013.8z M3535.3-831.9
	c-23.8,0-43.2,19.4-43.2,43.2c0,23.8,19.4,43.2,43.2,43.2c23.8,0,43.2-19.4,43.2-43.2C3578.5-812.6,3559.1-831.9,3535.3-831.9z
	 M3535.3-749.9c-21.4,0-38.8-17.4-38.8-38.8c0-21.4,17.4-38.9,38.8-38.9c21.4,0,38.9,17.4,38.9,38.9
	C3574.1-767.3,3556.7-749.9,3535.3-749.9z M3543.9-1013.8c-0.2-0.9-1.1-1.4-1.9-1.3c-0.9,0.2-1.5,1-1.3,1.9c0.2,0.9,1,1.4,1.9,1.3
	C3543.5-1012.1,3544.1-1012.9,3543.9-1013.8z M3530.9-1021.8c-0.3-0.4-0.9-0.5-1.3-0.3c-0.4,0.3-0.6,0.8-0.3,1.3
	c0.3,0.4,0.9,0.5,1.3,0.2C3531.1-1020.8,3531.2-1021.4,3530.9-1021.8z M3530.9-1021.8c-0.3-0.4-0.9-0.5-1.3-0.3
	c-0.4,0.3-0.6,0.8-0.3,1.3c0.3,0.4,0.9,0.5,1.3,0.2C3531.1-1020.8,3531.2-1021.4,3530.9-1021.8z M3543.9-1013.8
	c-0.2-0.9-1.1-1.4-1.9-1.3c-0.9,0.2-1.5,1-1.3,1.9c0.2,0.9,1,1.4,1.9,1.3C3543.5-1012.1,3544.1-1012.9,3543.9-1013.8z
	 M3543.9-1013.8c-0.2-0.9-1.1-1.4-1.9-1.3c-0.9,0.2-1.5,1-1.3,1.9c0.2,0.9,1,1.4,1.9,1.3C3543.5-1012.1,3544.1-1012.9,3543.9-1013.8
	z M3529.6-1022c-0.4,0.3-0.6,0.8-0.3,1.3c0.3,0.4,0.9,0.5,1.3,0.2c0.4-0.3,0.5-0.9,0.3-1.3C3530.6-1022.2,3530-1022.3,3529.6-1022z
	 M3535.3-1044c-23.8,0-43.2,19.4-43.2,43.2c0,23.8,19.4,43.2,43.2,43.2c23.8,0,43.2-19.4,43.2-43.2
	C3578.5-1024.6,3559.1-1044,3535.3-1044z M3556.4-981.7c-1.6,1.2-3.4,2.3-5.2,3.2c-2.5,1.2-5.1,2.1-7.9,2.6
	c-1.4,0.3-2.8,0.5-4.2,0.5c-0.7,0-1.5,0.1-2.2,0.1c-0.9,0-1.8-0.1-2.8-0.2c-1-0.1-1.9-0.2-2.9-0.4c-0.7-0.1-0.7-0.1-0.4-0.7
	c0.2-0.4,0.4-0.9,0.6-1.3c0.8-1.6,1.5-3.1,2.3-4.7c0.2-0.5,0.4-0.9,0.6-1.4c0.1-0.4,0.1-0.7-0.1-1c-0.9-1.1-1.9-2.3-2.8-3.4
	c-0.8-1-1.6-2.1-2.2-3.2c-0.3-0.6-0.7-1.1-1.4-1.3c-0.2,0-0.4,0-0.6,0c-0.4,0-0.8,0.1-1.2,0.1c-0.8,0-1.6,0.1-2.3,0.1
	c-1.7,0-3.1-0.8-3.9-2.3c-0.3-0.5-0.4-1.2-0.3-1.8c0.1-0.7,0.1-1.2-0.4-1.8c-0.5-0.5-0.5-1.2-0.4-1.8c0.1-0.3,0.1-0.6-0.1-0.8
	c-0.5-0.6-0.5-1.2-0.3-1.9c0.1-0.3,0.1-0.7,0.2-1c0.1-0.5,0-0.7-0.5-0.9c-0.3-0.1-0.7-0.2-1-0.4c-0.2-0.1-0.3-0.2-0.5-0.2
	c-0.6-0.4-0.7-0.9-0.4-1.5c0.6-0.9,1.1-1.8,1.7-2.7c0.2-0.4,0.5-0.7,0.8-1c0.4-0.5,0.5-0.9,0.3-1.5c-0.4-1-0.3-2.1-0.2-3.2
	c0.1-0.7,0.2-1.4,0.3-2.1c0.1-1,0.5-2,0.9-3c0.2-0.5,0.3-1.1,0.5-1.7c0-0.1,0-0.2,0-0.3c-0.2-1,0.3-1.8,1-2.5c0.5-0.5,1.1-1,1.7-1.5
	c1.8-1.4,3.9-2.1,6.1-2.7c1.3-0.3,2.6-0.6,3.9-0.8c0.5-0.1,1.1-0.1,1.7-0.2c0.9-0.1,1.7-0.1,2.6-0.2c2.8,0,5.4,0.5,7.9,1.6
	c1.7,0.7,3.3,1.6,4.5,3.1c0.9,1,1.6,2.2,2.1,3.4c0.7,1.6,1.2,3.4,1.5,5.1c0.1,0.5,0.1,1.1,0.1,1.6c0,0.5,0.1,0.9,0.1,1.3
	c-0.1,1-0.1,2-0.2,3c-0.2,2-0.7,4-1.4,5.9c-0.6,1.7-1.3,3.2-2.4,4.7c-0.2,0.4-0.5,0.7-0.8,1c-0.6,0.9-0.7,1.8-0.3,2.7
	c0.4,0.9,0.9,1.7,1.5,2.4c0.8,0.9,1.5,1.8,2.2,2.8c1.3,2,2.4,4.1,3.5,6.2c0.3,0.7,0.6,1.4,0.9,2.1c0.1,0.2,0.1,0.4,0.2,0.6
	C3557-982.1,3557-982.1,3556.4-981.7z M3542-1015.1c-0.9,0.2-1.5,1-1.3,1.9c0.2,0.9,1,1.4,1.9,1.3c0.9-0.2,1.4-1,1.3-1.9
	C3543.8-1014.7,3542.9-1015.3,3542-1015.1z M3529.6-1022c-0.4,0.3-0.6,0.8-0.3,1.3c0.3,0.4,0.9,0.5,1.3,0.2c0.4-0.3,0.5-0.9,0.3-1.3
	C3530.6-1022.2,3530-1022.3,3529.6-1022z M3530.9-1021.8c-0.3-0.4-0.9-0.5-1.3-0.3c-0.4,0.3-0.6,0.8-0.3,1.3
	c0.3,0.4,0.9,0.5,1.3,0.2C3531.1-1020.8,3531.2-1021.4,3530.9-1021.8z M3543.9-1013.8c-0.2-0.9-1.1-1.4-1.9-1.3
	c-0.9,0.2-1.5,1-1.3,1.9c0.2,0.9,1,1.4,1.9,1.3C3543.5-1012.1,3544.1-1012.9,3543.9-1013.8z M3543.9-1013.8
	c-0.2-0.9-1.1-1.4-1.9-1.3c-0.9,0.2-1.5,1-1.3,1.9c0.2,0.9,1,1.4,1.9,1.3C3543.5-1012.1,3544.1-1012.9,3543.9-1013.8z
	 M3530.9-1021.8c-0.3-0.4-0.9-0.5-1.3-0.3c-0.4,0.3-0.6,0.8-0.3,1.3c0.3,0.4,0.9,0.5,1.3,0.2
	C3531.1-1020.8,3531.2-1021.4,3530.9-1021.8z M3535.3-1256.7c-23.8,0-43.2,19.4-43.2,43.2c0,23.8,19.4,43.2,43.2,43.2
	c23.8,0,43.2-19.4,43.2-43.2C3578.5-1237.3,3559.1-1256.7,3535.3-1256.7z M3552.9-1192.6l-13.9-13.9l1.4-1.4l-3.1-3.1l-13.2,15.6
	l-4,1.4l-1.6-1.2l0.8-4.1l13.4-16.2l-7.4-7.4l-5.4,5.4l-6.4-6.4l9.3-9.3c3.5,3.5,7.6,0.6,7.6,0.6l2.3,2.3l-6.1,6.1l7.3,7.3l5.9-7.2
	l-0.2-2.7c0-0.3,0-0.6,0-0.8c0-3.1,1.7-6.1,7.9-6.6l-1.9,5.6l2.9,2.5l5.2-3c0.6,6.7-2.6,8.7-6,9l-2.7,0.2l-6.4,7.6l3.2,3.2l1.6-1.7
	l14,13.9L3552.9-1192.6z M3535.3-1256.7c-23.8,0-43.2,19.4-43.2,43.2c0,23.8,19.4,43.2,43.2,43.2c23.8,0,43.2-19.4,43.2-43.2
	C3578.5-1237.3,3559.1-1256.7,3535.3-1256.7z M3552.9-1192.6l-13.9-13.9l1.4-1.4l-3.1-3.1l-13.2,15.6l-4,1.4l-1.6-1.2l0.8-4.1
	l13.4-16.2l-7.4-7.4l-5.4,5.4l-6.4-6.4l9.3-9.3c3.5,3.5,7.6,0.6,7.6,0.6l2.3,2.3l-6.1,6.1l7.3,7.3l5.9-7.2l-0.2-2.7
	c0-0.3,0-0.6,0-0.8c0-3.1,1.7-6.1,7.9-6.6l-1.9,5.6l2.9,2.5l5.2-3c0.6,6.7-2.6,8.7-6,9l-2.7,0.2l-6.4,7.6l3.2,3.2l1.6-1.7l14,13.9
	L3552.9-1192.6z M3530.9-1021.8c-0.3-0.4-0.9-0.5-1.3-0.3c-0.4,0.3-0.6,0.8-0.3,1.3c0.3,0.4,0.9,0.5,1.3,0.2
	C3531.1-1020.8,3531.2-1021.4,3530.9-1021.8z M3543.9-1013.8c-0.2-0.9-1.1-1.4-1.9-1.3c-0.9,0.2-1.5,1-1.3,1.9
	c0.2,0.9,1,1.4,1.9,1.3C3543.5-1012.1,3544.1-1012.9,3543.9-1013.8z M3543.9-1013.8c-0.2-0.9-1.1-1.4-1.9-1.3
	c-0.9,0.2-1.5,1-1.3,1.9c0.2,0.9,1,1.4,1.9,1.3C3543.5-1012.1,3544.1-1012.9,3543.9-1013.8z M3530.9-1021.8
	c-0.3-0.4-0.9-0.5-1.3-0.3c-0.4,0.3-0.6,0.8-0.3,1.3c0.3,0.4,0.9,0.5,1.3,0.2C3531.1-1020.8,3531.2-1021.4,3530.9-1021.8z
	 M3530.9-1021.8c-0.3-0.4-0.9-0.5-1.3-0.3c-0.4,0.3-0.6,0.8-0.3,1.3c0.3,0.4,0.9,0.5,1.3,0.2
	C3531.1-1020.8,3531.2-1021.4,3530.9-1021.8z M3543.9-1013.8c-0.2-0.9-1.1-1.4-1.9-1.3c-0.9,0.2-1.5,1-1.3,1.9
	c0.2,0.9,1,1.4,1.9,1.3C3543.5-1012.1,3544.1-1012.9,3543.9-1013.8z M3543.9-1013.8c-0.2-0.9-1.1-1.4-1.9-1.3
	c-0.9,0.2-1.5,1-1.3,1.9c0.2,0.9,1,1.4,1.9,1.3C3543.5-1012.1,3544.1-1012.9,3543.9-1013.8z M3529.6-1022c-0.4,0.3-0.6,0.8-0.3,1.3
	c0.3,0.4,0.9,0.5,1.3,0.2c0.4-0.3,0.5-0.9,0.3-1.3C3530.6-1022.2,3530-1022.3,3529.6-1022z M3535.3-1044
	c-23.8,0-43.2,19.4-43.2,43.2c0,23.8,19.4,43.2,43.2,43.2c23.8,0,43.2-19.4,43.2-43.2C3578.5-1024.6,3559.1-1044,3535.3-1044z
	 M3556.4-981.7c-1.6,1.2-3.4,2.3-5.2,3.2c-2.5,1.2-5.1,2.1-7.9,2.6c-1.4,0.3-2.8,0.5-4.2,0.5c-0.7,0-1.5,0.1-2.2,0.1
	c-0.9,0-1.8-0.1-2.8-0.2c-1-0.1-1.9-0.2-2.9-0.4c-0.7-0.1-0.7-0.1-0.4-0.7c0.2-0.4,0.4-0.9,0.6-1.3c0.8-1.6,1.5-3.1,2.3-4.7
	c0.2-0.5,0.4-0.9,0.6-1.4c0.1-0.4,0.1-0.7-0.1-1c-0.9-1.1-1.9-2.3-2.8-3.4c-0.8-1-1.6-2.1-2.2-3.2c-0.3-0.6-0.7-1.1-1.4-1.3
	c-0.2,0-0.4,0-0.6,0c-0.4,0-0.8,0.1-1.2,0.1c-0.8,0-1.6,0.1-2.3,0.1c-1.7,0-3.1-0.8-3.9-2.3c-0.3-0.5-0.4-1.2-0.3-1.8
	c0.1-0.7,0.1-1.2-0.4-1.8c-0.5-0.5-0.5-1.2-0.4-1.8c0.1-0.3,0.1-0.6-0.1-0.8c-0.5-0.6-0.5-1.2-0.3-1.9c0.1-0.3,0.1-0.7,0.2-1
	c0.1-0.5,0-0.7-0.5-0.9c-0.3-0.1-0.7-0.2-1-0.4c-0.2-0.1-0.3-0.2-0.5-0.2c-0.6-0.4-0.7-0.9-0.4-1.5c0.6-0.9,1.1-1.8,1.7-2.7
	c0.2-0.4,0.5-0.7,0.8-1c0.4-0.5,0.5-0.9,0.3-1.5c-0.4-1-0.3-2.1-0.2-3.2c0.1-0.7,0.2-1.4,0.3-2.1c0.1-1,0.5-2,0.9-3
	c0.2-0.5,0.3-1.1,0.5-1.7c0-0.1,0-0.2,0-0.3c-0.2-1,0.3-1.8,1-2.5c0.5-0.5,1.1-1,1.7-1.5c1.8-1.4,3.9-2.1,6.1-2.7
	c1.3-0.3,2.6-0.6,3.9-0.8c0.5-0.1,1.1-0.1,1.7-0.2c0.9-0.1,1.7-0.1,2.6-0.2c2.8,0,5.4,0.5,7.9,1.6c1.7,0.7,3.3,1.6,4.5,3.1
	c0.9,1,1.6,2.2,2.1,3.4c0.7,1.6,1.2,3.4,1.5,5.1c0.1,0.5,0.1,1.1,0.1,1.6c0,0.5,0.1,0.9,0.1,1.3c-0.1,1-0.1,2-0.2,3
	c-0.2,2-0.7,4-1.4,5.9c-0.6,1.7-1.3,3.2-2.4,4.7c-0.2,0.4-0.5,0.7-0.8,1c-0.6,0.9-0.7,1.8-0.3,2.7c0.4,0.9,0.9,1.7,1.5,2.4
	c0.8,0.9,1.5,1.8,2.2,2.8c1.3,2,2.4,4.1,3.5,6.2c0.3,0.7,0.6,1.4,0.9,2.1c0.1,0.2,0.1,0.4,0.2,0.6
	C3557-982.1,3557-982.1,3556.4-981.7z M3542-1015.1c-0.9,0.2-1.5,1-1.3,1.9c0.2,0.9,1,1.4,1.9,1.3c0.9-0.2,1.4-1,1.3-1.9
	C3543.8-1014.7,3542.9-1015.3,3542-1015.1z M3529.6-1022c-0.4,0.3-0.6,0.8-0.3,1.3c0.3,0.4,0.9,0.5,1.3,0.2c0.4-0.3,0.5-0.9,0.3-1.3
	C3530.6-1022.2,3530-1022.3,3529.6-1022z M3530.9-1021.8c-0.3-0.4-0.9-0.5-1.3-0.3c-0.4,0.3-0.6,0.8-0.3,1.3
	c0.3,0.4,0.9,0.5,1.3,0.2C3531.1-1020.8,3531.2-1021.4,3530.9-1021.8z M3543.9-1013.8c-0.2-0.9-1.1-1.4-1.9-1.3
	c-0.9,0.2-1.5,1-1.3,1.9c0.2,0.9,1,1.4,1.9,1.3C3543.5-1012.1,3544.1-1012.9,3543.9-1013.8z M3543.9-1013.8
	c-0.2-0.9-1.1-1.4-1.9-1.3c-0.9,0.2-1.5,1-1.3,1.9c0.2,0.9,1,1.4,1.9,1.3C3543.5-1012.1,3544.1-1012.9,3543.9-1013.8z
	 M3530.9-1021.8c-0.3-0.4-0.9-0.5-1.3-0.3c-0.4,0.3-0.6,0.8-0.3,1.3c0.3,0.4,0.9,0.5,1.3,0.2
	C3531.1-1020.8,3531.2-1021.4,3530.9-1021.8z M3530.9-1021.8c-0.3-0.4-0.9-0.5-1.3-0.3c-0.4,0.3-0.6,0.8-0.3,1.3
	c0.3,0.4,0.9,0.5,1.3,0.2C3531.1-1020.8,3531.2-1021.4,3530.9-1021.8z M3543.9-1013.8c-0.2-0.9-1.1-1.4-1.9-1.3
	c-0.9,0.2-1.5,1-1.3,1.9c0.2,0.9,1,1.4,1.9,1.3C3543.5-1012.1,3544.1-1012.9,3543.9-1013.8z M3535.3-831.9
	c-23.8,0-43.2,19.4-43.2,43.2c0,23.8,19.4,43.2,43.2,43.2c23.8,0,43.2-19.4,43.2-43.2C3578.5-812.6,3559.1-831.9,3535.3-831.9z
	 M3535.3-749.9c-21.4,0-38.8-17.4-38.8-38.8c0-21.4,17.4-38.9,38.8-38.9c21.4,0,38.9,17.4,38.9,38.9
	C3574.1-767.3,3556.7-749.9,3535.3-749.9z M3543.9-1013.8c-0.2-0.9-1.1-1.4-1.9-1.3c-0.9,0.2-1.5,1-1.3,1.9c0.2,0.9,1,1.4,1.9,1.3
	C3543.5-1012.1,3544.1-1012.9,3543.9-1013.8z M3530.9-1021.8c-0.3-0.4-0.9-0.5-1.3-0.3c-0.4,0.3-0.6,0.8-0.3,1.3
	c0.3,0.4,0.9,0.5,1.3,0.2C3531.1-1020.8,3531.2-1021.4,3530.9-1021.8z M3530.9-1021.8c-0.3-0.4-0.9-0.5-1.3-0.3
	c-0.4,0.3-0.6,0.8-0.3,1.3c0.3,0.4,0.9,0.5,1.3,0.2C3531.1-1020.8,3531.2-1021.4,3530.9-1021.8z M3543.9-1013.8
	c-0.2-0.9-1.1-1.4-1.9-1.3c-0.9,0.2-1.5,1-1.3,1.9c0.2,0.9,1,1.4,1.9,1.3C3543.5-1012.1,3544.1-1012.9,3543.9-1013.8z
	 M3543.9-1013.8c-0.2-0.9-1.1-1.4-1.9-1.3c-0.9,0.2-1.5,1-1.3,1.9c0.2,0.9,1,1.4,1.9,1.3C3543.5-1012.1,3544.1-1012.9,3543.9-1013.8
	z M3530.9-1021.8c-0.3-0.4-0.9-0.5-1.3-0.3c-0.4,0.3-0.6,0.8-0.3,1.3c0.3,0.4,0.9,0.5,1.3,0.2
	C3531.1-1020.8,3531.2-1021.4,3530.9-1021.8z M3530.9-1021.8c-0.3-0.4-0.9-0.5-1.3-0.3c-0.4,0.3-0.6,0.8-0.3,1.3
	c0.3,0.4,0.9,0.5,1.3,0.2C3531.1-1020.8,3531.2-1021.4,3530.9-1021.8z M3543.9-1013.8c-0.2-0.9-1.1-1.4-1.9-1.3
	c-0.9,0.2-1.5,1-1.3,1.9c0.2,0.9,1,1.4,1.9,1.3C3543.5-1012.1,3544.1-1012.9,3543.9-1013.8z M3543.9-1013.8
	c-0.2-0.9-1.1-1.4-1.9-1.3c-0.9,0.2-1.5,1-1.3,1.9c0.2,0.9,1,1.4,1.9,1.3C3543.5-1012.1,3544.1-1012.9,3543.9-1013.8z
	 M3530.9-1021.8c-0.3-0.4-0.9-0.5-1.3-0.3c-0.4,0.3-0.6,0.8-0.3,1.3c0.3,0.4,0.9,0.5,1.3,0.2
	C3531.1-1020.8,3531.2-1021.4,3530.9-1021.8z M3530.9-1021.8c-0.3-0.4-0.9-0.5-1.3-0.3c-0.4,0.3-0.6,0.8-0.3,1.3
	c0.3,0.4,0.9,0.5,1.3,0.2C3531.1-1020.8,3531.2-1021.4,3530.9-1021.8z M3543.9-1013.8c-0.2-0.9-1.1-1.4-1.9-1.3
	c-0.9,0.2-1.5,1-1.3,1.9c0.2,0.9,1,1.4,1.9,1.3C3543.5-1012.1,3544.1-1012.9,3543.9-1013.8z M3543.9-1013.8
	c-0.2-0.9-1.1-1.4-1.9-1.3c-0.9,0.2-1.5,1-1.3,1.9c0.2,0.9,1,1.4,1.9,1.3C3543.5-1012.1,3544.1-1012.9,3543.9-1013.8z
	 M3530.9-1021.8c-0.3-0.4-0.9-0.5-1.3-0.3c-0.4,0.3-0.6,0.8-0.3,1.3c0.3,0.4,0.9,0.5,1.3,0.2
	C3531.1-1020.8,3531.2-1021.4,3530.9-1021.8z M3530.9-1021.8c-0.3-0.4-0.9-0.5-1.3-0.3c-0.4,0.3-0.6,0.8-0.3,1.3
	c0.3,0.4,0.9,0.5,1.3,0.2C3531.1-1020.8,3531.2-1021.4,3530.9-1021.8z M3543.9-1013.8c-0.2-0.9-1.1-1.4-1.9-1.3
	c-0.9,0.2-1.5,1-1.3,1.9c0.2,0.9,1,1.4,1.9,1.3C3543.5-1012.1,3544.1-1012.9,3543.9-1013.8z M3543.9-1013.8
	c-0.2-0.9-1.1-1.4-1.9-1.3c-0.9,0.2-1.5,1-1.3,1.9c0.2,0.9,1,1.4,1.9,1.3C3543.5-1012.1,3544.1-1012.9,3543.9-1013.8z
	 M3530.9-1021.8c-0.3-0.4-0.9-0.5-1.3-0.3c-0.4,0.3-0.6,0.8-0.3,1.3c0.3,0.4,0.9,0.5,1.3,0.2
	C3531.1-1020.8,3531.2-1021.4,3530.9-1021.8z M3530.9-1021.8c-0.3-0.4-0.9-0.5-1.3-0.3c-0.4,0.3-0.6,0.8-0.3,1.3
	c0.3,0.4,0.9,0.5,1.3,0.2C3531.1-1020.8,3531.2-1021.4,3530.9-1021.8z M3530.9-1021.8c-0.3-0.4-0.9-0.5-1.3-0.3
	c-0.4,0.3-0.6,0.8-0.3,1.3c0.3,0.4,0.9,0.5,1.3,0.2C3531.1-1020.8,3531.2-1021.4,3530.9-1021.8z M3530.9-1021.8
	c-0.3-0.4-0.9-0.5-1.3-0.3c-0.4,0.3-0.6,0.8-0.3,1.3c0.3,0.4,0.9,0.5,1.3,0.2C3531.1-1020.8,3531.2-1021.4,3530.9-1021.8z
	 M3530.9-1021.8c-0.3-0.4-0.9-0.5-1.3-0.3c-0.4,0.3-0.6,0.8-0.3,1.3c0.3,0.4,0.9,0.5,1.3,0.2
	C3531.1-1020.8,3531.2-1021.4,3530.9-1021.8z M3530.9-1021.8c-0.3-0.4-0.9-0.5-1.3-0.3c-0.4,0.3-0.6,0.8-0.3,1.3
	c0.3,0.4,0.9,0.5,1.3,0.2C3531.1-1020.8,3531.2-1021.4,3530.9-1021.8z M3530.9-1021.8c-0.3-0.4-0.9-0.5-1.3-0.3
	c-0.4,0.3-0.6,0.8-0.3,1.3c0.3,0.4,0.9,0.5,1.3,0.2C3531.1-1020.8,3531.2-1021.4,3530.9-1021.8z M3530.9-1021.8
	c-0.3-0.4-0.9-0.5-1.3-0.3c-0.4,0.3-0.6,0.8-0.3,1.3c0.3,0.4,0.9,0.5,1.3,0.2C3531.1-1020.8,3531.2-1021.4,3530.9-1021.8z
	 M3543.9-1013.8c-0.2-0.9-1.1-1.4-1.9-1.3c-0.9,0.2-1.5,1-1.3,1.9c0.2,0.9,1,1.4,1.9,1.3C3543.5-1012.1,3544.1-1012.9,3543.9-1013.8
	z M3543.9-1013.8c-0.2-0.9-1.1-1.4-1.9-1.3c-0.9,0.2-1.5,1-1.3,1.9c0.2,0.9,1,1.4,1.9,1.3
	C3543.5-1012.1,3544.1-1012.9,3543.9-1013.8z M3530.9-1021.8c-0.3-0.4-0.9-0.5-1.3-0.3c-0.4,0.3-0.6,0.8-0.3,1.3
	c0.3,0.4,0.9,0.5,1.3,0.2C3531.1-1020.8,3531.2-1021.4,3530.9-1021.8z M3530.9-1021.8c-0.3-0.4-0.9-0.5-1.3-0.3
	c-0.4,0.3-0.6,0.8-0.3,1.3c0.3,0.4,0.9,0.5,1.3,0.2C3531.1-1020.8,3531.2-1021.4,3530.9-1021.8z M3530.9-1021.8
	c-0.3-0.4-0.9-0.5-1.3-0.3c-0.4,0.3-0.6,0.8-0.3,1.3c0.3,0.4,0.9,0.5,1.3,0.2C3531.1-1020.8,3531.2-1021.4,3530.9-1021.8z
	 M3530.9-1021.8c-0.3-0.4-0.9-0.5-1.3-0.3c-0.4,0.3-0.6,0.8-0.3,1.3c0.3,0.4,0.9,0.5,1.3,0.2
	C3531.1-1020.8,3531.2-1021.4,3530.9-1021.8z M3530.9-1021.8c-0.3-0.4-0.9-0.5-1.3-0.3c-0.4,0.3-0.6,0.8-0.3,1.3
	c0.3,0.4,0.9,0.5,1.3,0.2C3531.1-1020.8,3531.2-1021.4,3530.9-1021.8z M3530.9-1021.8c-0.3-0.4-0.9-0.5-1.3-0.3
	c-0.4,0.3-0.6,0.8-0.3,1.3c0.3,0.4,0.9,0.5,1.3,0.2C3531.1-1020.8,3531.2-1021.4,3530.9-1021.8z M3530.9-1021.8
	c-0.3-0.4-0.9-0.5-1.3-0.3c-0.4,0.3-0.6,0.8-0.3,1.3c0.3,0.4,0.9,0.5,1.3,0.2C3531.1-1020.8,3531.2-1021.4,3530.9-1021.8z
	 M3530.9-1021.8c-0.3-0.4-0.9-0.5-1.3-0.3c-0.4,0.3-0.6,0.8-0.3,1.3c0.3,0.4,0.9,0.5,1.3,0.2
	C3531.1-1020.8,3531.2-1021.4,3530.9-1021.8z M3530.9-1021.8c-0.3-0.4-0.9-0.5-1.3-0.3c-0.4,0.3-0.6,0.8-0.3,1.3
	c0.3,0.4,0.9,0.5,1.3,0.2C3531.1-1020.8,3531.2-1021.4,3530.9-1021.8z M3530.9-1021.8c-0.3-0.4-0.9-0.5-1.3-0.3
	c-0.4,0.3-0.6,0.8-0.3,1.3c0.3,0.4,0.9,0.5,1.3,0.2C3531.1-1020.8,3531.2-1021.4,3530.9-1021.8z M3543.9-1013.8
	c-0.2-0.9-1.1-1.4-1.9-1.3c-0.9,0.2-1.5,1-1.3,1.9c0.2,0.9,1,1.4,1.9,1.3C3543.5-1012.1,3544.1-1012.9,3543.9-1013.8z
	 M3543.9-1013.8c-0.2-0.9-1.1-1.4-1.9-1.3c-0.9,0.2-1.5,1-1.3,1.9c0.2,0.9,1,1.4,1.9,1.3C3543.5-1012.1,3544.1-1012.9,3543.9-1013.8
	z M3543.9-1013.8c-0.2-0.9-1.1-1.4-1.9-1.3c-0.9,0.2-1.5,1-1.3,1.9c0.2,0.9,1,1.4,1.9,1.3
	C3543.5-1012.1,3544.1-1012.9,3543.9-1013.8z M3543.9-1013.8c-0.2-0.9-1.1-1.4-1.9-1.3c-0.9,0.2-1.5,1-1.3,1.9
	c0.2,0.9,1,1.4,1.9,1.3C3543.5-1012.1,3544.1-1012.9,3543.9-1013.8z M3543.9-1013.8c-0.2-0.9-1.1-1.4-1.9-1.3
	c-0.9,0.2-1.5,1-1.3,1.9c0.2,0.9,1,1.4,1.9,1.3C3543.5-1012.1,3544.1-1012.9,3543.9-1013.8z M3543.9-1013.8
	c-0.2-0.9-1.1-1.4-1.9-1.3c-0.9,0.2-1.5,1-1.3,1.9c0.2,0.9,1,1.4,1.9,1.3C3543.5-1012.1,3544.1-1012.9,3543.9-1013.8z
	 M3543.9-1013.8c-0.2-0.9-1.1-1.4-1.9-1.3c-0.9,0.2-1.5,1-1.3,1.9c0.2,0.9,1,1.4,1.9,1.3C3543.5-1012.1,3544.1-1012.9,3543.9-1013.8
	z M3543.9-1013.8c-0.2-0.9-1.1-1.4-1.9-1.3c-0.9,0.2-1.5,1-1.3,1.9c0.2,0.9,1,1.4,1.9,1.3
	C3543.5-1012.1,3544.1-1012.9,3543.9-1013.8z M3530.9-1021.8c-0.3-0.4-0.9-0.5-1.3-0.3c-0.4,0.3-0.6,0.8-0.3,1.3
	c0.3,0.4,0.9,0.5,1.3,0.2C3531.1-1020.8,3531.2-1021.4,3530.9-1021.8z M3530.9-1021.8c-0.3-0.4-0.9-0.5-1.3-0.3
	c-0.4,0.3-0.6,0.8-0.3,1.3c0.3,0.4,0.9,0.5,1.3,0.2C3531.1-1020.8,3531.2-1021.4,3530.9-1021.8z M3530.9-1021.8
	c-0.3-0.4-0.9-0.5-1.3-0.3c-0.4,0.3-0.6,0.8-0.3,1.3c0.3,0.4,0.9,0.5,1.3,0.2C3531.1-1020.8,3531.2-1021.4,3530.9-1021.8z
	 M3530.9-1021.8c-0.3-0.4-0.9-0.5-1.3-0.3c-0.4,0.3-0.6,0.8-0.3,1.3c0.3,0.4,0.9,0.5,1.3,0.2
	C3531.1-1020.8,3531.2-1021.4,3530.9-1021.8z M3530.9-1021.8c-0.3-0.4-0.9-0.5-1.3-0.3c-0.4,0.3-0.6,0.8-0.3,1.3
	c0.3,0.4,0.9,0.5,1.3,0.2C3531.1-1020.8,3531.2-1021.4,3530.9-1021.8z M3530.9-1021.8c-0.3-0.4-0.9-0.5-1.3-0.3
	c-0.4,0.3-0.6,0.8-0.3,1.3c0.3,0.4,0.9,0.5,1.3,0.2C3531.1-1020.8,3531.2-1021.4,3530.9-1021.8z M3530.9-1021.8
	c-0.3-0.4-0.9-0.5-1.3-0.3c-0.4,0.3-0.6,0.8-0.3,1.3c0.3,0.4,0.9,0.5,1.3,0.2C3531.1-1020.8,3531.2-1021.4,3530.9-1021.8z
	 M3530.9-1021.8c-0.3-0.4-0.9-0.5-1.3-0.3c-0.4,0.3-0.6,0.8-0.3,1.3c0.3,0.4,0.9,0.5,1.3,0.2
	C3531.1-1020.8,3531.2-1021.4,3530.9-1021.8z M3530.9-1021.8c-0.3-0.4-0.9-0.5-1.3-0.3c-0.4,0.3-0.6,0.8-0.3,1.3
	c0.3,0.4,0.9,0.5,1.3,0.2C3531.1-1020.8,3531.2-1021.4,3530.9-1021.8z M3530.9-1021.8c-0.3-0.4-0.9-0.5-1.3-0.3
	c-0.4,0.3-0.6,0.8-0.3,1.3c0.3,0.4,0.9,0.5,1.3,0.2C3531.1-1020.8,3531.2-1021.4,3530.9-1021.8z M3543.9-1013.8
	c-0.2-0.9-1.1-1.4-1.9-1.3c-0.9,0.2-1.5,1-1.3,1.9c0.2,0.9,1,1.4,1.9,1.3C3543.5-1012.1,3544.1-1012.9,3543.9-1013.8z
	 M3543.9-1013.8c-0.2-0.9-1.1-1.4-1.9-1.3c-0.9,0.2-1.5,1-1.3,1.9c0.2,0.9,1,1.4,1.9,1.3C3543.5-1012.1,3544.1-1012.9,3543.9-1013.8
	z M3543.9-1013.8c-0.2-0.9-1.1-1.4-1.9-1.3c-0.9,0.2-1.5,1-1.3,1.9c0.2,0.9,1,1.4,1.9,1.3
	C3543.5-1012.1,3544.1-1012.9,3543.9-1013.8z M3543.9-1013.8c-0.2-0.9-1.1-1.4-1.9-1.3c-0.9,0.2-1.5,1-1.3,1.9
	c0.2,0.9,1,1.4,1.9,1.3C3543.5-1012.1,3544.1-1012.9,3543.9-1013.8z M3543.9-1013.8c-0.2-0.9-1.1-1.4-1.9-1.3
	c-0.9,0.2-1.5,1-1.3,1.9c0.2,0.9,1,1.4,1.9,1.3C3543.5-1012.1,3544.1-1012.9,3543.9-1013.8z M3543.9-1013.8
	c-0.2-0.9-1.1-1.4-1.9-1.3c-0.9,0.2-1.5,1-1.3,1.9c0.2,0.9,1,1.4,1.9,1.3C3543.5-1012.1,3544.1-1012.9,3543.9-1013.8z
	 M3543.9-1013.8c-0.2-0.9-1.1-1.4-1.9-1.3c-0.9,0.2-1.5,1-1.3,1.9c0.2,0.9,1,1.4,1.9,1.3C3543.5-1012.1,3544.1-1012.9,3543.9-1013.8
	z M3543.9-1013.8c-0.2-0.9-1.1-1.4-1.9-1.3c-0.9,0.2-1.5,1-1.3,1.9c0.2,0.9,1,1.4,1.9,1.3
	C3543.5-1012.1,3544.1-1012.9,3543.9-1013.8z M3543.9-1013.8c-0.2-0.9-1.1-1.4-1.9-1.3c-0.9,0.2-1.5,1-1.3,1.9
	c0.2,0.9,1,1.4,1.9,1.3C3543.5-1012.1,3544.1-1012.9,3543.9-1013.8z M3543.9-1013.8c-0.2-0.9-1.1-1.4-1.9-1.3
	c-0.9,0.2-1.5,1-1.3,1.9c0.2,0.9,1,1.4,1.9,1.3C3543.5-1012.1,3544.1-1012.9,3543.9-1013.8z M3543.9-1013.8
	c-0.2-0.9-1.1-1.4-1.9-1.3c-0.9,0.2-1.5,1-1.3,1.9c0.2,0.9,1,1.4,1.9,1.3C3543.5-1012.1,3544.1-1012.9,3543.9-1013.8z
	 M3543.9-1013.8c-0.2-0.9-1.1-1.4-1.9-1.3c-0.9,0.2-1.5,1-1.3,1.9c0.2,0.9,1,1.4,1.9,1.3C3543.5-1012.1,3544.1-1012.9,3543.9-1013.8
	z M3543.9-1013.8c-0.2-0.9-1.1-1.4-1.9-1.3c-0.9,0.2-1.5,1-1.3,1.9c0.2,0.9,1,1.4,1.9,1.3
	C3543.5-1012.1,3544.1-1012.9,3543.9-1013.8z M3543.9-1013.8c-0.2-0.9-1.1-1.4-1.9-1.3c-0.9,0.2-1.5,1-1.3,1.9
	c0.2,0.9,1,1.4,1.9,1.3C3543.5-1012.1,3544.1-1012.9,3543.9-1013.8z M3530.9-1021.8c-0.3-0.4-0.9-0.5-1.3-0.3
	c-0.4,0.3-0.6,0.8-0.3,1.3c0.3,0.4,0.9,0.5,1.3,0.2C3531.1-1020.8,3531.2-1021.4,3530.9-1021.8z M3530.9-1021.8
	c-0.3-0.4-0.9-0.5-1.3-0.3c-0.4,0.3-0.6,0.8-0.3,1.3c0.3,0.4,0.9,0.5,1.3,0.2C3531.1-1020.8,3531.2-1021.4,3530.9-1021.8z
	 M3530.9-1021.8c-0.3-0.4-0.9-0.5-1.3-0.3c-0.4,0.3-0.6,0.8-0.3,1.3c0.3,0.4,0.9,0.5,1.3,0.2
	C3531.1-1020.8,3531.2-1021.4,3530.9-1021.8z M3530.9-1021.8c-0.3-0.4-0.9-0.5-1.3-0.3c-0.4,0.3-0.6,0.8-0.3,1.3
	c0.3,0.4,0.9,0.5,1.3,0.2C3531.1-1020.8,3531.2-1021.4,3530.9-1021.8z M3530.9-1021.8c-0.3-0.4-0.9-0.5-1.3-0.3
	c-0.4,0.3-0.6,0.8-0.3,1.3c0.3,0.4,0.9,0.5,1.3,0.2C3531.1-1020.8,3531.2-1021.4,3530.9-1021.8z"/>
<path fill="#222222" d="M3534.9-1385.7c-10.2,0-18.5,8.3-18.5,18.5c0,10.2,8.3,18.5,18.5,18.5s18.5-8.3,18.5-18.5
	C3553.4-1377.4,3545.1-1385.7,3534.9-1385.7z M3525.5-1363.3h-2.5v-12.8h12.8v2.6h-10.2V-1363.3z M3529.4-1359.4h-2.5v-12.8h12.8
	v2.6h-10.2V-1359.4z M3543.4-1355.6h-12.8v-12.8h12.8V-1355.6z M3534.9-1385.7c-10.2,0-18.5,8.3-18.5,18.5
	c0,10.2,8.3,18.5,18.5,18.5s18.5-8.3,18.5-18.5C3553.4-1377.4,3545.1-1385.7,3534.9-1385.7z M3525.5-1363.3h-2.5v-12.8h12.8v2.6
	h-10.2V-1363.3z M3529.4-1359.4h-2.5v-12.8h12.8v2.6h-10.2V-1359.4z M3543.4-1355.6h-12.8v-12.8h12.8V-1355.6z M3534.9-1385.7
	c-10.2,0-18.5,8.3-18.5,18.5c0,10.2,8.3,18.5,18.5,18.5s18.5-8.3,18.5-18.5C3553.4-1377.4,3545.1-1385.7,3534.9-1385.7z
	 M3525.5-1363.3h-2.5v-12.8h12.8v2.6h-10.2V-1363.3z M3529.4-1359.4h-2.5v-12.8h12.8v2.6h-10.2V-1359.4z M3543.4-1355.6h-12.8v-12.8
	h12.8V-1355.6z M3534.9-1385.7c-10.2,0-18.5,8.3-18.5,18.5c0,10.2,8.3,18.5,18.5,18.5s18.5-8.3,18.5-18.5
	C3553.4-1377.4,3545.1-1385.7,3534.9-1385.7z M3525.5-1363.3h-2.5v-12.8h12.8v2.6h-10.2V-1363.3z M3529.4-1359.4h-2.5v-12.8h12.8
	v2.6h-10.2V-1359.4z M3543.4-1355.6h-12.8v-12.8h12.8V-1355.6z M2819.4-1399.7V-494h1440v-905.7H2819.4z M3580.1-1000.8
	c0,24.6-19.9,44.6-44.4,44.8v122.4c24.5,0.2,44.4,20.2,44.4,44.8c0,24.7-20.1,44.8-44.8,44.8c-24.7,0-44.8-20.1-44.8-44.8
	c0-24.3,19.4-44.2,43.6-44.8V-956c-24.2-0.7-43.6-20.5-43.6-44.8c0-24.3,19.4-44.2,43.6-44.8v-123.1c-24.2-0.7-43.6-20.5-43.6-44.8
	c0-24.3,19.4-44.2,43.6-44.8v-88.8c-10.6-0.4-19.2-9.2-19.2-20c0-11,9-20,20-20s20,9,20,20c0,10.8-8.6,19.6-19.2,20v88.8
	c24.5,0.2,44.4,20.2,44.4,44.8c0,24.6-19.9,44.6-44.4,44.8v123.1C3560.2-1045.4,3580.1-1025.4,3580.1-1000.8z M3553.4-1367.2
	c0-10.2-8.3-18.5-18.5-18.5s-18.5,8.3-18.5,18.5c0,10.2,8.3,18.5,18.5,18.5S3553.4-1357,3553.4-1367.2z M3525.5-1363.3h-2.5v-12.8
	h12.8v2.6h-10.2V-1363.3z M3529.4-1359.4h-2.5v-12.8h12.8v2.6h-10.2V-1359.4z M3543.4-1355.6h-12.8v-12.8h12.8V-1355.6z
	 M3534.9-1385.7c-10.2,0-18.5,8.3-18.5,18.5c0,10.2,8.3,18.5,18.5,18.5s18.5-8.3,18.5-18.5
	C3553.4-1377.4,3545.1-1385.7,3534.9-1385.7z M3525.5-1363.3h-2.5v-12.8h12.8v2.6h-10.2V-1363.3z M3529.4-1359.4h-2.5v-12.8h12.8
	v2.6h-10.2V-1359.4z M3543.4-1355.6h-12.8v-12.8h12.8V-1355.6z M3534.9-1385.7c-10.2,0-18.5,8.3-18.5,18.5
	c0,10.2,8.3,18.5,18.5,18.5s18.5-8.3,18.5-18.5C3553.4-1377.4,3545.1-1385.7,3534.9-1385.7z M3525.5-1363.3h-2.5v-12.8h12.8v2.6
	h-10.2V-1363.3z M3529.4-1359.4h-2.5v-12.8h12.8v2.6h-10.2V-1359.4z M3543.4-1355.6h-12.8v-12.8h12.8V-1355.6z M3534.9-1385.7
	c-10.2,0-18.5,8.3-18.5,18.5c0,10.2,8.3,18.5,18.5,18.5s18.5-8.3,18.5-18.5C3553.4-1377.4,3545.1-1385.7,3534.9-1385.7z
	 M3525.5-1363.3h-2.5v-12.8h12.8v2.6h-10.2V-1363.3z M3529.4-1359.4h-2.5v-12.8h12.8v2.6h-10.2V-1359.4z M3543.4-1355.6h-12.8v-12.8
	h12.8V-1355.6z M3534.9-1385.7c-10.2,0-18.5,8.3-18.5,18.5c0,10.2,8.3,18.5,18.5,18.5s18.5-8.3,18.5-18.5
	C3553.4-1377.4,3545.1-1385.7,3534.9-1385.7z M3525.5-1363.3h-2.5v-12.8h12.8v2.6h-10.2V-1363.3z M3529.4-1359.4h-2.5v-12.8h12.8
	v2.6h-10.2V-1359.4z M3543.4-1355.6h-12.8v-12.8h12.8V-1355.6z"/>
<path fill="#333333" d="M3540.4-792.4L3540.4-792.4c1-0.2,1.8-0.9,1.8-2c0-1.6-1.3-2.3-2.8-2.3c-0.7,0-1.6,0.2-2.1,0.4l0.1,1.1
	c0.5-0.3,1.1-0.5,1.9-0.5c0.9,0,1.7,0.4,1.7,1.3c0,1.1-1.2,1.4-2.1,1.4h-0.7v1h0.7c1.1,0,2.1,0.4,2.1,1.6c0,1.1-1.1,1.5-2.1,1.5
	c-0.7,0-1.4-0.2-1.9-0.5l-0.1,1.1c0.5,0.2,1.3,0.3,1.9,0.3c1.7,0,3.3-0.5,3.3-2.4C3542.3-791.5,3541.5-792.1,3540.4-792.4z
	 M3545.8-796.5l-2.1,1.7l0.6,0.8l1.3-1.1v7.1h1.2v-8.5H3545.8z M3545.8-796.5l-2.1,1.7l0.6,0.8l1.3-1.1v7.1h1.2v-8.5H3545.8z
	 M3540.4-792.4L3540.4-792.4c1-0.2,1.8-0.9,1.8-2c0-1.6-1.3-2.3-2.8-2.3c-0.7,0-1.6,0.2-2.1,0.4l0.1,1.1c0.5-0.3,1.1-0.5,1.9-0.5
	c0.9,0,1.7,0.4,1.7,1.3c0,1.1-1.2,1.4-2.1,1.4h-0.7v1h0.7c1.1,0,2.1,0.4,2.1,1.6c0,1.1-1.1,1.5-2.1,1.5c-0.7,0-1.4-0.2-1.9-0.5
	l-0.1,1.1c0.5,0.2,1.3,0.3,1.9,0.3c1.7,0,3.3-0.5,3.3-2.4C3542.3-791.5,3541.5-792.1,3540.4-792.4z M3540.4-792.4L3540.4-792.4
	c1-0.2,1.8-0.9,1.8-2c0-1.6-1.3-2.3-2.8-2.3c-0.7,0-1.6,0.2-2.1,0.4l0.1,1.1c0.5-0.3,1.1-0.5,1.9-0.5c0.9,0,1.7,0.4,1.7,1.3
	c0,1.1-1.2,1.4-2.1,1.4h-0.7v1h0.7c1.1,0,2.1,0.4,2.1,1.6c0,1.1-1.1,1.5-2.1,1.5c-0.7,0-1.4-0.2-1.9-0.5l-0.1,1.1
	c0.5,0.2,1.3,0.3,1.9,0.3c1.7,0,3.3-0.5,3.3-2.4C3542.3-791.5,3541.5-792.1,3540.4-792.4z M3545.8-796.5l-2.1,1.7l0.6,0.8l1.3-1.1
	v7.1h1.2v-8.5H3545.8z M3545.8-796.5l-2.1,1.7l0.6,0.8l1.3-1.1v7.1h1.2v-8.5H3545.8z M3540.4-792.4L3540.4-792.4
	c1-0.2,1.8-0.9,1.8-2c0-1.6-1.3-2.3-2.8-2.3c-0.7,0-1.6,0.2-2.1,0.4l0.1,1.1c0.5-0.3,1.1-0.5,1.9-0.5c0.9,0,1.7,0.4,1.7,1.3
	c0,1.1-1.2,1.4-2.1,1.4h-0.7v1h0.7c1.1,0,2.1,0.4,2.1,1.6c0,1.1-1.1,1.5-2.1,1.5c-0.7,0-1.4-0.2-1.9-0.5l-0.1,1.1
	c0.5,0.2,1.3,0.3,1.9,0.3c1.7,0,3.3-0.5,3.3-2.4C3542.3-791.5,3541.5-792.1,3540.4-792.4z M3540.4-792.4L3540.4-792.4
	c1-0.2,1.8-0.9,1.8-2c0-1.6-1.3-2.3-2.8-2.3c-0.7,0-1.6,0.2-2.1,0.4l0.1,1.1c0.5-0.3,1.1-0.5,1.9-0.5c0.9,0,1.7,0.4,1.7,1.3
	c0,1.1-1.2,1.4-2.1,1.4h-0.7v1h0.7c1.1,0,2.1,0.4,2.1,1.6c0,1.1-1.1,1.5-2.1,1.5c-0.7,0-1.4-0.2-1.9-0.5l-0.1,1.1
	c0.5,0.2,1.3,0.3,1.9,0.3c1.7,0,3.3-0.5,3.3-2.4C3542.3-791.5,3541.5-792.1,3540.4-792.4z M3545.8-796.5l-2.1,1.7l0.6,0.8l1.3-1.1
	v7.1h1.2v-8.5H3545.8z M3545.8-796.5l-2.1,1.7l0.6,0.8l1.3-1.1v7.1h1.2v-8.5H3545.8z M3540.4-792.4L3540.4-792.4
	c1-0.2,1.8-0.9,1.8-2c0-1.6-1.3-2.3-2.8-2.3c-0.7,0-1.6,0.2-2.1,0.4l0.1,1.1c0.5-0.3,1.1-0.5,1.9-0.5c0.9,0,1.7,0.4,1.7,1.3
	c0,1.1-1.2,1.4-2.1,1.4h-0.7v1h0.7c1.1,0,2.1,0.4,2.1,1.6c0,1.1-1.1,1.5-2.1,1.5c-0.7,0-1.4-0.2-1.9-0.5l-0.1,1.1
	c0.5,0.2,1.3,0.3,1.9,0.3c1.7,0,3.3-0.5,3.3-2.4C3542.3-791.5,3541.5-792.1,3540.4-792.4z M3540.4-792.4L3540.4-792.4
	c1-0.2,1.8-0.9,1.8-2c0-1.6-1.3-2.3-2.8-2.3c-0.7,0-1.6,0.2-2.1,0.4l0.1,1.1c0.5-0.3,1.1-0.5,1.9-0.5c0.9,0,1.7,0.4,1.7,1.3
	c0,1.1-1.2,1.4-2.1,1.4h-0.7v1h0.7c1.1,0,2.1,0.4,2.1,1.6c0,1.1-1.1,1.5-2.1,1.5c-0.7,0-1.4-0.2-1.9-0.5l-0.1,1.1
	c0.5,0.2,1.3,0.3,1.9,0.3c1.7,0,3.3-0.5,3.3-2.4C3542.3-791.5,3541.5-792.1,3540.4-792.4z M3545.8-796.5l-2.1,1.7l0.6,0.8l1.3-1.1
	v7.1h1.2v-8.5H3545.8z M3545.8-796.5l-2.1,1.7l0.6,0.8l1.3-1.1v7.1h1.2v-8.5H3545.8z M3540.4-792.4L3540.4-792.4
	c1-0.2,1.8-0.9,1.8-2c0-1.6-1.3-2.3-2.8-2.3c-0.7,0-1.6,0.2-2.1,0.4l0.1,1.1c0.5-0.3,1.1-0.5,1.9-0.5c0.9,0,1.7,0.4,1.7,1.3
	c0,1.1-1.2,1.4-2.1,1.4h-0.7v1h0.7c1.1,0,2.1,0.4,2.1,1.6c0,1.1-1.1,1.5-2.1,1.5c-0.7,0-1.4-0.2-1.9-0.5l-0.1,1.1
	c0.5,0.2,1.3,0.3,1.9,0.3c1.7,0,3.3-0.5,3.3-2.4C3542.3-791.5,3541.5-792.1,3540.4-792.4z M3545.8-796.5l-2.1,1.7l0.6,0.8l1.3-1.1
	v7.1h1.2v-8.5H3545.8z M3540.4-792.4L3540.4-792.4c1-0.2,1.8-0.9,1.8-2c0-1.6-1.3-2.3-2.8-2.3c-0.7,0-1.6,0.2-2.1,0.4l0.1,1.1
	c0.5-0.3,1.1-0.5,1.9-0.5c0.9,0,1.7,0.4,1.7,1.3c0,1.1-1.2,1.4-2.1,1.4h-0.7v1h0.7c1.1,0,2.1,0.4,2.1,1.6c0,1.1-1.1,1.5-2.1,1.5
	c-0.7,0-1.4-0.2-1.9-0.5l-0.1,1.1c0.5,0.2,1.3,0.3,1.9,0.3c1.7,0,3.3-0.5,3.3-2.4C3542.3-791.5,3541.5-792.1,3540.4-792.4z
	 M3540.4-792.4L3540.4-792.4c1-0.2,1.8-0.9,1.8-2c0-1.6-1.3-2.3-2.8-2.3c-0.7,0-1.6,0.2-2.1,0.4l0.1,1.1c0.5-0.3,1.1-0.5,1.9-0.5
	c0.9,0,1.7,0.4,1.7,1.3c0,1.1-1.2,1.4-2.1,1.4h-0.7v1h0.7c1.1,0,2.1,0.4,2.1,1.6c0,1.1-1.1,1.5-2.1,1.5c-0.7,0-1.4-0.2-1.9-0.5
	l-0.1,1.1c0.5,0.2,1.3,0.3,1.9,0.3c1.7,0,3.3-0.5,3.3-2.4C3542.3-791.5,3541.5-792.1,3540.4-792.4z M3545.8-796.5l-2.1,1.7l0.6,0.8
	l1.3-1.1v7.1h1.2v-8.5H3545.8z M3545.8-796.5l-2.1,1.7l0.6,0.8l1.3-1.1v7.1h1.2v-8.5H3545.8z M3540.4-792.4L3540.4-792.4
	c1-0.2,1.8-0.9,1.8-2c0-1.6-1.3-2.3-2.8-2.3c-0.7,0-1.6,0.2-2.1,0.4l0.1,1.1c0.5-0.3,1.1-0.5,1.9-0.5c0.9,0,1.7,0.4,1.7,1.3
	c0,1.1-1.2,1.4-2.1,1.4h-0.7v1h0.7c1.1,0,2.1,0.4,2.1,1.6c0,1.1-1.1,1.5-2.1,1.5c-0.7,0-1.4-0.2-1.9-0.5l-0.1,1.1
	c0.5,0.2,1.3,0.3,1.9,0.3c1.7,0,3.3-0.5,3.3-2.4C3542.3-791.5,3541.5-792.1,3540.4-792.4z M3540.4-792.4L3540.4-792.4
	c1-0.2,1.8-0.9,1.8-2c0-1.6-1.3-2.3-2.8-2.3c-0.7,0-1.6,0.2-2.1,0.4l0.1,1.1c0.5-0.3,1.1-0.5,1.9-0.5c0.9,0,1.7,0.4,1.7,1.3
	c0,1.1-1.2,1.4-2.1,1.4h-0.7v1h0.7c1.1,0,2.1,0.4,2.1,1.6c0,1.1-1.1,1.5-2.1,1.5c-0.7,0-1.4-0.2-1.9-0.5l-0.1,1.1
	c0.5,0.2,1.3,0.3,1.9,0.3c1.7,0,3.3-0.5,3.3-2.4C3542.3-791.5,3541.5-792.1,3540.4-792.4z M3545.8-796.5l-2.1,1.7l0.6,0.8l1.3-1.1
	v7.1h1.2v-8.5H3545.8z M3545.8-796.5l-2.1,1.7l0.6,0.8l1.3-1.1v7.1h1.2v-8.5H3545.8z M3540.4-792.4L3540.4-792.4
	c1-0.2,1.8-0.9,1.8-2c0-1.6-1.3-2.3-2.8-2.3c-0.7,0-1.6,0.2-2.1,0.4l0.1,1.1c0.5-0.3,1.1-0.5,1.9-0.5c0.9,0,1.7,0.4,1.7,1.3
	c0,1.1-1.2,1.4-2.1,1.4h-0.7v1h0.7c1.1,0,2.1,0.4,2.1,1.6c0,1.1-1.1,1.5-2.1,1.5c-0.7,0-1.4-0.2-1.9-0.5l-0.1,1.1
	c0.5,0.2,1.3,0.3,1.9,0.3c1.7,0,3.3-0.5,3.3-2.4C3542.3-791.5,3541.5-792.1,3540.4-792.4z M3540.4-792.4L3540.4-792.4
	c1-0.2,1.8-0.9,1.8-2c0-1.6-1.3-2.3-2.8-2.3c-0.7,0-1.6,0.2-2.1,0.4l0.1,1.1c0.5-0.3,1.1-0.5,1.9-0.5c0.9,0,1.7,0.4,1.7,1.3
	c0,1.1-1.2,1.4-2.1,1.4h-0.7v1h0.7c1.1,0,2.1,0.4,2.1,1.6c0,1.1-1.1,1.5-2.1,1.5c-0.7,0-1.4-0.2-1.9-0.5l-0.1,1.1
	c0.5,0.2,1.3,0.3,1.9,0.3c1.7,0,3.3-0.5,3.3-2.4C3542.3-791.5,3541.5-792.1,3540.4-792.4z M3545.8-796.5l-2.1,1.7l0.6,0.8l1.3-1.1
	v7.1h1.2v-8.5H3545.8z M3545.8-796.5l-2.1,1.7l0.6,0.8l1.3-1.1v7.1h1.2v-8.5H3545.8z M3540.4-792.4L3540.4-792.4
	c1-0.2,1.8-0.9,1.8-2c0-1.6-1.3-2.3-2.8-2.3c-0.7,0-1.6,0.2-2.1,0.4l0.1,1.1c0.5-0.3,1.1-0.5,1.9-0.5c0.9,0,1.7,0.4,1.7,1.3
	c0,1.1-1.2,1.4-2.1,1.4h-0.7v1h0.7c1.1,0,2.1,0.4,2.1,1.6c0,1.1-1.1,1.5-2.1,1.5c-0.7,0-1.4-0.2-1.9-0.5l-0.1,1.1
	c0.5,0.2,1.3,0.3,1.9,0.3c1.7,0,3.3-0.5,3.3-2.4C3542.3-791.5,3541.5-792.1,3540.4-792.4z"/>
<path fill="#222222" d="M3535.3-827.6c-21.4,0-38.9,17.4-38.9,38.9c0,21.4,17.4,38.9,38.9,38.9c21.4,0,38.9-17.4,38.9-38.9
	C3574.1-810.1,3556.7-827.6,3535.3-827.6z M3549.5-801.9h2.5v2.3h-19.1v-2.3h2.3v1.5h3.5v-1.5h7.3v1.5h3.5V-801.9z M3532.9-788.4
	v-10.3h19.1v13.1h-15.8v-2.8H3532.9z M3536-801v-2.5h1.9v2.5H3536z M3546.8-801v-2.5h1.9v2.5H3546.8z M3514.8-780.2
	c-0.8,0.3-1.7,0-2-0.8c-2.5-6-2.4-12.6,0.1-18.6c2.5-6,7.2-10.6,13.2-13.1c5.8-2.4,12.2-2.4,18-0.2l-1.4-3.4c-0.3-0.8,0-1.7,0.8-2
	c0.8-0.3,1.7,0.1,2,0.8l3.4,8.4l-8.4,3.4c-0.8,0.3-1.7-0.1-2-0.8s0-1.7,0.8-2l3.9-1.6c-5.2-2.1-10.9-2.1-16.1,0
	c-5.3,2.2-9.4,6.2-11.6,11.5c-2.2,5.2-2.2,11-0.1,16.3C3515.9-781.4,3515.6-780.5,3514.8-780.2z M3519.5-789h5.2l2,2h8.2v9h-15.4
	V-789z M3557.7-780.8c-2.5,6-7.2,10.6-13.2,13.1c-5.8,2.4-12.2,2.4-18,0.1l1.4,3.4c0.3,0.8-0.1,1.7-0.8,2c-0.8,0.3-1.7-0.1-2-0.8
	l-3.4-8.4l8.4-3.5c0.8-0.3,1.7,0.1,2,0.8c0.3,0.8-0.1,1.7-0.8,2l-3.9,1.6c5.2,2.1,10.9,2.1,16.1,0c5.3-2.2,9.4-6.2,11.6-11.5
	c2.2-5.2,2.2-11,0.1-16.3c-0.3-0.8,0-1.7,0.8-2c0.8-0.3,1.7,0,2,0.8C3560.2-793.4,3560.2-786.8,3557.7-780.8z"/>
<path fill="#222222" d="M3534.9-1252.4c-21.4,0-38.9,17.4-38.9,38.9c0,21.4,17.4,38.9,38.9,38.9s38.9-17.4,38.9-38.9
	C3573.7-1234.9,3556.3-1252.4,3534.9-1252.4z M3552.9-1192.6l-14-13.9l1.4-1.4l-3.1-3.1l-13.2,15.6l-4,1.4l-1.5-1.2l0.8-4.1
	l13.4-16.2l-7.4-7.4l-5.4,5.4l-6.4-6.4l9.3-9.3c3.5,3.5,7.5,0.6,7.5,0.6l2.3,2.3l-6.1,6.1l7.3,7.3l5.9-7.2l-0.2-2.7
	c0-0.3,0-0.6,0-0.8c0-3.1,1.7-6.1,7.9-6.6l-1.9,5.6l2.9,2.5l5.2-3c0.6,6.7-2.6,8.7-6,9l-2.7,0.2l-6.4,7.6l3.2,3.2l1.6-1.7l14,13.9
	L3552.9-1192.6z"/>
<g>
	<path fill="#222222" d="M3535.3-1040.2c-21.4,0-38.8,17.4-38.8,38.8s17.4,38.8,38.8,38.8c21.4,0,38.8-17.4,38.8-38.8
		S3556.7-1040.2,3535.3-1040.2z M3556.4-981.7c-1.6,1.2-3.4,2.3-5.2,3.2c-2.5,1.2-5.1,2.1-7.9,2.6c-1.4,0.3-2.8,0.5-4.2,0.5
		c-0.7,0-1.5,0.1-2.2,0.1c-0.9,0-1.8-0.1-2.7-0.2c-1-0.1-1.9-0.2-2.9-0.4c-0.7-0.1-0.7-0.1-0.4-0.7c0.2-0.4,0.4-0.9,0.6-1.3
		c0.8-1.6,1.5-3.1,2.3-4.7c0.2-0.4,0.4-0.9,0.6-1.4c0.1-0.4,0.1-0.7-0.2-1c-0.9-1.1-1.9-2.3-2.8-3.4c-0.8-1-1.6-2.1-2.2-3.2
		c-0.3-0.6-0.7-1.1-1.4-1.3c-0.2,0-0.4,0-0.5,0c-0.4,0-0.8,0.1-1.2,0.1c-0.8,0-1.6,0.1-2.3,0.1c-1.7,0-3.1-0.8-3.9-2.3
		c-0.3-0.5-0.4-1.2-0.3-1.8c0.1-0.7,0.1-1.2-0.4-1.8c-0.5-0.5-0.5-1.2-0.4-1.8c0.1-0.3,0-0.6-0.1-0.8c-0.4-0.6-0.5-1.2-0.3-1.9
		c0.1-0.3,0.1-0.7,0.2-1c0.1-0.5,0-0.7-0.5-0.9c-0.3-0.1-0.7-0.2-1-0.4c-0.2-0.1-0.3-0.1-0.5-0.2c-0.6-0.4-0.7-0.9-0.4-1.5
		c0.6-0.9,1.1-1.8,1.7-2.7c0.2-0.4,0.5-0.7,0.8-1c0.4-0.5,0.5-0.9,0.3-1.5c-0.4-1.1-0.3-2.1-0.2-3.2c0.1-0.7,0.2-1.4,0.3-2.1
		c0.2-1,0.5-2,0.9-3c0.2-0.5,0.3-1.1,0.5-1.6c0-0.1,0-0.2,0-0.3c-0.2-1,0.3-1.8,1-2.5c0.5-0.5,1.1-1,1.7-1.5
		c1.8-1.4,3.9-2.1,6.1-2.7c1.3-0.3,2.6-0.6,3.9-0.9c0.5-0.1,1.1-0.1,1.7-0.2c0.9-0.1,1.7-0.1,2.6-0.2c2.7,0,5.4,0.5,7.9,1.6
		c1.7,0.7,3.3,1.6,4.5,3.1c0.9,1,1.6,2.2,2.1,3.4c0.7,1.6,1.1,3.4,1.4,5.1c0.1,0.5,0.1,1.1,0.2,1.6c0,0.4,0.1,0.9,0.1,1.3
		c0,1-0.1,2-0.2,3c-0.2,2-0.7,4-1.4,5.9c-0.6,1.7-1.3,3.2-2.4,4.7c-0.2,0.4-0.5,0.7-0.8,1c-0.6,0.9-0.7,1.8-0.3,2.7
		c0.4,0.9,0.9,1.7,1.5,2.4c0.8,0.9,1.5,1.8,2.2,2.8c1.3,2,2.4,4.1,3.5,6.2c0.3,0.7,0.6,1.4,0.9,2.1c0.1,0.2,0.1,0.4,0.2,0.6
		C3557-982.1,3557-982.1,3556.4-981.7z"/>
	<path fill="#222222" d="M3530.9-1021.8c-0.3-0.4-0.9-0.5-1.3-0.3c-0.4,0.3-0.5,0.9-0.3,1.3c0.3,0.4,0.9,0.5,1.3,0.3
		C3531.1-1020.8,3531.2-1021.3,3530.9-1021.8z M3530.9-1021.8c-0.3-0.4-0.9-0.5-1.3-0.3c-0.4,0.3-0.5,0.9-0.3,1.3
		c0.3,0.4,0.9,0.5,1.3,0.3C3531.1-1020.8,3531.2-1021.3,3530.9-1021.8z M3530.9-1021.8c-0.3-0.4-0.9-0.5-1.3-0.3
		c-0.4,0.3-0.5,0.9-0.3,1.3c0.3,0.4,0.9,0.5,1.3,0.3C3531.1-1020.8,3531.2-1021.3,3530.9-1021.8z M3530.9-1021.8
		c-0.3-0.4-0.9-0.5-1.3-0.3c-0.4,0.3-0.5,0.9-0.3,1.3c0.3,0.4,0.9,0.5,1.3,0.3C3531.1-1020.8,3531.2-1021.3,3530.9-1021.8z
		 M3530.9-1021.8c-0.3-0.4-0.9-0.5-1.3-0.3c-0.4,0.3-0.5,0.9-0.3,1.3c0.3,0.4,0.9,0.5,1.3,0.3
		C3531.1-1020.8,3531.2-1021.3,3530.9-1021.8z M3530.9-1021.8c-0.3-0.4-0.9-0.5-1.3-0.3c-0.4,0.3-0.5,0.9-0.3,1.3
		c0.3,0.4,0.9,0.5,1.3,0.3C3531.1-1020.8,3531.2-1021.3,3530.9-1021.8z M3530.9-1021.8c-0.3-0.4-0.9-0.5-1.3-0.3
		c-0.4,0.3-0.5,0.9-0.3,1.3c0.3,0.4,0.9,0.5,1.3,0.3C3531.1-1020.8,3531.2-1021.3,3530.9-1021.8z M3530.9-1021.8
		c-0.3-0.4-0.9-0.5-1.3-0.3c-0.4,0.3-0.5,0.9-0.3,1.3c0.3,0.4,0.9,0.5,1.3,0.3C3531.1-1020.8,3531.2-1021.3,3530.9-1021.8z
		 M3530.9-1021.8c-0.3-0.4-0.9-0.5-1.3-0.3c-0.4,0.3-0.5,0.9-0.3,1.3c0.3,0.4,0.9,0.5,1.3,0.3
		C3531.1-1020.8,3531.2-1021.3,3530.9-1021.8z M3530.9-1021.8c-0.3-0.4-0.9-0.5-1.3-0.3c-0.4,0.3-0.5,0.9-0.3,1.3
		c0.3,0.4,0.9,0.5,1.3,0.3C3531.1-1020.8,3531.2-1021.3,3530.9-1021.8z M3530.9-1021.8c-0.3-0.4-0.9-0.5-1.3-0.3
		c-0.4,0.3-0.5,0.9-0.3,1.3c0.3,0.4,0.9,0.5,1.3,0.3C3531.1-1020.8,3531.2-1021.3,3530.9-1021.8z M3530.9-1021.8
		c-0.3-0.4-0.9-0.5-1.3-0.3c-0.4,0.3-0.5,0.9-0.3,1.3c0.3,0.4,0.9,0.5,1.3,0.3C3531.1-1020.8,3531.2-1021.3,3530.9-1021.8z
		 M3530.9-1021.8c-0.3-0.4-0.9-0.5-1.3-0.3c-0.4,0.3-0.5,0.9-0.3,1.3c0.3,0.4,0.9,0.5,1.3,0.3
		C3531.1-1020.8,3531.2-1021.3,3530.9-1021.8z M3530.9-1021.8c-0.3-0.4-0.9-0.5-1.3-0.3c-0.4,0.3-0.5,0.9-0.3,1.3
		c0.3,0.4,0.9,0.5,1.3,0.3C3531.1-1020.8,3531.2-1021.3,3530.9-1021.8z M3530.9-1021.8c-0.3-0.4-0.9-0.5-1.3-0.3
		c-0.4,0.3-0.5,0.9-0.3,1.3c0.3,0.4,0.9,0.5,1.3,0.3C3531.1-1020.8,3531.2-1021.3,3530.9-1021.8z M3530.9-1021.8
		c-0.3-0.4-0.9-0.5-1.3-0.3c-0.4,0.3-0.5,0.9-0.3,1.3c0.3,0.4,0.9,0.5,1.3,0.3C3531.1-1020.8,3531.2-1021.3,3530.9-1021.8z
		 M3530.9-1021.8c-0.3-0.4-0.9-0.5-1.3-0.3c-0.4,0.3-0.5,0.9-0.3,1.3c0.3,0.4,0.9,0.5,1.3,0.3
		C3531.1-1020.8,3531.2-1021.3,3530.9-1021.8z M3530.9-1021.8c-0.3-0.4-0.9-0.5-1.3-0.3c-0.4,0.3-0.5,0.9-0.3,1.3
		c0.3,0.4,0.9,0.5,1.3,0.3C3531.1-1020.8,3531.2-1021.3,3530.9-1021.8z M3530.9-1021.8c-0.3-0.4-0.9-0.5-1.3-0.3
		c-0.4,0.3-0.5,0.9-0.3,1.3c0.3,0.4,0.9,0.5,1.3,0.3C3531.1-1020.8,3531.2-1021.3,3530.9-1021.8z M3530.9-1021.8
		c-0.3-0.4-0.9-0.5-1.3-0.3c-0.4,0.3-0.5,0.9-0.3,1.3c0.3,0.4,0.9,0.5,1.3,0.3C3531.1-1020.8,3531.2-1021.3,3530.9-1021.8z
		 M3530.9-1021.8c-0.3-0.4-0.9-0.5-1.3-0.3c-0.4,0.3-0.5,0.9-0.3,1.3c0.3,0.4,0.9,0.5,1.3,0.3
		C3531.1-1020.8,3531.2-1021.3,3530.9-1021.8z M3530.9-1021.8c-0.3-0.4-0.9-0.5-1.3-0.3c-0.4,0.3-0.5,0.9-0.3,1.3
		c0.3,0.4,0.9,0.5,1.3,0.3C3531.1-1020.8,3531.2-1021.3,3530.9-1021.8z M3530.9-1021.8c-0.3-0.4-0.9-0.5-1.3-0.3
		c-0.4,0.3-0.5,0.9-0.3,1.3c0.3,0.4,0.9,0.5,1.3,0.3C3531.1-1020.8,3531.2-1021.3,3530.9-1021.8z M3530.9-1021.8
		c-0.3-0.4-0.9-0.5-1.3-0.3c-0.4,0.3-0.5,0.9-0.3,1.3c0.3,0.4,0.9,0.5,1.3,0.3C3531.1-1020.8,3531.2-1021.3,3530.9-1021.8z
		 M3530.9-1021.8c-0.3-0.4-0.9-0.5-1.3-0.3c-0.4,0.3-0.5,0.9-0.3,1.3c0.3,0.4,0.9,0.5,1.3,0.3
		C3531.1-1020.8,3531.2-1021.3,3530.9-1021.8z M3530.9-1021.8c-0.3-0.4-0.9-0.5-1.3-0.3c-0.4,0.3-0.5,0.9-0.3,1.3
		c0.3,0.4,0.9,0.5,1.3,0.3C3531.1-1020.8,3531.2-1021.3,3530.9-1021.8z M3530.9-1021.8c-0.3-0.4-0.9-0.5-1.3-0.3
		c-0.4,0.3-0.5,0.9-0.3,1.3c0.3,0.4,0.9,0.5,1.3,0.3C3531.1-1020.8,3531.2-1021.3,3530.9-1021.8z M3543.9-1013.8
		c-0.2-0.9-1-1.4-1.9-1.3c-0.9,0.2-1.5,1.1-1.3,1.9c0.2,0.9,1,1.4,1.9,1.3C3543.6-1012.1,3544.1-1012.9,3543.9-1013.8z
		 M3543.9-1013.8c-0.2-0.9-1-1.4-1.9-1.3c-0.9,0.2-1.5,1.1-1.3,1.9c0.2,0.9,1,1.4,1.9,1.3
		C3543.6-1012.1,3544.1-1012.9,3543.9-1013.8z M3543.9-1013.8c-0.2-0.9-1-1.4-1.9-1.3c-0.9,0.2-1.5,1.1-1.3,1.9
		c0.2,0.9,1,1.4,1.9,1.3C3543.6-1012.1,3544.1-1012.9,3543.9-1013.8z M3543.9-1013.8c-0.2-0.9-1-1.4-1.9-1.3
		c-0.9,0.2-1.5,1.1-1.3,1.9c0.2,0.9,1,1.4,1.9,1.3C3543.6-1012.1,3544.1-1012.9,3543.9-1013.8z M3543.9-1013.8
		c-0.2-0.9-1-1.4-1.9-1.3c-0.9,0.2-1.5,1.1-1.3,1.9c0.2,0.9,1,1.4,1.9,1.3C3543.6-1012.1,3544.1-1012.9,3543.9-1013.8z
		 M3543.9-1013.8c-0.2-0.9-1-1.4-1.9-1.3c-0.9,0.2-1.5,1.1-1.3,1.9c0.2,0.9,1,1.4,1.9,1.3
		C3543.6-1012.1,3544.1-1012.9,3543.9-1013.8z M3543.9-1013.8c-0.2-0.9-1-1.4-1.9-1.3c-0.9,0.2-1.5,1.1-1.3,1.9
		c0.2,0.9,1,1.4,1.9,1.3C3543.6-1012.1,3544.1-1012.9,3543.9-1013.8z M3543.9-1013.8c-0.2-0.9-1-1.4-1.9-1.3
		c-0.9,0.2-1.5,1.1-1.3,1.9c0.2,0.9,1,1.4,1.9,1.3C3543.6-1012.1,3544.1-1012.9,3543.9-1013.8z M3543.9-1013.8
		c-0.2-0.9-1-1.4-1.9-1.3c-0.9,0.2-1.5,1.1-1.3,1.9c0.2,0.9,1,1.4,1.9,1.3C3543.6-1012.1,3544.1-1012.9,3543.9-1013.8z
		 M3543.9-1013.8c-0.2-0.9-1-1.4-1.9-1.3c-0.9,0.2-1.5,1.1-1.3,1.9c0.2,0.9,1,1.4,1.9,1.3
		C3543.6-1012.1,3544.1-1012.9,3543.9-1013.8z M3543.9-1013.8c-0.2-0.9-1-1.4-1.9-1.3c-0.9,0.2-1.5,1.1-1.3,1.9
		c0.2,0.9,1,1.4,1.9,1.3C3543.6-1012.1,3544.1-1012.9,3543.9-1013.8z M3543.9-1013.8c-0.2-0.9-1-1.4-1.9-1.3
		c-0.9,0.2-1.5,1.1-1.3,1.9c0.2,0.9,1,1.4,1.9,1.3C3543.6-1012.1,3544.1-1012.9,3543.9-1013.8z M3543.9-1013.8
		c-0.2-0.9-1-1.4-1.9-1.3c-0.9,0.2-1.5,1.1-1.3,1.9c0.2,0.9,1,1.4,1.9,1.3C3543.6-1012.1,3544.1-1012.9,3543.9-1013.8z
		 M3543.9-1013.8c-0.2-0.9-1-1.4-1.9-1.3c-0.9,0.2-1.5,1.1-1.3,1.9c0.2,0.9,1,1.4,1.9,1.3
		C3543.6-1012.1,3544.1-1012.9,3543.9-1013.8z M3543.9-1013.8c-0.2-0.9-1-1.4-1.9-1.3c-0.9,0.2-1.5,1.1-1.3,1.9
		c0.2,0.9,1,1.4,1.9,1.3C3543.6-1012.1,3544.1-1012.9,3543.9-1013.8z M3543.9-1013.8c-0.2-0.9-1-1.4-1.9-1.3
		c-0.9,0.2-1.5,1.1-1.3,1.9c0.2,0.9,1,1.4,1.9,1.3C3543.6-1012.1,3544.1-1012.9,3543.9-1013.8z M3543.9-1013.8
		c-0.2-0.9-1-1.4-1.9-1.3c-0.9,0.2-1.5,1.1-1.3,1.9c0.2,0.9,1,1.4,1.9,1.3C3543.6-1012.1,3544.1-1012.9,3543.9-1013.8z
		 M3543.9-1013.8c-0.2-0.9-1-1.4-1.9-1.3c-0.9,0.2-1.5,1.1-1.3,1.9c0.2,0.9,1,1.4,1.9,1.3
		C3543.6-1012.1,3544.1-1012.9,3543.9-1013.8z M3543.9-1013.8c-0.2-0.9-1-1.4-1.9-1.3c-0.9,0.2-1.5,1.1-1.3,1.9
		c0.2,0.9,1,1.4,1.9,1.3C3543.6-1012.1,3544.1-1012.9,3543.9-1013.8z M3543.9-1013.8c-0.2-0.9-1-1.4-1.9-1.3
		c-0.9,0.2-1.5,1.1-1.3,1.9c0.2,0.9,1,1.4,1.9,1.3C3543.6-1012.1,3544.1-1012.9,3543.9-1013.8z M3543.9-1013.8
		c-0.2-0.9-1-1.4-1.9-1.3c-0.9,0.2-1.5,1.1-1.3,1.9c0.2,0.9,1,1.4,1.9,1.3C3543.6-1012.1,3544.1-1012.9,3543.9-1013.8z"/>
	<path fill="#222222" d="M3535.4-1020.9c0-0.1-0.1-0.1-0.1-0.1l-0.6-0.1c0-0.7-0.1-1.3-0.4-1.9l0.5-0.3c0.1-0.1,0.1-0.2,0.1-0.3
		l-0.6-0.9c-0.1-0.1-0.2-0.1-0.3-0.1l-0.5,0.3c-0.5-0.5-1-0.8-1.6-1.1l0.1-0.6c0-0.1-0.1-0.2-0.2-0.3l-1.1-0.2
		c-0.1,0-0.2,0.1-0.3,0.2l-0.1,0.6c-0.7,0-1.3,0.1-1.9,0.4l-0.3-0.5c-0.1-0.1-0.2-0.1-0.3-0.1l-0.9,0.6c-0.1,0.1-0.1,0.2-0.1,0.3
		l0.4,0.5c-0.5,0.5-0.8,1-1.1,1.6l-0.6-0.1c-0.1,0-0.1,0-0.2,0c0,0-0.1,0.1-0.1,0.2l-0.2,1.1c0,0.1,0.1,0.3,0.2,0.3l0.6,0.1
		c0,0.6,0.1,1.3,0.4,1.9l-0.5,0.4c-0.1,0.1-0.1,0.2-0.1,0.3l0.6,0.9c0.1,0.1,0.2,0.1,0.3,0.1l0.5-0.4c0.4,0.5,1,0.8,1.6,1.1
		l-0.1,0.6c0,0.1,0.1,0.2,0.2,0.3l1.1,0.2c0.1,0,0.1,0,0.2,0c0,0,0.1-0.1,0.1-0.1l0.1-0.6c0.6,0,1.3-0.1,1.9-0.3l0.3,0.5
		c0.1,0.1,0.2,0.1,0.3,0.1l0.9-0.6c0.1-0.1,0.1-0.2,0.1-0.3l-0.3-0.5c0.5-0.4,0.9-1,1.1-1.6l0.6,0.1c0.1,0,0.3,0,0.3-0.2l0.2-1.1
		C3535.4-1020.8,3535.4-1020.8,3535.4-1020.9z M3531.5-1019.2c-1.1,0.7-2.6,0.4-3.4-0.7c-0.7-1.1-0.4-2.6,0.7-3.4
		c1.1-0.8,2.7-0.4,3.4,0.7C3532.9-1021.5,3532.6-1020,3531.5-1019.2z"/>
	<path fill="#222222" d="M3551.6-1014.4l-0.4-1.9c0-0.2-0.3-0.4-0.5-0.3l-1,0.2c-0.4-1.1-1.1-2-2-2.8l0.6-0.9
		c0.1-0.2,0.1-0.4-0.1-0.6l-1.6-1.1c-0.2-0.1-0.4-0.1-0.6,0.1l-0.6,0.9c-1.1-0.4-2.2-0.7-3.4-0.6l-0.2-1.1c0-0.2-0.3-0.4-0.5-0.3
		l-1.9,0.4c-0.2,0-0.4,0.3-0.3,0.5l0.2,1.1c-1.1,0.4-2,1.1-2.8,1.9l-0.9-0.6c-0.1-0.1-0.2-0.1-0.3-0.1c-0.1,0-0.2,0.1-0.3,0.2
		l-1.1,1.6c-0.1,0.2-0.1,0.4,0.1,0.6l1,0.6c-0.4,1-0.6,2.1-0.6,3.2l-1.1,0.2c-0.2,0-0.4,0.3-0.3,0.5l0.4,1.9c0,0.2,0.3,0.4,0.5,0.3
		l1.1-0.2c0.4,1,1,2,1.9,2.7l-0.6,0.9c-0.1,0.2-0.1,0.4,0.1,0.6l1.6,1.1c0.1,0.1,0.2,0.1,0.3,0.1c0.1,0,0.2-0.1,0.3-0.2l0.6-0.9
		c1,0.4,2.2,0.7,3.3,0.7l0.2,1c0,0.2,0.3,0.4,0.5,0.3l1.9-0.4c0.2,0,0.4-0.3,0.3-0.5l-0.2-1c1.1-0.4,2-1.1,2.8-1.9l0.8,0.6
		c0.2,0.1,0.4,0.1,0.6-0.1l1.1-1.6c0.1-0.1,0.1-0.2,0.1-0.3s-0.1-0.2-0.2-0.3l-0.8-0.5c0.5-1.1,0.7-2.2,0.7-3.4l1-0.2
		C3551.5-1013.9,3551.6-1014.2,3551.6-1014.4z M3543.2-1009.3c-2.3,0.5-4.6-1-5.1-3.3c-0.5-2.3,1-4.6,3.3-5.1c2.3-0.5,4.6,1,5.1,3.3
		S3545.5-1009.8,3543.2-1009.3z"/>
	<path fill="#222222" d="M3530.9-1021.8c-0.3-0.4-0.9-0.5-1.3-0.3c-0.4,0.3-0.5,0.9-0.3,1.3c0.3,0.4,0.9,0.5,1.3,0.3
		C3531.1-1020.8,3531.2-1021.3,3530.9-1021.8z"/>
</g>
<circle fill="none" stroke="#222222" stroke-width="5" stroke-miterlimit="10" cx="3535.3" cy="-787.3" r="39.2"/>
<g>
	<path fill="#222222" d="M814.8,80.6c0,2.5-2,4.6-4.6,4.6c-2.5,0-4.6-2-4.6-4.6c0-2.5,2-4.6,4.6-4.6
		C812.8,76.1,814.8,78.1,814.8,80.6z"/>
	<path fill="#222222" d="M810.3,42.9c-20.8,0-37.7,16.9-37.7,37.7c0,20.8,16.9,37.7,37.7,37.7S848,101.4,848,80.6
		C848,59.8,831.1,42.9,810.3,42.9z M833.8,85.2H827l-1.5,4.6l4.6,4.6l-6.1,6.1l-4.6-4.6l-4.6,1.5v6.8h-9.1v-6.8l-4.6-1.5l-4.6,4.6
		l-6.1-6.1l4.6-4.6l-1.5-4.6h-6.8v-9.1h6.8l1.5-4.6l-4.6-4.6l6.1-6.1l4.6,4.6l4.6-1.5v-6.8h9.1v6.8l4.6,1.5l4.6-4.6l6.1,6.1
		l-4.6,4.6l1.5,4.6h6.8V85.2z"/>
	<path fill="#222222" d="M-9.6-10v932H1450V-10H-9.6z M810.3,40.4c22.2,0,40.2,18,40.2,40.2s-18,40.2-40.2,40.2s-40.2-18-40.2-40.2
		S788.1,40.4,810.3,40.4z M775.9,117.4l1.8,1.8l-149.1,146l-1.8-1.8L775.9,117.4z M775.1,475.1l-1.8,1.8l-149.1-146l1.8-1.8
		L775.1,475.1z M587.2,260.7c21.9,0,39.6,17.7,39.6,39.6c0,21.9-17.7,39.6-39.6,39.6s-39.6-17.7-39.6-39.6
		C547.6,278.5,565.3,260.7,587.2,260.7z M588.5,747.8c-23.4,0-42.3-19-42.3-42.3c0-23.4,19-42.3,42.3-42.3c23.4,0,42.3,19,42.3,42.3
		C630.8,728.8,611.9,747.8,588.5,747.8z M628.5,677.5l-1.8-1.8l149.1-146l1.8,1.8L628.5,677.5z M814.7,542.5
		c-22.3,0-40.4-18.1-40.4-40.4c0-22.3,18.1-40.4,40.4-40.4c22.3,0,40.4,18.1,40.4,40.4C855.1,524.4,837,542.5,814.7,542.5z"/>
	<path fill="#222222" d="M594,701.7L594,701.7c1-0.2,1.9-0.9,1.9-2c0-1.6-1.3-2.3-2.8-2.3c-0.7,0-1.6,0.2-2.2,0.4l0.1,1.1
		c0.5-0.3,1.1-0.5,1.9-0.5c0.9,0,1.7,0.4,1.7,1.4c0,1.1-1.2,1.4-2.1,1.4h-0.7v1h0.8c1.1,0,2.1,0.4,2.1,1.6c0,1.1-1.2,1.5-2.1,1.5
		c-0.7,0-1.4-0.2-1.9-0.5l-0.1,1.1c0.5,0.2,1.3,0.3,2,0.3c1.7,0,3.4-0.5,3.4-2.4C595.9,702.6,595.2,701.9,594,701.7z M599.5,697.5
		l-2.1,1.7l0.6,0.8l1.3-1.1v7.2h1.2v-8.6H599.5z M599.5,697.5l-2.1,1.7l0.6,0.8l1.3-1.1v7.2h1.2v-8.6H599.5z M594,701.7L594,701.7
		c1-0.2,1.9-0.9,1.9-2c0-1.6-1.3-2.3-2.8-2.3c-0.7,0-1.6,0.2-2.2,0.4l0.1,1.1c0.5-0.3,1.1-0.5,1.9-0.5c0.9,0,1.7,0.4,1.7,1.4
		c0,1.1-1.2,1.4-2.1,1.4h-0.7v1h0.8c1.1,0,2.1,0.4,2.1,1.6c0,1.1-1.2,1.5-2.1,1.5c-0.7,0-1.4-0.2-1.9-0.5l-0.1,1.1
		c0.5,0.2,1.3,0.3,2,0.3c1.7,0,3.4-0.5,3.4-2.4C595.9,702.6,595.2,701.9,594,701.7z M594,701.7L594,701.7c1-0.2,1.9-0.9,1.9-2
		c0-1.6-1.3-2.3-2.8-2.3c-0.7,0-1.6,0.2-2.2,0.4l0.1,1.1c0.5-0.3,1.1-0.5,1.9-0.5c0.9,0,1.7,0.4,1.7,1.4c0,1.1-1.2,1.4-2.1,1.4h-0.7
		v1h0.8c1.1,0,2.1,0.4,2.1,1.6c0,1.1-1.2,1.5-2.1,1.5c-0.7,0-1.4-0.2-1.9-0.5l-0.1,1.1c0.5,0.2,1.3,0.3,2,0.3c1.7,0,3.4-0.5,3.4-2.4
		C595.9,702.6,595.2,701.9,594,701.7z M599.5,697.5l-2.1,1.7l0.6,0.8l1.3-1.1v7.2h1.2v-8.6H599.5z M599.5,697.5l-2.1,1.7l0.6,0.8
		l1.3-1.1v7.2h1.2v-8.6H599.5z M594,701.7L594,701.7c1-0.2,1.9-0.9,1.9-2c0-1.6-1.3-2.3-2.8-2.3c-0.7,0-1.6,0.2-2.2,0.4l0.1,1.1
		c0.5-0.3,1.1-0.5,1.9-0.5c0.9,0,1.7,0.4,1.7,1.4c0,1.1-1.2,1.4-2.1,1.4h-0.7v1h0.8c1.1,0,2.1,0.4,2.1,1.6c0,1.1-1.2,1.5-2.1,1.5
		c-0.7,0-1.4-0.2-1.9-0.5l-0.1,1.1c0.5,0.2,1.3,0.3,2,0.3c1.7,0,3.4-0.5,3.4-2.4C595.9,702.6,595.2,701.9,594,701.7z M594,701.7
		L594,701.7c1-0.2,1.9-0.9,1.9-2c0-1.6-1.3-2.3-2.8-2.3c-0.7,0-1.6,0.2-2.2,0.4l0.1,1.1c0.5-0.3,1.1-0.5,1.9-0.5
		c0.9,0,1.7,0.4,1.7,1.4c0,1.1-1.2,1.4-2.1,1.4h-0.7v1h0.8c1.1,0,2.1,0.4,2.1,1.6c0,1.1-1.2,1.5-2.1,1.5c-0.7,0-1.4-0.2-1.9-0.5
		l-0.1,1.1c0.5,0.2,1.3,0.3,2,0.3c1.7,0,3.4-0.5,3.4-2.4C595.9,702.6,595.2,701.9,594,701.7z M599.5,697.5l-2.1,1.7l0.6,0.8l1.3-1.1
		v7.2h1.2v-8.6H599.5z M599.5,697.5l-2.1,1.7l0.6,0.8l1.3-1.1v7.2h1.2v-8.6H599.5z M594,701.7L594,701.7c1-0.2,1.9-0.9,1.9-2
		c0-1.6-1.3-2.3-2.8-2.3c-0.7,0-1.6,0.2-2.2,0.4l0.1,1.1c0.5-0.3,1.1-0.5,1.9-0.5c0.9,0,1.7,0.4,1.7,1.4c0,1.1-1.2,1.4-2.1,1.4h-0.7
		v1h0.8c1.1,0,2.1,0.4,2.1,1.6c0,1.1-1.2,1.5-2.1,1.5c-0.7,0-1.4-0.2-1.9-0.5l-0.1,1.1c0.5,0.2,1.3,0.3,2,0.3c1.7,0,3.4-0.5,3.4-2.4
		C595.9,702.6,595.2,701.9,594,701.7z M588.9,666c-21.7,0-39.4,17.7-39.4,39.4s17.7,39.4,39.4,39.4c21.7,0,39.4-17.7,39.4-39.4
		S610.6,666,588.9,666z M611.6,713.4c-2.6,6.1-7.3,10.8-13.4,13.3c-5.9,2.4-12.3,2.5-18.2,0.2l1.4,3.4c0.3,0.8-0.1,1.7-0.8,2
		c-0.8,0.3-1.7-0.1-2-0.8l-3.5-8.5l8.5-3.5c0.8-0.3,1.7,0.1,2,0.8c0.3,0.8-0.1,1.7-0.8,2l-4,1.6c5.2,2.1,11,2.1,16.3,0
		c5.3-2.2,9.5-6.3,11.7-11.6c2.2-5.3,2.3-11.2,0.1-16.5c-0.3-0.8,0.1-1.7,0.8-2c0.8-0.3,1.7,0,2,0.8
		C614.2,700.6,614.1,707.3,611.6,713.4z M566.2,694.3c2.5-6.1,7.3-10.8,13.4-13.3c5.9-2.4,12.3-2.5,18.2-0.2l-1.4-3.4
		c-0.3-0.8,0.1-1.7,0.8-2c0.8-0.3,1.7,0.1,2,0.8l3.5,8.5l-8.5,3.5c-0.8,0.3-1.7-0.1-2-0.8c-0.3-0.8,0-1.7,0.8-2l4-1.6
		c-5.2-2.1-11-2.1-16.3,0c-5.3,2.2-9.5,6.3-11.7,11.6c-2.2,5.3-2.3,11.2-0.1,16.5c0.3,0.8,0,1.7-0.8,2c-0.8,0.3-1.7,0-2-0.8
		C563.6,707.1,563.6,700.4,566.2,694.3z M586.4,705.6v-10.5h19.4v13.3h-16v-2.8H586.4z M588.5,707v9.1h-15.6v-11.1h5.3l2,2H588.5z
		 M586.4,694.3V692h2.3v1.5h3.6V692h7.4v1.5h3.6V692h2.6v2.3H586.4z M589.6,693v-2.5h2v2.5H589.6z M600.5,693v-2.5h2v2.5H600.5z
		 M599.4,698.9v7.2h1.2v-8.6h-1.1l-2.1,1.7l0.6,0.8L599.4,698.9z M595.9,703.8c0-1.2-0.8-1.9-1.9-2.1v0c1-0.2,1.9-0.9,1.9-2
		c0-1.6-1.3-2.3-2.8-2.3c-0.7,0-1.6,0.2-2.2,0.4l0.1,1.1c0.5-0.3,1.1-0.5,1.9-0.5c0.9,0,1.7,0.4,1.7,1.4c0,1.1-1.2,1.4-2.1,1.4h-0.7
		v1h0.8c1.1,0,2.1,0.4,2.1,1.6c0,1.1-1.2,1.5-2.1,1.5c-0.7,0-1.4-0.2-1.9-0.5l-0.1,1.1c0.5,0.2,1.3,0.3,2,0.3
		C594.2,706.2,595.9,705.8,595.9,703.8z M594,701.7L594,701.7c1-0.2,1.9-0.9,1.9-2c0-1.6-1.3-2.3-2.8-2.3c-0.7,0-1.6,0.2-2.2,0.4
		l0.1,1.1c0.5-0.3,1.1-0.5,1.9-0.5c0.9,0,1.7,0.4,1.7,1.4c0,1.1-1.2,1.4-2.1,1.4h-0.7v1h0.8c1.1,0,2.1,0.4,2.1,1.6
		c0,1.1-1.2,1.5-2.1,1.5c-0.7,0-1.4-0.2-1.9-0.5l-0.1,1.1c0.5,0.2,1.3,0.3,2,0.3c1.7,0,3.4-0.5,3.4-2.4
		C595.9,702.6,595.2,701.9,594,701.7z M599.5,697.5l-2.1,1.7l0.6,0.8l1.3-1.1v7.2h1.2v-8.6H599.5z M599.5,697.5l-2.1,1.7l0.6,0.8
		l1.3-1.1v7.2h1.2v-8.6H599.5z M594,701.7L594,701.7c1-0.2,1.9-0.9,1.9-2c0-1.6-1.3-2.3-2.8-2.3c-0.7,0-1.6,0.2-2.2,0.4l0.1,1.1
		c0.5-0.3,1.1-0.5,1.9-0.5c0.9,0,1.7,0.4,1.7,1.4c0,1.1-1.2,1.4-2.1,1.4h-0.7v1h0.8c1.1,0,2.1,0.4,2.1,1.6c0,1.1-1.2,1.5-2.1,1.5
		c-0.7,0-1.4-0.2-1.9-0.5l-0.1,1.1c0.5,0.2,1.3,0.3,2,0.3c1.7,0,3.4-0.5,3.4-2.4C595.9,702.6,595.2,701.9,594,701.7z M594,701.7
		L594,701.7c1-0.2,1.9-0.9,1.9-2c0-1.6-1.3-2.3-2.8-2.3c-0.7,0-1.6,0.2-2.2,0.4l0.1,1.1c0.5-0.3,1.1-0.5,1.9-0.5
		c0.9,0,1.7,0.4,1.7,1.4c0,1.1-1.2,1.4-2.1,1.4h-0.7v1h0.8c1.1,0,2.1,0.4,2.1,1.6c0,1.1-1.2,1.5-2.1,1.5c-0.7,0-1.4-0.2-1.9-0.5
		l-0.1,1.1c0.5,0.2,1.3,0.3,2,0.3c1.7,0,3.4-0.5,3.4-2.4C595.9,702.6,595.2,701.9,594,701.7z M599.5,697.5l-2.1,1.7l0.6,0.8l1.3-1.1
		v7.2h1.2v-8.6H599.5z M599.5,697.5l-2.1,1.7l0.6,0.8l1.3-1.1v7.2h1.2v-8.6H599.5z M594,701.7L594,701.7c1-0.2,1.9-0.9,1.9-2
		c0-1.6-1.3-2.3-2.8-2.3c-0.7,0-1.6,0.2-2.2,0.4l0.1,1.1c0.5-0.3,1.1-0.5,1.9-0.5c0.9,0,1.7,0.4,1.7,1.4c0,1.1-1.2,1.4-2.1,1.4h-0.7
		v1h0.8c1.1,0,2.1,0.4,2.1,1.6c0,1.1-1.2,1.5-2.1,1.5c-0.7,0-1.4-0.2-1.9-0.5l-0.1,1.1c0.5,0.2,1.3,0.3,2,0.3c1.7,0,3.4-0.5,3.4-2.4
		C595.9,702.6,595.2,701.9,594,701.7z M594,701.7L594,701.7c1-0.2,1.9-0.9,1.9-2c0-1.6-1.3-2.3-2.8-2.3c-0.7,0-1.6,0.2-2.2,0.4
		l0.1,1.1c0.5-0.3,1.1-0.5,1.9-0.5c0.9,0,1.7,0.4,1.7,1.4c0,1.1-1.2,1.4-2.1,1.4h-0.7v1h0.8c1.1,0,2.1,0.4,2.1,1.6
		c0,1.1-1.2,1.5-2.1,1.5c-0.7,0-1.4-0.2-1.9-0.5l-0.1,1.1c0.5,0.2,1.3,0.3,2,0.3c1.7,0,3.4-0.5,3.4-2.4
		C595.9,702.6,595.2,701.9,594,701.7z M599.5,697.5l-2.1,1.7l0.6,0.8l1.3-1.1v7.2h1.2v-8.6H599.5z M599.5,697.5l-2.1,1.7l0.6,0.8
		l1.3-1.1v7.2h1.2v-8.6H599.5z M594,701.7L594,701.7c1-0.2,1.9-0.9,1.9-2c0-1.6-1.3-2.3-2.8-2.3c-0.7,0-1.6,0.2-2.2,0.4l0.1,1.1
		c0.5-0.3,1.1-0.5,1.9-0.5c0.9,0,1.7,0.4,1.7,1.4c0,1.1-1.2,1.4-2.1,1.4h-0.7v1h0.8c1.1,0,2.1,0.4,2.1,1.6c0,1.1-1.2,1.5-2.1,1.5
		c-0.7,0-1.4-0.2-1.9-0.5l-0.1,1.1c0.5,0.2,1.3,0.3,2,0.3c1.7,0,3.4-0.5,3.4-2.4C595.9,702.6,595.2,701.9,594,701.7z"/>
	<path fill="#222222" d="M587.2,262.5c-20.8,0-37.7,16.9-37.7,37.7c0,20.8,16.9,37.7,37.7,37.7c20.8,0,37.7-16.9,37.7-37.7
		C624.9,279.4,608,262.5,587.2,262.5z M603.8,321.4l-13.5-13.5l1.4-1.4l-3-3l-12.8,15.1l-3.9,1.3l-1.5-1.2l0.8-4l13-15.8l-7.2-7.2
		l-5.2,5.2l-6.2-6.2l9-9c3.4,3.4,7.3,0.6,7.3,0.6l2.3,2.3l-5.9,5.9l7,7.1l5.8-7l-0.2-2.6c0-0.3,0-0.5,0-0.8c0-3,1.6-5.9,7.6-6.4
		l-1.8,5.5l2.9,2.5l5-2.9c0.6,6.5-2.5,8.5-5.8,8.7l-2.6,0.2l-6.3,7.4l3.1,3.1l1.6-1.6l13.5,13.5L603.8,321.4z"/>
	<g>
		<path fill="#222222" d="M814.7,464.4c-20.8,0-37.7,16.9-37.7,37.7c0,20.8,16.9,37.7,37.7,37.7c20.8,0,37.7-16.9,37.7-37.7
			C852.4,481.3,835.5,464.4,814.7,464.4z M835.2,521.3c-1.6,1.2-3.3,2.2-5,3.1c-2.4,1.2-5,2-7.6,2.5c-1.4,0.3-2.7,0.5-4.1,0.5
			c-0.7,0-1.4,0.1-2.1,0.1c-0.9,0-1.8-0.1-2.7-0.2c-0.9-0.1-1.9-0.2-2.8-0.4c-0.7-0.1-0.7-0.1-0.4-0.7c0.2-0.4,0.4-0.8,0.6-1.2
			c0.7-1.5,1.5-3,2.2-4.6c0.2-0.4,0.4-0.9,0.5-1.3c0.1-0.3,0.1-0.6-0.1-0.9c-0.9-1.1-1.8-2.2-2.7-3.3c-0.8-1-1.6-2-2.2-3.1
			c-0.3-0.6-0.7-1.1-1.4-1.2c-0.2,0-0.4,0-0.5,0c-0.4,0-0.8,0.1-1.2,0.1c-0.8,0-1.5,0.1-2.3,0.1c-1.7,0-3-0.8-3.8-2.3
			c-0.3-0.5-0.4-1.2-0.3-1.8c0.1-0.6,0.1-1.2-0.4-1.7c-0.5-0.5-0.5-1.1-0.3-1.7c0.1-0.3,0-0.5-0.1-0.8c-0.4-0.6-0.5-1.2-0.3-1.9
			c0.1-0.3,0.1-0.7,0.2-1c0.1-0.5,0-0.7-0.5-0.9c-0.3-0.1-0.6-0.2-0.9-0.4c-0.2-0.1-0.3-0.1-0.5-0.2c-0.6-0.4-0.7-0.8-0.4-1.4
			c0.5-0.9,1.1-1.8,1.7-2.6c0.2-0.4,0.5-0.7,0.8-1c0.4-0.4,0.5-0.9,0.3-1.4c-0.4-1-0.3-2.1-0.2-3.1c0.1-0.7,0.2-1.4,0.3-2.1
			c0.1-1,0.5-2,0.8-2.9c0.2-0.5,0.3-1.1,0.5-1.6c0-0.1,0-0.2,0-0.3c-0.2-1,0.3-1.7,0.9-2.4c0.5-0.5,1.1-1,1.7-1.4
			c1.8-1.3,3.8-2.1,5.9-2.6c1.3-0.3,2.6-0.6,3.8-0.8c0.5-0.1,1.1-0.1,1.6-0.2c0.8-0.1,1.7-0.1,2.5-0.2c2.7,0,5.2,0.5,7.7,1.5
			c1.6,0.7,3.2,1.6,4.3,3c0.9,1,1.5,2.1,2.1,3.4c0.7,1.6,1.1,3.3,1.4,5c0.1,0.5,0.1,1,0.1,1.5c0,0.4,0.1,0.9,0.1,1.3
			c0,1-0.1,2-0.2,3c-0.2,2-0.7,3.9-1.3,5.7c-0.5,1.6-1.3,3.2-2.3,4.6c-0.2,0.3-0.5,0.7-0.7,1c-0.6,0.8-0.6,1.7-0.3,2.7
			c0.4,0.9,0.9,1.7,1.5,2.3c0.8,0.8,1.5,1.8,2.1,2.8c1.2,1.9,2.4,3.9,3.4,6c0.3,0.7,0.6,1.4,0.8,2c0.1,0.2,0.1,0.4,0.2,0.6
			C835.8,520.8,835.8,520.9,835.2,521.3z"/>
		<path fill="#222222" d="M810.4,482.3c-0.3-0.4-0.8-0.5-1.3-0.3c-0.4,0.3-0.5,0.8-0.3,1.3c0.3,0.4,0.8,0.5,1.3,0.3
			C810.6,483.3,810.7,482.7,810.4,482.3z M810.4,482.3c-0.3-0.4-0.8-0.5-1.3-0.3c-0.4,0.3-0.5,0.8-0.3,1.3c0.3,0.4,0.8,0.5,1.3,0.3
			C810.6,483.3,810.7,482.7,810.4,482.3z M810.4,482.3c-0.3-0.4-0.8-0.5-1.3-0.3c-0.4,0.3-0.5,0.8-0.3,1.3c0.3,0.4,0.8,0.5,1.3,0.3
			C810.6,483.3,810.7,482.7,810.4,482.3z M810.4,482.3c-0.3-0.4-0.8-0.5-1.3-0.3c-0.4,0.3-0.5,0.8-0.3,1.3c0.3,0.4,0.8,0.5,1.3,0.3
			C810.6,483.3,810.7,482.7,810.4,482.3z M814.8,483.2c0-0.1-0.1-0.1-0.1-0.1l-0.5-0.1c0-0.6-0.1-1.3-0.4-1.9l0.4-0.3
			c0.1-0.1,0.1-0.2,0.1-0.3l-0.6-0.9c-0.1-0.1-0.2-0.1-0.3-0.1l-0.5,0.3c-0.4-0.5-1-0.8-1.6-1.1l0.1-0.5c0-0.1-0.1-0.2-0.2-0.3
			l-1-0.2c-0.1,0-0.2,0.1-0.3,0.2l-0.1,0.6c-0.6,0-1.3,0.1-1.9,0.4l-0.3-0.5c-0.1-0.1-0.2-0.1-0.3-0.1l-0.9,0.6
			c-0.1,0.1-0.1,0.2-0.1,0.3l0.3,0.5c-0.5,0.4-0.8,1-1,1.6l-0.6-0.1c-0.1,0-0.1,0-0.2,0c0,0-0.1,0.1-0.1,0.1l-0.2,1
			c0,0.1,0.1,0.2,0.2,0.3l0.6,0.1c0,0.6,0.1,1.2,0.4,1.8l-0.5,0.4c-0.1,0.1-0.1,0.2-0.1,0.3l0.6,0.9c0.1,0.1,0.2,0.1,0.3,0.1
			l0.5-0.4c0.4,0.4,0.9,0.8,1.5,1l-0.1,0.6c0,0.1,0.1,0.2,0.2,0.3l1,0.2c0.1,0,0.1,0,0.2,0c0,0,0.1-0.1,0.1-0.1l0.1-0.6
			c0.6,0,1.3-0.1,1.8-0.3l0.3,0.5c0.1,0.1,0.2,0.1,0.3,0.1l0.9-0.6c0.1-0.1,0.1-0.2,0.1-0.3l-0.3-0.5c0.5-0.4,0.8-1,1.1-1.5l0.6,0.1
			c0.1,0,0.2-0.1,0.3-0.2l0.2-1.1C814.8,483.3,814.8,483.2,814.8,483.2z M811,484.8c-1.1,0.7-2.6,0.4-3.3-0.7
			c-0.7-1.1-0.4-2.6,0.7-3.3c1.1-0.7,2.6-0.4,3.3,0.7C812.4,482.6,812.1,484.1,811,484.8z M809.2,482.1c-0.4,0.3-0.5,0.8-0.3,1.3
			c0.3,0.4,0.8,0.5,1.3,0.3c0.4-0.3,0.5-0.8,0.3-1.3C810.1,481.9,809.6,481.8,809.2,482.1z M810.4,482.3c-0.3-0.4-0.8-0.5-1.3-0.3
			c-0.4,0.3-0.5,0.8-0.3,1.3c0.3,0.4,0.8,0.5,1.3,0.3C810.6,483.3,810.7,482.7,810.4,482.3z M810.4,482.3c-0.3-0.4-0.8-0.5-1.3-0.3
			c-0.4,0.3-0.5,0.8-0.3,1.3c0.3,0.4,0.8,0.5,1.3,0.3C810.6,483.3,810.7,482.7,810.4,482.3z M823.1,490c-0.2-0.9-1-1.4-1.9-1.2
			c-0.9,0.2-1.4,1-1.2,1.9c0.2,0.9,1,1.4,1.9,1.2C822.7,491.7,823.3,490.9,823.1,490z M823.1,490c-0.2-0.9-1-1.4-1.9-1.2
			c-0.9,0.2-1.4,1-1.2,1.9c0.2,0.9,1,1.4,1.9,1.2C822.7,491.7,823.3,490.9,823.1,490z M823.1,490c-0.2-0.9-1-1.4-1.9-1.2
			c-0.9,0.2-1.4,1-1.2,1.9c0.2,0.9,1,1.4,1.9,1.2C822.7,491.7,823.3,490.9,823.1,490z M823.1,490c-0.2-0.9-1-1.4-1.9-1.2
			c-0.9,0.2-1.4,1-1.2,1.9c0.2,0.9,1,1.4,1.9,1.2C822.7,491.7,823.3,490.9,823.1,490z M830.5,489.5l-0.4-1.8c0-0.2-0.3-0.4-0.5-0.3
			l-0.9,0.2c-0.4-1-1.1-2-1.9-2.8l0.5-0.8c0.1-0.2,0.1-0.4-0.1-0.5l-1.6-1c-0.2-0.1-0.4-0.1-0.5,0.1l-0.5,0.8
			c-1-0.4-2.1-0.6-3.3-0.6l-0.2-1c0-0.2-0.3-0.4-0.5-0.3l-1.8,0.4c-0.2,0-0.4,0.3-0.3,0.5l0.2,1.1c-1,0.4-1.9,1.1-2.7,1.9l-0.9-0.6
			c-0.1-0.1-0.2-0.1-0.3-0.1c-0.1,0-0.2,0.1-0.3,0.2l-1,1.6c-0.1,0.2-0.1,0.4,0.1,0.5l0.9,0.6c-0.4,1-0.6,2.1-0.6,3.1l-1.1,0.2
			c-0.2,0-0.4,0.3-0.3,0.5l0.4,1.8c0,0.2,0.3,0.4,0.5,0.3l1.1-0.2c0.4,1,1,1.9,1.8,2.7l-0.6,0.9c-0.1,0.2-0.1,0.4,0.1,0.5l1.6,1
			c0.1,0.1,0.2,0.1,0.3,0.1c0.1,0,0.2-0.1,0.3-0.2l0.6-0.9c1,0.4,2.1,0.7,3.2,0.6l0.2,1c0,0.2,0.3,0.4,0.5,0.3l1.8-0.4
			c0.2,0,0.4-0.3,0.3-0.5l-0.2-0.9c1-0.4,2-1,2.7-1.8l0.8,0.5c0.2,0.1,0.4,0.1,0.5-0.1l1-1.6c0.1-0.1,0.1-0.2,0.1-0.3
			s-0.1-0.2-0.2-0.3l-0.8-0.5c0.5-1,0.7-2.2,0.6-3.3l0.9-0.2C830.4,489.9,830.6,489.7,830.5,489.5z M822.4,494.4
			c-2.3,0.5-4.5-1-4.9-3.2c-0.5-2.3,1-4.5,3.2-4.9c2.3-0.5,4.5,1,4.9,3.2S824.7,494,822.4,494.4z M821.2,488.8
			c-0.9,0.2-1.4,1-1.2,1.9c0.2,0.9,1,1.4,1.9,1.2c0.9-0.2,1.4-1,1.2-1.9C822.9,489.2,822.1,488.6,821.2,488.8z M823.1,490
			c-0.2-0.9-1-1.4-1.9-1.2c-0.9,0.2-1.4,1-1.2,1.9c0.2,0.9,1,1.4,1.9,1.2C822.7,491.7,823.3,490.9,823.1,490z M823.1,490
			c-0.2-0.9-1-1.4-1.9-1.2c-0.9,0.2-1.4,1-1.2,1.9c0.2,0.9,1,1.4,1.9,1.2C822.7,491.7,823.3,490.9,823.1,490z"/>
		<path fill="#222222" d="M810.2,483.6c-0.4,0.3-1,0.2-1.3-0.3c-0.3-0.4-0.2-1,0.3-1.3c0.4-0.3,1-0.2,1.3,0.3
			C810.7,482.7,810.6,483.3,810.2,483.6z"/>
	</g>
</g>
</svg>
