<?xml version="1.0" encoding="utf-8"?>
<!-- Generator: Adobe Illustrator 18.0.0, SVG Export Plug-In . SVG Version: 6.00 Build 0)  -->
<!DOCTYPE svg PUBLIC "-//W3C//DTD SVG 1.1//EN" "http://www.w3.org/Graphics/SVG/1.1/DTD/svg11.dtd">
<svg version="1.1" id="Layer_1" xmlns="http://www.w3.org/2000/svg" xmlns:xlink="http://www.w3.org/1999/xlink" x="0px" y="0px"
	 viewBox="0 0 120 120" enable-background="new 0 0 120 120" xml:space="preserve">
<polygon fill="none" stroke="#546778" stroke-miterlimit="10" points="-21.6,75.8 -67.7,75.6 -58.8,51.6 -29.8,50.6 "/>
<g>
	<path fill="#E6E6E6" d="M-67-45.4h-6.2c-1,0-1.9,0.7-1.9,1.9v6l-3.1,1.2L-83-41c-0.7-0.7-1.9-0.7-2.6,0l-7.4,7.4
		c-0.7,0.7-0.7,1.9,0,2.6l4.8,4.8l-1,3.1h-6c-1,0-1.9,0.7-1.9,1.9v11c0,1,0.7,1.9,1.9,1.9h6l1,3.1l-4.8,4.8c-0.7,0.7-0.7,1.9,0,2.6
		l7.4,7.4c0.7,0.7,1.9,0.7,2.6,0l4.8-4.8l0.7,0.2l1.7-3.4L-78,1.2c-0.7-0.2-1.4,0-1.9,0.5L-84.2,6L-89,1.2l4.3-4.3
		c0.5-0.5,0.7-1.2,0.5-1.9l-1.9-5.5c-0.2-0.7-1-1.2-1.7-1.2h-5.5v-7.4h5.5c0.7,0,1.4-0.5,1.7-1.2l1.9-5.5c0.2-0.7,0-1.4-0.5-1.9
		l-4.3-4.3l4.8-4.8l4.3,4.3c0.5,0.5,1.2,0.7,1.9,0.5l5.5-1.9c0.7-0.2,1.2-1,1.2-1.7v-5.5h4.6L-67-45.4z"/>
</g>
<path fill="#E6E6E6" d="M241.7,19v6c0,0.7,0.5,1.2,1.2,1.2h3.4c0.5,3.6,1.9,7,4.1,9.8l-2.4,2.4c-0.5,0.5-0.5,1.2,0,1.7l4.3,4.3
	c0.5,0.5,1.2,0.5,1.7,0l2.2-2.2c2.9,2.2,6.2,3.6,9.8,4.1v3.1c0,0.7,0.5,1.2,1.2,1.2h6c0.7,0,1.2-0.5,1.2-1.2v-3.1
	c3.6-0.7,7-2.2,10.1-4.3l2.2,2.2c0.2,0.2,0.5,0.5,1,0.5c0.2,0,0.7-0.2,1-0.5l4.3-4.3c0.5-0.5,0.5-1.2,0-1.7l-2.2-2.2
	c1.9-2.9,3.4-6.2,3.8-9.8h3.1c0.7,0,1.2-0.5,1.2-1.2v-6c0-0.7-0.5-1.2-1.2-1.2h-3.1c-0.7-3.4-2.2-6.7-4.1-9.6l2.4-2.4
	c0.2-0.2,0.5-0.5,0.5-1c0-0.2-0.2-0.7-0.5-1l-4.3-4.3c-0.5-0.5-1.2-0.5-1.7,0l-2.4,2.4c-2.9-1.9-6.2-3.4-9.6-3.8v-3.6
	c0-0.7-0.5-1.2-1.2-1.2h-6c-0.7,0-1.2,0.5-1.2,1.2v3.6c-3.4,0.7-6.7,1.9-9.6,3.8l-2.4-2.4c-0.5-0.5-1.2-0.5-1.7,0l-4.3,4.3
	c-0.2,0.2-0.5,0.5-0.5,1c0,0.2,0.2,0.7,0.5,1l2.4,2.4c-2.2,2.9-3.6,6.2-4.1,9.6h-3.6C242.4,17.8,241.7,18.2,241.7,19z M257,22.1
	c0-7.4,6-13.4,13.4-13.4s13.4,6,13.4,13.4s-6,13.4-13.4,13.4S257,29.5,257,22.1z M270.5,17c2.9,0,5,2.2,5,5s-2.2,5-5,5
	c-2.9,0-5-2.2-5-5C265.4,19.2,267.6,17,270.5,17z M223.2-5.5l1.4,3.1c0.2,0.2,0.7,0.5,1,0.5l1.7-0.7c1.2,1.7,2.6,3.1,4.3,4.3
	l-0.7,1.7c-0.2,0.5,0,0.7,0.5,1l3.1,1.2c0.5,0.2,0.7,0,1-0.5l0.7-1.7c2.2,0.5,4.1,0.5,6.2-0.2l0.7,1.7c0,0.2,0.2,0.2,0.5,0.5
	c0.2,0,0.5,0,0.5,0l3.1-1.4c0.5-0.2,0.5-0.5,0.5-1L247,1.2c1.7-1.2,3.1-2.6,4.1-4.3l1.7,0.7c0.5,0.2,0.7,0,1-0.5l1.2-3.1
	c0.2-0.5,0-0.7-0.5-1l-1.7-0.7c0.5-1.9,0.2-4.1-0.2-6l1.9-0.7c0.2,0,0.2-0.2,0.5-0.5c0-0.2,0-0.5,0-0.5l-1.4-3.1
	c-0.2-0.5-0.5-0.5-1-0.5l-1.9,0.7c-1.2-1.7-2.6-3.1-4.3-4.1l1-1.7c0.2-0.5,0-0.7-0.5-1l-3.1-1.2c-0.5-0.2-0.7,0-1,0.5l-0.7,1.9
	c-1.9-0.5-3.8-0.5-5.8,0l-1-2.2c-0.2-0.2-0.5-0.5-1-0.5l-3.1,1.4c-0.2,0-0.2,0.2-0.5,0.5c0,0.2,0,0.5,0,0.5l0.7,1.9
	c-1.7,1.2-3.1,2.6-4.3,4.3l-1.9-0.7c-0.5-0.2-0.7,0-1,0.5l-1.2,3.1c-0.2,0.5,0,0.7,0.5,1l1.9,0.7c-0.5,1.9-0.5,4.1,0,6l-1.7,0.7
	C223.2-6.2,223-5.8,223.2-5.5z M231.8-13.2c1.7-3.8,6-5.8,9.8-4.3c3.8,1.7,5.8,6,4.3,9.8c-1.7,3.8-6,5.8-9.8,4.3
	C232.1-5,230.2-9.4,231.8-13.2z M240-13.2c1.4,0.5,2.2,2.2,1.7,3.8c-0.5,1.4-2.2,2.2-3.8,1.7c-1.4-0.5-2.2-2.4-1.7-3.8
	C236.9-13,238.6-13.7,240-13.2z"/>
<g opacity="0.9">
	<g>
		<path fill="#E6E6E6" d="M-103.7,107c1,1.7,3.4,3.6,7.9,3.6c2.9,0,6.7-1,10.8-2.4c1.7,7.9,5,14.9,11.3,14.9s9.6-7.4,11.3-15.4
			c4.1,1.4,7.9,2.2,10.8,2.2c4.8,0,7.2-2.2,8.2-3.8c3.4-5.8-1.9-12.7-8.4-18.7c1.2-1.2,2.4-2.4,3.4-3.4c5.5-6.5,7.2-11.5,4.6-15.6
			c-1-1.7-3.4-3.6-7.9-3.6l0,0c-2.9,0-6.7,1-10.8,2.4c-1.7-7.9-5-14.9-11.3-14.9c-6.2,0-9.6,7.4-11.3,15.4
			c-4.1-1.4-7.9-2.2-10.8-2.2l0,0c-4.8,0-7.2,2.2-8.2,3.8c-3.4,5.8,1.9,12.7,8.4,18.7c-1.2,1.2-2.4,2.4-3.4,3.4
			C-104.6,97.9-106.1,103-103.7,107z M-73.9,118.8c-2.9,0-5.5-4.8-7-12.2c2.4-1,4.8-2.2,7.2-3.6c2.4,1.2,4.8,2.2,7,3.1
			C-68.4,114-70.8,118.8-73.9,118.8z M-82.8,87.8c0-1.7,0-3.1,0-4.8c1.2-1,2.6-1.9,3.8-2.6c1.7-1,3.1-1.9,4.6-2.9
			c1.7,1,3.1,1.7,4.8,2.6c1.4,1,2.9,1.7,4.1,2.6c0,1.7,0.2,3.1,0.2,4.8s0,3.1,0,4.8c-1.2,1-2.6,1.9-3.8,2.6c-1.7,1-3.1,1.9-4.6,2.9
			c-1.7-1-3.1-1.7-4.8-2.6c-1.4-1-2.9-1.7-4.1-2.6C-82.6,91.2-82.8,89.5-82.8,87.8z M-87.1,89.5c-0.7-0.5-1.2-1-1.9-1.4
			c0.7-0.5,1.2-1,1.9-1.4c0,0.5,0,1.2,0,1.4C-87.1,88.1-87.1,88.8-87.1,89.5z M-82.1,77.3c0.2-1.2,0.2-2.4,0.5-3.6
			c1,0.5,2.2,1,3.1,1.4c-0.7,0.5-1.7,1-2.4,1.4C-81.4,76.8-81.8,77-82.1,77.3z M-69.4,74.9c1.2-0.5,2.2-1.2,3.4-1.7
			c0.2,1.2,0.2,2.6,0.5,3.8c-0.7-0.5-1.2-0.7-1.4-1C-67.7,75.8-68.4,75.4-69.4,74.9z M-60.5,86.2c0.7,0.5,1.2,1,1.9,1.4
			c-0.7,0.5-1.2,1-1.9,1.4c0-0.5,0-1.2,0-1.4S-60.5,86.9-60.5,86.2z M-65.5,98.2c-0.2,1.2-0.2,2.4-0.5,3.6c-1-0.5-2.2-1-3.1-1.4
			c0.7-0.5,1.7-1,2.4-1.4C-66.2,98.6-65.8,98.4-65.5,98.2z M-80.6,99.1c0.7,0.5,1.7,1,2.4,1.4c-1.2,0.5-2.2,1.2-3.4,1.7
			c-0.2-1.2-0.2-2.6-0.5-3.8C-81.6,98.6-81.1,98.9-80.6,99.1z M-47.3,103.9c-0.7,1.2-2.2,1.7-4.6,1.7c-2.6,0-6-0.7-9.8-2.2
			c0.5-3.1,0.7-6,1-8.6c1.9-1.4,3.8-2.9,5.5-4.3C-49,96.2-45.6,101.3-47.3,103.9z M-51.8,69.4c1.9,0,3.6,0.5,4.1,1.7
			c1.7,2.6-1.4,7.9-7.7,13.7c-1.9-1.4-3.8-2.9-5.5-4.1c-0.2-2.6-0.5-5.8-1-8.9C-57.8,70.3-54.5,69.4-51.8,69.4z M-73.9,56.6
			c2.9,0,5.5,4.8,7,12.2c-2.4,1-4.8,2.2-7.2,3.6c-2.4-1.2-4.8-2.4-7-3.1C-79.2,61.7-76.8,56.6-73.9,56.6z M-100.3,71.5
			c0.7-1.2,2.2-1.7,4.6-1.7c2.6,0,6,0.7,9.8,2.2c-0.5,3.1-0.7,6-1,8.6c-1.9,1.4-3.8,2.9-5.5,4.3C-98.6,79.4-102,74.2-100.3,71.5z
			 M-86.9,95c0.2,2.6,0.5,5.8,1,8.9c-3.8,1.4-7.4,2.4-9.8,2.4c-1.9,0-3.6-0.5-4.1-1.7c-1.7-2.6,1.4-7.9,7.7-13.7
			C-90.5,92.4-88.6,93.8-86.9,95z"/>
	</g>
</g>
<path fill="#798B99" d="M218.9,181.1c0,2.8-2.3,5-5,5h-39c-2.8,0-5-2.3-5-5c0-0.3,0.1-0.5,0.1-0.8l13.5-35.4c0-0.1,0-0.1,0-0.2
	v-20.3h-1.6c-1.2,0-2.2-1-2.2-2.2c0-1.2,1-2.2,2.2-2.2h3.8c1.2,0,2.2,1,2.2,2.2v22.7c0,0.1,0,0.3,0,0.4c0,0.3-0.1,0.6-0.2,0.9
	l-8.1,21.3H209l-8.4-21.3c-0.1-0.2-0.1-0.5-0.1-0.7l0-0.1c0-0.1,0-0.2,0-0.3v-22.8c0-1.2,1-2.2,2.2-2.2h3.9c1.2,0,2.2,1,2.2,2.2
	c0,1.2-1,2.2-2.2,2.2h-1.7v20.4l14,35.4C218.9,180.5,218.9,180.8,218.9,181.1z"/>
<g>
	<g>
		<path fill="#353535" d="M85,40.9H66.5v7.4c0,2.1-1.5,3.6-3.6,3.6h1.8c3.1,0,5.6-2.6,5.6-5.6c0-0.8,0-1.3,0-1.8h14.9v40.5H33.4
			V44.5h14.9c0,0.5,0,1,0,1.8c0,3.1,2.6,5.6,5.6,5.6h1.8c-2.1,0-3.6-1.5-3.6-3.6v-7.4H33.7c-2.1,0-3.6,1.5-3.6,3.6v40.5
			c0,2.1,1.5,3.6,3.6,3.6h51.6c2.1,0,3.6-1.5,3.6-3.6V44.5C88.9,42.7,87.1,40.9,85,40.9z M79.9,66.9H57.6c-1,0-1.8,0.8-1.8,1.8
			c0,1,0.8,1.8,1.8,1.8h22.3c1,0,1.8-0.8,1.8-1.8C81.7,67.6,80.9,66.9,79.9,66.9z M79.9,74.3H57.6c-1,0-1.8,0.8-1.8,1.8
			c0,1,0.8,1.8,1.8,1.8h22.3c1,0,1.8-0.8,1.8-1.8C81.7,75.1,80.9,74.3,79.9,74.3z M57.3,63h22.3c1,0,1.8-0.8,1.8-1.8
			s-0.5-1.8-1.5-1.8H57.6c-1,0-1.8,0.8-1.8,1.8C55.8,62.2,56.5,63,57.3,63z M40.1,60.2c0,2.6,2.1,4.4,4.4,4.4c2.6,0,4.4-2.1,4.4-4.4
			l0,0c0-2.6-2.1-4.4-4.4-4.4C42.2,55.8,40.1,57.6,40.1,60.2L40.1,60.2z M44.7,66.3c-4.1,0-7.2,4.4-7.2,9.8c0,5.4,14.6,5.4,14.6,0
			C52.2,70.7,48.6,66.3,44.7,66.3z M51.9,48.4c0,2.1,1.5,3.6,3.6,3.6h7.4c2.1,0,3.6-1.5,3.6-3.6v-7.4v-7.4c0-2.1-1.5-3.6-3.6-3.6
			h-7.4c-2.1,0-3.6,1.5-3.6,3.6v7.4V48.4z M62.9,48.4h-7.4V33.5h7.4V48.4z"/>
	</g>
</g>
</svg>
