<?xml version="1.0" encoding="utf-8"?>
<!-- Generator: Adobe Illustrator 18.0.0, SVG Export Plug-In . SVG Version: 6.00 Build 0)  -->
<!DOCTYPE svg PUBLIC "-//W3C//DTD SVG 1.1//EN" "http://www.w3.org/Graphics/SVG/1.1/DTD/svg11.dtd">
<svg version="1.1" id="Layer_1" xmlns="http://www.w3.org/2000/svg" xmlns:xlink="http://www.w3.org/1999/xlink" x="0px" y="0px"
	 viewBox="0 0 120 120" enable-background="new 0 0 120 120" xml:space="preserve">
<polygon fill="none" stroke="#546778" stroke-miterlimit="10" points="-21.6,75.8 -67.7,75.6 -58.8,51.6 -29.8,50.6 "/>
<g>
	<path fill="#E6E6E6" d="M-143.4,23.1l-5.5-3.1c-1-0.5-1.9-0.2-2.4,0.7l-2.9,5.3l-3.4-0.7l-1.9-6.5c-0.2-1-1.2-1.4-2.2-1.2
		l-10.1,2.9c-1,0.2-1.4,1.2-1.2,2.2l1.9,6.5l-2.4,2.2l-5.3-2.9c-1-0.5-1.9-0.2-2.4,0.7l-5.3,9.6c-0.5,1-0.2,1.9,0.7,2.4l5.3,2.9
		l-0.7,3.4l-6.5,1.9c-1.2,0.7-1.7,1.7-1.4,2.6l2.9,10.1c0.2,1,1.2,1.4,2.2,1.2l6.5-1.9l0.5,0.5l3.1-2.2l-1.7-1.7
		c-0.5-0.5-1.2-0.7-1.9-0.5l-5.8,1.7l-1.9-6.5l5.8-1.7c0.7-0.2,1.2-0.7,1.2-1.4l1.2-5.8c0.2-0.7-0.2-1.7-1-1.9l-4.8-2.6l3.6-6.5
		l4.8,2.6c0.7,0.5,1.4,0.2,2.2-0.2l4.3-3.8c0.5-0.5,0.7-1.2,0.5-1.9l-1.4-5.8l6.5-1.9l1.7,5.8c0.2,0.7,0.7,1.2,1.4,1.2l5.8,1
		c0.7,0.2,1.4-0.2,1.9-1l2.6-4.8l3.8,2.2L-143.4,23.1z"/>
</g>
<path fill="#353535" d="M49,72.8v4.9c0,0.6,0.4,1,1,1h2.8c0.4,3,1.6,5.7,3.4,8.1l-2,2c-0.4,0.4-0.4,1,0,1.4l3.6,3.6
	c0.4,0.4,1,0.4,1.4,0l1.8-1.8c2.4,1.8,5.1,3,8.1,3.4v2.6c0,0.6,0.4,1,1,1h4.9c0.6,0,1-0.4,1-1v-2.6c3-0.6,5.7-1.8,8.3-3.6l1.8,1.8
	c0.2,0.2,0.4,0.4,0.8,0.4c0.2,0,0.6-0.2,0.8-0.4l3.6-3.6c0.4-0.4,0.4-1,0-1.4l-1.8-1.8c1.6-2.4,2.8-5.1,3.2-8.1H95c0.6,0,1-0.4,1-1
	v-4.9c0-0.6-0.4-1-1-1h-2.6c-0.6-2.8-1.8-5.5-3.4-7.9l2-2c0.2-0.2,0.4-0.4,0.4-0.8c0-0.2-0.2-0.6-0.4-0.8l-3.6-3.6
	c-0.4-0.4-1-0.4-1.4,0l-2,2c-2.4-1.6-5.1-2.8-7.9-3.2v-3c0-0.6-0.4-1-1-1h-4.9c-0.6,0-1,0.4-1,1v3c-2.8,0.6-5.5,1.6-7.9,3.2l-2-2
	c-0.4-0.4-1-0.4-1.4,0l-3.6,3.6c-0.2,0.2-0.4,0.4-0.4,0.8c0,0.2,0.2,0.6,0.4,0.8l2,2c-1.8,2.4-3,5.1-3.4,7.9h-3
	C49.6,71.8,49,72.2,49,72.8z M61.7,75.3c0-6.1,4.9-11.1,11.1-11.1s11.1,4.9,11.1,11.1c0,6.1-4.9,11.1-11.1,11.1S61.7,81.5,61.7,75.3
	z M72.7,71.2c2.4,0,4.1,1.8,4.1,4.1c0,2.4-1.8,4.1-4.1,4.1s-4.1-1.8-4.1-4.1C68.6,73,70.3,71.2,72.7,71.2z M33.8,52.6l1.2,2.6
	c0.2,0.2,0.6,0.4,0.8,0.4l1.4-0.6c1,1.4,2.2,2.6,3.6,3.6l-0.6,1.4c-0.2,0.4,0,0.6,0.4,0.8l2.6,1c0.4,0.2,0.6,0,0.8-0.4l0.6-1.4
	c1.8,0.4,3.4,0.4,5.1-0.2l0.6,1.4c0,0.2,0.2,0.2,0.4,0.4c0.2,0,0.4,0,0.4,0l2.6-1.2c0.4-0.2,0.4-0.4,0.4-0.8l-0.6-1.4
	c1.4-1,2.6-2.2,3.4-3.6l1.4,0.6c0.4,0.2,0.6,0,0.8-0.4l1-2.6c0.2-0.4,0-0.6-0.4-0.8l-1.4-0.6c0.4-1.6,0.2-3.4-0.2-4.9l1.6-0.6
	c0.2,0,0.2-0.2,0.4-0.4c0-0.2,0-0.4,0-0.4L58.7,42c-0.2-0.4-0.4-0.4-0.8-0.4l-1.6,0.6c-1-1.4-2.2-2.6-3.6-3.4l0.8-1.4
	c0.2-0.4,0-0.6-0.4-0.8l-2.6-1c-0.4-0.2-0.6,0-0.8,0.4l-0.6,1.6c-1.6-0.4-3.2-0.4-4.7,0l-0.8-1.8c-0.2-0.2-0.4-0.4-0.8-0.4l-2.6,1.2
	c-0.2,0-0.2,0.2-0.4,0.4c0,0.2,0,0.4,0,0.4l0.6,1.6c-1.4,1-2.6,2.2-3.6,3.6L35.4,42c-0.4-0.2-0.6,0-0.8,0.4l-1,2.6
	c-0.2,0.4,0,0.6,0.4,0.8l1.6,0.6c-0.4,1.6-0.4,3.4,0,4.9l-1.4,0.6C33.8,52.1,33.6,52.5,33.8,52.6z M40.9,46.3
	c1.4-3.2,4.9-4.7,8.1-3.6c3.2,1.4,4.7,4.9,3.6,8.1c-1.4,3.2-4.9,4.7-8.1,3.6C41.1,53,39.6,49.5,40.9,46.3z M47.7,46.3
	c1.2,0.4,1.8,1.8,1.4,3.2c-0.4,1.2-1.8,1.8-3.2,1.4c-1.2-0.4-1.8-2-1.4-3.2C45.1,46.5,46.5,45.9,47.7,46.3z"/>
<g>
	<g>
		<path fill="#353535" d="M86,156.9H67.5v7.4c0,2.1-1.5,3.6-3.6,3.6h1.8c3.1,0,5.6-2.6,5.6-5.6c0-0.8,0-1.3,0-1.8h14.9v40.5H34.4
			v-40.5h14.9c0,0.5,0,1,0,1.8c0,3.1,2.6,5.6,5.6,5.6h1.8c-2.1,0-3.6-1.5-3.6-3.6v-7.4H34.7c-2.1,0-3.6,1.5-3.6,3.6v40.5
			c0,2.1,1.5,3.6,3.6,3.6h51.6c2.1,0,3.6-1.5,3.6-3.6v-40.5C89.9,158.7,88.1,156.9,86,156.9z M80.9,182.9H58.6c-1,0-1.8,0.8-1.8,1.8
			c0,1,0.8,1.8,1.8,1.8h22.3c1,0,1.8-0.8,1.8-1.8C82.7,183.6,81.9,182.9,80.9,182.9z M80.9,190.3H58.6c-1,0-1.8,0.8-1.8,1.8
			s0.8,1.8,1.8,1.8h22.3c1,0,1.8-0.8,1.8-1.8S81.9,190.3,80.9,190.3z M58.3,179h22.3c1,0,1.8-0.8,1.8-1.8c0-1-0.5-1.8-1.5-1.8H58.6
			c-1,0-1.8,0.8-1.8,1.8S57.5,179,58.3,179z M41.1,176.2c0,2.6,2.1,4.4,4.4,4.4c2.6,0,4.4-2.1,4.4-4.4l0,0c0-2.6-2.1-4.4-4.4-4.4
			C43.2,171.8,41.1,173.6,41.1,176.2L41.1,176.2z M45.7,182.3c-4.1,0-7.2,4.4-7.2,9.8c0,5.4,14.6,5.4,14.6,0
			C53.2,186.7,49.6,182.3,45.7,182.3z M52.9,164.4c0,2.1,1.5,3.6,3.6,3.6h7.4c2.1,0,3.6-1.5,3.6-3.6v-7.4v-7.4
			c0-2.1-1.5-3.6-3.6-3.6h-7.4c-2.1,0-3.6,1.5-3.6,3.6v7.4V164.4z M63.9,164.4h-7.4v-14.9h7.4V164.4z"/>
	</g>
</g>
</svg>
