<?xml version="1.0" encoding="utf-8"?>
<!-- Generator: Adobe Illustrator 18.0.0, SVG Export Plug-In . SVG Version: 6.00 Build 0)  -->
<!DOCTYPE svg PUBLIC "-//W3C//DTD SVG 1.1//EN" "http://www.w3.org/Graphics/SVG/1.1/DTD/svg11.dtd">
<svg version="1.1" id="Layer_1" xmlns="http://www.w3.org/2000/svg" xmlns:xlink="http://www.w3.org/1999/xlink" x="0px" y="0px"
	 viewBox="0 0 20 20" enable-background="new 0 0 20 20" xml:space="preserve">
<path fill="#4D4D4D" d="M15.6,16.5c0,0.6-0.5,1.2-1.2,1.2H5.4c-0.6,0-1.2-0.5-1.2-1.2c0-0.1,0-0.1,0-0.2L7.4,8c0,0,0,0,0,0V3.3H7
	c-0.3,0-0.5-0.2-0.5-0.5c0-0.3,0.2-0.5,0.5-0.5h0.9c0.3,0,0.5,0.2,0.5,0.5V8c0,0,0,0.1,0,0.1c0,0.1,0,0.1,0,0.2l-1.9,5h6.8l-2-5
	c0-0.1,0-0.1,0-0.2l0,0c0,0,0,0,0-0.1V2.8c0-0.3,0.2-0.5,0.5-0.5h0.9c0.3,0,0.5,0.2,0.5,0.5c0,0.3-0.2,0.5-0.5,0.5h-0.4V8l3.2,8.2
	C15.6,16.3,15.6,16.4,15.6,16.5z"/>
<g>
	<g>
		<path fill="#4D4D4D" d="M89.4,3.2h-15c-0.3,0-0.5,0.2-0.5,0.5v12.5c0,0.3,0.2,0.5,0.5,0.5h15c0.3,0,0.5-0.2,0.5-0.5V3.7
			C89.9,3.4,89.7,3.2,89.4,3.2z M88.9,4.2v2h-14v-2H88.9z M74.9,15.7V7.2h14v8.5H74.9z"/>
		<path fill="#4D4D4D" d="M76.4,5.7c0.1,0,0.3-0.1,0.4-0.1c0.1-0.1,0.1-0.2,0.1-0.4s-0.1-0.3-0.1-0.4c-0.2-0.2-0.5-0.2-0.7,0
			c-0.1,0.1-0.1,0.2-0.1,0.4c0,0.1,0.1,0.3,0.1,0.4C76.1,5.6,76.2,5.7,76.4,5.7z"/>
		<path fill="#4D4D4D" d="M77.9,5.7c0.1,0,0.3-0.1,0.4-0.1c0.1-0.1,0.1-0.2,0.1-0.4s-0.1-0.3-0.1-0.4c-0.2-0.2-0.5-0.2-0.7,0
			c-0.1,0.1-0.1,0.2-0.1,0.4s0.1,0.3,0.1,0.4C77.6,5.6,77.7,5.7,77.9,5.7z"/>
		<path fill="#4D4D4D" d="M79.4,5.7c0.1,0,0.3-0.1,0.4-0.1c0.1-0.1,0.1-0.2,0.1-0.4c0-0.1-0.1-0.3-0.1-0.4c-0.2-0.2-0.5-0.2-0.7,0
			c-0.1,0.1-0.1,0.2-0.1,0.4c0,0.1,0.1,0.3,0.1,0.4C79.1,5.6,79.3,5.7,79.4,5.7z"/>
		<path fill="#4D4D4D" d="M81.6,8.2h-5.3c-0.3,0-0.5,0.2-0.5,0.5s0.2,0.5,0.5,0.5h5.3c0.3,0,0.5-0.2,0.5-0.5S81.9,8.2,81.6,8.2z"/>
		<path fill="#4D4D4D" d="M81.6,10.2h-5.3c-0.3,0-0.5,0.2-0.5,0.5s0.2,0.5,0.5,0.5h5.3c0.3,0,0.5-0.2,0.5-0.5S81.9,10.2,81.6,10.2z"
			/>
		<path fill="#4D4D4D" d="M81.6,12.2h-5.3c-0.3,0-0.5,0.2-0.5,0.5c0,0.3,0.2,0.5,0.5,0.5h5.3c0.3,0,0.5-0.2,0.5-0.5
			C82.1,12.4,81.9,12.2,81.6,12.2z"/>
		<path fill="#4D4D4D" d="M87.4,8.2h-3.8c-0.3,0-0.5,0.2-0.5,0.5v4c0,0.3,0.2,0.5,0.5,0.5h3.8c0.3,0,0.5-0.2,0.5-0.5v-4
			C87.9,8.4,87.7,8.2,87.4,8.2z M86.9,12.2h-2.8v-3h2.8V12.2z"/>
	</g>
</g>
<g>
	<g>
		<path fill="#4D4D4D" d="M51.9,4.3H38.7c-0.5,0-0.9,0.4-0.9,0.9v9.4c0,0.5,0.4,0.9,0.9,0.9h13.2c0.5,0,0.9-0.4,0.9-0.9V5.2
			C52.8,4.7,52.4,4.3,51.9,4.3z M43.1,10.9l2.2,1.5l2.2-1.5l3.8,3.8H39.4L43.1,10.9z M38.7,14V7.9l3.6,2.5L38.7,14z M48.3,10.4
			l3.6-2.5V14L48.3,10.4z M51.9,5.2v1.5l0,0l-6.6,4.5l-6.6-4.5V5.2H51.9z"/>
	</g>
</g>
<g>
	<path fill="#4D4D4D" d="M123.6,16.5c0,0,0,0.4,0.4,0.4c0.5,0,4.4,0,4.4,0l0-3.6c0,0-0.1-0.6,0.5-0.6h1.8c0.7,0,0.6,0.6,0.6,0.6
		l0,3.6c0,0,3.7,0,4.3,0c0.5,0,0.5-0.5,0.5-0.5V9.8l-6-5.4l-6.4,5.4V16.5z"/>
	<path fill="#4D4D4D" d="M121.2,9.3c0,0,0.5,1,1.7,0l7.1-6l6.6,6c1.4,1,1.9,0,1.9,0L130,1.5L121.2,9.3z"/>
	<polygon fill="#4D4D4D" points="136.5,3.3 134.8,3.3 134.8,5.3 136.5,6.8 	"/>
</g>
<text transform="matrix(1 0 0 1 -24.7101 16.702)" fill="#4D4D4D" font-family="'MyriadPro-Regular'" font-size="20.8557">i</text>
</svg>
