<?xml version="1.0" encoding="utf-8"?>
<!-- Generator: Adobe Illustrator 18.0.0, SVG Export Plug-In . SVG Version: 6.00 Build 0)  -->
<!DOCTYPE svg PUBLIC "-//W3C//DTD SVG 1.1//EN" "http://www.w3.org/Graphics/SVG/1.1/DTD/svg11.dtd">
<svg version="1.1" id="Layer_1" xmlns="http://www.w3.org/2000/svg" xmlns:xlink="http://www.w3.org/1999/xlink" x="0px" y="0px"
	 viewBox="0 0 2880 1290.3" enable-background="new 0 0 2880 1290.3" xml:space="preserve">
<rect x="944.2" y="802.8" fill="#252525" width="194.6" height="323.4"/>
<polygon fill="#252525" points="2436.8,717.4 2333.3,717.4 2333.3,519.8 2436.8,589.8 "/>
<path fill="#252525" d="M2460.7,714.3l-4.5-10.3l-10.6-2.5h-8.6l-0.2-0.1l-20.6-6.9l-46.5-15.7h-41.2l-4.2,10l-118.9,280.7L2573,972
	L2460.7,714.3z M2392.2,900c-22.8,0-40.1-26.5-40.2-61.8c-0.1-43.7,36-115.7,37.5-118.7c0.7-1.3,1.7-2.1,2.7-2.1
	c1.1,0,2.1,0.8,2.7,2.1c1.5,3,37.4,75,37.4,118.7C2432.4,873.4,2415.1,900,2392.2,900z"/>
<path fill="#252525" d="M1225.2-40.8H129.6c-15.8,0-28.6,6.7-28.6,15V210c0,8.3,12.8,15,28.6,15h1095.6c15.8,0,28.6-6.7,28.6-15
	V-25.8C1253.8-34.1,1241-40.8,1225.2-40.8z M1201,189.7l-1.1-0.6l1.5,0.5L1201,189.7z"/>
<polygon fill="#252525" points="1237,431.4 1236.6,431.8 1235.4,430.5 "/>
<path fill="#252525" d="M413.1,821.4l-0.8,1.1c-1.8,1.8-3.5,3.6-5.3,5.4c-1.8,1.8-3.6,3.5-5.4,5.3c-1.8,1.8-3.6,3.5-5.4,5.3
	l-1.1,0.7l0.8-1c1.8-1.8,3.6-3.5,5.3-5.3c1.8-1.8,3.6-3.5,5.4-5.3c1.8-1.8,3.6-3.6,5.4-5.3L413.1,821.4z"/>
<g>
	<defs>
		<path id="SVGID_1_" d="M0,0v1290.3h2880V0H0z M2389.6,719.5c0.7-1.3,1.7-2.1,2.7-2.1c1.1,0,2.1,0.8,2.7,2.1
			c1.5,3,37.4,75,37.4,118.7c0,35.2-17.3,61.8-40.2,61.8c-22.8,0-40.1-26.5-40.2-61.8C2351.9,794.5,2388,722.6,2389.6,719.5z"/>
	</defs>
	<clipPath id="SVGID_2_">
		<use xlink:href="#SVGID_1_"  overflow="visible"/>
	</clipPath>
	<g clip-path="url(#SVGID_2_)">
		<path fill="#252525" d="M413.1,821.4l-0.8,1.1c-1.8,1.8-3.5,3.6-5.3,5.4c-1.8,1.8-3.6,3.5-5.4,5.3c-1.8,1.8-3.6,3.5-5.4,5.3
			l-1.1,0.7l0.8-1c1.8-1.8,3.6-3.5,5.3-5.3c1.8-1.8,3.6-3.5,5.4-5.3c1.8-1.8,3.6-3.6,5.4-5.3L413.1,821.4z"/>
		<path fill="#252525" d="M992.8,504.2v252.3h-74.3c-14.9-20.1-11.1-52.7-44-57.2c-20.9,2.7-29.6,18.3-34.2,36.1
			c-6.9,26.6-12,53.7-18.5,83.2c-6.3-29.1-11.2-55.9-18.1-82.1c-6.2-23.7-11.8-28.6-33.7-37.4c-22.6,2.1-30.8,19.2-35.9,37.6
			c-5.4,19.7-8.3,40-12.5,60.1c-1,5-2.7,9.9-5.5,20.3c-6.8-30.8-11.4-56.4-18.2-81.3c-6.8-24.8-11.2-28.1-34.2-36.7
			c-19.5,2.4-28.7,16.1-33.1,33.4c-6.7,26.4-12.2,53.1-20.9,80.2c-3-14.4-5.7-28.8-9-43.1c-3.4-14.7-6.8-29.5-11.5-43.8
			c-4.8-14.3-14.2-24.6-31.2-26.7c-20.5,2.6-29.1,18.2-33.7,36c-6.8,26.7-11.9,53.8-17.2,78.1c-5.6-14.9-12-31.9-17.9-47.6
			c-12.7-2.6-23.1-4.7-33.7-6.9c0-0.6,0-1.2,0-1.8c0-60.3-43.7-110.5-101.1-120.5v-0.1c0-44,0-87.9,0-131.9H992.8z"/>
		<polygon fill="#252525" points="1362.9,592.8 1361.9,592.5 1362.7,591 		"/>
		<path fill="#252525" d="M1371.2,484.3l-0.7,1.1c-0.2,0.3-0.4,0.7-0.6,1c0.1-0.3,0.3-0.8,0.4-1.2L1371.2,484.3z"/>
		<path fill="#252525" d="M1470.4,700.8v56h-435V504.2h227.4c17,0,30.8-13.8,30.8-30.8V245c51.9-2,102.8,0.1,155.2-3.8v54
			c-10.3,3-20.3,6-31.6,9.4c-3.2,7.1-6.3,14.2-9.7,21.8c5.1,8.2,9.8,15.7,15.2,24.4v63.3c-55.9,38.5-92.2,89.2-77.7,159.7
			C1358.6,641,1402.5,684.6,1470.4,700.8z"/>
		<path fill="#252525" d="M1501.6,154.1V295c-1,0.3-1.9,0.6-2.9,1c-1.4-4-3.9-7.9-4.1-12c-0.5-12.4,0.2-24.9-0.3-37.4
			c-1.1-28.2-16.4-44-44.9-46c-10.6-0.8-21.4-0.2-32.1-0.2c-41.3,0.1-82.6,0.5-123.9,0.5v-46.8H1501.6z"/>
		<path fill="#252525" d="M994-40.8H562.7c0-8.3,0.1-16.8,0.3-25.2c0.7-25,12.8-39.9,37.2-45.1c10.3-2.2,21.2-2.1,31.9-2.1
			c98-0.1,195.9-0.1,293.9-0.1c6.2,0,12.5-0.3,18.7,0.3c33.7,3.5,49,20.2,49.2,54.2C994-52.8,994-46.8,994-40.8z"/>
		<path fill="#252525" d="M1001.6-84c-3.2-18.9-18.8-30.2-36.5-35.7c-11.7-3.6-24.5-5.1-36.8-5.1c-99.8-0.4-199.5-0.4-299.3-0.1
			c-11.4,0.1-23.2,1.2-34.3,4c-26.5,6.5-41.7,23.7-43.3,50.9c-0.6,9.8-0.8,19.5-0.8,29.2h455.1C1005.3-55.2,1004-69.6,1001.6-84z"/>
		<path fill="#252525" d="M1616.3,474.2l-245.1,0.9c-2.8-43.3,101.1-34.9,53.9-166.8c12.4,1.4,134.3,2.6,142,3.4
			c13,15.5,1.1,23.2-5.1,31v78.6C1580.6,438.8,1607.6,447.3,1616.3,474.2z"/>
		<path fill="#252525" d="M1617.3,475.1l-0.9-0.7c0-0.1-0.1-0.1-0.1-0.2h0.3L1617.3,475.1z"/>
		<path fill="#252525" d="M1905.4,572.3c-0.1,42.8,0,85.5-0.5,128.3c-0.5,40.3-16.8,56.6-57.2,56.8c-102.5,0.4-205,0.4-307.5,0.5
			c-6.9,0-13.9-0.8-22.4-1.4v-54.2c71.5-17,119-58,130.9-133.3c8.7-55.2-19.8-123.5-77.2-156.4V350c23.5-30.3,19.4-40.7-22-55.8
			V155.1c8.1-0.8,15-1.9,21.8-2c92.7-0.1,185.4,0.1,278-0.2c16.7,0,33,1.8,42.9,16.5c6.1,9.1,12,20.7,12.2,31.3
			c0.9,89.1,0.5,178.2,0.5,266.4c-9.5,6.8-17.9,12.7-28.4,20.3c-2.9-3-5.8-6.1-8.4-8.9c2.9-18.7,18.7-37.4-5-50.7
			c-20.2,11.5-20.4,12.5-12.3,45.1c-3.3,6.2-7.1,13.1-11.3,20.8c3.4,8.2,6.8,16.2,10.1,24.3c-2,17.1-13,36.3,9.3,48.7
			c20.6-14.5,21.3-17.6,11.3-47c2.5-4.4,5.5-9.5,9.1-15.8c8.2,5.5,15.4,10.3,26.1,17.6C1905.4,537,1905.5,554.7,1905.4,572.3z"/>
		<path fill="#252525" d="M1922.7,154.3l-1-0.9c-1.8-1.8-3.5-3.6-5.3-5.4c-1.8-1.8-3.6-3.6-5.3-5.5l-0.9-1l1,0.9
			c1.8,1.8,3.6,3.6,5.4,5.3c1.8,1.8,3.5,3.6,5.3,5.3L1922.7,154.3z"/>
		<path fill="#252525" d="M1942.5,176c0,0.1,0,0.1,0,0.1v0c0,0,0,0,0,0c0,0,0,0.1,0,0.1C1942.4,176.2,1942.4,176.1,1942.5,176
			C1942.5,176.1,1942.5,176,1942.5,176z"/>
		<path fill="#252525" d="M1944,173.7l-0.8,1.1c-0.2,0.4-0.5,0.8-0.7,1.1c0.1-0.3,0.3-0.8,0.5-1.3L1944,173.7z"/>
		<polygon fill="#252525" points="1954.7,157.8 1954,158.6 1953.1,159.4 1953.8,158.4 		"/>
		<path fill="#252525" d="M2369.3,477.5v211.4h-45.7c0-28.1,0.7-109.3-0.3-137.5c-0.5-12.9-4.8-25.7-6.8-38.6
			c-1.6-10.9-2.5-21.8-3.9-35.3H2369.3z"/>
		<path fill="#252525" d="M2468.9,508.7c-3.2,13.5-7.2,27.2-7.8,40.9c-1.2,28.3-0.3,146.7-0.3,176l-44.4-10V476.9h47.9
			C2474.6,486.3,2471.6,497.3,2468.9,508.7z"/>
		<path fill="#252525" d="M993,802.5c-17.4,0-33.4-1.6-48.9,0.3H993C993,802.7,993,802.6,993,802.5z M993,802.5
			c-17.4,0-33.4-1.6-48.9,0.3H993C993,802.7,993,802.6,993,802.5z M993,802.5c-17.4,0-33.4-1.6-48.9,0.3H993
			C993,802.7,993,802.6,993,802.5z M993,802.5c-17.4,0-33.4-1.6-48.9,0.3H993C993,802.7,993,802.6,993,802.5z M993,802.5
			c-17.4,0-33.4-1.6-48.9,0.3H993C993,802.7,993,802.6,993,802.5z M-201.8-318.7v1609h3283.6v-1609H-201.8z M2644.3,1122
			c-8.9,0.4-17.8,1.1-26.7,1.1c-149.9,0-299.7,0.1-449.6-0.2c-10.8,0-24,4.5-31.4-13c2.4-6.1,5.1-14.4,8.7-22.3l166.9-408.1
			c-1.2-44.6,0.1-89.2-0.6-133.8c-0.1-10.3-2.8-20.9-6.4-30.6c-12-32.1-0.2-50.5,33.7-51.1c9.5-0.2,19.1,0,30.2,0
			c0.6-11.8,1.4-20.5,1.4-29.2c0.2-72.2,0.2-144.5,0.2-216.7c0-7.2,0.1-14.4-0.7-21.4c-3.1-25.1-18.5-40.1-43.6-42.7
			c-7.1-0.7-14.2-0.8-21.4-0.8c-97.2-0.1-194.4-0.1-291.7-0.1c-4.5,0-8.9,0-13.4,0.2c-33.6,1.6-50.7,18.5-51.2,52
			c-0.4,32.1-0.1,64.2-0.1,96.3c0,54.4,0,108.8,0,164.4c16.3,6.8,27.7,16.8,19.7,39.5c-4.4,3.6-11,9.2-19.8,16.5
			c0,27.5,0,56.8,0,86.1c-0.1,33,0.6,66-0.4,99c-1.5,53.8-39.4,91.7-93.4,94c-19.6,0.8-39.2,0.3-58.9,0.3c-242.6,0-485.3,0-727.9,0
			h-33.1v218.1c5-2.9,8.9-5.1,13.4-7.8c-3.5-9.6-6.6-17.8-10.6-28.8c4.2-6.4,9.1-13.9,14-21.4c21.5,14.4,21.5,14.4,12.9,47.9
			c1.5,2.8,3.6,6.6,5.7,10.4c1.7,3.1,3.5,6.2,5.9,10.4c-3.7,7.4-7.6,15.1-11.9,23.5c2.8,15.7,16.1,34.2-11.5,47.2
			c-5.1-6.8-10.4-13.9-15.7-21c-0.3-12.9,18.9-22.7,6-34.1c-15.5,3.5-29.9,6.8-48.1,10.9c-3.7-86.8,0.1-169.2-2.3-253.8
			c0-0.1,0-0.2,0-0.3c-17.4,0-33.4-1.6-48.9,0.3c-29,3.5-53.6-0.6-68.7-36.9c-5.1,22.7-8.7,38.6-12.3,54.5c-2,8.7-3.2,17.6-6.3,25.9
			c-6.2,16.9-12.9,34.3-34.8,35.7c-15.2,0.9-28.3-12-34.8-35.3c-5-18-8-36.4-11.8-54.7c-1.6-7.7-3.2-15.5-7.9-23.3
			c-3.9,20.1-7.3,40.4-12,60.3c-2.8,12-6.1,24.5-12.1,35.1c-14.3,25.3-41.2,25.2-53.9-1c-7.7-15.7-11.1-33.6-15.5-50.7
			c-3.4-13.4-5.4-27.1-11.6-40.7c-6.3,27.1-11.4,54.5-19.2,81.2c-6.8,23.1-15.5,27.7-43.9,28.4c-34.3-28.8-26.5-73.9-41.2-115.2
			c-2.4,10.5-4.2,18.1-5.9,25.7c-1.7,7.8-2.9,15.8-4.9,23.5c-3.7,14.6-6.8,29.5-12.1,43.5c-4.9,12.9-13.9,23.4-29.6,23.2
			c-15.3-0.2-24.4-10.4-29.8-23.2c-4.5-10.6-6.9-22-10.2-33.1c-2.2-7.5-4.3-15-6.6-23.3c-4.4-0.2-8.3-0.4-12.1-0.6
			c-17.9,45.2-62.1,77.2-113.8,77.2c-67.6,0-122.4-54.8-122.4-122.3c0-59.9,43.1-109.8,100-120.3v-7.8c0-41.5,0-83,0-124.5H84.4
			c-17,0-30.8-13.8-30.8-30.8V-10.1c0-17,13.8-30.8,30.8-30.8h438.7c0-10.4,0-20.7,0.1-31c0.4-31.4,15.5-54,42.3-69.4
			c6.1-3.5,12.1-7.1,18.1-10.7H969c6.3,3.2,12.6,6.3,18.8,9.6c29.8,16.4,45.8,41.5,46.2,75.7c0.1,8.5,0.2,17.1,0.2,25.7h228.6
			c17,0,30.8,13.8,30.8,30.8v119.6c180.2,0.1,360.3,0.2,540.5-0.3c35.1-0.1,67.5,3.9,92.7,33.3c26.4-28.5,58.6-33.6,93.7-33.3
			c97.1,0.8,194.3,1.9,291.4-0.3c65.1-1.5,104.2,50,103.2,104.1c-1.5,73-0.4,146.1-0.4,219.2c0,9.6,0,19.2,0,28.1
			c21.7,8.4,44.7-3.5,62.3,14.8c5.7,13.4,4.1,27.7-0.6,42.7c-3.4,10.8-6.1,22.3-6.2,33.6c-0.7,44.5-1.5,89.2,0.2,133.6
			c0.8,20,4,41.4,12,59.6c50.1,113,101.8,225.4,153.1,337.9c2.1,4.6,5.9,8.5,8.9,12.7V1122z M993,802.5c-17.4,0-33.4-1.6-48.9,0.3
			H993C993,802.7,993,802.6,993,802.5z M993,802.5c-17.4,0-33.4-1.6-48.9,0.3H993C993,802.7,993,802.6,993,802.5z M993,802.5
			c-17.4,0-33.4-1.6-48.9,0.3H993C993,802.7,993,802.6,993,802.5z M993,802.5c-17.4,0-33.4-1.6-48.9,0.3H993
			C993,802.7,993,802.6,993,802.5z M993,802.5c-17.4,0-33.4-1.6-48.9,0.3H993C993,802.7,993,802.6,993,802.5z"/>
		<g>
			<path fill="#FFFFFF" d="M1943,174.7c-0.2,0.5-0.4,1-0.6,1.3c0.2-0.3,0.4-0.7,0.7-1.2l0.8-1.1L1943,174.7z M1942.4,176.1
				c0,0,0,0.1-0.1,0.1C1942.4,176.2,1942.4,176.2,1942.4,176.1C1942.4,176.2,1942.4,176.2,1942.4,176.1L1942.4,176.1
				C1942.4,176.1,1942.4,176.1,1942.4,176.1C1942.4,176.1,1942.4,176.1,1942.4,176.1z M1370.3,485.1c-0.2,0.4-0.3,0.9-0.4,1.2
				c0.2-0.3,0.4-0.6,0.6-1l0.7-1.1L1370.3,485.1z M1953.8,158.3l-0.7,1l0.9-0.8l0.8-0.8L1953.8,158.3z M1921.9,153.2
				c-1.8-1.8-3.6-3.6-5.3-5.3c-1.8-1.8-3.6-3.5-5.4-5.3l-1-0.9l0.9,1c1.8,1.8,3.6,3.7,5.4,5.5c1.8,1.8,3.5,3.6,5.3,5.4l1,0.9
				L1921.9,153.2z M412.2,822.3c-1.8,1.8-3.6,3.5-5.4,5.3c-1.8,1.8-3.6,3.5-5.4,5.3c-1.8,1.8-3.6,3.6-5.3,5.3l-0.8,1l1.1-0.7
				c1.8-1.8,3.6-3.5,5.4-5.3c1.8-1.8,3.6-3.6,5.4-5.3c1.8-1.8,3.5-3.6,5.3-5.4l0.8-1.1L412.2,822.3z M1953.8,158.3l-0.7,1l0.9-0.8
				l0.8-0.8L1953.8,158.3z M1943,174.7c-0.2,0.5-0.4,1-0.6,1.3c0.2-0.3,0.4-0.7,0.7-1.2l0.8-1.1L1943,174.7z M1942.4,176.1
				c0,0,0,0.1-0.1,0.1C1942.4,176.2,1942.4,176.2,1942.4,176.1C1942.4,176.2,1942.4,176.2,1942.4,176.1L1942.4,176.1
				C1942.4,176.1,1942.4,176.1,1942.4,176.1C1942.4,176.1,1942.4,176.1,1942.4,176.1z M1921.9,153.2c-1.8-1.8-3.6-3.6-5.3-5.3
				c-1.8-1.8-3.6-3.5-5.4-5.3l-1-0.9l0.9,1c1.8,1.8,3.6,3.7,5.4,5.5c1.8,1.8,3.5,3.6,5.3,5.4l1,0.9L1921.9,153.2z M1370.3,485.1
				c-0.2,0.4-0.3,0.9-0.4,1.2c0.2-0.3,0.4-0.6,0.6-1l0.7-1.1L1370.3,485.1z M412.2,822.3c-1.8,1.8-3.6,3.5-5.4,5.3
				c-1.8,1.8-3.6,3.5-5.4,5.3c-1.8,1.8-3.6,3.6-5.3,5.3l-0.8,1l1.1-0.7c1.8-1.8,3.6-3.5,5.4-5.3c1.8-1.8,3.6-3.6,5.4-5.3
				c1.8-1.8,3.5-3.6,5.3-5.4l0.8-1.1L412.2,822.3z"/>
			<path fill="#FFFFFF" d="M1942.4,176.1C1942.4,176.1,1942.4,176.1,1942.4,176.1L1942.4,176.1c0,0.1,0,0.1,0,0.1c0,0,0,0.1,0,0.1
				C1942.4,176.2,1942.4,176.1,1942.4,176.1z"/>
			<path fill="#FFFFFF" d="M1943.2,174.8c-0.2,0.4-0.5,0.8-0.7,1.1c0.1-0.3,0.3-0.8,0.5-1.3L1943.2,174.8z"/>
			<polygon fill="#FFFFFF" points="1020.4,1018.9 1019.2,1021 1018.8,1018.6 			"/>
			<path fill="#FFFFFF" d="M1369.8,486.4C1369.8,486.4,1369.8,486.4,1369.8,486.4C1369.8,486.4,1369.8,486.4,1369.8,486.4
				c-0.1,0.1-0.1,0.2-0.2,0.3C1369.7,486.6,1369.7,486.5,1369.8,486.4z"/>
			<path fill="#FFFFFF" d="M1370.5,485.4c-0.2,0.3-0.4,0.7-0.6,1c0.1-0.3,0.3-0.8,0.4-1.2L1370.5,485.4z"/>
			<polygon fill="#FFFFFF" points="1362.9,592.8 1361.9,592.5 1362.7,591 			"/>
			<polygon fill="#FFFFFF" points="1954.7,157.8 1954,158.6 1953.8,158.4 			"/>
			<polygon fill="#FFFFFF" points="1944,173.7 1943.2,174.8 1943,174.7 			"/>
			<polygon fill="#FFFFFF" points="1922.7,154.3 1921.6,153.5 1921.9,153.2 			"/>
			<polygon fill="#FFFFFF" points="1954,158.6 1953.1,159.4 1953.8,158.4 			"/>
			<path fill="#FFFFFF" d="M1921.9,153.2l-0.2,0.2c-1.8-1.8-3.5-3.6-5.3-5.4l0.2-0.2C1918.3,149.6,1920.1,151.4,1921.9,153.2z"/>
			<path fill="#FFFFFF" d="M1916.5,147.9l-0.2,0.2c-1.8-1.8-3.6-3.6-5.3-5.5l0.1-0.1C1912.9,144.3,1914.7,146.1,1916.5,147.9z"/>
			<polygon fill="#FFFFFF" points="1911.1,142.5 1911,142.6 1910.1,141.6 			"/>
			<polygon fill="#FFFFFF" points="396.3,838.6 395.2,839.2 396,838.3 			"/>
			<polygon fill="#FFFFFF" points="413.1,821.4 412.4,822.5 412.2,822.3 			"/>
			<polygon fill="#FFFFFF" points="1617.3,475.1 1616.3,474.4 1616.6,474.2 			"/>
			<polygon fill="#FFFFFF" points="1371.2,484.3 1370.5,485.4 1370.3,485.1 			"/>
			<polygon fill="#FFFFFF" points="1237,431.4 1236.6,431.8 1235.4,430.5 			"/>
		</g>
	</g>
</g>
</svg>
