<?xml version="1.0" encoding="utf-8"?>
<!-- Generator: Adobe Illustrator 18.1.1, SVG Export Plug-In . SVG Version: 6.00 Build 0)  -->
<!DOCTYPE svg PUBLIC "-//W3C//DTD SVG 1.1//EN" "http://www.w3.org/Graphics/SVG/1.1/DTD/svg11.dtd">
<svg version="1.1" id="Layer_1" xmlns="http://www.w3.org/2000/svg" xmlns:xlink="http://www.w3.org/1999/xlink" x="0px" y="0px"
	 viewBox="0 0 90.7 25.7" enable-background="new 0 0 90.7 25.7" xml:space="preserve">
<g>
	<path fill="#F1F2F2" d="M0.5,0C0.2,0,0,0.2,0,0.5v15.8h1.6V0.4C1.5,0.1,1.1,0,0.5,0z M4.7,0H3C2.7,0,2.5,0.2,2.5,0.6v15.8h3.4V0.6
		C5.9,0.2,5.5,0.1,4.7,0z"/>
	<path fill="#F1F2F2" d="M11.5,0H9C8.7,0,8.5,0.2,8.5,0.5v15.8H12V0.5C12,0.2,11.8,0,11.5,0z M13.4,0c-0.3,0-0.5,0.2-0.5,0.5v15.8
		h1.6V0.5C14.4,0.2,14.1,0,13.4,0z M18.2,0h-0.5c-0.4,0-0.5,0.2-0.5,0.5v15.8h1.6V0.5C18.7,0.2,18.5,0,18.2,0z M20.6,0
		c-0.7,0-1,0.2-1,0.5v15.8h1.6V0.5C21.1,0.2,20.9,0,20.6,0z"/>
	<path fill="#F1F2F2" d="M25.4,0.5c0-0.3-0.2-0.5-0.5-0.5c-0.7,0-1,0.2-1,0.5v15.8h1.6V4.9C25.4,2.9,25.4,1.5,25.4,0.5z M27.3,0
		c-0.7,0-1.1,0.2-1.1,0.5v15.8h1.6V0.5C27.9,0.2,27.7,0,27.3,0z M29.8,0c-0.7,0-1.1,0.2-1.1,0.5v15.8h1.6V0.9
		C30.3,0.3,30.1,0,29.8,0z M35.2,0h-1.8c-0.4,0-0.5,0.2-0.5,0.5v15.8h3.5V0.5C36.4,0.2,36,0,35.2,0z"/>
	<path fill="#F1F2F2" d="M39.2,0c-0.7,0-1.1,0.2-1.1,0.5c0,0.6,0,1.5,0,2.7v13.1h1.6V0.5C39.8,0.2,39.6,0,39.2,0z M41.6,0
		c-0.7,0-1.1,0.2-1.1,0.5v15.8h1.6V0.5C42.1,0.2,42,0,41.6,0z M47.8,0h-2.4c-0.4,0-0.5,0.2-0.5,0.5l0,15.8h3.5V0.5
		C48.3,0.2,48.2,0,47.8,0z M52.5,0.5C52.5,0.2,52.3,0,52,0c-0.7,0-1,0.2-1,0.5v15.8h1.6V1.7C52.5,1.2,52.5,0.8,52.5,0.5z"/>
	<path fill="#F1F2F2" d="M54.4,0h-0.2c-0.6,0-0.9,0.2-0.9,0.5v15.8H55V0.5C55,0.2,54.8,0,54.4,0z M56.9,0c-0.7,0-1,0.2-1,0.5v15.8
		h1.6V0.5C57.4,0.2,57.2,0,56.9,0z M63,0h-2.4c-0.4,0-0.5,0.2-0.5,0.5v15.8h3.5V0.5C63.5,0.2,63.3,0,63,0z M67.8,0.5
		c0-0.3-0.2-0.5-0.5-0.5c-0.7,0-1,0.2-1,0.5v15.8h1.6l0-0.5V3.2C67.8,2,67.8,1.1,67.8,0.5z"/>
	<path fill="#F1F2F2" d="M73,0.6c0-0.3-0.2-0.5-0.5-0.5c-0.2,0-0.7,0-1.5,0h-0.9c-0.4,0-0.5,0.2-0.5,0.6v15.8H73V2.9
		C73,1.9,73,1.1,73,0.6z M74.3,0c-0.3,0-0.5,0.2-0.5,0.6v15.8h1.6V0.6C75.4,0.2,75,0,74.3,0z M77.2,0c-0.7,0-1,0.3-1,0.9
		c0,0.1,0,0.3,0,0.6c0,0.3,0,0.5,0,0.6v14.2h1.6V0.6C77.8,0.2,77.6,0,77.2,0z M81.6,0H81c-0.3,0-0.5,0.2-0.5,0.5v15.8h1.6V0.5
		C82.1,0.2,81.9,0,81.6,0z"/>
	<path fill="#F1F2F2" d="M85.8,0c-0.7,0-1,0.2-1,0.5v15.8h1.6V0.5C86.4,0.2,86.2,0,85.8,0z M90.1,0h-2.4c-0.4,0-0.6,0.2-0.6,0.5
		v15.8h3.5V0.5C90.7,0.2,90.5,0,90.1,0z"/>
</g>
<g>
	<path fill="#F1F2F2" d="M2.2,25.5c-0.7,0-1.3-0.3-1.7-1C0.2,24,0,23.3,0,22.5c0-0.8,0.2-1.5,0.5-2c0.4-0.7,1-1,1.7-1
		c0.4,0,0.8,0.1,1.2,0.3c0.5,0.2,0.7,0.5,0.7,0.8c0,0.4-0.2,0.6-0.6,0.6c-0.2,0-0.3-0.1-0.5-0.3c-0.2-0.2-0.4-0.3-0.7-0.3
		c-0.7,0-1.1,0.7-1.1,2c0,1.1,0.4,1.7,1.1,1.7c0.3,0,0.5,0,0.7-0.1c0,0,0-0.1,0-0.5c0-0.1,0-0.1,0-0.2c0-0.1,0-0.2,0-0.2
		c0-0.1-0.1-0.2-0.2-0.2c-0.1,0-0.1,0-0.3,0.1c-0.1,0-0.2,0.1-0.3,0.1c-0.4,0-0.6-0.2-0.6-0.5c0-0.4,0.4-0.6,1.1-0.6
		c0.9,0,1.3,0.2,1.3,0.7v1.7C4.1,25.1,3.4,25.5,2.2,25.5z"/>
	<path fill="#F1F2F2" d="M11.5,23c0-0.7,0-1,0-1.1c0-1.1,0-1.6,0-1.4c0-0.6,0.3-0.9,0.6-0.9c0.4,0,0.5,0.2,0.5,0.6
		c0,0.5,0,1.3,0,2.4c0,1,0,1.8,0,2.4c0,0.5-0.2,0.7-0.7,0.7c-0.3,0-0.6-0.2-0.8-0.5c-0.5-1-1-2-1.4-2.9V25c0,0.4-0.2,0.6-0.6,0.6
		c-0.4,0-0.6-0.2-0.6-0.6v-3.6c0-0.7,0-1.1,0-1.2c0.1-0.4,0.3-0.6,0.7-0.6c0.3,0,0.5,0.1,0.7,0.4C10.5,20.8,11,21.8,11.5,23z"/>
	<path fill="#F1F2F2" d="M19.3,25.6c-0.7,0-1.2-0.4-1.6-1.1c-0.3-0.6-0.5-1.2-0.5-2c0-0.7,0.2-1.4,0.5-1.9c0.4-0.7,0.9-1,1.6-1
		c0.6,0,1.2,0.3,1.6,1c0.3,0.6,0.5,1.2,0.5,1.9c0,0.7-0.2,1.4-0.5,2C20.5,25.2,20,25.6,19.3,25.6z M19.3,20.7
		c-0.3,0-0.6,0.2-0.7,0.7c-0.1,0.4-0.2,0.7-0.2,1.1c0,0.4,0.1,0.8,0.2,1.2c0.2,0.5,0.4,0.7,0.7,0.7c0.3,0,0.5-0.3,0.7-0.8
		c0.2-0.4,0.2-0.8,0.2-1.1c0-0.4-0.1-0.7-0.2-1.1C19.9,20.9,19.6,20.7,19.3,20.7z"/>
	<path fill="#F1F2F2" d="M29.1,21.5c-0.4,0-0.6-0.2-0.6-0.6c-0.2-0.1-0.4-0.2-0.6-0.2c-0.5,0-0.7,0.2-0.7,0.5c0,0.2,0.2,0.4,0.6,0.7
		c0.6,0.3,1,0.5,1.2,0.7c0.4,0.4,0.6,0.8,0.6,1.4c0,0.5-0.2,0.9-0.6,1.2c-0.4,0.3-0.8,0.5-1.3,0.5c-0.5,0-0.9-0.1-1.3-0.4
		c-0.4-0.3-0.6-0.7-0.6-1.2c0-0.4,0.2-0.6,0.6-0.6c0.3,0,0.4,0.2,0.5,0.5c0.1,0.3,0.3,0.5,0.7,0.5c0.2,0,0.3-0.1,0.5-0.2
		c0.2-0.1,0.3-0.3,0.3-0.4c0-0.2-0.4-0.6-1.2-1c-0.8-0.5-1.2-1-1.2-1.6c0-0.5,0.2-0.8,0.6-1.2c0.4-0.3,0.8-0.5,1.3-0.5
		c0.4,0,0.8,0.1,1.2,0.4c0.4,0.3,0.6,0.6,0.6,1C29.7,21.3,29.5,21.5,29.1,21.5z"/>
	<path fill="#F1F2F2" d="M38.1,20.8c-0.5,0-0.8,0-1-0.1l0,0.3c0,0.1,0,0.1,0,0.2c0,0.1,0,0.2,0,0.3c0,0.3,0,0.8,0,1.4
		c0,0.7,0,1.1,0,1.4c0,0.7-0.2,1.1-0.6,1.1c-0.3,0-0.5-0.3-0.6-1c0,0,0-0.4,0-1.4c0-1.4,0-2.2,0.1-2.5L36,20.8
		c-0.2,0-0.3,0.1-0.4,0.1c-0.7,0-1.1-0.2-1.1-0.6c0-0.3,0.2-0.5,0.5-0.6c0.1,0,0.4,0,0.9,0h2.2c0.4,0,0.5,0.2,0.5,0.6
		C38.7,20.6,38.5,20.8,38.1,20.8z"/>
	<path fill="#F1F2F2" d="M45.3,21.6c0,0,0-0.1,0.1-0.3c0-0.2,0.2-0.6,0.5-1.1c0.3-0.5,0.6-0.7,0.7-0.7c0.4,0,0.6,0.2,0.6,0.6
		c0,0.2-0.2,0.6-0.7,1.3c-0.4,0.7-0.7,1.2-0.7,1.3c0,0,0,0.3,0,0.7c0,0.9,0,1.3,0,1.2c-0.1,0.5-0.3,0.8-0.6,0.8
		c-0.4,0-0.6-0.4-0.6-1.2c0-0.2,0-0.4,0-0.7c0-0.3,0-0.5,0-0.5c0-0.2-0.2-0.7-0.7-1.5c-0.4-0.7-0.7-1.2-0.7-1.5
		c0-0.4,0.2-0.6,0.6-0.6c0.2,0,0.4,0.1,0.5,0.3C44.6,20.3,44.9,20.9,45.3,21.6z"/>
	<path fill="#F1F2F2" d="M53.9,21.5c0.1-0.3,0.3-0.7,0.5-1c0.3-0.6,0.6-0.9,0.9-0.9c0.4,0,0.6,0.2,0.6,0.5c0,0.1-0.4,0.8-1.1,2
		c-0.2,0.3-0.2,0.4-0.2,0.3c0,0.1,0.2,0.4,0.7,1.1c0.5,0.7,0.7,1.1,0.7,1.3c0,0.5-0.2,0.7-0.6,0.7c-0.2,0-0.5-0.2-0.7-0.6
		c-0.2-0.4-0.4-0.8-0.7-1.4c-0.2,0.4-0.3,0.7-0.5,1.1c-0.3,0.6-0.6,0.9-0.9,0.9c-0.4,0-0.6-0.2-0.6-0.6c0-0.2,0.2-0.7,0.7-1.4
		c0.4-0.7,0.7-1,0.7-1c0-0.1-0.2-0.4-0.7-1.1c-0.4-0.6-0.7-1.1-0.7-1.3c0-0.4,0.2-0.6,0.6-0.6c0.2,0,0.5,0.3,0.8,0.8
		C53.7,20.9,53.9,21.3,53.9,21.5z"/>
	<path fill="#F1F2F2" d="M63.1,25.7c-0.6,0-0.9,0-1,0c-0.4-0.1-0.6-0.3-0.6-0.6v-0.2c0-0.8,0.2-1.2,0.6-1.2c0.6,0,1,0,1,0
		c0.4,0.1,0.7,0.2,0.7,0.6C63.7,25.2,63.5,25.7,63.1,25.7z"/>
	<path fill="#F1F2F2" d="M71.3,25.6c-0.6,0-1.2-0.3-1.5-0.9c-0.3-0.5-0.4-1.1-0.4-1.8c0-2.2,0.7-3.3,2-3.3c0.3,0,0.7,0.1,1,0.4
		c0.3,0.2,0.5,0.5,0.5,0.9c0,0.4-0.2,0.5-0.6,0.5c-0.2,0-0.4-0.1-0.5-0.3c-0.1-0.2-0.3-0.3-0.4-0.3c-0.3,0-0.5,0.2-0.6,0.5
		c-0.2,0.3-0.2,0.6-0.2,0.9c0,1.5,0.3,2.3,0.9,2.3c0.2,0,0.3-0.1,0.4-0.3c0.1-0.2,0.3-0.3,0.5-0.3c0.4,0,0.6,0.2,0.6,0.6
		c0,0.3-0.2,0.6-0.5,0.9C72,25.4,71.6,25.6,71.3,25.6z"/>
	<path fill="#F1F2F2" d="M79.8,25.6c-0.7,0-1.2-0.4-1.6-1.1c-0.3-0.6-0.5-1.2-0.5-2c0-0.7,0.2-1.4,0.5-1.9c0.4-0.7,0.9-1,1.6-1
		c0.6,0,1.2,0.3,1.6,1c0.3,0.6,0.5,1.2,0.5,1.9c0,0.7-0.2,1.4-0.5,2C81,25.2,80.5,25.6,79.8,25.6z M79.9,20.7
		c-0.3,0-0.6,0.2-0.7,0.7c-0.1,0.4-0.2,0.7-0.2,1.1c0,0.4,0.1,0.8,0.2,1.2c0.2,0.5,0.4,0.7,0.7,0.7c0.3,0,0.5-0.3,0.7-0.8
		c0.2-0.4,0.2-0.8,0.2-1.1c0-0.4-0.1-0.7-0.2-1.1C80.4,20.9,80.2,20.7,79.9,20.7z"/>
	<path fill="#F1F2F2" d="M87.5,22.1c0,0.2,0,0.7,0,1.4c0,0.6,0,1.1,0,1.4c0,0.4-0.2,0.6-0.6,0.6c-0.4,0-0.6-0.5-0.6-1.4v-3.8
		c0-0.5,0.4-0.7,1.2-0.7c0.3,0,0.6,0.6,0.9,1.9c0.3-1.2,0.6-1.9,0.9-1.9c0.4,0,0.7,0,0.8,0.1c0.3,0.1,0.4,0.3,0.4,0.6
		c0,0.4,0,1,0,1.8c0,0.8,0,1.4,0,1.8c0,0.6,0,1,0,1.1c-0.1,0.4-0.3,0.6-0.6,0.6c-0.4,0-0.6-0.4-0.6-1.2c0-0.2,0-0.4,0.1-0.7
		c0-0.3,0.1-0.5,0.1-0.6c0-0.1,0-0.3,0-0.5c0-0.2,0-0.4,0-0.5c-0.1,0.4-0.2,0.7-0.3,1.1c-0.2,0.5-0.4,0.7-0.7,0.7
		c-0.3,0-0.5-0.2-0.7-0.7C87.8,22.8,87.6,22.5,87.5,22.1z"/>
</g>
</svg>
