<?xml version="1.0" encoding="utf-8"?>
<!-- Generator: Adobe Illustrator 18.0.0, SVG Export Plug-In . SVG Version: 6.00 Build 0)  -->
<!DOCTYPE svg PUBLIC "-//W3C//DTD SVG 1.1//EN" "http://www.w3.org/Graphics/SVG/1.1/DTD/svg11.dtd">
<svg version="1.1" id="Layer_1" xmlns="http://www.w3.org/2000/svg" xmlns:xlink="http://www.w3.org/1999/xlink" x="0px" y="0px"
	 viewBox="0 0 349 94" enable-background="new 0 0 349 94" xml:space="preserve">
<g>
	<g>
		<path fill="#D1D3D4" d="M2.9,0C1.7,0,1,0.6,1,1.9v58.2h5.9V1.6C6.6,0.5,5.2,0,2.9,0z M18.2,0h-6.1c-1.2,0-1.8,0.7-1.9,2v58h12.5V2
			C22.7,0.9,21.2,0.2,18.2,0z"/>
		<path fill="#D1D3D4" d="M43.2,0h-8.9c-1.3,0-1.9,0.6-1.9,1.9v58.2h12.7V1.9C45.1,0.6,44.5,0,43.2,0z M50.2,0
			c-1.3,0-1.9,0.6-1.9,1.9v58.2h5.9V1.9C54.1,0.6,52.8,0,50.2,0z M68,0h-2c-1.3,0-2,0.6-2,1.9v58.2h5.9V1.9C69.9,0.6,69.3,0,68,0z
			 M76.8,0c-2.6,0-3.8,0.6-3.8,1.9v58.2h5.9V1.9C78.8,0.6,78.1,0,76.8,0z"/>
		<path fill="#D1D3D4" d="M94.4,1.9c0-1.3-0.6-1.9-1.9-1.9c-2.6,0-3.8,0.6-3.8,1.9v58.2h5.9v-42C94.5,10.9,94.4,5.5,94.4,1.9z
			 M101.6,0c-2.6,0-3.9,0.6-3.9,1.9v58.2h5.9V1.9C103.6,0.6,102.9,0,101.6,0z M110.6,0c-2.6,0-4,0.6-4,1.9v58.2h6V3.3
			C112.5,1.1,111.8,0,110.6,0z M130.8,0h-6.7c-1.3,0-1.9,0.6-1.9,1.9v58.2H135V1.9C135,0.6,133.6,0,130.8,0z"/>
		<path fill="#D1D3D4" d="M145.5,0c-2.6,0-3.9,0.6-3.9,1.9c0,2.2,0,5.5-0.1,9.9v48.3h6V1.9C147.4,0.6,146.8,0,145.5,0z M154.2,0
			c-2.6,0-3.9,0.6-3.9,1.9v58.2h5.9V1.9C156.2,0.6,155.5,0,154.2,0z M177,0h-8.8c-1.3,0-2,0.6-2,1.9l0,58.2h12.9V1.9
			C179.1,0.7,178.4,0.1,177,0z M194.3,1.7c0-1.1-0.6-1.7-1.9-1.7c-2.6,0-3.8,0.6-3.8,1.9v58.2h5.9V6.4
			C194.3,4.4,194.3,2.9,194.3,1.7z"/>
		<path fill="#D1D3D4" d="M201.5,0h-0.7c-2.2,0-3.3,0.6-3.3,1.9v58.2h5.9V1.9C203.4,0.6,202.8,0,201.5,0z M210.4,0
			c-2.6,0-3.8,0.6-3.8,1.9v58.2h5.9V1.9C212.5,0.6,211.8,0,210.4,0z M232.9,0h-8.7c-1.3,0-1.9,0.6-1.9,1.9v58.2h12.7V1.9
			C234.9,0.7,234.3,0.1,232.9,0z M250.6,1.9c0-1.3-0.6-1.9-1.9-1.9c-2.6,0-3.8,0.6-3.8,1.9v58.2h5.9l0-1.9V11.6
			C250.6,7.4,250.6,4.1,250.6,1.9z"/>
		<path fill="#D1D3D4" d="M269.7,2c0-1.2-0.6-1.8-1.8-1.9C267.4,0,265.5,0,262.3,0h-3.2c-1.3,0-1.9,0.7-1.9,2v58h12.7V10.8
			C269.8,7,269.7,4.1,269.7,2z M274.7,0c-1.3,0-1.9,0.7-1.9,2v58h5.9V2C278.5,0.7,277.2,0,274.7,0z M285.2,0c-2.5,0-3.7,1.1-3.7,3.4
			c0,0.5,0,1.2,0.1,2.2c0.1,1,0.1,1.8,0.1,2.3v52.2h5.9V2C287.7,0.7,286.9,0,285.2,0z M301.5,0h-2.1c-1.3,0-1.9,0.6-1.9,1.9v58.2
			h5.9V1.9C303.4,0.6,302.8,0,301.5,0z"/>
		<path fill="#D1D3D4" d="M317.1,0c-2.6,0-3.8,0.6-3.8,1.9v58.2h5.9V1.9C319.2,0.6,318.5,0,317.1,0z M333,0h-8.7
			c-1.4,0-2.1,0.6-2.1,1.9v58.2h12.7V1.9C334.9,0.6,334.3,0,333,0z"/>
	</g>
	<g>
		<path fill="#D1D3D4" d="M9,93.9c-2.7,0-4.8-1.2-6.2-3.7C1.6,88.2,1,85.8,1,83c0-3,0.6-5.4,1.8-7.4c1.4-2.5,3.6-3.7,6.4-3.7
			c1.5,0,2.9,0.3,4.3,1c1.7,0.8,2.5,1.8,2.5,3.1c0,1.4-0.7,2.1-2.1,2.1c-0.6,0-1.2-0.3-1.9-1c-0.7-0.6-1.6-1-2.6-1
			c-2.7,0-4,2.4-4,7.2c0,4.2,1.3,6.3,4,6.3c1,0,1.9-0.2,2.5-0.5c0,0.1,0-0.5,0-1.9c0-0.2,0-0.5,0.1-0.8c0.1-0.4,0.1-0.6,0.1-0.7
			c0-0.4-0.3-0.6-0.9-0.6c-0.2,0-0.5,0.1-1,0.2c-0.5,0.1-0.8,0.2-1.1,0.2c-1.4,0-2.1-0.7-2.1-2c0-1.5,1.4-2.2,4.1-2.2
			c3.2,0,4.8,0.8,4.8,2.5V90C16,92.6,13.6,93.9,9,93.9z"/>
		<path fill="#D1D3D4" d="M43.5,84.7c0-2.5,0-3.8,0-4c0-4,0-5.7,0-5.2c0.2-2.3,0.9-3.5,2.2-3.5c1.3,0,1.9,0.7,1.9,2.2
			c0,1.9,0,4.8,0.1,8.7c0.1,3.9,0.1,6.8,0.1,8.7c0,1.7-0.8,2.5-2.4,2.5c-1.3,0-2.2-0.6-2.9-1.9c-1.9-3.9-3.7-7.4-5.3-10.6V92
			c0,1.4-0.7,2.2-2.2,2.2c-1.4,0-2.1-0.7-2.1-2.1V78.6c0-2.7,0-4.1,0.1-4.3c0.3-1.6,1.2-2.3,2.7-2.3c1,0,1.8,0.5,2.4,1.6
			C39.6,76.6,41.4,80.3,43.5,84.7z"/>
		<path fill="#D1D3D4" d="M72.1,94.2c-2.6,0-4.5-1.3-5.9-4c-1.2-2.1-1.7-4.5-1.7-7.2c0-2.7,0.6-5.1,1.7-7.1c1.4-2.6,3.4-3.9,5.9-3.9
			c2.4,0,4.3,1.3,5.8,3.9c1.3,2.2,1.9,4.6,1.9,7.1c0,2.6-0.6,5-1.9,7.2C76.4,92.9,74.5,94.2,72.1,94.2z M72.2,76.3
			c-1.2,0-2.1,0.9-2.7,2.6c-0.5,1.4-0.8,2.7-0.8,4.1c0,1.4,0.3,2.8,0.8,4.2c0.6,1.8,1.6,2.7,2.7,2.7c1,0,1.9-0.9,2.6-2.8
			c0.6-1.5,0.9-2.9,0.9-4.1c0-1.3-0.3-2.7-0.8-4.1C74.2,77.1,73.3,76.3,72.2,76.3z"/>
		<path fill="#D1D3D4" d="M108,79.1c-1.4,0-2-0.7-2-2.1c-0.8-0.5-1.6-0.8-2.3-0.8c-1.7,0-2.5,0.6-2.5,1.8c0,0.8,0.8,1.6,2.3,2.4
			c2.3,1.1,3.8,1.9,4.5,2.4c1.6,1.3,2.3,3,2.3,5c0,1.9-0.7,3.4-2.1,4.6c-1.4,1.2-3,1.8-4.9,1.8c-1.9,0-3.4-0.5-4.6-1.4
			c-1.4-1.1-2.1-2.5-2.1-4.3c0-1.4,0.7-2.1,2.2-2.1c1,0,1.6,0.6,2,1.8c0.4,1.2,1.2,1.8,2.5,1.8c0.6,0,1.3-0.2,1.9-0.6
			c0.6-0.4,1-1,1-1.6c0-0.8-1.5-2.1-4.6-3.8c-3.1-1.8-4.6-3.8-4.6-6c0-1.7,0.7-3.1,2.1-4.3c1.4-1.2,2.9-1.7,4.7-1.7
			c1.5,0,2.9,0.5,4.4,1.5c1.4,1,2.2,2.2,2.2,3.5C110.2,78.3,109.5,79.1,108,79.1z"/>
		<path fill="#D1D3D4" d="M141.5,76.6c-1.8,0-3.1-0.1-3.7-0.2l-0.1,1.2c0,0.2,0,0.5,0.1,0.9c0.1,0.4,0.1,0.7,0.1,1
			c0,1.2,0,2.9,0.1,5.3c0.1,2.4,0.1,4.2,0.1,5.3c0,2.7-0.7,4.1-2.2,4.1c-1.2,0-2-1.2-2.2-3.6c0.1,0.1,0.1-1.5,0.1-5
			c0-5.1,0.1-8.1,0.3-9l-0.5-0.2c-0.7,0.1-1.2,0.2-1.5,0.2c-2.6,0-4-0.7-4-2.1c0-1.1,0.6-1.8,1.9-2.1c0.3-0.1,1.4-0.1,3.4-0.1h8.1
			c1.3,0,2,0.7,2,2.2C143.4,76,142.8,76.6,141.5,76.6z"/>
		<path fill="#D1D3D4" d="M167.8,79.6c0-0.1,0.1-0.4,0.2-1c0.1-0.8,0.8-2.2,2-4c1.2-1.8,2.1-2.7,2.8-2.7c1.4,0,2.1,0.7,2.1,2.1
			c0,0.6-0.8,2.2-2.4,5c-1.6,2.7-2.4,4.3-2.5,4.9c0,0.1,0,0.9,0,2.6c0,3.1,0,4.6,0,4.5c-0.3,2-1,3-2.2,3c-1.5,0-2.2-1.5-2.2-4.5
			c0-0.6,0-1.5,0-2.6c0-1.1,0-1.7,0-1.9c0-0.9-0.8-2.7-2.5-5.5c-1.6-2.8-2.5-4.6-2.5-5.4c0-1.4,0.7-2.1,2-2.1c0.8,0,1.5,0.4,1.9,1.2
			C165.4,74.8,166.5,77,167.8,79.6z"/>
		<path fill="#D1D3D4" d="M199.6,79.2c0.5-1.2,1.1-2.4,1.7-3.7c1.1-2.2,2.1-3.3,3.2-3.3c1.5,0,2.3,0.7,2.3,2c0,0.4-1.4,2.8-4.1,7.2
			c-0.6,1-0.9,1.4-0.9,1.2c0,0.3,0.8,1.6,2.5,4.1c1.7,2.5,2.5,4.1,2.5,4.6c0,1.7-0.7,2.5-2.1,2.5c-0.8,0-1.7-0.8-2.6-2.3
			c-0.8-1.3-1.6-3-2.5-5c-0.6,1.3-1.3,2.7-1.8,4c-1.1,2.3-2.2,3.4-3.3,3.4c-1.4,0-2.1-0.7-2.1-2.1c0-0.8,0.8-2.5,2.5-5
			c1.6-2.5,2.5-3.8,2.5-3.8c0-0.3-0.8-1.6-2.5-3.9c-1.6-2.3-2.5-3.9-2.5-4.7c0-1.4,0.7-2.1,2.2-2.1c0.8,0,1.8,0.9,3.1,2.8
			C198.8,76.9,199.5,78.3,199.6,79.2z"/>
		<path fill="#D1D3D4" d="M233.3,94.5c-2.3,0-3.5,0-3.7-0.1c-1.5-0.3-2.3-1-2.3-2.1v-0.8c0-2.9,0.7-4.3,2.1-4.3c2.4,0,3.6,0,3.8,0.1
			c1.6,0.2,2.4,0.9,2.4,2.1C235.6,92.8,234.8,94.5,233.3,94.5z"/>
		<path fill="#D1D3D4" d="M263.6,94.1c-2.4,0-4.2-1.1-5.6-3.3c-1.1-1.9-1.6-4.1-1.6-6.6c0-8.2,2.4-12.3,7.2-12.3
			c1.3,0,2.6,0.5,3.8,1.4c1.3,0.9,1.9,2,1.9,3.3c0,1.3-0.7,2-2,2c-0.9,0-1.5-0.4-2-1.2c-0.5-0.8-1-1.2-1.6-1.2c-1,0-1.8,0.6-2.3,1.7
			c-0.6,1.1-0.9,2.3-0.9,3.4c0,5.6,1.1,8.5,3.2,8.5c0.6,0,1.1-0.4,1.5-1.3c0.4-0.8,1.1-1.3,2-1.3c1.4,0,2,0.7,2,2.1
			c0,1.2-0.6,2.3-1.9,3.2C266.1,93.6,264.9,94.1,263.6,94.1z"/>
		<path fill="#D1D3D4" d="M295,94.2c-2.6,0-4.5-1.3-5.9-4c-1.2-2.1-1.7-4.5-1.7-7.2c0-2.7,0.6-5.1,1.7-7.1c1.4-2.6,3.4-3.9,5.9-3.9
			c2.4,0,4.3,1.3,5.8,3.9c1.3,2.2,1.9,4.6,1.9,7.1c0,2.6-0.6,5-1.9,7.2C299.4,92.9,297.4,94.2,295,94.2z M295.1,76.3
			c-1.2,0-2.1,0.9-2.7,2.6c-0.5,1.4-0.8,2.7-0.8,4.1c0,1.4,0.3,2.8,0.8,4.2c0.6,1.8,1.6,2.7,2.7,2.7c1,0,1.9-0.9,2.6-2.8
			c0.6-1.5,0.9-2.9,0.9-4.1c0-1.3-0.3-2.7-0.8-4.1C297.1,77.1,296.2,76.3,295.1,76.3z"/>
		<path fill="#D1D3D4" d="M323.4,81.5c0,0.8,0,2.6,0,5.2c0,2.2,0,4,0,5.2c0,1.4-0.7,2.1-2.2,2.1c-1.5,0-2.2-1.8-2.2-5.3v-14
			c0-1.7,1.5-2.5,4.6-2.5c1.1,0,2.3,2.3,3.5,6.9c1-4.6,2.1-6.9,3.2-6.9c1.6,0,2.6,0.1,3,0.3c1,0.3,1.6,1,1.6,2.2c0,1.4,0,3.6,0,6.5
			c0,2.9,0,5.1,0,6.5c0,2.3,0,3.6-0.1,3.9c-0.3,1.6-1,2.4-2.1,2.4c-1.5,0-2.3-1.5-2.3-4.4c0-0.7,0.1-1.6,0.2-2.7
			c0.1-1.1,0.2-1.8,0.2-2.1c0-0.4,0-1,0-1.8c0-0.8,0-1.4,0-1.8c-0.4,1.4-0.7,2.7-1.1,4.1c-0.7,1.8-1.5,2.7-2.5,2.7
			c-1,0-1.8-0.8-2.4-2.5C324.2,84.1,323.8,82.8,323.4,81.5z"/>
	</g>
</g>
</svg>
