<?xml version="1.0" encoding="utf-8"?>
<!-- Generator: Adobe Illustrator 18.0.0, SVG Export Plug-In . SVG Version: 6.00 Build 0)  -->
<!DOCTYPE svg PUBLIC "-//W3C//DTD SVG 1.1//EN" "http://www.w3.org/Graphics/SVG/1.1/DTD/svg11.dtd">
<svg version="1.1" id="Layer_1" xmlns="http://www.w3.org/2000/svg" xmlns:xlink="http://www.w3.org/1999/xlink" x="0px" y="0px"
	 viewBox="0 40.7 120 38.7" enable-background="new 0 40.7 120 38.7" xml:space="preserve">
<g>
	<g>
		<path fill="#D1D3D4" d="M2,43.8c-0.4,0-0.7,0.2-0.7,0.7v20h2V44.4C3.3,44,2.8,43.8,2,43.8z M7.3,43.8H5.2c-0.4,0-0.6,0.2-0.7,0.7
			v19.9h4.3V44.5C8.8,44.1,8.3,43.9,7.3,43.8z"/>
		<path fill="#D1D3D4" d="M15.9,43.8h-3.1c-0.4,0-0.7,0.2-0.7,0.7v20h4.4v-20C16.5,44,16.3,43.8,15.9,43.8z M18.3,43.8
			c-0.4,0-0.7,0.2-0.7,0.7v20h2v-20C19.6,44,19.2,43.8,18.3,43.8z M24.4,43.8h-0.7c-0.4,0-0.7,0.2-0.7,0.7v20h2v-20
			C25,44,24.8,43.8,24.4,43.8z M27.4,43.8c-0.9,0-1.3,0.2-1.3,0.7v20h2v-20C28.1,44,27.9,43.8,27.4,43.8z"/>
		<path fill="#D1D3D4" d="M33.5,44.5c0-0.4-0.2-0.7-0.7-0.7c-0.9,0-1.3,0.2-1.3,0.7v20h2V50.1C33.5,47.6,33.5,45.7,33.5,44.5z
			 M35.9,43.8c-0.9,0-1.3,0.2-1.3,0.7v20h2v-20C36.6,44,36.4,43.8,35.9,43.8z M39,43.8c-0.9,0-1.4,0.2-1.4,0.7v20h2.1V45
			C39.7,44.2,39.4,43.8,39,43.8z M46,43.8h-2.3c-0.4,0-0.7,0.2-0.7,0.7v20h4.4v-20C47.4,44,46.9,43.8,46,43.8z"/>
		<path fill="#D1D3D4" d="M51,43.8c-0.9,0-1.3,0.2-1.3,0.7c0,0.8,0,1.9,0,3.4v16.6h2.1v-20C51.7,44,51.5,43.8,51,43.8z M54,43.8
			c-0.9,0-1.3,0.2-1.3,0.7v20h2v-20C54.7,44,54.5,43.8,54,43.8z M61.9,43.8h-3c-0.4,0-0.7,0.2-0.7,0.7v20h4.4v-20
			C62.6,44.1,62.3,43.9,61.9,43.8z M67.8,44.4c0-0.4-0.2-0.6-0.7-0.6c-0.9,0-1.3,0.2-1.3,0.7v20h2V46C67.8,45.4,67.8,44.8,67.8,44.4
			z"/>
		<path fill="#D1D3D4" d="M70.3,43.8H70c-0.8,0-1.1,0.2-1.1,0.7v20h2v-20C70.9,44,70.7,43.8,70.3,43.8z M73.3,43.8
			c-0.9,0-1.3,0.2-1.3,0.7v20h2v-20C74.1,44,73.8,43.8,73.3,43.8z M81.1,43.8h-3c-0.4,0-0.7,0.2-0.7,0.7v20h4.4v-20
			C81.8,44.1,81.6,43.9,81.1,43.8z M87.2,44.5c0-0.4-0.2-0.7-0.7-0.7c-0.9,0-1.3,0.2-1.3,0.7v20h2v-0.7v-16
			C87.2,46.4,87.2,45.2,87.2,44.5z"/>
		<path fill="#D1D3D4" d="M93.7,44.5c0-0.4-0.2-0.6-0.6-0.7c-0.2,0-0.8,0-1.9,0h-1.1c-0.4,0-0.7,0.2-0.7,0.7v19.9h4.4V47.6
			C93.8,46.2,93.7,45.2,93.7,44.5z M95.5,43.8c-0.4,0-0.7,0.2-0.7,0.7v19.9h2V44.5C96.8,44.1,96.3,43.8,95.5,43.8z M99.1,43.8
			c-0.9,0-1.3,0.4-1.3,1.2c0,0.2,0,0.4,0,0.8c0,0.3,0,0.6,0,0.8v17.9h2v-20C99.9,44.1,99.6,43.8,99.1,43.8z M104.7,43.8h-0.7
			c-0.4,0-0.7,0.2-0.7,0.7v20h2v-20C105.3,44,105.1,43.8,104.7,43.8z"/>
		<path fill="#D1D3D4" d="M110,43.8c-0.9,0-1.3,0.2-1.3,0.7v20h2v-20C110.8,44,110.5,43.8,110,43.8z M115.5,43.8h-3
			c-0.5,0-0.7,0.2-0.7,0.7v20h4.4v-20C116.2,44,115.9,43.8,115.5,43.8z"/>
	</g>
	<g>
		<path fill="#D1D3D4" d="M4.1,76.1c-0.9,0-1.7-0.4-2.1-1.3c-0.4-0.7-0.6-1.5-0.6-2.5c0-1,0.2-1.9,0.6-2.5c0.5-0.9,1.2-1.3,2.2-1.3
			c0.5,0,1,0.1,1.5,0.3c0.6,0.3,0.9,0.6,0.9,1.1c0,0.5-0.2,0.7-0.7,0.7c-0.2,0-0.4-0.1-0.7-0.3C4.9,70.1,4.6,70,4.2,70
			c-0.9,0-1.4,0.8-1.4,2.5c0,1.4,0.4,2.2,1.4,2.2c0.3,0,0.7-0.1,0.9-0.2c0,0,0-0.2,0-0.7c0-0.1,0-0.2,0-0.3c0-0.1,0-0.2,0-0.2
			c0-0.1-0.1-0.2-0.3-0.2c-0.1,0-0.2,0-0.3,0.1c-0.2,0-0.3,0.1-0.4,0.1c-0.5,0-0.7-0.2-0.7-0.7c0-0.5,0.5-0.8,1.4-0.8
			c1.1,0,1.7,0.3,1.7,0.9v2.1C6.5,75.7,5.7,76.1,4.1,76.1z"/>
		<path fill="#D1D3D4" d="M16,73c0-0.9,0-1.3,0-1.4c0-1.4,0-2,0-1.8c0.1-0.8,0.3-1.2,0.8-1.2s0.7,0.2,0.7,0.8c0,0.7,0,1.7,0,3
			c0,1.3,0,2.3,0,3c0,0.6-0.3,0.9-0.8,0.9c-0.4,0-0.8-0.2-1-0.7c-0.7-1.3-1.3-2.5-1.8-3.6v3.6c0,0.5-0.2,0.8-0.8,0.8
			c-0.5,0-0.7-0.2-0.7-0.7v-4.6c0-0.9,0-1.4,0-1.5c0.1-0.6,0.4-0.8,0.9-0.8c0.3,0,0.6,0.2,0.8,0.6C14.6,70.2,15.2,71.4,16,73z"/>
		<path fill="#D1D3D4" d="M25.8,76.2c-0.9,0-1.5-0.4-2-1.4c-0.4-0.7-0.6-1.5-0.6-2.5c0-0.9,0.2-1.8,0.6-2.4c0.5-0.9,1.2-1.3,2-1.3
			c0.8,0,1.5,0.4,2,1.3c0.4,0.8,0.7,1.6,0.7,2.4c0,0.9-0.2,1.7-0.7,2.5C27.3,75.8,26.6,76.2,25.8,76.2z M25.8,70.1
			c-0.4,0-0.7,0.3-0.9,0.9c-0.2,0.5-0.3,0.9-0.3,1.4c0,0.5,0.1,1,0.3,1.4c0.2,0.6,0.6,0.9,0.9,0.9c0.3,0,0.7-0.3,0.9-1
			c0.2-0.5,0.3-1,0.3-1.4c0-0.4-0.1-0.9-0.3-1.4C26.5,70.3,26.2,70.1,25.8,70.1z"/>
		<path fill="#D1D3D4" d="M38.1,71c-0.5,0-0.7-0.2-0.7-0.7c-0.3-0.2-0.6-0.3-0.8-0.3c-0.6,0-0.9,0.2-0.9,0.6c0,0.3,0.3,0.6,0.8,0.8
			c0.8,0.4,1.3,0.7,1.5,0.8c0.6,0.4,0.8,1,0.8,1.7c0,0.7-0.2,1.2-0.7,1.6s-1,0.6-1.7,0.6s-1.2-0.2-1.6-0.5c-0.5-0.4-0.7-0.9-0.7-1.5
			c0-0.5,0.2-0.7,0.8-0.7c0.3,0,0.6,0.2,0.7,0.6c0.1,0.4,0.4,0.6,0.9,0.6c0.2,0,0.4-0.1,0.7-0.2c0.2-0.1,0.3-0.3,0.3-0.6
			c0-0.3-0.5-0.7-1.6-1.3c-1.1-0.6-1.6-1.3-1.6-2.1c0-0.6,0.2-1.1,0.7-1.5s1-0.6,1.6-0.6c0.5,0,1,0.2,1.5,0.5
			c0.5,0.3,0.8,0.8,0.8,1.2C38.9,70.8,38.7,71,38.1,71z"/>
		<path fill="#D1D3D4" d="M49.7,70.2c-0.6,0-1.1,0-1.3-0.1l0,0.4c0,0.1,0,0.2,0,0.3c0,0.1,0,0.2,0,0.3c0,0.4,0,1,0,1.8
			c0,0.8,0,1.4,0,1.8c0,0.9-0.2,1.4-0.8,1.4c-0.4,0-0.7-0.4-0.8-1.2c0,0,0-0.5,0-1.7c0-1.8,0-2.8,0.1-3.1l-0.2-0.1
			c-0.2,0-0.4,0.1-0.5,0.1c-0.9,0-1.4-0.2-1.4-0.7c0-0.4,0.2-0.6,0.7-0.7c0.1,0,0.5,0,1.2,0h2.8c0.4,0,0.7,0.2,0.7,0.8
			C50.3,70,50.1,70.2,49.7,70.2z"/>
		<path fill="#D1D3D4" d="M58.7,71.2c0,0,0-0.1,0.1-0.3c0-0.3,0.3-0.8,0.7-1.4s0.7-0.9,1-0.9c0.5,0,0.7,0.2,0.7,0.7
			c0,0.2-0.3,0.8-0.8,1.7c-0.6,0.9-0.8,1.5-0.9,1.7c0,0,0,0.3,0,0.9c0,1.1,0,1.6,0,1.5c-0.1,0.7-0.3,1-0.8,1c-0.5,0-0.8-0.5-0.8-1.5
			c0-0.2,0-0.5,0-0.9c0-0.4,0-0.6,0-0.7c0-0.3-0.3-0.9-0.9-1.9c-0.6-1-0.9-1.6-0.9-1.9c0-0.5,0.2-0.7,0.7-0.7c0.3,0,0.5,0.1,0.7,0.4
			C57.9,69.6,58.2,70.3,58.7,71.2z"/>
		<path fill="#D1D3D4" d="M69.6,71.1c0.2-0.4,0.4-0.8,0.6-1.3c0.4-0.8,0.7-1.1,1.1-1.1c0.5,0,0.8,0.2,0.8,0.7c0,0.1-0.5,1-1.4,2.5
			c-0.2,0.3-0.3,0.5-0.3,0.4c0,0.1,0.3,0.6,0.9,1.4c0.6,0.9,0.9,1.4,0.9,1.6c0,0.6-0.2,0.9-0.7,0.9c-0.3,0-0.6-0.3-0.9-0.8
			c-0.3-0.4-0.6-1-0.9-1.7C69.4,74,69.2,74.5,69,75c-0.4,0.8-0.8,1.2-1.1,1.2c-0.5,0-0.7-0.2-0.7-0.7c0-0.3,0.3-0.9,0.9-1.7
			c0.6-0.9,0.9-1.3,0.9-1.3c0-0.1-0.3-0.6-0.9-1.3c-0.6-0.8-0.9-1.3-0.9-1.6c0-0.5,0.2-0.7,0.8-0.7c0.3,0,0.6,0.3,1.1,1
			C69.4,70.3,69.6,70.8,69.6,71.1z"/>
		<path fill="#D1D3D4" d="M81.2,76.3c-0.8,0-1.2,0-1.3,0c-0.5-0.1-0.8-0.3-0.8-0.7v-0.3c0-1,0.2-1.5,0.7-1.5c0.8,0,1.2,0,1.3,0
			c0.6,0.1,0.8,0.3,0.8,0.7C82,75.7,81.7,76.3,81.2,76.3z"/>
		<path fill="#D1D3D4" d="M91.6,76.2c-0.8,0-1.4-0.4-1.9-1.1c-0.4-0.7-0.6-1.4-0.6-2.3c0-2.8,0.8-4.2,2.5-4.2c0.4,0,0.9,0.2,1.3,0.5
			c0.4,0.3,0.7,0.7,0.7,1.1s-0.2,0.7-0.7,0.7c-0.3,0-0.5-0.1-0.7-0.4C92,70.2,91.9,70,91.7,70c-0.3,0-0.6,0.2-0.8,0.6
			c-0.2,0.4-0.3,0.8-0.3,1.2c0,1.9,0.4,2.9,1.1,2.9c0.2,0,0.4-0.1,0.5-0.4c0.1-0.3,0.4-0.4,0.7-0.4c0.5,0,0.7,0.2,0.7,0.7
			c0,0.4-0.2,0.8-0.7,1.1C92.5,76,92.1,76.2,91.6,76.2z"/>
		<path fill="#D1D3D4" d="M102.4,76.2c-0.9,0-1.5-0.4-2-1.4c-0.4-0.7-0.6-1.5-0.6-2.5c0-0.9,0.2-1.8,0.6-2.4c0.5-0.9,1.2-1.3,2-1.3
			c0.8,0,1.5,0.4,2,1.3c0.4,0.8,0.7,1.6,0.7,2.4c0,0.9-0.2,1.7-0.7,2.5C103.9,75.8,103.3,76.2,102.4,76.2z M102.5,70.1
			c-0.4,0-0.7,0.3-0.9,0.9c-0.2,0.5-0.3,0.9-0.3,1.4c0,0.5,0.1,1,0.3,1.4c0.2,0.6,0.6,0.9,0.9,0.9c0.3,0,0.7-0.3,0.9-1
			c0.2-0.5,0.3-1,0.3-1.4c0-0.4-0.1-0.9-0.3-1.4C103.2,70.3,102.8,70.1,102.5,70.1z"/>
		<path fill="#D1D3D4" d="M112.2,71.9c0,0.3,0,0.9,0,1.8c0,0.8,0,1.4,0,1.8c0,0.5-0.2,0.7-0.8,0.7c-0.5,0-0.8-0.6-0.8-1.8v-4.8
			c0-0.6,0.5-0.9,1.6-0.9c0.4,0,0.8,0.8,1.2,2.4c0.3-1.6,0.7-2.4,1.1-2.4c0.6,0,0.9,0,1,0.1c0.3,0.1,0.6,0.3,0.6,0.8
			c0,0.5,0,1.2,0,2.2c0,1,0,1.8,0,2.2c0,0.8,0,1.2,0,1.3c-0.1,0.6-0.3,0.8-0.7,0.8c-0.5,0-0.8-0.5-0.8-1.5c0-0.2,0-0.6,0.1-0.9
			c0-0.4,0.1-0.6,0.1-0.7c0-0.1,0-0.3,0-0.6s0-0.5,0-0.6c-0.1,0.5-0.2,0.9-0.4,1.4c-0.2,0.6-0.5,0.9-0.9,0.9c-0.3,0-0.6-0.3-0.8-0.9
			C112.5,72.8,112.3,72.3,112.2,71.9z"/>
	</g>
</g>
</svg>
