<?xml version="1.0" encoding="utf-8"?>
<!-- Generator: Adobe Illustrator 18.0.0, SVG Export Plug-In . SVG Version: 6.00 Build 0)  -->
<!DOCTYPE svg PUBLIC "-//W3C//DTD SVG 1.1//EN" "http://www.w3.org/Graphics/SVG/1.1/DTD/svg11.dtd">
<svg version="1.1" id="Layer_1" xmlns="http://www.w3.org/2000/svg" xmlns:xlink="http://www.w3.org/1999/xlink" x="0px" y="0px"
	 viewBox="0 41 120 38" enable-background="new 0 41 120 38" xml:space="preserve">
<g>
	<g>
		<path fill="#585959" d="M3,43.8c-0.4,0-0.7,0.2-0.7,0.7v20h2V44.4C4.3,44,3.8,43.8,3,43.8z M8.3,43.8H6.2c-0.4,0-0.6,0.2-0.7,0.7
			v19.9h4.3V44.5C9.8,44.1,9.3,43.9,8.3,43.8z"/>
		<path fill="#585959" d="M16.9,43.8h-3.1c-0.4,0-0.7,0.2-0.7,0.7v20h4.4v-20C17.5,44,17.3,43.8,16.9,43.8z M19.3,43.8
			c-0.4,0-0.7,0.2-0.7,0.7v20h2v-20C20.6,44,20.2,43.8,19.3,43.8z M25.4,43.8h-0.7c-0.4,0-0.7,0.2-0.7,0.7v20h2v-20
			C26,44,25.8,43.8,25.4,43.8z M28.4,43.8c-0.9,0-1.3,0.2-1.3,0.7v20h2v-20C29.1,44,28.9,43.8,28.4,43.8z"/>
		<path fill="#585959" d="M34.5,44.5c0-0.4-0.2-0.7-0.7-0.7c-0.9,0-1.3,0.2-1.3,0.7v20h2V50.1C34.5,47.6,34.5,45.7,34.5,44.5z
			 M36.9,43.8c-0.9,0-1.3,0.2-1.3,0.7v20h2v-20C37.6,44,37.4,43.8,36.9,43.8z M40,43.8c-0.9,0-1.4,0.2-1.4,0.7v20h2.1V45
			C40.7,44.2,40.4,43.8,40,43.8z M47,43.8h-2.3c-0.4,0-0.7,0.2-0.7,0.7v20h4.4v-20C48.4,44,47.9,43.8,47,43.8z"/>
		<path fill="#585959" d="M52,43.8c-0.9,0-1.3,0.2-1.3,0.7c0,0.8,0,1.9,0,3.4v16.6h2.1v-20C52.7,44,52.5,43.8,52,43.8z M55,43.8
			c-0.9,0-1.3,0.2-1.3,0.7v20h2v-20C55.7,44,55.5,43.8,55,43.8z M62.9,43.8h-3c-0.4,0-0.7,0.2-0.7,0.7v20h4.4v-20
			C63.6,44.1,63.3,43.9,62.9,43.8z M68.8,44.4c0-0.4-0.2-0.6-0.7-0.6c-0.9,0-1.3,0.2-1.3,0.7v20h2V46C68.8,45.4,68.8,44.8,68.8,44.4
			z"/>
		<path fill="#585959" d="M71.3,43.8H71c-0.8,0-1.1,0.2-1.1,0.7v20h2v-20C71.9,44,71.7,43.8,71.3,43.8z M74.3,43.8
			c-0.9,0-1.3,0.2-1.3,0.7v20h2v-20C75.1,44,74.8,43.8,74.3,43.8z M82.1,43.8h-3c-0.4,0-0.7,0.2-0.7,0.7v20h4.4v-20
			C82.8,44.1,82.6,43.9,82.1,43.8z M88.2,44.5c0-0.4-0.2-0.7-0.7-0.7c-0.9,0-1.3,0.2-1.3,0.7v20h2v-0.7v-16
			C88.2,46.4,88.2,45.2,88.2,44.5z"/>
		<path fill="#585959" d="M94.7,44.5c0-0.4-0.2-0.6-0.6-0.7c-0.2,0-0.8,0-1.9,0h-1.1c-0.4,0-0.7,0.2-0.7,0.7v19.9h4.4V47.6
			C94.8,46.2,94.7,45.2,94.7,44.5z M96.5,43.8c-0.4,0-0.7,0.2-0.7,0.7v19.9h2V44.5C97.8,44.1,97.3,43.8,96.5,43.8z M100.1,43.8
			c-0.9,0-1.3,0.4-1.3,1.2c0,0.2,0,0.4,0,0.8c0,0.3,0,0.6,0,0.8v17.9h2v-20C100.9,44.1,100.6,43.8,100.1,43.8z M105.7,43.8h-0.7
			c-0.4,0-0.7,0.2-0.7,0.7v20h2v-20C106.3,44,106.1,43.8,105.7,43.8z"/>
		<path fill="#585959" d="M111,43.8c-0.9,0-1.3,0.2-1.3,0.7v20h2v-20C111.8,44,111.5,43.8,111,43.8z M116.5,43.8h-3
			c-0.5,0-0.7,0.2-0.7,0.7v20h4.4v-20C117.2,44,116.9,43.8,116.5,43.8z"/>
	</g>
	<g>
		<path fill="#585959" d="M5.1,76.1c-0.9,0-1.7-0.4-2.1-1.3c-0.4-0.7-0.6-1.5-0.6-2.5c0-1,0.2-1.9,0.6-2.5c0.5-0.9,1.2-1.3,2.2-1.3
			c0.5,0,1,0.1,1.5,0.3c0.6,0.3,0.9,0.6,0.9,1.1c0,0.5-0.2,0.7-0.7,0.7c-0.2,0-0.4-0.1-0.7-0.3C5.9,70.1,5.6,70,5.2,70
			c-0.9,0-1.4,0.8-1.4,2.5c0,1.4,0.4,2.2,1.4,2.2c0.3,0,0.7-0.1,0.9-0.2c0,0,0-0.2,0-0.7c0-0.1,0-0.2,0-0.3c0-0.1,0-0.2,0-0.2
			c0-0.1-0.1-0.2-0.3-0.2c-0.1,0-0.2,0-0.3,0.1c-0.2,0-0.3,0.1-0.4,0.1c-0.5,0-0.7-0.2-0.7-0.7c0-0.5,0.5-0.8,1.4-0.8
			c1.1,0,1.7,0.3,1.7,0.9v2.1C7.5,75.7,6.7,76.1,5.1,76.1z"/>
		<path fill="#585959" d="M17,73c0-0.9,0-1.3,0-1.4c0-1.4,0-2,0-1.8c0.1-0.8,0.3-1.2,0.8-1.2s0.7,0.2,0.7,0.8c0,0.7,0,1.7,0,3
			c0,1.3,0,2.3,0,3c0,0.6-0.3,0.9-0.8,0.9c-0.4,0-0.8-0.2-1-0.7c-0.7-1.3-1.3-2.5-1.8-3.6v3.6c0,0.5-0.2,0.8-0.8,0.8
			c-0.5,0-0.7-0.2-0.7-0.7v-4.6c0-0.9,0-1.4,0-1.5c0.1-0.6,0.4-0.8,0.9-0.8c0.3,0,0.6,0.2,0.8,0.6C15.6,70.2,16.2,71.4,17,73z"/>
		<path fill="#585959" d="M26.8,76.2c-0.9,0-1.5-0.4-2-1.4c-0.4-0.7-0.6-1.5-0.6-2.5c0-0.9,0.2-1.8,0.6-2.4c0.5-0.9,1.2-1.3,2-1.3
			c0.8,0,1.5,0.4,2,1.3c0.4,0.8,0.7,1.6,0.7,2.4c0,0.9-0.2,1.7-0.7,2.5C28.3,75.8,27.6,76.2,26.8,76.2z M26.8,70.1
			c-0.4,0-0.7,0.3-0.9,0.9c-0.2,0.5-0.3,0.9-0.3,1.4s0.1,1,0.3,1.4c0.2,0.6,0.6,0.9,0.9,0.9c0.3,0,0.7-0.3,0.9-1
			c0.2-0.5,0.3-1,0.3-1.4c0-0.4-0.1-0.9-0.3-1.4C27.5,70.3,27.2,70.1,26.8,70.1z"/>
		<path fill="#585959" d="M39.1,71c-0.5,0-0.7-0.2-0.7-0.7c-0.3-0.2-0.6-0.3-0.8-0.3c-0.6,0-0.9,0.2-0.9,0.6c0,0.3,0.3,0.6,0.8,0.8
			c0.8,0.4,1.3,0.7,1.5,0.8c0.6,0.4,0.8,1,0.8,1.7c0,0.7-0.2,1.2-0.7,1.6s-1,0.6-1.7,0.6s-1.2-0.2-1.6-0.5c-0.5-0.4-0.7-0.9-0.7-1.5
			c0-0.5,0.2-0.7,0.8-0.7c0.3,0,0.6,0.2,0.7,0.6c0.1,0.4,0.4,0.6,0.9,0.6c0.2,0,0.4-0.1,0.7-0.2c0.2-0.1,0.3-0.3,0.3-0.6
			c0-0.3-0.5-0.7-1.6-1.3c-1.1-0.6-1.6-1.3-1.6-2.1c0-0.6,0.2-1.1,0.7-1.5c0.5-0.4,1-0.6,1.6-0.6c0.5,0,1,0.2,1.5,0.5
			c0.5,0.3,0.8,0.8,0.8,1.2C39.9,70.8,39.7,71,39.1,71z"/>
		<path fill="#585959" d="M50.7,70.2c-0.6,0-1.1,0-1.3-0.1l0,0.4c0,0.1,0,0.2,0,0.3c0,0.1,0,0.2,0,0.3c0,0.4,0,1,0,1.8
			c0,0.8,0,1.4,0,1.8c0,0.9-0.2,1.4-0.8,1.4c-0.4,0-0.7-0.4-0.8-1.2c0,0,0-0.5,0-1.7c0-1.8,0-2.8,0.1-3.1l-0.2-0.1
			c-0.2,0-0.4,0.1-0.5,0.1c-0.9,0-1.4-0.2-1.4-0.7c0-0.4,0.2-0.6,0.7-0.7c0.1,0,0.5,0,1.2,0h2.8c0.4,0,0.7,0.2,0.7,0.8
			C51.3,70,51.1,70.2,50.7,70.2z"/>
		<path fill="#585959" d="M59.7,71.2c0,0,0-0.1,0.1-0.3c0-0.3,0.3-0.8,0.7-1.4s0.7-0.9,1-0.9c0.5,0,0.7,0.2,0.7,0.7
			c0,0.2-0.3,0.8-0.8,1.7c-0.6,0.9-0.8,1.5-0.9,1.7c0,0,0,0.3,0,0.9c0,1.1,0,1.6,0,1.5c-0.1,0.7-0.3,1-0.8,1c-0.5,0-0.8-0.5-0.8-1.5
			c0-0.2,0-0.5,0-0.9c0-0.4,0-0.6,0-0.7c0-0.3-0.3-0.9-0.9-1.9c-0.6-1-0.9-1.6-0.9-1.9c0-0.5,0.2-0.7,0.7-0.7c0.3,0,0.5,0.1,0.7,0.4
			C58.9,69.6,59.2,70.3,59.7,71.2z"/>
		<path fill="#585959" d="M70.6,71.1c0.2-0.4,0.4-0.8,0.6-1.3c0.4-0.8,0.7-1.1,1.1-1.1c0.5,0,0.8,0.2,0.8,0.7c0,0.1-0.5,1-1.4,2.5
			c-0.2,0.3-0.3,0.5-0.3,0.4c0,0.1,0.3,0.6,0.9,1.4c0.6,0.9,0.9,1.4,0.9,1.6c0,0.6-0.2,0.9-0.7,0.9c-0.3,0-0.6-0.3-0.9-0.8
			c-0.3-0.4-0.6-1-0.9-1.7C70.4,74,70.2,74.5,70,75c-0.4,0.8-0.8,1.2-1.1,1.2c-0.5,0-0.7-0.2-0.7-0.7c0-0.3,0.3-0.9,0.9-1.7
			c0.6-0.9,0.9-1.3,0.9-1.3c0-0.1-0.3-0.6-0.9-1.3c-0.6-0.8-0.9-1.3-0.9-1.6c0-0.5,0.2-0.7,0.8-0.7c0.3,0,0.6,0.3,1.1,1
			C70.4,70.3,70.6,70.8,70.6,71.1z"/>
		<path fill="#585959" d="M82.2,76.3c-0.8,0-1.2,0-1.3,0c-0.5-0.1-0.8-0.3-0.8-0.7v-0.3c0-1,0.2-1.5,0.7-1.5c0.8,0,1.2,0,1.3,0
			c0.6,0.1,0.8,0.3,0.8,0.7C83,75.7,82.7,76.3,82.2,76.3z"/>
		<path fill="#585959" d="M92.6,76.2c-0.8,0-1.4-0.4-1.9-1.1c-0.4-0.7-0.6-1.4-0.6-2.3c0-2.8,0.8-4.2,2.5-4.2c0.4,0,0.9,0.2,1.3,0.5
			c0.4,0.3,0.7,0.7,0.7,1.1c0,0.4-0.2,0.7-0.7,0.7c-0.3,0-0.5-0.1-0.7-0.4C93,70.2,92.9,70,92.7,70c-0.3,0-0.6,0.2-0.8,0.6
			c-0.2,0.4-0.3,0.8-0.3,1.2c0,1.9,0.4,2.9,1.1,2.9c0.2,0,0.4-0.1,0.5-0.4c0.1-0.3,0.4-0.4,0.7-0.4c0.5,0,0.7,0.2,0.7,0.7
			c0,0.4-0.2,0.8-0.7,1.1C93.5,76,93.1,76.2,92.6,76.2z"/>
		<path fill="#585959" d="M103.4,76.2c-0.9,0-1.5-0.4-2-1.4c-0.4-0.7-0.6-1.5-0.6-2.5c0-0.9,0.2-1.8,0.6-2.4c0.5-0.9,1.2-1.3,2-1.3
			c0.8,0,1.5,0.4,2,1.3c0.4,0.8,0.7,1.6,0.7,2.4c0,0.9-0.2,1.7-0.7,2.5C104.9,75.8,104.3,76.2,103.4,76.2z M103.5,70.1
			c-0.4,0-0.7,0.3-0.9,0.9c-0.2,0.5-0.3,0.9-0.3,1.4s0.1,1,0.3,1.4c0.2,0.6,0.6,0.9,0.9,0.9c0.3,0,0.7-0.3,0.9-1
			c0.2-0.5,0.3-1,0.3-1.4c0-0.4-0.1-0.9-0.3-1.4C104.2,70.3,103.8,70.1,103.5,70.1z"/>
		<path fill="#585959" d="M113.2,71.9c0,0.3,0,0.9,0,1.8c0,0.8,0,1.4,0,1.8c0,0.5-0.2,0.7-0.8,0.7c-0.5,0-0.8-0.6-0.8-1.8v-4.8
			c0-0.6,0.5-0.9,1.6-0.9c0.4,0,0.8,0.8,1.2,2.4c0.3-1.6,0.7-2.4,1.1-2.4c0.6,0,0.9,0,1,0.1c0.3,0.1,0.6,0.3,0.6,0.8
			c0,0.5,0,1.2,0,2.2c0,1,0,1.8,0,2.2c0,0.8,0,1.2,0,1.3c-0.1,0.6-0.3,0.8-0.7,0.8c-0.5,0-0.8-0.5-0.8-1.5c0-0.2,0-0.6,0.1-0.9
			c0-0.4,0.1-0.6,0.1-0.7c0-0.1,0-0.3,0-0.6s0-0.5,0-0.6c-0.1,0.5-0.2,0.9-0.4,1.4c-0.2,0.6-0.5,0.9-0.9,0.9c-0.3,0-0.6-0.3-0.8-0.9
			C113.5,72.8,113.3,72.3,113.2,71.9z"/>
	</g>
</g>
</svg>
