<?xml version="1.0" encoding="utf-8"?>
<!-- Generator: Adobe Illustrator 18.0.0, SVG Export Plug-In . SVG Version: 6.00 Build 0)  -->
<!DOCTYPE svg PUBLIC "-//W3C//DTD SVG 1.1//EN" "http://www.w3.org/Graphics/SVG/1.1/DTD/svg11.dtd">
<svg version="1.1" id="Layer_1" xmlns="http://www.w3.org/2000/svg" xmlns:xlink="http://www.w3.org/1999/xlink" x="0px" y="0px"
	 viewBox="0 0 350.3 100" enable-background="new 0 0 350.3 100" xml:space="preserve">
<g opacity="0.4">
	<g>
		<path fill="#353535" d="M1.8,20.9c-0.8,0-1.2,0.4-1.2,1.2v78.2h3.8V21.9C4.1,21.2,3.3,20.9,1.8,20.9z M11.5,20.9H7.7
			c-0.8,0-1.2,0.4-1.2,1.3v78.1h8V22.2C14.4,21.4,13.4,21,11.5,20.9z"/>
		<path fill="#353535" d="M27.5,20.9h-5.7c-0.8,0-1.2,0.4-1.2,1.2v78.2h8.1V22.1C28.7,21.3,28.3,20.9,27.5,20.9z M32,20.9
			c-0.8,0-1.2,0.4-1.2,1.2v78.2h3.8V22.1C34.5,21.3,33.6,20.9,32,20.9z M43.3,20.9h-1.3c-0.8,0-1.3,0.4-1.3,1.2v78.2h3.8V22.1
			C44.6,21.3,44.2,20.9,43.3,20.9z M48.9,20.9c-1.6,0-2.4,0.4-2.4,1.2v78.2h3.8V22.1C50.3,21.3,49.8,20.9,48.9,20.9z"/>
		<path fill="#353535" d="M60.2,22.1c0-0.8-0.4-1.2-1.2-1.2c-1.6,0-2.5,0.4-2.5,1.2v78.2h3.8V40.6C60.3,36,60.2,24.4,60.2,22.1z
			 M64.8,20.9c-1.7,0-2.5,0.4-2.5,1.2v78.2h3.8V22.1C66.1,21.3,65.7,20.9,64.8,20.9z M70.5,20.9c-1.7,0-2.5,0.4-2.5,1.2v78.2h3.8V23
			C71.7,21.6,71.3,20.9,70.5,20.9z M83.5,20.9h-4.2c-0.8,0-1.2,0.4-1.2,1.2v78.2h8.1V22.1C86.1,21.3,85.2,20.9,83.5,20.9z"/>
		<path fill="#353535" d="M92.8,20.9c-1.7,0-2.5,0.4-2.5,1.2c0,1.4,0,11.7-0.1,14.5v63.7h3.8V22.1C94.1,21.3,93.6,20.9,92.8,20.9z
			 M98.4,20.9c-1.7,0-2.5,0.4-2.5,1.2v78.2h3.8V22.1C99.7,21.3,99.2,20.9,98.4,20.9z M112.9,20.9h-5.6c-0.8,0-1.3,0.4-1.3,1.2
			l0,78.2h8.2V22.1C114.3,21.3,113.8,20.9,112.9,20.9z M124,22c0-0.7-0.4-1.1-1.2-1.1c-1.6,0-2.5,0.4-2.5,1.2v78.2h3.8V25
			C124,23.7,124,22.7,124,22z"/>
		<path fill="#353535" d="M128.6,20.9h-0.4c-1.4,0-2.1,0.4-2.1,1.2v78.2h3.8V22.1C129.8,21.3,129.4,20.9,128.6,20.9z M134.3,20.9
			c-1.6,0-2.4,0.4-2.4,1.2v78.2h3.8V22.1C135.6,21.3,135.2,20.9,134.3,20.9z M148.6,20.9h-5.6c-0.8,0-1.2,0.4-1.2,1.2v78.2h8.1V22.1
			C149.9,21.3,149.5,20.9,148.6,20.9z M159.9,22.1c0-0.8-0.4-1.2-1.2-1.2c-1.6,0-2.4,0.4-2.4,1.2v78.2h3.8l0-1.2V36.5
			C159.9,33.8,159.9,23.5,159.9,22.1z"/>
		<path fill="#353535" d="M172.2,22.2c0-0.8-0.4-1.2-1.1-1.2c-0.4-0.1-1.6-0.1-3.6-0.1h-2c-0.8,0-1.2,0.4-1.2,1.3v78.1h8.1V36
			C172.2,33.5,172.2,23.5,172.2,22.2z M175.3,20.9c-0.8,0-1.2,0.4-1.2,1.3v78.1h3.8V22.2C177.8,21.3,176.9,20.9,175.3,20.9z
			 M182,20.9c-1.6,0-2.4,0.7-2.4,2.2c0,0.3,0,0.8,0.1,1.4c0.1,0.6,0.1,1.1,0.1,1.5v74.4h3.8V22.2C183.6,21.3,183.1,20.9,182,20.9z
			 M192.4,20.9h-1.3c-0.8,0-1.2,0.4-1.2,1.2v78.2h3.8V22.1C193.7,21.3,193.3,20.9,192.4,20.9z"/>
		<path fill="#353535" d="M202.4,20.9c-1.6,0-2.4,0.4-2.4,1.2v78.2h3.8V22.1C203.7,21.3,203.3,20.9,202.4,20.9z M212.5,20.9H207
			c-0.9,0-1.3,0.4-1.3,1.2v78.2h8.1V22.1C213.8,21.3,213.4,20.9,212.5,20.9z"/>
	</g>
</g>
</svg>
