<?xml version="1.0" encoding="utf-8"?>
<!-- Generator: Adobe Illustrator 18.0.0, SVG Export Plug-In . SVG Version: 6.00 Build 0)  -->
<!DOCTYPE svg PUBLIC "-//W3C//DTD SVG 1.1//EN" "http://www.w3.org/Graphics/SVG/1.1/DTD/svg11.dtd">
<svg version="1.1" id="Layer_1" xmlns="http://www.w3.org/2000/svg" xmlns:xlink="http://www.w3.org/1999/xlink" x="0px" y="0px"
	 viewBox="0 0 300 172.7" enable-background="new 0 0 300 172.7" xml:space="preserve">
<g>
	<g>
		<path fill="#B3B3B3" d="M282,171.7H29.3V1.6H282V171.7z M34.1,166.9h243V6.4h-243V166.9z"/>
		<rect x="31.7" y="33.1" fill="#B3B3B3" width="247.9" height="4.8"/>
		<rect x="46.6" y="17.3" fill="#B3B3B3" width="15.7" height="4.8"/>
		<rect x="78.1" y="17.3" fill="#B3B3B3" width="15.7" height="4.8"/>
		<rect x="109.6" y="17.3" fill="#B3B3B3" width="15.7" height="4.8"/>
	</g>
	<path fill="#B3B3B3" d="M266.2,75.5H116.8V59.2h149.4V75.5z M121.6,70.7h139.8V64H121.6V70.7z"/>
	<path fill="#B3B3B3" d="M266.2,110.8H116.8V94.5h149.4V110.8z M121.6,105.9h139.8v-6.6H121.6V105.9z"/>
	<path fill="#B3B3B3" d="M266.2,149.2H116.8V133h149.4V149.2z M121.6,144.4h139.8v-6.6H121.6V144.4z"/>
	<g>
		<g>
			<path fill="#B3B3B3" d="M65.8,55.6c-6.5,0-11.8,5.3-11.8,11.8s5.3,11.8,11.8,11.8s11.8-5.3,11.8-11.8S72.3,55.6,65.8,55.6z"/>
		</g>
	</g>
	<g>
		<g>
			<path fill="#B3B3B3" d="M65.8,81.5c-7.8,0-14.2-6.4-14.2-14.2S58,53.2,65.8,53.2S80,59.5,80,67.4S73.7,81.5,65.8,81.5z M65.8,58
				c-5.2,0-9.4,4.2-9.4,9.4c0,5.2,4.2,9.4,9.4,9.4c5.2,0,9.4-4.2,9.4-9.4C75.2,62.2,71,58,65.8,58z"/>
		</g>
	</g>
	<g>
		<g>
			<path fill="#B3B3B3" d="M65.8,116.8c-7.8,0-14.2-6.4-14.2-14.2S58,88.5,65.8,88.5S80,94.8,80,102.6S73.7,116.8,65.8,116.8z
				 M65.8,93.3c-5.2,0-9.4,4.2-9.4,9.4s4.2,9.4,9.4,9.4c5.2,0,9.4-4.2,9.4-9.4S71,93.3,65.8,93.3z"/>
		</g>
	</g>
	<g>
		<g>
			<path fill="#B3B3B3" d="M65.8,155.3c-7.8,0-14.2-6.4-14.2-14.2c0-7.8,6.4-14.2,14.2-14.2S80,133.3,80,141.1
				C80,148.9,73.7,155.3,65.8,155.3z M65.8,131.7c-5.2,0-9.4,4.2-9.4,9.4c0,5.2,4.2,9.4,9.4,9.4c5.2,0,9.4-4.2,9.4-9.4
				C75.2,135.9,71,131.7,65.8,131.7z"/>
		</g>
	</g>
</g>
<g>
	<g>
		<g>
			<path fill="#B3B3B3" d="M1002.4,171.7H749.7V1.6h252.7V171.7z M754.5,166.9h243V6.4h-243V166.9z"/>
			<rect x="752.1" y="33.1" fill="#B3B3B3" width="247.9" height="4.8"/>
			<rect x="767" y="17.3" fill="#B3B3B3" width="15.7" height="4.8"/>
			<rect x="798.5" y="17.3" fill="#B3B3B3" width="15.7" height="4.8"/>
			<rect x="829.9" y="17.3" fill="#B3B3B3" width="15.7" height="4.8"/>
		</g>
	</g>
	<g>
		<path fill="#B3B3B3" d="M796.5,146.9h-13.6c-1.2,0-2.2-1.2-2.2-2.7v-20.2c0-1.5,1-2.7,2.2-2.7h13.6c1.2,0,2.2,1.2,2.2,2.7v20.2
			C798.7,145.7,797.7,146.9,796.5,146.9z M785.1,141.6h9.3v-14.8h-9.3V141.6z"/>
		<path fill="#B3B3B3" d="M823.8,146.9h-13.6c-1.2,0-2.2-1.2-2.2-2.7v-38.6c0-1.5,1-2.7,2.2-2.7h13.6c1.2,0,2.2,1.2,2.2,2.7v38.6
			C826,145.7,825,146.9,823.8,146.9z M812.3,141.6h9.3v-33.3h-9.3V141.6z"/>
		<path fill="#B3B3B3" d="M851.1,146.9h-13.6c-1.2,0-2.2-1.2-2.2-2.7v-57c0-1.5,1-2.7,2.2-2.7h13.6c1.2,0,2.2,1.2,2.2,2.7v57
			C853.2,145.7,852.3,146.9,851.1,146.9z M839.6,141.6h9.3V90h-9.3V141.6z"/>
		<path fill="#B3B3B3" d="M878.3,146.9h-13.6c-1.2,0-2.2-1.2-2.2-2.7V61.5c0-1.5,1-2.7,2.2-2.7h13.6c1.2,0,2.2,1.2,2.2,2.7v82.8
			C880.5,145.7,879.5,146.9,878.3,146.9z M866.9,141.6h9.3V64.1h-9.3V141.6z"/>
	</g>
	<g>
		<path fill="#FFFFFF" d="M891.7,106c0.3,23.6,19.6,42.5,43.2,42.2s42.5-19.6,42.2-43.2s-19.6-42.5-43.2-42.2S891.5,82.5,891.7,106z
			"/>
	</g>
	<g>
		<path fill="#B3B3B3" d="M894.4,106c0.2,22.1,18.3,39.8,40.4,39.5c22.1-0.2,39.8-18.3,39.5-40.4C974.1,83,956,65.3,934,65.6
			C911.9,65.8,894.2,83.9,894.4,106z M934.1,81.6C934.2,81.6,934.2,81.6,934.1,81.6c0.4,0,0.7,0.1,1,0.2c0.3,0.1,0.6,0.3,0.9,0.6
			l16.2,15.8c1.1,1,1.1,2.7,0,3.8c-1,1.1-2.7,1.1-3.8,0l-11.6-11.3l0.5,41.5c0,1.5-1.2,2.7-2.6,2.7c-1.5,0-2.7-1.2-2.7-2.6
			l-0.5-41.5l-11.3,11.6c-1,1.1-2.7,1.1-3.8,0s-1.1-2.7,0-3.8l15.8-16.2c0.2-0.2,0.5-0.4,0.9-0.6C933.5,81.6,933.8,81.6,934.1,81.6
			L934.1,81.6z"/>
	</g>
	<g>
		<g>
			<path fill="#B3B3B3" d="M798.4,60.1c-11,0-20,8.9-20,20s8.9,20,20,20c11,0,20-8.9,20-20S809.4,60.1,798.4,60.1z M798.4,97.3
				c-9.5,0-17.3-7.8-17.3-17.3s7.8-17.3,17.3-17.3c9.5,0,17.3,7.8,17.3,17.3S808,97.3,798.4,97.3z M800.7,70.7c2.4,0,4.4,1.8,4.4,4
				c0,0.7,0.6,1.3,1.3,1.3c0.7,0,1.3-0.6,1.3-1.3c0-3.7-3.2-6.7-7-6.7h-1v-1.3c0-0.7-0.6-1.3-1.3-1.3c-0.7,0-1.3,0.6-1.3,1.3v1.3h-1
				c-3.9,0-7,3-7,6.7c0,3.7,3.2,6.7,7,6.7h1v8h-1c-2.4,0-4.4-1.8-4.4-4c0-0.7-0.6-1.3-1.3-1.3c-0.7,0-1.3,0.6-1.3,1.3
				c0,3.7,3.2,6.7,7,6.7h1v1.3c0,0.7,0.6,1.3,1.3,1.3c0.7,0,1.3-0.6,1.3-1.3V92h1c3.9,0,7-3,7-6.7c0-3.7-3.2-6.7-7-6.7h-1v-8H800.7z
				 M800.7,81.4c2.4,0,4.4,1.8,4.4,4c0,2.2-2,4-4.4,4h-1v-8H800.7z M797.1,78.7h-1c-2.4,0-4.4-1.8-4.4-4s2-4,4.4-4h1V78.7z"/>
		</g>
	</g>
</g>
<g>
	<g>
		<g>
			<path fill="#B3B3B3" d="M1570.5,93.6h-4.5c0.8,1.7,1.8,3.3,2.9,4.8h5C1572.5,96.9,1571.4,95.3,1570.5,93.6z M1593.7,96.2
				c0-1-0.3-1.9-1-2.6h-6.1c-0.6,0.7-1,1.6-1,2.6c0,0.7,0.2,1.4,0.5,1.9c-0.1,0.1-0.2,0.2-0.2,0.3h7.5c-0.1-0.1-0.2-0.2-0.3-0.3
				C1593.5,97.5,1593.7,96.9,1593.7,96.2z M1608.9,93.6c-1,1.7-2.1,3.3-3.4,4.8h5c1.1-1.5,2.1-3.2,2.9-4.8H1608.9z M1622,93.6h-4.1
				c-0.6,1.6-1.4,3.3-2.3,4.8h6.5v7.9l-0.1-0.2l-33.8,23.3l-33.9-23v-7.9h9.6c-0.9-1.6-1.7-3.2-2.3-4.8h-7.3c-2.7,0-4.8,2.2-4.8,4.8
				v48.5c0,2.7,2.2,4.8,4.8,4.8h67.8c2.7,0,4.8-2.2,4.8-4.8V98.4C1626.9,95.8,1624.7,93.6,1622,93.6z M1554.2,112.2l18.6,12.6
				l-18.6,18.6V112.2z M1557.6,146.9l19.2-19.2l11.3,7.6l11.2-7.7l19.3,19.3H1557.6z M1622,143.5l-18.7-18.7l18.7-12.8V143.5z"/>
		</g>
	</g>
	<g>
		<path fill="#FFFFFF" d="M1593.2,98.1c-0.8-1-2.1-1.6-3.5-1.6c-1.4,0-2.7,0.6-3.5,1.6c-0.1,0.1-0.2,0.2-0.2,0.3h0.4
			c0.7,1.1,1.9,1.8,3.3,1.8c1.4,0,2.6-0.7,3.3-1.8h0.4C1593.4,98.3,1593.3,98.2,1593.2,98.1z M1589.7,64.3c-1.8,0-3.3,1-4,2.3v17.5
			c0,2.2,1.8,4,4,4s4-1.8,4-4V66.6C1593,65.2,1591.5,64.3,1589.7,64.3z M1589.7,92.1c-0.4,0-0.8,0.1-1.1,0.2
			c0.3,0.1,0.7,0.2,1.1,0.2c0.4,0,0.8,0,1.1-0.2C1590.4,92.2,1590.1,92.1,1589.7,92.1z M1589.7,59.9c-2.2,0-4,1.8-4,4v20.2
			c0,2.2,1.8,4,4,4s4-1.8,4-4V63.9C1593.7,61.7,1591.9,59.9,1589.7,59.9z M1593.7,96.2c0-1-0.3-1.9-1-2.6c-0.5-0.6-1.2-1-1.9-1.3
			c-0.3-0.1-0.7-0.2-1.1-0.2c-0.4,0-0.8,0.1-1.1,0.2c-0.8,0.2-1.5,0.7-1.9,1.3c-0.6,0.7-1,1.6-1,2.6c0,0.7,0.2,1.4,0.5,1.9
			c-0.1,0.1-0.2,0.2-0.2,0.3h0.4c0.7,1.1,1.9,1.8,3.3,1.8c1.4,0,2.6-0.7,3.3-1.8h0.4c-0.1-0.1-0.2-0.2-0.3-0.3
			C1593.5,97.5,1593.7,96.9,1593.7,96.2z M1618,68.6c-0.5-0.2-1.1-0.3-1.7-0.3c-0.5,0-3.4-0.5-4.2-5.1c-0.2-0.8-0.2-1.8-0.2-2.9
			c0-1.1-0.5-2.1-1.3-2.9c-0.2-0.1-0.4-0.3-0.7-0.6c-1.4-1-4.6-2.8-10.3-3.8c4.6,1.2,6.3,2.9,6.3,2.9c0,12.1,8.1,12.1,8.1,12.1
			s1.7,13.8-5,25.6c-1,1.7-2.1,3.3-3.4,4.8c-3.6,4.2-8.7,7.8-15.8,9.9c-7.1-2.1-12.2-5.6-15.8-9.9c-1.3-1.5-2.4-3.2-3.4-4.8
			c-6.7-11.8-5-25.6-5-25.6s8.1,0,8.1-12.1c0,0,1.7-1.7,6.3-2.9c-5.8,1-9,2.8-10.4,3.9c-0.3,0.2-0.6,0.4-0.7,0.6
			c-0.9,0.8-1.3,1.8-1.3,2.9c0,1.1-0.1,2.1-0.2,2.9c-0.8,4.7-3.7,5.1-4.3,5.2c-0.5,0-1,0.1-1.5,0.2c-0.6,6.6,0.2,16.3,4.6,25
			c0.8,1.7,1.8,3.3,2.9,4.8c4.2,6,10.5,11.1,19.7,13.7c0.3,0.1,0.7,0.2,1.1,0.2c0.4,0,0.8,0,1.1-0.2c9.2-2.6,15.5-7.7,19.7-13.7
			c1.1-1.5,2.1-3.2,2.9-4.8C1617.8,84.9,1618.6,75.2,1618,68.6z"/>
	</g>
	<g>
		<path fill="#B3B3B3" d="M1592.7,93.6c-0.5-0.6-1.2-1-1.9-1.3c-0.3-0.1-0.7-0.2-1.1-0.2c-0.4,0-0.8,0.1-1.1,0.2
			c-0.8,0.2-1.5,0.7-1.9,1.3c-0.6,0.7-1,1.6-1,2.6c0,0.7,0.2,1.4,0.5,1.9c0,0.1,0.1,0.2,0.2,0.3c0.7,1.1,1.9,1.8,3.3,1.8
			c1.4,0,2.6-0.7,3.3-1.8c0.1-0.1,0.2-0.2,0.2-0.3c0.3-0.6,0.5-1.2,0.5-1.9C1593.7,95.2,1593.4,94.3,1592.7,93.6z M1589.7,59.9
			c-2.2,0-4,1.8-4,4v20.2c0,2.2,1.8,4,4,4s4-1.8,4-4V63.9C1593.7,61.7,1591.9,59.9,1589.7,59.9z M1589.7,59.9c-2.2,0-4,1.8-4,4v20.2
			c0,2.2,1.8,4,4,4s4-1.8,4-4V63.9C1593.7,61.7,1591.9,59.9,1589.7,59.9z M1592.7,93.6c-0.5-0.6-1.2-1-1.9-1.3
			c-0.3-0.1-0.7-0.2-1.1-0.2c-0.4,0-0.8,0.1-1.1,0.2c-0.8,0.2-1.5,0.7-1.9,1.3c-0.6,0.7-1,1.6-1,2.6c0,0.7,0.2,1.4,0.5,1.9
			c0,0.1,0.1,0.2,0.2,0.3c0.7,1.1,1.9,1.8,3.3,1.8c1.4,0,2.6-0.7,3.3-1.8c0.1-0.1,0.2-0.2,0.2-0.3c0.3-0.6,0.5-1.2,0.5-1.9
			C1593.7,95.2,1593.4,94.3,1592.7,93.6z M1592.7,93.6c-0.5-0.6-1.2-1-1.9-1.3c-0.3-0.1-0.7-0.2-1.1-0.2c-0.4,0-0.8,0.1-1.1,0.2
			c-0.8,0.2-1.5,0.7-1.9,1.3c-0.6,0.7-1,1.6-1,2.6c0,0.7,0.2,1.4,0.5,1.9c0,0.1,0.1,0.2,0.2,0.3c0.7,1.1,1.9,1.8,3.3,1.8
			c1.4,0,2.6-0.7,3.3-1.8c0.1-0.1,0.2-0.2,0.2-0.3c0.3-0.6,0.5-1.2,0.5-1.9C1593.7,95.2,1593.4,94.3,1592.7,93.6z M1589.7,59.9
			c-2.2,0-4,1.8-4,4v20.2c0,2.2,1.8,4,4,4s4-1.8,4-4V63.9C1593.7,61.7,1591.9,59.9,1589.7,59.9z M1589.7,59.9c-2.2,0-4,1.8-4,4v20.2
			c0,2.2,1.8,4,4,4s4-1.8,4-4V63.9C1593.7,61.7,1591.9,59.9,1589.7,59.9z M1592.7,93.6c-0.5-0.6-1.2-1-1.9-1.3
			c-0.3-0.1-0.7-0.2-1.1-0.2c-0.4,0-0.8,0.1-1.1,0.2c-0.8,0.2-1.5,0.7-1.9,1.3c-0.6,0.7-1,1.6-1,2.6c0,0.7,0.2,1.4,0.5,1.9
			c0,0.1,0.1,0.2,0.2,0.3c0.7,1.1,1.9,1.8,3.3,1.8c1.4,0,2.6-0.7,3.3-1.8c0.1-0.1,0.2-0.2,0.2-0.3c0.3-0.6,0.5-1.2,0.5-1.9
			C1593.7,95.2,1593.4,94.3,1592.7,93.6z M1592.7,93.6c-0.5-0.6-1.2-1-1.9-1.3c-0.3-0.1-0.7-0.2-1.1-0.2c-0.4,0-0.8,0.1-1.1,0.2
			c-0.8,0.2-1.5,0.7-1.9,1.3c-0.6,0.7-1,1.6-1,2.6c0,0.7,0.2,1.4,0.5,1.9c0,0.1,0.1,0.2,0.2,0.3c0.7,1.1,1.9,1.8,3.3,1.8
			c1.4,0,2.6-0.7,3.3-1.8c0.1-0.1,0.2-0.2,0.2-0.3c0.3-0.6,0.5-1.2,0.5-1.9C1593.7,95.2,1593.4,94.3,1592.7,93.6z M1589.7,59.9
			c-2.2,0-4,1.8-4,4v20.2c0,2.2,1.8,4,4,4s4-1.8,4-4V63.9C1593.7,61.7,1591.9,59.9,1589.7,59.9z M1589.7,59.9c-2.2,0-4,1.8-4,4v20.2
			c0,2.2,1.8,4,4,4s4-1.8,4-4V63.9C1593.7,61.7,1591.9,59.9,1589.7,59.9z M1592.7,93.6c-0.5-0.6-1.2-1-1.9-1.3
			c-0.3-0.1-0.7-0.2-1.1-0.2c-0.4,0-0.8,0.1-1.1,0.2c-0.8,0.2-1.5,0.7-1.9,1.3c-0.6,0.7-1,1.6-1,2.6c0,0.7,0.2,1.4,0.5,1.9
			c0,0.1,0.1,0.2,0.2,0.3c0.7,1.1,1.9,1.8,3.3,1.8c1.4,0,2.6-0.7,3.3-1.8c0.1-0.1,0.2-0.2,0.2-0.3c0.3-0.6,0.5-1.2,0.5-1.9
			C1593.7,95.2,1593.4,94.3,1592.7,93.6z M1592.7,93.6c-0.5-0.6-1.2-1-1.9-1.3c-0.3-0.1-0.7-0.2-1.1-0.2c-0.4,0-0.8,0.1-1.1,0.2
			c-0.8,0.2-1.5,0.7-1.9,1.3c-0.6,0.7-1,1.6-1,2.6c0,0.7,0.2,1.4,0.5,1.9c0,0.1,0.1,0.2,0.2,0.3c0.7,1.1,1.9,1.8,3.3,1.8
			c1.4,0,2.6-0.7,3.3-1.8c0.1-0.1,0.2-0.2,0.2-0.3c0.3-0.6,0.5-1.2,0.5-1.9C1593.7,95.2,1593.4,94.3,1592.7,93.6z M1589.7,59.9
			c-2.2,0-4,1.8-4,4v20.2c0,2.2,1.8,4,4,4s4-1.8,4-4V63.9C1593.7,61.7,1591.9,59.9,1589.7,59.9z M1589.7,59.9c-2.2,0-4,1.8-4,4v20.2
			c0,2.2,1.8,4,4,4s4-1.8,4-4V63.9C1593.7,61.7,1591.9,59.9,1589.7,59.9z M1592.7,93.6c-0.5-0.6-1.2-1-1.9-1.3
			c-0.3-0.1-0.7-0.2-1.1-0.2c-0.4,0-0.8,0.1-1.1,0.2c-0.8,0.2-1.5,0.7-1.9,1.3c-0.6,0.7-1,1.6-1,2.6c0,0.7,0.2,1.4,0.5,1.9
			c0,0.1,0.1,0.2,0.2,0.3c0.7,1.1,1.9,1.8,3.3,1.8c1.4,0,2.6-0.7,3.3-1.8c0.1-0.1,0.2-0.2,0.2-0.3c0.3-0.6,0.5-1.2,0.5-1.9
			C1593.7,95.2,1593.4,94.3,1592.7,93.6z M1592.7,93.6c-0.5-0.6-1.2-1-1.9-1.3c-0.3-0.1-0.7-0.2-1.1-0.2c-0.4,0-0.8,0.1-1.1,0.2
			c-0.8,0.2-1.5,0.7-1.9,1.3c-0.6,0.7-1,1.6-1,2.6c0,0.7,0.2,1.4,0.5,1.9c0,0.1,0.1,0.2,0.2,0.3c0.7,1.1,1.9,1.8,3.3,1.8
			c1.4,0,2.6-0.7,3.3-1.8c0.1-0.1,0.2-0.2,0.2-0.3c0.3-0.6,0.5-1.2,0.5-1.9C1593.7,95.2,1593.4,94.3,1592.7,93.6z M1589.7,59.9
			c-2.2,0-4,1.8-4,4v20.2c0,2.2,1.8,4,4,4s4-1.8,4-4V63.9C1593.7,61.7,1591.9,59.9,1589.7,59.9z M1589.7,59.9c-2.2,0-4,1.8-4,4v20.2
			c0,2.2,1.8,4,4,4s4-1.8,4-4V63.9C1593.7,61.7,1591.9,59.9,1589.7,59.9z M1590.8,92.3c-0.3-0.1-0.7-0.2-1.1-0.2
			c-0.4,0-0.8,0.1-1.1,0.2c-0.8,0.2-1.5,0.7-1.9,1.3c-0.6,0.7-1,1.6-1,2.6c0,0.7,0.2,1.4,0.5,1.9c0,0.1,0.1,0.2,0.2,0.3
			c0.7,1.1,1.9,1.8,3.3,1.8c1.4,0,2.6-0.7,3.3-1.8c0.1-0.1,0.2-0.2,0.2-0.3c0.3-0.6,0.5-1.2,0.5-1.9c0-1-0.3-1.9-1-2.6
			C1592.2,93,1591.6,92.5,1590.8,92.3z M1618,68.6c0-0.4-0.1-0.7-0.1-1.1c-0.3-2-2-3.5-4-3.5c-0.2,0-1-0.1-1.7-0.8
			c-1-0.9-2.1-2.6-2.3-6.4c0-0.3,0-0.6,0-0.9c0-1.1-0.4-2.1-1.2-2.9c-0.9-0.9-5.9-5.2-19-5.2c-13.1,0-18.1,4.3-19,5.2
			c-0.7,0.8-1.2,1.8-1.2,2.9c0,0.3,0,0.6,0,0.9c-0.2,3.7-1.2,5.5-2.3,6.3c-0.8,0.7-1.6,0.8-1.9,0.8c-2,0-3.6,1.5-3.9,3.5
			c0,0.3-0.1,0.7-0.1,1.1c-0.6,6.6,0.2,16.3,4.6,25c0.8,1.7,1.8,3.3,2.9,4.8c4.2,6,10.5,11.1,19.7,13.7c0.3,0.1,0.7,0.2,1.1,0.2
			c0.4,0,0.8,0,1.1-0.2c9.2-2.6,15.5-7.7,19.7-13.7c1.1-1.5,2.1-3.2,2.9-4.8C1617.8,84.9,1618.6,75.2,1618,68.6z M1608.9,93.6
			c-1,1.7-2.1,3.3-3.4,4.8c-3.6,4.2-8.7,7.8-15.8,9.9c-7.1-2.1-12.2-5.6-15.8-9.9c-1.3-1.5-2.4-3.2-3.4-4.8c-6.7-11.8-5-25.6-5-25.6
			s8.1,0,8.1-12.1c0,0,1.7-1.7,6.3-2.9h0c2.4-0.6,5.6-1.1,9.8-1.1c4.2,0,7.4,0.5,9.8,1.1c0,0,0,0,0,0c4.6,1.2,6.3,2.9,6.3,2.9
			c0,12.1,8.1,12.1,8.1,12.1S1615.6,81.8,1608.9,93.6z M1589.7,59.9c-2.2,0-4,1.8-4,4v20.2c0,2.2,1.8,4,4,4s4-1.8,4-4V63.9
			C1593.7,61.7,1591.9,59.9,1589.7,59.9z M1590.8,92.3c-0.3-0.1-0.7-0.2-1.1-0.2c-0.4,0-0.8,0.1-1.1,0.2c-0.8,0.2-1.5,0.7-1.9,1.3
			c-0.6,0.7-1,1.6-1,2.6c0,0.7,0.2,1.4,0.5,1.9c0,0.1,0.1,0.2,0.2,0.3c0.7,1.1,1.9,1.8,3.3,1.8c1.4,0,2.6-0.7,3.3-1.8
			c0.1-0.1,0.2-0.2,0.2-0.3c0.3-0.6,0.5-1.2,0.5-1.9c0-1-0.3-1.9-1-2.6C1592.2,93,1591.6,92.5,1590.8,92.3z M1592.7,93.6
			c-0.5-0.6-1.2-1-1.9-1.3c-0.3-0.1-0.7-0.2-1.1-0.2c-0.4,0-0.8,0.1-1.1,0.2c-0.8,0.2-1.5,0.7-1.9,1.3c-0.6,0.7-1,1.6-1,2.6
			c0,0.7,0.2,1.4,0.5,1.9c0,0.1,0.1,0.2,0.2,0.3c0.7,1.1,1.9,1.8,3.3,1.8c1.4,0,2.6-0.7,3.3-1.8c0.1-0.1,0.2-0.2,0.2-0.3
			c0.3-0.6,0.5-1.2,0.5-1.9C1593.7,95.2,1593.4,94.3,1592.7,93.6z M1589.7,59.9c-2.2,0-4,1.8-4,4v20.2c0,2.2,1.8,4,4,4s4-1.8,4-4
			V63.9C1593.7,61.7,1591.9,59.9,1589.7,59.9z M1589.7,59.9c-2.2,0-4,1.8-4,4v20.2c0,2.2,1.8,4,4,4s4-1.8,4-4V63.9
			C1593.7,61.7,1591.9,59.9,1589.7,59.9z M1592.7,93.6c-0.5-0.6-1.2-1-1.9-1.3c-0.3-0.1-0.7-0.2-1.1-0.2c-0.4,0-0.8,0.1-1.1,0.2
			c-0.8,0.2-1.5,0.7-1.9,1.3c-0.6,0.7-1,1.6-1,2.6c0,0.7,0.2,1.4,0.5,1.9c0,0.1,0.1,0.2,0.2,0.3c0.7,1.1,1.9,1.8,3.3,1.8
			c1.4,0,2.6-0.7,3.3-1.8c0.1-0.1,0.2-0.2,0.2-0.3c0.3-0.6,0.5-1.2,0.5-1.9C1593.7,95.2,1593.4,94.3,1592.7,93.6z M1592.7,93.6
			c-0.5-0.6-1.2-1-1.9-1.3c-0.3-0.1-0.7-0.2-1.1-0.2c-0.4,0-0.8,0.1-1.1,0.2c-0.8,0.2-1.5,0.7-1.9,1.3c-0.6,0.7-1,1.6-1,2.6
			c0,0.7,0.2,1.4,0.5,1.9c0,0.1,0.1,0.2,0.2,0.3c0.7,1.1,1.9,1.8,3.3,1.8c1.4,0,2.6-0.7,3.3-1.8c0.1-0.1,0.2-0.2,0.2-0.3
			c0.3-0.6,0.5-1.2,0.5-1.9C1593.7,95.2,1593.4,94.3,1592.7,93.6z M1589.7,59.9c-2.2,0-4,1.8-4,4v20.2c0,2.2,1.8,4,4,4s4-1.8,4-4
			V63.9C1593.7,61.7,1591.9,59.9,1589.7,59.9z M1589.7,59.9c-2.2,0-4,1.8-4,4v20.2c0,2.2,1.8,4,4,4s4-1.8,4-4V63.9
			C1593.7,61.7,1591.9,59.9,1589.7,59.9z M1592.7,93.6c-0.5-0.6-1.2-1-1.9-1.3c-0.3-0.1-0.7-0.2-1.1-0.2c-0.4,0-0.8,0.1-1.1,0.2
			c-0.8,0.2-1.5,0.7-1.9,1.3c-0.6,0.7-1,1.6-1,2.6c0,0.7,0.2,1.4,0.5,1.9c0,0.1,0.1,0.2,0.2,0.3c0.7,1.1,1.9,1.8,3.3,1.8
			c1.4,0,2.6-0.7,3.3-1.8c0.1-0.1,0.2-0.2,0.2-0.3c0.3-0.6,0.5-1.2,0.5-1.9C1593.7,95.2,1593.4,94.3,1592.7,93.6z M1592.7,93.6
			c-0.5-0.6-1.2-1-1.9-1.3c-0.3-0.1-0.7-0.2-1.1-0.2c-0.4,0-0.8,0.1-1.1,0.2c-0.8,0.2-1.5,0.7-1.9,1.3c-0.6,0.7-1,1.6-1,2.6
			c0,0.7,0.2,1.4,0.5,1.9c0,0.1,0.1,0.2,0.2,0.3c0.7,1.1,1.9,1.8,3.3,1.8c1.4,0,2.6-0.7,3.3-1.8c0.1-0.1,0.2-0.2,0.2-0.3
			c0.3-0.6,0.5-1.2,0.5-1.9C1593.7,95.2,1593.4,94.3,1592.7,93.6z M1589.7,59.9c-2.2,0-4,1.8-4,4v20.2c0,2.2,1.8,4,4,4s4-1.8,4-4
			V63.9C1593.7,61.7,1591.9,59.9,1589.7,59.9z M1589.7,59.9c-2.2,0-4,1.8-4,4v20.2c0,2.2,1.8,4,4,4s4-1.8,4-4V63.9
			C1593.7,61.7,1591.9,59.9,1589.7,59.9z M1592.7,93.6c-0.5-0.6-1.2-1-1.9-1.3c-0.3-0.1-0.7-0.2-1.1-0.2c-0.4,0-0.8,0.1-1.1,0.2
			c-0.8,0.2-1.5,0.7-1.9,1.3c-0.6,0.7-1,1.6-1,2.6c0,0.7,0.2,1.4,0.5,1.9c0,0.1,0.1,0.2,0.2,0.3c0.7,1.1,1.9,1.8,3.3,1.8
			c1.4,0,2.6-0.7,3.3-1.8c0.1-0.1,0.2-0.2,0.2-0.3c0.3-0.6,0.5-1.2,0.5-1.9C1593.7,95.2,1593.4,94.3,1592.7,93.6z M1592.7,93.6
			c-0.5-0.6-1.2-1-1.9-1.3c-0.3-0.1-0.7-0.2-1.1-0.2c-0.4,0-0.8,0.1-1.1,0.2c-0.8,0.2-1.5,0.7-1.9,1.3c-0.6,0.7-1,1.6-1,2.6
			c0,0.7,0.2,1.4,0.5,1.9c0,0.1,0.1,0.2,0.2,0.3c0.7,1.1,1.9,1.8,3.3,1.8c1.4,0,2.6-0.7,3.3-1.8c0.1-0.1,0.2-0.2,0.2-0.3
			c0.3-0.6,0.5-1.2,0.5-1.9C1593.7,95.2,1593.4,94.3,1592.7,93.6z M1589.7,59.9c-2.2,0-4,1.8-4,4v20.2c0,2.2,1.8,4,4,4s4-1.8,4-4
			V63.9C1593.7,61.7,1591.9,59.9,1589.7,59.9z M1589.7,59.9c-2.2,0-4,1.8-4,4v20.2c0,2.2,1.8,4,4,4s4-1.8,4-4V63.9
			C1593.7,61.7,1591.9,59.9,1589.7,59.9z M1592.7,93.6c-0.5-0.6-1.2-1-1.9-1.3c-0.3-0.1-0.7-0.2-1.1-0.2c-0.4,0-0.8,0.1-1.1,0.2
			c-0.8,0.2-1.5,0.7-1.9,1.3c-0.6,0.7-1,1.6-1,2.6c0,0.7,0.2,1.4,0.5,1.9c0,0.1,0.1,0.2,0.2,0.3c0.7,1.1,1.9,1.8,3.3,1.8
			c1.4,0,2.6-0.7,3.3-1.8c0.1-0.1,0.2-0.2,0.2-0.3c0.3-0.6,0.5-1.2,0.5-1.9C1593.7,95.2,1593.4,94.3,1592.7,93.6z"/>
	</g>
	<g>
		<g>
			<path fill="#B3B3B3" d="M1714.4,171.7h-252.7V1.6h252.7V171.7z M1466.6,166.9h243V6.4h-243V166.9z"/>
			<rect x="1464.2" y="33.1" fill="#B3B3B3" width="247.9" height="4.8"/>
			<rect x="1479.1" y="17.3" fill="#B3B3B3" width="15.7" height="4.8"/>
			<rect x="1510.5" y="17.3" fill="#B3B3B3" width="15.7" height="4.8"/>
			<rect x="1542" y="17.3" fill="#B3B3B3" width="15.7" height="4.8"/>
		</g>
	</g>
	<g>
		<g>
			<path fill="#B3B3B3" d="M1668.3,96.8c-9.6,0-17.5,7.8-17.5,17.5s7.8,17.5,17.5,17.5s17.5-7.8,17.5-17.5S1677.9,96.8,1668.3,96.8z
				 M1676.4,109.4l-8.4,12.8c0,0,0,0,0,0c0,0.1-0.1,0.1-0.1,0.2c-0.1,0.1-0.2,0.1-0.3,0.2c0,0,0,0-0.1,0c-0.1,0.1-0.3,0.1-0.4,0.2
				c-0.1,0-0.1,0-0.1,0c-0.1,0-0.2,0-0.4,0c-0.1,0-0.2,0-0.3,0c-0.1,0-0.2-0.1-0.3-0.1c-0.1,0-0.1,0-0.2-0.1c0,0-0.1-0.1-0.1-0.1
				c0,0,0,0-0.1,0l-4.9-4.5c-0.6-0.6-0.7-1.5-0.1-2.2c0.6-0.6,1.5-0.7,2.2-0.1l3.5,3.3l7.4-11.3c0.5-0.7,1.4-0.9,2.1-0.4
				C1676.7,107.7,1676.9,108.7,1676.4,109.4z"/>
		</g>
	</g>
	<g>
		<g>
			<path fill="#B3B3B3" d="M1506.2,96.1c-9.8,0-17.8,8-17.8,17.8s8,17.8,17.8,17.8c9.8,0,17.8-8,17.8-17.8S1516,96.1,1506.2,96.1z
				 M1514.4,107.3l-6.6,6.6l5.9,6.5c0.5,0.5,0.5,1.2,0,1.7c-0.5,0.5-1.2,0.5-1.7,0l-5.9-6.5l-6.5,6.5c-0.5,0.5-1.2,0.5-1.7,0
				c-0.5-0.5-0.5-1.2,0-1.7l6.6-6.6l-5.9-6.5c-0.5-0.5-0.5-1.2,0-1.7c0.5-0.5,1.2-0.5,1.7,0l5.9,6.5l6.5-6.5c0.5-0.5,1.2-0.5,1.7,0
				C1514.9,106.1,1514.9,106.9,1514.4,107.3z"/>
		</g>
	</g>
</g>
</svg>
