<?xml version="1.0" encoding="utf-8"?>
<!-- Generator: Adobe Illustrator 18.0.0, SVG Export Plug-In . SVG Version: 6.00 Build 0)  -->
<!DOCTYPE svg PUBLIC "-//W3C//DTD SVG 1.1//EN" "http://www.w3.org/Graphics/SVG/1.1/DTD/svg11.dtd">
<svg version="1.1" id="Layer_1" xmlns="http://www.w3.org/2000/svg" xmlns:xlink="http://www.w3.org/1999/xlink" x="0px" y="0px"
	 viewBox="0 0 250 150" enable-background="new 0 0 250 150" xml:space="preserve">
<g>
	<g>
		<path fill="#636363" d="M-963.8,146.1h-210.6V4.4h210.6V146.1z M-1170.3,142.1h202.5V8.4h-202.5V142.1z"/>
		<rect x="-1172.3" y="30.6" fill="#636363" width="206.6" height="4"/>
		<rect x="-1159.9" y="17.5" fill="#636363" width="13.1" height="4"/>
		<rect x="-1133.7" y="17.5" fill="#636363" width="13.1" height="4"/>
		<rect x="-1107.4" y="17.5" fill="#636363" width="13.1" height="4"/>
	</g>
	<path fill="#636363" d="M-976.9,66h-124.5V52.4h124.5V66z M-1097.4,62h116.5v-5.6h-116.5V62z"/>
	<path fill="#636363" d="M-976.9,95.4h-124.5V81.8h124.5V95.4z M-1097.4,91.3h116.5v-5.5h-116.5V91.3z"/>
	<path fill="#636363" d="M-976.9,127.4h-124.5v-13.5h124.5V127.4z M-1097.4,123.4h116.5v-5.5h-116.5V123.4z"/>
	<g>
		<g>
			<path fill="#636363" d="M-1143.8,49.4c-5.4,0-9.8,4.4-9.8,9.8s4.4,9.8,9.8,9.8c5.4,0,9.8-4.4,9.8-9.8S-1138.4,49.4-1143.8,49.4z"
				/>
		</g>
	</g>
	<g>
		<g>
			<path fill="#636363" d="M-1143.8,71c-6.5,0-11.8-5.3-11.8-11.8s5.3-11.8,11.8-11.8s11.8,5.3,11.8,11.8S-1137.3,71-1143.8,71z
				 M-1143.8,51.4c-4.3,0-7.8,3.5-7.8,7.8c0,4.3,3.5,7.8,7.8,7.8c4.3,0,7.8-3.5,7.8-7.8C-1136.1,54.9-1139.6,51.4-1143.8,51.4z"/>
		</g>
	</g>
	<g>
		<g>
			<path fill="#636363" d="M-1143.8,100.4c-6.5,0-11.8-5.3-11.8-11.8c0-6.5,5.3-11.8,11.8-11.8s11.8,5.3,11.8,11.8
				C-1132,95-1137.3,100.4-1143.8,100.4z M-1143.8,80.8c-4.3,0-7.8,3.5-7.8,7.8s3.5,7.8,7.8,7.8c4.3,0,7.8-3.5,7.8-7.8
				S-1139.6,80.8-1143.8,80.8z"/>
		</g>
	</g>
	<g>
		<g>
			<path fill="#636363" d="M-1143.8,132.5c-6.5,0-11.8-5.3-11.8-11.8s5.3-11.8,11.8-11.8s11.8,5.3,11.8,11.8
				C-1132.1,127.1-1137.3,132.5-1143.8,132.5z M-1143.8,112.8c-4.3,0-7.8,3.5-7.8,7.8c0,4.3,3.5,7.8,7.8,7.8c4.3,0,7.8-3.5,7.8-7.8
				C-1136.1,116.3-1139.6,112.8-1143.8,112.8z"/>
		</g>
	</g>
</g>
<g>
	<g>
		<g>
			<path fill="#636363" d="M-363.4,146.1H-574V4.4h210.6L-363.4,146.1L-363.4,146.1z M-570,142.1h202.5V8.4H-570V142.1z"/>
			<rect x="-572" y="30.6" fill="#636363" width="206.6" height="4"/>
			<rect x="-559.6" y="17.5" fill="#636363" width="13.1" height="4"/>
			<rect x="-533.3" y="17.5" fill="#636363" width="13.1" height="4"/>
			<rect x="-507.1" y="17.5" fill="#636363" width="13.1" height="4"/>
		</g>
	</g>
	<g>
		<path fill="#636363" d="M-535,125.5h-11.3c-1,0-1.8-1-1.8-2.2v-16.8c0-1.2,0.8-2.2,1.8-2.2h11.3c1,0,1.8,1,1.8,2.2v16.8
			C-533.2,124.5-534,125.5-535,125.5z M-544.5,121h7.8v-12.3h-7.8V121z"/>
		<path fill="#636363" d="M-512.2,125.5h-11.3c-1,0-1.8-1-1.8-2.2V91c0-1.2,0.8-2.2,1.8-2.2h11.3c1,0,1.8,1,1.8,2.2v32.2
			C-510.4,124.5-511.2,125.5-512.2,125.5z M-521.8,121h7.8V93.3h-7.8V121z"/>
		<path fill="#636363" d="M-489.5,125.5h-11.3c-1,0-1.8-1-1.8-2.2V75.7c0-1.2,0.8-2.2,1.8-2.2h11.3c1,0,1.8,1,1.8,2.2v47.5
			C-487.7,124.5-488.5,125.5-489.5,125.5z M-499.1,121h7.8V78h-7.8V121z"/>
		<path fill="#636363" d="M-466.8,125.5h-11.3c-1,0-1.8-1-1.8-2.2V54.3c0-1.2,0.8-2.2,1.8-2.2h11.3c1,0,1.8,1,1.8,2.2v69
			C-465,124.5-465.8,125.5-466.8,125.5z M-476.3,121h7.8V56.5h-7.8V121z"/>
	</g>
	<g>
		<path fill="#FFFFFF" d="M-455.7,91.4c0.2,19.7,16.3,35.4,36,35.2c19.7-0.2,35.4-16.3,35.2-36c-0.2-19.7-16.3-35.4-36-35.2
			C-440.1,55.6-455.8,71.8-455.7,91.4z"/>
	</g>
	<g>
		<path fill="#636363" d="M-453.3,91.4c0.2,18.4,15.2,33.2,33.7,32.9c18.4-0.3,33.2-15.3,32.9-33.7s-15.2-33.2-33.7-32.9
			C-438.8,57.9-453.6,73-453.3,91.4z M-420.2,71L-420.2,71c0.3,0,0.6,0.1,0.8,0.2c0.2,0.1,0.5,0.2,0.8,0.5l13.5,13.2
			c0.9,0.8,0.9,2.2,0,3.2c-0.8,0.9-2.2,0.9-3.2,0l-9.7-9.4l0.4,34.6c0,1.2-1,2.2-2.2,2.2c-1.2,0-2.3-1-2.3-2.2l-0.4-34.6l-9.4,9.7
			c-0.8,0.9-2.2,0.9-3.2,0c-0.9-0.9-0.9-2.2,0-3.2l13.2-13.5c0.2-0.2,0.4-0.3,0.8-0.5C-420.8,71-420.6,71-420.2,71L-420.2,71z"/>
	</g>
	<g>
		<g>
			<path fill="#636363" d="M-533.4,53.1c-9.2,0-16.7,7.4-16.7,16.7s7.4,16.7,16.7,16.7c9.2,0,16.7-7.4,16.7-16.7
				S-524.2,53.1-533.4,53.1z M-533.4,84.1c-7.9,0-14.4-6.5-14.4-14.4s6.5-14.4,14.4-14.4s14.4,6.5,14.4,14.4S-525.4,84.1-533.4,84.1
				z M-531.5,62c2,0,3.7,1.5,3.7,3.3c0,0.6,0.5,1.1,1.1,1.1c0.6,0,1.1-0.5,1.1-1.1c0-3.1-2.7-5.6-5.8-5.6h-0.8v-1.1
				c0-0.6-0.5-1.1-1.1-1.1c-0.6,0-1.1,0.5-1.1,1.1v1.1h-0.8c-3.2,0-5.8,2.5-5.8,5.6c0,3.1,2.7,5.6,5.8,5.6h0.8v6.7h-0.8
				c-2,0-3.7-1.5-3.7-3.3c0-0.6-0.5-1.1-1.1-1.1c-0.6,0-1.1,0.5-1.1,1.1c0,3.1,2.7,5.6,5.8,5.6h0.8v1.1c0,0.6,0.5,1.1,1.1,1.1
				c0.6,0,1.1-0.5,1.1-1.1v-1.2h0.8c3.3,0,5.8-2.5,5.8-5.6c0-3.1-2.7-5.6-5.8-5.6h-0.8v-6.7L-531.5,62L-531.5,62z M-531.5,70.9
				c2,0,3.7,1.5,3.7,3.3c0,1.8-1.7,3.3-3.7,3.3h-0.8v-6.7H-531.5z M-534.5,68.6h-0.8c-2,0-3.7-1.5-3.7-3.3c0-1.8,1.7-3.3,3.7-3.3
				h0.8V68.6z"/>
		</g>
	</g>
</g>
<g>
	<g>
		<path fill="#636363" d="M110,81h-3.8c0.7,1.4,1.5,2.8,2.4,4h4.2C111.8,83.8,110.7,82.5,110,81z M129.3,83.2c0-0.8-0.2-1.6-0.8-2.2
			h-5.1c-0.5,0.6-0.8,1.3-0.8,2.2c0,0.6,0.2,1.2,0.4,1.6c-0.1,0.1-0.2,0.2-0.2,0.2h6.2c-0.1-0.1-0.2-0.2-0.2-0.2
			C129.2,84.3,129.3,83.8,129.3,83.2z M142,81c-0.8,1.4-1.8,2.8-2.8,4h4.2c0.9-1.2,1.8-2.7,2.4-4H142z M152.9,81h-3.4
			c-0.5,1.3-1.2,2.8-1.9,4h5.4v6.6l-0.1-0.2l-28.2,19.4L96.5,91.7v-6.6h8c-0.8-1.3-1.4-2.7-1.9-4h-6.1c-2.2,0-4,1.8-4,4v40.4
			c0,2.2,1.8,4,4,4H153c2.2,0,4-1.8,4-4V85C157,82.9,155.2,81,152.9,81z M96.4,96.5l15.5,10.5l-15.5,15.5
			C96.4,122.5,96.4,96.5,96.4,96.5z M99.2,125.5l16-16l9.4,6.3l9.3-6.4l16.1,16.1L99.2,125.5L99.2,125.5z M152.9,122.6L137.3,107
			l15.6-10.7V122.6z"/>
	</g>
</g>
<g>
	<path fill="#546470" d="M128.5,81c-0.4-0.5-1-0.8-1.6-1.1c-0.2-0.1-0.6-0.2-0.9-0.2c-0.3,0-0.7,0.1-0.9,0.2
		c-0.7,0.2-1.2,0.6-1.6,1.1c-0.5,0.6-0.8,1.3-0.8,2.2c0,0.6,0.2,1.2,0.4,1.6c0,0.1,0.1,0.2,0.2,0.2c0.6,0.9,1.6,1.5,2.8,1.5
		c1.2,0,2.2-0.6,2.8-1.5c0.1-0.1,0.2-0.2,0.2-0.2c0.2-0.5,0.4-1,0.4-1.6C129.3,82.4,129.1,81.6,128.5,81z M126,53
		c-1.8,0-3.3,1.5-3.3,3.3v16.8c0,1.8,1.5,3.3,3.3,3.3c1.8,0,3.3-1.5,3.3-3.3V56.3C129.3,54.5,127.8,53,126,53z M126,53
		c-1.8,0-3.3,1.5-3.3,3.3v16.8c0,1.8,1.5,3.3,3.3,3.3c1.8,0,3.3-1.5,3.3-3.3V56.3C129.3,54.5,127.8,53,126,53z M128.5,81
		c-0.4-0.5-1-0.8-1.6-1.1c-0.2-0.1-0.6-0.2-0.9-0.2c-0.3,0-0.7,0.1-0.9,0.2c-0.7,0.2-1.2,0.6-1.6,1.1c-0.5,0.6-0.8,1.3-0.8,2.2
		c0,0.6,0.2,1.2,0.4,1.6c0,0.1,0.1,0.2,0.2,0.2c0.6,0.9,1.6,1.5,2.8,1.5c1.2,0,2.2-0.6,2.8-1.5c0.1-0.1,0.2-0.2,0.2-0.2
		c0.2-0.5,0.4-1,0.4-1.6C129.3,82.4,129.1,81.6,128.5,81z M128.5,81c-0.4-0.5-1-0.8-1.6-1.1c-0.2-0.1-0.6-0.2-0.9-0.2
		c-0.3,0-0.7,0.1-0.9,0.2c-0.7,0.2-1.2,0.6-1.6,1.1c-0.5,0.6-0.8,1.3-0.8,2.2c0,0.6,0.2,1.2,0.4,1.6c0,0.1,0.1,0.2,0.2,0.2
		c0.6,0.9,1.6,1.5,2.8,1.5c1.2,0,2.2-0.6,2.8-1.5c0.1-0.1,0.2-0.2,0.2-0.2c0.2-0.5,0.4-1,0.4-1.6C129.3,82.4,129.1,81.6,128.5,81z
		 M126,53c-1.8,0-3.3,1.5-3.3,3.3v16.8c0,1.8,1.5,3.3,3.3,3.3c1.8,0,3.3-1.5,3.3-3.3V56.3C129.3,54.5,127.8,53,126,53z M126,53
		c-1.8,0-3.3,1.5-3.3,3.3v16.8c0,1.8,1.5,3.3,3.3,3.3c1.8,0,3.3-1.5,3.3-3.3V56.3C129.3,54.5,127.8,53,126,53z M128.5,81
		c-0.4-0.5-1-0.8-1.6-1.1c-0.2-0.1-0.6-0.2-0.9-0.2c-0.3,0-0.7,0.1-0.9,0.2c-0.7,0.2-1.2,0.6-1.6,1.1c-0.5,0.6-0.8,1.3-0.8,2.2
		c0,0.6,0.2,1.2,0.4,1.6c0,0.1,0.1,0.2,0.2,0.2c0.6,0.9,1.6,1.5,2.8,1.5c1.2,0,2.2-0.6,2.8-1.5c0.1-0.1,0.2-0.2,0.2-0.2
		c0.2-0.5,0.4-1,0.4-1.6C129.3,82.4,129.1,81.6,128.5,81z M128.5,81c-0.4-0.5-1-0.8-1.6-1.1c-0.2-0.1-0.6-0.2-0.9-0.2
		c-0.3,0-0.7,0.1-0.9,0.2c-0.7,0.2-1.2,0.6-1.6,1.1c-0.5,0.6-0.8,1.3-0.8,2.2c0,0.6,0.2,1.2,0.4,1.6c0,0.1,0.1,0.2,0.2,0.2
		c0.6,0.9,1.6,1.5,2.8,1.5c1.2,0,2.2-0.6,2.8-1.5c0.1-0.1,0.2-0.2,0.2-0.2c0.2-0.5,0.4-1,0.4-1.6C129.3,82.4,129.1,81.6,128.5,81z
		 M126,53c-1.8,0-3.3,1.5-3.3,3.3v16.8c0,1.8,1.5,3.3,3.3,3.3c1.8,0,3.3-1.5,3.3-3.3V56.3C129.3,54.5,127.8,53,126,53z M126,53
		c-1.8,0-3.3,1.5-3.3,3.3v16.8c0,1.8,1.5,3.3,3.3,3.3c1.8,0,3.3-1.5,3.3-3.3V56.3C129.3,54.5,127.8,53,126,53z M128.5,81
		c-0.4-0.5-1-0.8-1.6-1.1c-0.2-0.1-0.6-0.2-0.9-0.2c-0.3,0-0.7,0.1-0.9,0.2c-0.7,0.2-1.2,0.6-1.6,1.1c-0.5,0.6-0.8,1.3-0.8,2.2
		c0,0.6,0.2,1.2,0.4,1.6c0,0.1,0.1,0.2,0.2,0.2c0.6,0.9,1.6,1.5,2.8,1.5c1.2,0,2.2-0.6,2.8-1.5c0.1-0.1,0.2-0.2,0.2-0.2
		c0.2-0.5,0.4-1,0.4-1.6C129.3,82.4,129.1,81.6,128.5,81z M128.5,81c-0.4-0.5-1-0.8-1.6-1.1c-0.2-0.1-0.6-0.2-0.9-0.2
		c-0.3,0-0.7,0.1-0.9,0.2c-0.7,0.2-1.2,0.6-1.6,1.1c-0.5,0.6-0.8,1.3-0.8,2.2c0,0.6,0.2,1.2,0.4,1.6c0,0.1,0.1,0.2,0.2,0.2
		c0.6,0.9,1.6,1.5,2.8,1.5c1.2,0,2.2-0.6,2.8-1.5c0.1-0.1,0.2-0.2,0.2-0.2c0.2-0.5,0.4-1,0.4-1.6C129.3,82.4,129.1,81.6,128.5,81z
		 M126,53c-1.8,0-3.3,1.5-3.3,3.3v16.8c0,1.8,1.5,3.3,3.3,3.3c1.8,0,3.3-1.5,3.3-3.3V56.3C129.3,54.5,127.8,53,126,53z M126,53
		c-1.8,0-3.3,1.5-3.3,3.3v16.8c0,1.8,1.5,3.3,3.3,3.3c1.8,0,3.3-1.5,3.3-3.3V56.3C129.3,54.5,127.8,53,126,53z M128.5,81
		c-0.4-0.5-1-0.8-1.6-1.1c-0.2-0.1-0.6-0.2-0.9-0.2c-0.3,0-0.7,0.1-0.9,0.2c-0.7,0.2-1.2,0.6-1.6,1.1c-0.5,0.6-0.8,1.3-0.8,2.2
		c0,0.6,0.2,1.2,0.4,1.6c0,0.1,0.1,0.2,0.2,0.2c0.6,0.9,1.6,1.5,2.8,1.5c1.2,0,2.2-0.6,2.8-1.5c0.1-0.1,0.2-0.2,0.2-0.2
		c0.2-0.5,0.4-1,0.4-1.6C129.3,82.4,129.1,81.6,128.5,81z M128.5,81c-0.4-0.5-1-0.8-1.6-1.1c-0.2-0.1-0.6-0.2-0.9-0.2
		c-0.3,0-0.7,0.1-0.9,0.2c-0.7,0.2-1.2,0.6-1.6,1.1c-0.5,0.6-0.8,1.3-0.8,2.2c0,0.6,0.2,1.2,0.4,1.6c0,0.1,0.1,0.2,0.2,0.2
		c0.6,0.9,1.6,1.5,2.8,1.5c1.2,0,2.2-0.6,2.8-1.5c0.1-0.1,0.2-0.2,0.2-0.2c0.2-0.5,0.4-1,0.4-1.6C129.3,82.4,129.1,81.6,128.5,81z
		 M126,53c-1.8,0-3.3,1.5-3.3,3.3v16.8c0,1.8,1.5,3.3,3.3,3.3c1.8,0,3.3-1.5,3.3-3.3V56.3C129.3,54.5,127.8,53,126,53z M126,53
		c-1.8,0-3.3,1.5-3.3,3.3v16.8c0,1.8,1.5,3.3,3.3,3.3c1.8,0,3.3-1.5,3.3-3.3V56.3C129.3,54.5,127.8,53,126,53z M126.9,80
		c-0.2-0.1-0.6-0.2-0.9-0.2c-0.3,0-0.7,0.1-0.9,0.2c-0.7,0.2-1.2,0.6-1.6,1.1c-0.5,0.6-0.8,1.3-0.8,2.2c0,0.6,0.2,1.2,0.4,1.6
		c0,0.1,0.1,0.2,0.2,0.3c0.6,0.9,1.6,1.5,2.8,1.5c1.2,0,2.2-0.6,2.8-1.5c0.1-0.1,0.2-0.2,0.2-0.3c0.2-0.5,0.4-1,0.4-1.6
		c0-0.8-0.2-1.6-0.8-2.2C128.2,80.5,127.6,80.1,126.9,80z M149.6,60.2c0-0.3-0.1-0.6-0.1-0.9c-0.2-1.7-1.7-2.9-3.3-2.9
		c-0.2,0-0.8-0.1-1.4-0.7c-0.8-0.8-1.8-2.2-1.9-5.3c0-0.2,0-0.5,0-0.8c0-0.9-0.3-1.8-1-2.4c-0.8-0.8-4.9-4.3-15.8-4.3
		s-15.1,3.6-15.8,4.3c-0.6,0.7-1,1.5-1,2.4c0,0.2,0,0.5,0,0.8c-0.2,3.1-1,4.6-1.9,5.2c-0.7,0.6-1.3,0.7-1.6,0.7
		c-1.7,0-3,1.2-3.3,2.9c0,0.3-0.1,0.6-0.1,0.9c-0.5,5.5,0.2,13.6,3.8,20.8c0.7,1.4,1.5,2.8,2.4,4c3.5,5,8.8,9.2,16.4,11.4
		c0.2,0.1,0.6,0.2,0.9,0.2c0.3,0,0.7,0,0.9-0.2c7.7-2.2,12.9-6.4,16.4-11.4c0.9-1.2,1.8-2.7,2.4-4C149.4,73.8,150.1,65.7,149.6,60.2
		z M142,81c-0.8,1.4-1.8,2.8-2.8,4c-3,3.5-7.2,6.5-13.2,8.2c-5.9-1.8-10.2-4.7-13.2-8.2c-1.1-1.2-2-2.7-2.8-4
		c-5.6-9.8-4.2-21.3-4.2-21.3s6.8,0,6.8-10.1c0,0,1.4-1.4,5.2-2.4l0,0c2-0.5,4.7-0.9,8.2-0.9c3.5,0,6.2,0.4,8.2,0.9l0,0
		c3.8,1,5.2,2.4,5.2,2.4c0,10.1,6.8,10.1,6.8,10.1S147.6,71.2,142,81z M126,53c-1.8,0-3.3,1.5-3.3,3.3v16.8c0,1.8,1.5,3.3,3.3,3.3
		c1.8,0,3.3-1.5,3.3-3.3V56.3C129.3,54.5,127.8,53,126,53z M126.9,80c-0.2-0.1-0.6-0.2-0.9-0.2c-0.3,0-0.7,0.1-0.9,0.2
		c-0.7,0.2-1.2,0.6-1.6,1.1c-0.5,0.6-0.8,1.3-0.8,2.2c0,0.6,0.2,1.2,0.4,1.6c0,0.1,0.1,0.2,0.2,0.3c0.6,0.9,1.6,1.5,2.8,1.5
		c1.2,0,2.2-0.6,2.8-1.5c0.1-0.1,0.2-0.2,0.2-0.3c0.2-0.5,0.4-1,0.4-1.6c0-0.8-0.2-1.6-0.8-2.2C128.2,80.5,127.6,80.1,126.9,80z
		 M128.5,81c-0.4-0.5-1-0.8-1.6-1.1c-0.2-0.1-0.6-0.2-0.9-0.2c-0.3,0-0.7,0.1-0.9,0.2c-0.7,0.2-1.2,0.6-1.6,1.1
		c-0.5,0.6-0.8,1.3-0.8,2.2c0,0.6,0.2,1.2,0.4,1.6c0,0.1,0.1,0.2,0.2,0.2c0.6,0.9,1.6,1.5,2.8,1.5c1.2,0,2.2-0.6,2.8-1.5
		c0.1-0.1,0.2-0.2,0.2-0.2c0.2-0.5,0.4-1,0.4-1.6C129.3,82.4,129.1,81.6,128.5,81z M126,53c-1.8,0-3.3,1.5-3.3,3.3v16.8
		c0,1.8,1.5,3.3,3.3,3.3c1.8,0,3.3-1.5,3.3-3.3V56.3C129.3,54.5,127.8,53,126,53z M126,53c-1.8,0-3.3,1.5-3.3,3.3v16.8
		c0,1.8,1.5,3.3,3.3,3.3c1.8,0,3.3-1.5,3.3-3.3V56.3C129.3,54.5,127.8,53,126,53z M128.5,81c-0.4-0.5-1-0.8-1.6-1.1
		c-0.2-0.1-0.6-0.2-0.9-0.2c-0.3,0-0.7,0.1-0.9,0.2c-0.7,0.2-1.2,0.6-1.6,1.1c-0.5,0.6-0.8,1.3-0.8,2.2c0,0.6,0.2,1.2,0.4,1.6
		c0,0.1,0.1,0.2,0.2,0.2c0.6,0.9,1.6,1.5,2.8,1.5c1.2,0,2.2-0.6,2.8-1.5c0.1-0.1,0.2-0.2,0.2-0.2c0.2-0.5,0.4-1,0.4-1.6
		C129.3,82.4,129.1,81.6,128.5,81z M128.5,81c-0.4-0.5-1-0.8-1.6-1.1c-0.2-0.1-0.6-0.2-0.9-0.2c-0.3,0-0.7,0.1-0.9,0.2
		c-0.7,0.2-1.2,0.6-1.6,1.1c-0.5,0.6-0.8,1.3-0.8,2.2c0,0.6,0.2,1.2,0.4,1.6c0,0.1,0.1,0.2,0.2,0.2c0.6,0.9,1.6,1.5,2.8,1.5
		c1.2,0,2.2-0.6,2.8-1.5c0.1-0.1,0.2-0.2,0.2-0.2c0.2-0.5,0.4-1,0.4-1.6C129.3,82.4,129.1,81.6,128.5,81z M126,53
		c-1.8,0-3.3,1.5-3.3,3.3v16.8c0,1.8,1.5,3.3,3.3,3.3c1.8,0,3.3-1.5,3.3-3.3V56.3C129.3,54.5,127.8,53,126,53z M126,53
		c-1.8,0-3.3,1.5-3.3,3.3v16.8c0,1.8,1.5,3.3,3.3,3.3c1.8,0,3.3-1.5,3.3-3.3V56.3C129.3,54.5,127.8,53,126,53z M128.5,81
		c-0.4-0.5-1-0.8-1.6-1.1c-0.2-0.1-0.6-0.2-0.9-0.2c-0.3,0-0.7,0.1-0.9,0.2c-0.7,0.2-1.2,0.6-1.6,1.1c-0.5,0.6-0.8,1.3-0.8,2.2
		c0,0.6,0.2,1.2,0.4,1.6c0,0.1,0.1,0.2,0.2,0.2c0.6,0.9,1.6,1.5,2.8,1.5c1.2,0,2.2-0.6,2.8-1.5c0.1-0.1,0.2-0.2,0.2-0.2
		c0.2-0.5,0.4-1,0.4-1.6C129.3,82.4,129.1,81.6,128.5,81z M128.5,81c-0.4-0.5-1-0.8-1.6-1.1c-0.2-0.1-0.6-0.2-0.9-0.2
		c-0.3,0-0.7,0.1-0.9,0.2c-0.7,0.2-1.2,0.6-1.6,1.1c-0.5,0.6-0.8,1.3-0.8,2.2c0,0.6,0.2,1.2,0.4,1.6c0,0.1,0.1,0.2,0.2,0.2
		c0.6,0.9,1.6,1.5,2.8,1.5c1.2,0,2.2-0.6,2.8-1.5c0.1-0.1,0.2-0.2,0.2-0.2c0.2-0.5,0.4-1,0.4-1.6C129.3,82.4,129.1,81.6,128.5,81z
		 M126,53c-1.8,0-3.3,1.5-3.3,3.3v16.8c0,1.8,1.5,3.3,3.3,3.3c1.8,0,3.3-1.5,3.3-3.3V56.3C129.3,54.5,127.8,53,126,53z M126,53
		c-1.8,0-3.3,1.5-3.3,3.3v16.8c0,1.8,1.5,3.3,3.3,3.3c1.8,0,3.3-1.5,3.3-3.3V56.3C129.3,54.5,127.8,53,126,53z M128.5,81
		c-0.4-0.5-1-0.8-1.6-1.1c-0.2-0.1-0.6-0.2-0.9-0.2c-0.3,0-0.7,0.1-0.9,0.2c-0.7,0.2-1.2,0.6-1.6,1.1c-0.5,0.6-0.8,1.3-0.8,2.2
		c0,0.6,0.2,1.2,0.4,1.6c0,0.1,0.1,0.2,0.2,0.2c0.6,0.9,1.6,1.5,2.8,1.5c1.2,0,2.2-0.6,2.8-1.5c0.1-0.1,0.2-0.2,0.2-0.2
		c0.2-0.5,0.4-1,0.4-1.6C129.3,82.4,129.1,81.6,128.5,81z M128.5,81c-0.4-0.5-1-0.8-1.6-1.1c-0.2-0.1-0.6-0.2-0.9-0.2
		c-0.3,0-0.7,0.1-0.9,0.2c-0.7,0.2-1.2,0.6-1.6,1.1c-0.5,0.6-0.8,1.3-0.8,2.2c0,0.6,0.2,1.2,0.4,1.6c0,0.1,0.1,0.2,0.2,0.2
		c0.6,0.9,1.6,1.5,2.8,1.5c1.2,0,2.2-0.6,2.8-1.5c0.1-0.1,0.2-0.2,0.2-0.2c0.2-0.5,0.4-1,0.4-1.6C129.3,82.4,129.1,81.6,128.5,81z
		 M126,53c-1.8,0-3.3,1.5-3.3,3.3v16.8c0,1.8,1.5,3.3,3.3,3.3c1.8,0,3.3-1.5,3.3-3.3V56.3C129.3,54.5,127.8,53,126,53z M126,53
		c-1.8,0-3.3,1.5-3.3,3.3v16.8c0,1.8,1.5,3.3,3.3,3.3c1.8,0,3.3-1.5,3.3-3.3V56.3C129.3,54.5,127.8,53,126,53z M128.5,81
		c-0.4-0.5-1-0.8-1.6-1.1c-0.2-0.1-0.6-0.2-0.9-0.2c-0.3,0-0.7,0.1-0.9,0.2c-0.7,0.2-1.2,0.6-1.6,1.1c-0.5,0.6-0.8,1.3-0.8,2.2
		c0,0.6,0.2,1.2,0.4,1.6c0,0.1,0.1,0.2,0.2,0.2c0.6,0.9,1.6,1.5,2.8,1.5c1.2,0,2.2-0.6,2.8-1.5c0.1-0.1,0.2-0.2,0.2-0.2
		c0.2-0.5,0.4-1,0.4-1.6C129.3,82.4,129.1,81.6,128.5,81z"/>
</g>
<g>
	<g>
		<path fill="#636363" d="M230,146.1H19.4V4.4H230V146.1z M23.4,142.1h202.5V8.4H23.4C23.4,8.4,23.4,142.1,23.4,142.1z"/>
		<rect x="21.4" y="30.6" fill="#636363" width="206.6" height="4"/>
		<rect x="33.8" y="17.5" fill="#636363" width="13.1" height="4"/>
		<rect x="60.1" y="17.5" fill="#636363" width="13.1" height="4"/>
		<rect x="86.2" y="17.5" fill="#636363" width="13.1" height="4"/>
	</g>
</g>
<g>
	<g>
		<path fill="#546470" d="M191.5,78.3c-11,0-20,8.9-20,20s8.9,20,20,20s20-8.9,20-20S202.6,78.3,191.5,78.3z M200.8,92.7l-9.6,14.6
			l0,0c0,0.1-0.1,0.1-0.1,0.2c-0.1,0.1-0.2,0.1-0.3,0.2c0,0,0,0-0.1,0c-0.1,0.1-0.3,0.1-0.5,0.2c-0.1,0-0.1,0-0.1,0
			c-0.1,0-0.2,0-0.5,0c-0.1,0-0.2,0-0.3,0s-0.2-0.1-0.3-0.1c-0.1,0-0.1,0-0.2-0.1l-0.1-0.1c0,0,0,0-0.1,0l-5.6-5.1
			c-0.7-0.7-0.8-1.7-0.1-2.5s1.7-0.8,2.5-0.1l4,3.8l8.5-12.9c0.6-0.8,1.6-1,2.4-0.5C201.1,90.7,201.3,91.9,200.8,92.7z"/>
	</g>
</g>
<g>
	<g>
		<path fill="#546470" d="M56.4,78c-11,0-20,9-20,20s9,20,20,20s20-9,20-20S67.4,78,56.4,78z M65.6,90.5L58.2,98l6.6,7.3
			c0.6,0.6,0.6,1.3,0,1.9c-0.6,0.6-1.3,0.6-1.9,0l-6.6-7.3l-7.3,7.3c-0.6,0.6-1.3,0.6-1.9,0c-0.6-0.6-0.6-1.3,0-1.9l7.4-7.4
			l-6.6-7.3c-0.6-0.6-0.6-1.3,0-1.9s1.3-0.6,1.9,0l6.6,7.3l7.3-7.3c0.6-0.6,1.3-0.6,1.9,0C66.2,89.2,66.2,90.1,65.6,90.5z"/>
	</g>
</g>
<ellipse fill="#383F46" cx="-186.5" cy="-132" rx="23.5" ry="32"/>
<ellipse fill="#546470" cx="-139.5" cy="-132" rx="23.5" ry="32"/>
</svg>
