<?xml version="1.0" encoding="utf-8"?>
<!-- Generator: Adobe Illustrator 18.0.0, SVG Export Plug-In . SVG Version: 6.00 Build 0)  -->
<!DOCTYPE svg PUBLIC "-//W3C//DTD SVG 1.1//EN" "http://www.w3.org/Graphics/SVG/1.1/DTD/svg11.dtd">
<svg version="1.1" id="Layer_1" xmlns="http://www.w3.org/2000/svg" xmlns:xlink="http://www.w3.org/1999/xlink" x="0px" y="0px"
	 viewBox="0 0 250 150" enable-background="new 0 0 250 150" xml:space="preserve">
<g>
	<path fill="#636363" d="M234.5,146.1H23.9V4.4h210.6V146.1z M27.9,142.1h202.5V8.4H27.9V142.1z"/>
	<rect x="25.9" y="30.6" fill="#636363" width="206.6" height="4"/>
	<rect x="38.3" y="17.5" fill="#636363" width="13.1" height="4"/>
	<rect x="64.5" y="17.5" fill="#636363" width="13.1" height="4"/>
	<rect x="90.8" y="17.5" fill="#636363" width="13.1" height="4"/>
</g>
<path fill="#546470" d="M221.3,66H96.8V52.4h124.5V66z"/>
<path fill="#636363" d="M221.3,95.4H96.8V81.8h124.5V95.4z M100.8,91.3h116.5v-5.5H100.8V91.3z"/>
<path fill="#636363" d="M221.3,127.4H96.8v-13.5h124.5V127.4z M100.8,123.4h116.5v-5.5H100.8V123.4z"/>
<g>
	<g>
		<path fill="#546470" d="M54.4,49.4c-5.4,0-9.8,4.4-9.8,9.8S49,69,54.4,69s9.8-4.4,9.8-9.8S59.8,49.4,54.4,49.4z"/>
	</g>
</g>
<g>
	<g>
		<path fill="#546470" d="M54.4,71c-6.5,0-11.8-5.3-11.8-11.8s5.3-11.8,11.8-11.8c6.5,0,11.8,5.3,11.8,11.8S60.9,71,54.4,71z
			 M54.4,51.4c-4.3,0-7.8,3.5-7.8,7.8c0,4.3,3.5,7.8,7.8,7.8c4.3,0,7.8-3.5,7.8-7.8C62.1,54.9,58.6,51.4,54.4,51.4z"/>
	</g>
</g>
<g>
	<g>
		<path fill="#636363" d="M54.4,100.4c-6.5,0-11.8-5.3-11.8-11.8c0-6.5,5.3-11.8,11.8-11.8c6.5,0,11.8,5.3,11.8,11.8
			C66.2,95,60.9,100.4,54.4,100.4z M54.4,80.8c-4.3,0-7.8,3.5-7.8,7.8s3.5,7.8,7.8,7.8c4.3,0,7.8-3.5,7.8-7.8S58.6,80.8,54.4,80.8z"
			/>
	</g>
</g>
<g>
	<g>
		<path fill="#636363" d="M54.4,132.5c-6.5,0-11.8-5.3-11.8-11.8s5.3-11.8,11.8-11.8c6.5,0,11.8,5.3,11.8,11.8
			C66.1,127.1,60.9,132.5,54.4,132.5z M54.4,112.8c-4.3,0-7.8,3.5-7.8,7.8c0,4.3,3.5,7.8,7.8,7.8c4.3,0,7.8-3.5,7.8-7.8
			C62.1,116.3,58.6,112.8,54.4,112.8z"/>
	</g>
</g>
<g>
	<g>
		<path fill="#636363" d="M834.8,146.1H624.2V4.4h210.6L834.8,146.1L834.8,146.1z M628.2,142.1h202.5V8.4H628.2V142.1z"/>
		<rect x="626.2" y="30.6" fill="#636363" width="206.6" height="4"/>
		<rect x="638.6" y="17.5" fill="#636363" width="13.1" height="4"/>
		<rect x="664.9" y="17.5" fill="#636363" width="13.1" height="4"/>
		<rect x="691.1" y="17.5" fill="#636363" width="13.1" height="4"/>
	</g>
</g>
<g>
	<path fill="#636363" d="M663.2,125.5h-11.3c-1,0-1.8-1-1.8-2.2v-16.8c0-1.2,0.8-2.2,1.8-2.2h11.3c1,0,1.8,1,1.8,2.2v16.8
		C665,124.5,664.2,125.5,663.2,125.5z M653.7,121h7.8v-12.3h-7.8V121z"/>
	<path fill="#636363" d="M686,125.5h-11.3c-1,0-1.8-1-1.8-2.2V91c0-1.2,0.8-2.2,1.8-2.2H686c1,0,1.8,1,1.8,2.2v32.2
		C687.8,124.5,687,125.5,686,125.5z M676.4,121h7.8V93.3h-7.8V121z"/>
	<path fill="#636363" d="M708.7,125.5h-11.3c-1,0-1.8-1-1.8-2.2V75.7c0-1.2,0.8-2.2,1.8-2.2h11.3c1,0,1.8,1,1.8,2.2v47.5
		C710.5,124.5,709.7,125.5,708.7,125.5z M699.1,121h7.7V78h-7.7V121z"/>
	<path fill="#636363" d="M731.4,125.5H720c-1,0-1.8-1-1.8-2.2V54.3c0-1.2,0.8-2.2,1.8-2.2h11.3c1,0,1.8,1,1.8,2.2v69
		C733.2,124.5,732.4,125.5,731.4,125.5z M721.9,121h7.8V56.5h-7.8V121z"/>
</g>
<g>
	<path fill="#546470" d="M749.5,91.4c0.2,18.4,15.2,33.2,33.7,32.9c18.4-0.3,33.2-15.3,32.9-33.7s-15.2-33.2-33.7-32.9
		C764,57.9,749.3,73,749.5,91.4z M782.6,71L782.6,71c0.3,0,0.6,0.1,0.8,0.2c0.2,0.1,0.5,0.2,0.8,0.5l13.5,13.2
		c0.9,0.8,0.9,2.2,0,3.2c-0.8,0.9-2.2,0.9-3.2,0l-9.7-9.4l0.4,34.6c0,1.2-1,2.2-2.2,2.2c-1.2,0-2.2-1-2.2-2.2l-0.4-34.6l-9.4,9.7
		c-0.8,0.9-2.2,0.9-3.2,0c-0.9-0.9-0.9-2.2,0-3.2L781,71.7c0.2-0.2,0.4-0.3,0.8-0.5C782,71,782.3,71,782.6,71L782.6,71z"/>
</g>
<g>
	<g>
		<path fill="#546470" d="M660.7,45c-11.4,0-20.7,9.2-20.7,20.7s9.2,20.7,20.7,20.7c11.4,0,20.7-9.2,20.7-20.7S672.1,45,660.7,45z
			 M660.7,83.6c-9.8,0-17.9-8.1-17.9-17.9s8.1-17.9,17.9-17.9s17.9,8.1,17.9,17.9S670.7,83.6,660.7,83.6z M663.1,56
			c2.5,0,4.6,1.9,4.6,4.1c0,0.7,0.6,1.3,1.3,1.3c0.7,0,1.3-0.6,1.3-1.3c0-3.8-3.3-6.9-7.3-6.9h-1v-1.3c0-0.7-0.6-1.3-1.3-1.3
			s-1.3,0.6-1.3,1.3v1.3h-1c-4,0-7.3,3.1-7.3,6.9s3.3,6.9,7.3,6.9h1v8.3h-1c-2.5,0-4.6-1.9-4.6-4.1c0-0.7-0.6-1.3-1.3-1.3
			s-1.3,0.6-1.3,1.3c0,3.8,3.3,6.9,7.3,6.9h1v1.3c0,0.7,0.6,1.3,1.3,1.3s1.3-0.6,1.3-1.3v-1.5h1c4,0,7.3-3.1,7.3-6.9
			s-3.3-6.9-7.3-6.9h-1v-8.3h1V56z M663.1,67.1c2.5,0,4.6,1.9,4.6,4.1s-2.1,4.1-4.6,4.1h-1v-8.3H663.1z M659.4,64.3h-1
			c-2.5,0-4.6-1.9-4.6-4.1s2.1-4.1,4.6-4.1h1V64.3z"/>
	</g>
</g>
<g>
	<g>
		<path fill="#636363" d="M1308.2,81h-3.8c0.7,1.4,1.5,2.8,2.4,4h4.2C1310,83.8,1309,82.5,1308.2,81z M1327.5,83.2
			c0-0.8-0.2-1.6-0.8-2.2h-5.1c-0.5,0.6-0.8,1.3-0.8,2.2c0,0.6,0.2,1.2,0.4,1.6c-0.1,0.1-0.2,0.2-0.2,0.2h6.2
			c-0.1-0.1-0.2-0.2-0.2-0.2C1327.4,84.3,1327.5,83.8,1327.5,83.2z M1340.2,81c-0.8,1.4-1.8,2.8-2.8,4h4.2c0.9-1.2,1.8-2.7,2.4-4
			H1340.2z M1351.1,81h-3.4c-0.5,1.3-1.2,2.8-1.9,4h5.4v6.6l-0.1-0.2l-28.2,19.4l-28.2-19.2v-6.6h8c-0.8-1.3-1.4-2.7-1.9-4h-6.1
			c-2.2,0-4,1.8-4,4v40.4c0,2.2,1.8,4,4,4h56.5c2.2,0,4-1.8,4-4V85C1355.2,82.9,1353.4,81,1351.1,81z M1294.6,96.5l15.5,10.5
			l-15.5,15.5C1294.6,122.5,1294.6,96.5,1294.6,96.5z M1297.5,125.5l16-16l9.4,6.3l9.3-6.4l16.1,16.1L1297.5,125.5L1297.5,125.5z
			 M1351.1,122.6l-15.6-15.6l15.6-10.7V122.6z"/>
	</g>
</g>
<g>
	<path fill="#546470" d="M1326.7,81c-0.4-0.5-1-0.8-1.6-1.1c-0.2-0.1-0.6-0.2-0.9-0.2s-0.7,0.1-0.9,0.2c-0.7,0.2-1.2,0.6-1.6,1.1
		c-0.5,0.6-0.8,1.3-0.8,2.2c0,0.6,0.2,1.2,0.4,1.6c0,0.1,0.1,0.2,0.2,0.2c0.6,0.9,1.6,1.5,2.8,1.5s2.2-0.6,2.8-1.5
		c0.1-0.1,0.2-0.2,0.2-0.2c0.2-0.5,0.4-1,0.4-1.6C1327.5,82.4,1327.3,81.6,1326.7,81z M1324.2,53c-1.8,0-3.3,1.5-3.3,3.3v16.8
		c0,1.8,1.5,3.3,3.3,3.3s3.3-1.5,3.3-3.3V56.3C1327.5,54.5,1326,53,1324.2,53z M1324.2,53c-1.8,0-3.3,1.5-3.3,3.3v16.8
		c0,1.8,1.5,3.3,3.3,3.3s3.3-1.5,3.3-3.3V56.3C1327.5,54.5,1326,53,1324.2,53z M1326.7,81c-0.4-0.5-1-0.8-1.6-1.1
		c-0.2-0.1-0.6-0.2-0.9-0.2s-0.7,0.1-0.9,0.2c-0.7,0.2-1.2,0.6-1.6,1.1c-0.5,0.6-0.8,1.3-0.8,2.2c0,0.6,0.2,1.2,0.4,1.6
		c0,0.1,0.1,0.2,0.2,0.2c0.6,0.9,1.6,1.5,2.8,1.5s2.2-0.6,2.8-1.5c0.1-0.1,0.2-0.2,0.2-0.2c0.2-0.5,0.4-1,0.4-1.6
		C1327.5,82.4,1327.3,81.6,1326.7,81z M1326.7,81c-0.4-0.5-1-0.8-1.6-1.1c-0.2-0.1-0.6-0.2-0.9-0.2s-0.7,0.1-0.9,0.2
		c-0.7,0.2-1.2,0.6-1.6,1.1c-0.5,0.6-0.8,1.3-0.8,2.2c0,0.6,0.2,1.2,0.4,1.6c0,0.1,0.1,0.2,0.2,0.2c0.6,0.9,1.6,1.5,2.8,1.5
		s2.2-0.6,2.8-1.5c0.1-0.1,0.2-0.2,0.2-0.2c0.2-0.5,0.4-1,0.4-1.6C1327.5,82.4,1327.3,81.6,1326.7,81z M1324.2,53
		c-1.8,0-3.3,1.5-3.3,3.3v16.8c0,1.8,1.5,3.3,3.3,3.3s3.3-1.5,3.3-3.3V56.3C1327.5,54.5,1326,53,1324.2,53z M1324.2,53
		c-1.8,0-3.3,1.5-3.3,3.3v16.8c0,1.8,1.5,3.3,3.3,3.3s3.3-1.5,3.3-3.3V56.3C1327.5,54.5,1326,53,1324.2,53z M1326.7,81
		c-0.4-0.5-1-0.8-1.6-1.1c-0.2-0.1-0.6-0.2-0.9-0.2s-0.7,0.1-0.9,0.2c-0.7,0.2-1.2,0.6-1.6,1.1c-0.5,0.6-0.8,1.3-0.8,2.2
		c0,0.6,0.2,1.2,0.4,1.6c0,0.1,0.1,0.2,0.2,0.2c0.6,0.9,1.6,1.5,2.8,1.5s2.2-0.6,2.8-1.5c0.1-0.1,0.2-0.2,0.2-0.2
		c0.2-0.5,0.4-1,0.4-1.6C1327.5,82.4,1327.3,81.6,1326.7,81z M1326.7,81c-0.4-0.5-1-0.8-1.6-1.1c-0.2-0.1-0.6-0.2-0.9-0.2
		s-0.7,0.1-0.9,0.2c-0.7,0.2-1.2,0.6-1.6,1.1c-0.5,0.6-0.8,1.3-0.8,2.2c0,0.6,0.2,1.2,0.4,1.6c0,0.1,0.1,0.2,0.2,0.2
		c0.6,0.9,1.6,1.5,2.8,1.5s2.2-0.6,2.8-1.5c0.1-0.1,0.2-0.2,0.2-0.2c0.2-0.5,0.4-1,0.4-1.6C1327.5,82.4,1327.3,81.6,1326.7,81z
		 M1324.2,53c-1.8,0-3.3,1.5-3.3,3.3v16.8c0,1.8,1.5,3.3,3.3,3.3s3.3-1.5,3.3-3.3V56.3C1327.5,54.5,1326,53,1324.2,53z M1324.2,53
		c-1.8,0-3.3,1.5-3.3,3.3v16.8c0,1.8,1.5,3.3,3.3,3.3s3.3-1.5,3.3-3.3V56.3C1327.5,54.5,1326,53,1324.2,53z M1326.7,81
		c-0.4-0.5-1-0.8-1.6-1.1c-0.2-0.1-0.6-0.2-0.9-0.2s-0.7,0.1-0.9,0.2c-0.7,0.2-1.2,0.6-1.6,1.1c-0.5,0.6-0.8,1.3-0.8,2.2
		c0,0.6,0.2,1.2,0.4,1.6c0,0.1,0.1,0.2,0.2,0.2c0.6,0.9,1.6,1.5,2.8,1.5s2.2-0.6,2.8-1.5c0.1-0.1,0.2-0.2,0.2-0.2
		c0.2-0.5,0.4-1,0.4-1.6C1327.5,82.4,1327.3,81.6,1326.7,81z M1326.7,81c-0.4-0.5-1-0.8-1.6-1.1c-0.2-0.1-0.6-0.2-0.9-0.2
		s-0.7,0.1-0.9,0.2c-0.7,0.2-1.2,0.6-1.6,1.1c-0.5,0.6-0.8,1.3-0.8,2.2c0,0.6,0.2,1.2,0.4,1.6c0,0.1,0.1,0.2,0.2,0.2
		c0.6,0.9,1.6,1.5,2.8,1.5s2.2-0.6,2.8-1.5c0.1-0.1,0.2-0.2,0.2-0.2c0.2-0.5,0.4-1,0.4-1.6C1327.5,82.4,1327.3,81.6,1326.7,81z
		 M1324.2,53c-1.8,0-3.3,1.5-3.3,3.3v16.8c0,1.8,1.5,3.3,3.3,3.3s3.3-1.5,3.3-3.3V56.3C1327.5,54.5,1326,53,1324.2,53z M1324.2,53
		c-1.8,0-3.3,1.5-3.3,3.3v16.8c0,1.8,1.5,3.3,3.3,3.3s3.3-1.5,3.3-3.3V56.3C1327.5,54.5,1326,53,1324.2,53z M1326.7,81
		c-0.4-0.5-1-0.8-1.6-1.1c-0.2-0.1-0.6-0.2-0.9-0.2s-0.7,0.1-0.9,0.2c-0.7,0.2-1.2,0.6-1.6,1.1c-0.5,0.6-0.8,1.3-0.8,2.2
		c0,0.6,0.2,1.2,0.4,1.6c0,0.1,0.1,0.2,0.2,0.2c0.6,0.9,1.6,1.5,2.8,1.5s2.2-0.6,2.8-1.5c0.1-0.1,0.2-0.2,0.2-0.2
		c0.2-0.5,0.4-1,0.4-1.6C1327.5,82.4,1327.3,81.6,1326.7,81z M1326.7,81c-0.4-0.5-1-0.8-1.6-1.1c-0.2-0.1-0.6-0.2-0.9-0.2
		s-0.7,0.1-0.9,0.2c-0.7,0.2-1.2,0.6-1.6,1.1c-0.5,0.6-0.8,1.3-0.8,2.2c0,0.6,0.2,1.2,0.4,1.6c0,0.1,0.1,0.2,0.2,0.2
		c0.6,0.9,1.6,1.5,2.8,1.5s2.2-0.6,2.8-1.5c0.1-0.1,0.2-0.2,0.2-0.2c0.2-0.5,0.4-1,0.4-1.6C1327.5,82.4,1327.3,81.6,1326.7,81z
		 M1324.2,53c-1.8,0-3.3,1.5-3.3,3.3v16.8c0,1.8,1.5,3.3,3.3,3.3s3.3-1.5,3.3-3.3V56.3C1327.5,54.5,1326,53,1324.2,53z M1324.2,53
		c-1.8,0-3.3,1.5-3.3,3.3v16.8c0,1.8,1.5,3.3,3.3,3.3s3.3-1.5,3.3-3.3V56.3C1327.5,54.5,1326,53,1324.2,53z M1325.1,80
		c-0.2-0.1-0.6-0.2-0.9-0.2s-0.7,0.1-0.9,0.2c-0.7,0.2-1.2,0.6-1.6,1.1c-0.5,0.6-0.8,1.3-0.8,2.2c0,0.6,0.2,1.2,0.4,1.6
		c0,0.1,0.1,0.2,0.2,0.3c0.6,0.9,1.6,1.5,2.8,1.5s2.2-0.6,2.8-1.5c0.1-0.1,0.2-0.2,0.2-0.3c0.2-0.5,0.4-1,0.4-1.6
		c0-0.8-0.2-1.6-0.8-2.2C1326.4,80.5,1325.8,80.1,1325.1,80z M1347.8,60.2c0-0.3-0.1-0.6-0.1-0.9c-0.2-1.7-1.7-2.9-3.3-2.9
		c-0.2,0-0.8-0.1-1.4-0.7c-0.8-0.8-1.8-2.2-1.9-5.3c0-0.2,0-0.5,0-0.8c0-0.9-0.3-1.8-1-2.4c-0.8-0.8-4.9-4.3-15.8-4.3
		s-15.1,3.6-15.8,4.3c-0.6,0.7-1,1.5-1,2.4c0,0.2,0,0.5,0,0.8c-0.2,3.1-1,4.6-1.9,5.2c-0.7,0.6-1.3,0.7-1.6,0.7
		c-1.7,0-3,1.2-3.2,2.9c0,0.3-0.1,0.6-0.1,0.9c-0.5,5.5,0.2,13.6,3.8,20.8c0.7,1.4,1.5,2.8,2.4,4c3.5,5,8.8,9.2,16.4,11.4
		c0.2,0.1,0.6,0.2,0.9,0.2c0.3,0,0.7,0,0.9-0.2c7.7-2.2,12.9-6.4,16.4-11.4c0.9-1.2,1.8-2.7,2.4-4
		C1347.6,73.8,1348.3,65.7,1347.8,60.2z M1340.2,81c-0.8,1.4-1.8,2.8-2.8,4c-3,3.5-7.2,6.5-13.2,8.2c-5.9-1.8-10.2-4.7-13.2-8.2
		c-1.1-1.2-2-2.7-2.8-4c-5.6-9.8-4.2-21.3-4.2-21.3s6.8,0,6.8-10.1c0,0,1.4-1.4,5.2-2.4l0,0c2-0.5,4.7-0.9,8.2-0.9s6.2,0.4,8.2,0.9
		l0,0c3.8,1,5.2,2.4,5.2,2.4c0,10.1,6.8,10.1,6.8,10.1S1345.8,71.2,1340.2,81z M1324.2,53c-1.8,0-3.3,1.5-3.3,3.3v16.8
		c0,1.8,1.5,3.3,3.3,3.3s3.3-1.5,3.3-3.3V56.3C1327.5,54.5,1326,53,1324.2,53z M1325.1,80c-0.2-0.1-0.6-0.2-0.9-0.2
		s-0.7,0.1-0.9,0.2c-0.7,0.2-1.2,0.6-1.6,1.1c-0.5,0.6-0.8,1.3-0.8,2.2c0,0.6,0.2,1.2,0.4,1.6c0,0.1,0.1,0.2,0.2,0.3
		c0.6,0.9,1.6,1.5,2.8,1.5s2.2-0.6,2.8-1.5c0.1-0.1,0.2-0.2,0.2-0.3c0.2-0.5,0.4-1,0.4-1.6c0-0.8-0.2-1.6-0.8-2.2
		C1326.4,80.5,1325.8,80.1,1325.1,80z M1326.7,81c-0.4-0.5-1-0.8-1.6-1.1c-0.2-0.1-0.6-0.2-0.9-0.2s-0.7,0.1-0.9,0.2
		c-0.7,0.2-1.2,0.6-1.6,1.1c-0.5,0.6-0.8,1.3-0.8,2.2c0,0.6,0.2,1.2,0.4,1.6c0,0.1,0.1,0.2,0.2,0.2c0.6,0.9,1.6,1.5,2.8,1.5
		s2.2-0.6,2.8-1.5c0.1-0.1,0.2-0.2,0.2-0.2c0.2-0.5,0.4-1,0.4-1.6C1327.5,82.4,1327.3,81.6,1326.7,81z M1324.2,53
		c-1.8,0-3.3,1.5-3.3,3.3v16.8c0,1.8,1.5,3.3,3.3,3.3s3.3-1.5,3.3-3.3V56.3C1327.5,54.5,1326,53,1324.2,53z M1324.2,53
		c-1.8,0-3.3,1.5-3.3,3.3v16.8c0,1.8,1.5,3.3,3.3,3.3s3.3-1.5,3.3-3.3V56.3C1327.5,54.5,1326,53,1324.2,53z M1326.7,81
		c-0.4-0.5-1-0.8-1.6-1.1c-0.2-0.1-0.6-0.2-0.9-0.2s-0.7,0.1-0.9,0.2c-0.7,0.2-1.2,0.6-1.6,1.1c-0.5,0.6-0.8,1.3-0.8,2.2
		c0,0.6,0.2,1.2,0.4,1.6c0,0.1,0.1,0.2,0.2,0.2c0.6,0.9,1.6,1.5,2.8,1.5s2.2-0.6,2.8-1.5c0.1-0.1,0.2-0.2,0.2-0.2
		c0.2-0.5,0.4-1,0.4-1.6C1327.5,82.4,1327.3,81.6,1326.7,81z M1326.7,81c-0.4-0.5-1-0.8-1.6-1.1c-0.2-0.1-0.6-0.2-0.9-0.2
		s-0.7,0.1-0.9,0.2c-0.7,0.2-1.2,0.6-1.6,1.1c-0.5,0.6-0.8,1.3-0.8,2.2c0,0.6,0.2,1.2,0.4,1.6c0,0.1,0.1,0.2,0.2,0.2
		c0.6,0.9,1.6,1.5,2.8,1.5s2.2-0.6,2.8-1.5c0.1-0.1,0.2-0.2,0.2-0.2c0.2-0.5,0.4-1,0.4-1.6C1327.5,82.4,1327.3,81.6,1326.7,81z
		 M1324.2,53c-1.8,0-3.3,1.5-3.3,3.3v16.8c0,1.8,1.5,3.3,3.3,3.3s3.3-1.5,3.3-3.3V56.3C1327.5,54.5,1326,53,1324.2,53z M1324.2,53
		c-1.8,0-3.3,1.5-3.3,3.3v16.8c0,1.8,1.5,3.3,3.3,3.3s3.3-1.5,3.3-3.3V56.3C1327.5,54.5,1326,53,1324.2,53z M1326.7,81
		c-0.4-0.5-1-0.8-1.6-1.1c-0.2-0.1-0.6-0.2-0.9-0.2s-0.7,0.1-0.9,0.2c-0.7,0.2-1.2,0.6-1.6,1.1c-0.5,0.6-0.8,1.3-0.8,2.2
		c0,0.6,0.2,1.2,0.4,1.6c0,0.1,0.1,0.2,0.2,0.2c0.6,0.9,1.6,1.5,2.8,1.5s2.2-0.6,2.8-1.5c0.1-0.1,0.2-0.2,0.2-0.2
		c0.2-0.5,0.4-1,0.4-1.6C1327.5,82.4,1327.3,81.6,1326.7,81z M1326.7,81c-0.4-0.5-1-0.8-1.6-1.1c-0.2-0.1-0.6-0.2-0.9-0.2
		s-0.7,0.1-0.9,0.2c-0.7,0.2-1.2,0.6-1.6,1.1c-0.5,0.6-0.8,1.3-0.8,2.2c0,0.6,0.2,1.2,0.4,1.6c0,0.1,0.1,0.2,0.2,0.2
		c0.6,0.9,1.6,1.5,2.8,1.5s2.2-0.6,2.8-1.5c0.1-0.1,0.2-0.2,0.2-0.2c0.2-0.5,0.4-1,0.4-1.6C1327.5,82.4,1327.3,81.6,1326.7,81z
		 M1324.2,53c-1.8,0-3.3,1.5-3.3,3.3v16.8c0,1.8,1.5,3.3,3.3,3.3s3.3-1.5,3.3-3.3V56.3C1327.5,54.5,1326,53,1324.2,53z M1324.2,53
		c-1.8,0-3.3,1.5-3.3,3.3v16.8c0,1.8,1.5,3.3,3.3,3.3s3.3-1.5,3.3-3.3V56.3C1327.5,54.5,1326,53,1324.2,53z M1326.7,81
		c-0.4-0.5-1-0.8-1.6-1.1c-0.2-0.1-0.6-0.2-0.9-0.2s-0.7,0.1-0.9,0.2c-0.7,0.2-1.2,0.6-1.6,1.1c-0.5,0.6-0.8,1.3-0.8,2.2
		c0,0.6,0.2,1.2,0.4,1.6c0,0.1,0.1,0.2,0.2,0.2c0.6,0.9,1.6,1.5,2.8,1.5s2.2-0.6,2.8-1.5c0.1-0.1,0.2-0.2,0.2-0.2
		c0.2-0.5,0.4-1,0.4-1.6C1327.5,82.4,1327.3,81.6,1326.7,81z M1326.7,81c-0.4-0.5-1-0.8-1.6-1.1c-0.2-0.1-0.6-0.2-0.9-0.2
		s-0.7,0.1-0.9,0.2c-0.7,0.2-1.2,0.6-1.6,1.1c-0.5,0.6-0.8,1.3-0.8,2.2c0,0.6,0.2,1.2,0.4,1.6c0,0.1,0.1,0.2,0.2,0.2
		c0.6,0.9,1.6,1.5,2.8,1.5s2.2-0.6,2.8-1.5c0.1-0.1,0.2-0.2,0.2-0.2c0.2-0.5,0.4-1,0.4-1.6C1327.5,82.4,1327.3,81.6,1326.7,81z
		 M1324.2,53c-1.8,0-3.3,1.5-3.3,3.3v16.8c0,1.8,1.5,3.3,3.3,3.3s3.3-1.5,3.3-3.3V56.3C1327.5,54.5,1326,53,1324.2,53z M1324.2,53
		c-1.8,0-3.3,1.5-3.3,3.3v16.8c0,1.8,1.5,3.3,3.3,3.3s3.3-1.5,3.3-3.3V56.3C1327.5,54.5,1326,53,1324.2,53z M1326.7,81
		c-0.4-0.5-1-0.8-1.6-1.1c-0.2-0.1-0.6-0.2-0.9-0.2s-0.7,0.1-0.9,0.2c-0.7,0.2-1.2,0.6-1.6,1.1c-0.5,0.6-0.8,1.3-0.8,2.2
		c0,0.6,0.2,1.2,0.4,1.6c0,0.1,0.1,0.2,0.2,0.2c0.6,0.9,1.6,1.5,2.8,1.5s2.2-0.6,2.8-1.5c0.1-0.1,0.2-0.2,0.2-0.2
		c0.2-0.5,0.4-1,0.4-1.6C1327.5,82.4,1327.3,81.6,1326.7,81z"/>
</g>
<g>
	<g>
		<path fill="#636363" d="M1428.2,146.1h-210.6V4.4h210.6V146.1z M1221.6,142.1h202.5V8.4h-202.5
			C1221.6,8.4,1221.6,142.1,1221.6,142.1z"/>
		<rect x="1219.6" y="30.6" fill="#636363" width="206.6" height="4"/>
		<rect x="1232" y="17.5" fill="#636363" width="13.1" height="4"/>
		<rect x="1258.3" y="17.5" fill="#636363" width="13.1" height="4"/>
		<rect x="1284.5" y="17.5" fill="#636363" width="13.1" height="4"/>
	</g>
</g>
<g>
	<g>
		<path fill="#546470" d="M1389.7,78.3c-11,0-20,8.9-20,20s8.9,20,20,20s20-8.9,20-20S1400.8,78.3,1389.7,78.3z M1399,92.7
			l-9.6,14.6l0,0c0,0.1-0.1,0.1-0.1,0.2c-0.1,0.1-0.2,0.1-0.3,0.2c0,0,0,0-0.1,0c-0.1,0.1-0.3,0.1-0.5,0.2c-0.1,0-0.1,0-0.1,0
			c-0.1,0-0.2,0-0.5,0c-0.1,0-0.2,0-0.3,0c-0.1,0-0.2-0.1-0.3-0.1c-0.1,0-0.1,0-0.2-0.1l-0.1-0.1c0,0,0,0-0.1,0l-5.6-5.1
			c-0.7-0.7-0.8-1.7-0.1-2.5s1.7-0.8,2.5-0.1l4,3.8l8.5-12.9c0.6-0.8,1.6-1,2.4-0.5C1399.3,90.7,1399.5,91.9,1399,92.7z"/>
	</g>
</g>
<g>
	<g>
		<path fill="#546470" d="M1254.6,78c-11,0-20,9-20,20s9,20,20,20s20-9,20-20S1265.6,78,1254.6,78z M1263.8,90.5l-7.4,7.4l6.6,7.3
			c0.6,0.6,0.6,1.3,0,1.9c-0.6,0.6-1.3,0.6-1.9,0l-6.6-7.3l-7.3,7.3c-0.6,0.6-1.3,0.6-1.9,0c-0.6-0.6-0.6-1.3,0-1.9l7.4-7.4
			l-6.6-7.3c-0.6-0.6-0.6-1.3,0-1.9s1.3-0.6,1.9,0l6.6,7.3l7.3-7.3c0.6-0.6,1.3-0.6,1.9,0C1264.4,89.2,1264.4,90.1,1263.8,90.5z"/>
	</g>
</g>
<ellipse fill="#383F46" cx="286.7" cy="-114" rx="23.5" ry="32"/>
<ellipse fill="#546470" cx="333.7" cy="-114" rx="23.5" ry="32"/>
</svg>
