<?xml version="1.0" encoding="utf-8"?>
<!-- Generator: Adobe Illustrator 18.0.0, SVG Export Plug-In . SVG Version: 6.00 Build 0)  -->
<!DOCTYPE svg PUBLIC "-//W3C//DTD SVG 1.1//EN" "http://www.w3.org/Graphics/SVG/1.1/DTD/svg11.dtd">
<svg version="1.1" id="Layer_1" xmlns="http://www.w3.org/2000/svg" xmlns:xlink="http://www.w3.org/1999/xlink" x="0px" y="0px"
	 viewBox="0 0 300 172.7" enable-background="new 0 0 300 172.7" xml:space="preserve">
<g>
	<g>
		<path fill="#B3B3B3" d="M-442,171.7h-252.7V1.6H-442V171.7z M-689.9,166.9h243V6.4h-243V166.9z"/>
		<rect x="-692.3" y="33.1" fill="#B3B3B3" width="247.9" height="4.8"/>
		<rect x="-677.4" y="17.3" fill="#B3B3B3" width="15.7" height="4.8"/>
		<rect x="-645.9" y="17.3" fill="#B3B3B3" width="15.7" height="4.8"/>
		<rect x="-614.4" y="17.3" fill="#B3B3B3" width="15.7" height="4.8"/>
	</g>
	<path fill="#B3B3B3" d="M-457.8,75.5h-149.4V59.2h149.4V75.5z M-602.4,70.7h139.8V64h-139.8V70.7z"/>
	<path fill="#B3B3B3" d="M-457.8,110.8h-149.4V94.5h149.4V110.8z M-602.4,105.9h139.8v-6.6h-139.8V105.9z"/>
	<path fill="#B3B3B3" d="M-457.8,149.2h-149.4V133h149.4V149.2z M-602.4,144.4h139.8v-6.6h-139.8V144.4z"/>
	<g>
		<g>
			<path fill="#B3B3B3" d="M-658.2,55.6c-6.5,0-11.8,5.3-11.8,11.8s5.3,11.8,11.8,11.8c6.5,0,11.8-5.3,11.8-11.8
				S-651.7,55.6-658.2,55.6z"/>
		</g>
	</g>
	<g>
		<g>
			<path fill="#B3B3B3" d="M-658.2,81.5c-7.8,0-14.2-6.4-14.2-14.2s6.4-14.2,14.2-14.2c7.8,0,14.2,6.4,14.2,14.2
				S-650.3,81.5-658.2,81.5z M-658.2,58c-5.2,0-9.4,4.2-9.4,9.4c0,5.2,4.2,9.4,9.4,9.4c5.2,0,9.4-4.2,9.4-9.4
				C-648.8,62.2-653,58-658.2,58z"/>
		</g>
	</g>
	<g>
		<g>
			<path fill="#B3B3B3" d="M-658.2,116.8c-7.8,0-14.2-6.4-14.2-14.2s6.4-14.2,14.2-14.2c7.8,0,14.2,6.4,14.2,14.2
				S-650.3,116.8-658.2,116.8z M-658.2,93.3c-5.2,0-9.4,4.2-9.4,9.4s4.2,9.4,9.4,9.4c5.2,0,9.4-4.2,9.4-9.4S-653,93.3-658.2,93.3z"
				/>
		</g>
	</g>
	<g>
		<g>
			<path fill="#B3B3B3" d="M-658.2,155.3c-7.8,0-14.2-6.4-14.2-14.2c0-7.8,6.4-14.2,14.2-14.2c7.8,0,14.2,6.4,14.2,14.2
				C-644,148.9-650.3,155.3-658.2,155.3z M-658.2,131.7c-5.2,0-9.4,4.2-9.4,9.4c0,5.2,4.2,9.4,9.4,9.4c5.2,0,9.4-4.2,9.4-9.4
				C-648.8,135.9-653,131.7-658.2,131.7z"/>
		</g>
	</g>
</g>
<g>
	<g>
		<g>
			<path fill="#B3B3B3" d="M278.4,171.7H25.7V1.6h252.7V171.7z M30.5,166.9h243V6.4h-243V166.9z"/>
			<rect x="28.1" y="33.1" fill="#B3B3B3" width="247.9" height="4.8"/>
			<rect x="43" y="17.3" fill="#B3B3B3" width="15.7" height="4.8"/>
			<rect x="74.5" y="17.3" fill="#B3B3B3" width="15.7" height="4.8"/>
			<rect x="105.9" y="17.3" fill="#B3B3B3" width="15.7" height="4.8"/>
		</g>
	</g>
	<g>
		<path fill="#B3B3B3" d="M72.5,146.9H58.9c-1.2,0-2.2-1.2-2.2-2.7v-20.2c0-1.5,1-2.7,2.2-2.7h13.6c1.2,0,2.2,1.2,2.2,2.7v20.2
			C74.7,145.7,73.7,146.9,72.5,146.9z M61.1,141.6h9.3v-14.8h-9.3V141.6z"/>
		<path fill="#B3B3B3" d="M99.8,146.9H86.1c-1.2,0-2.2-1.2-2.2-2.7v-38.6c0-1.5,1-2.7,2.2-2.7h13.6c1.2,0,2.2,1.2,2.2,2.7v38.6
			C102,145.7,101,146.9,99.8,146.9z M88.3,141.6h9.3v-33.3h-9.3V141.6z"/>
		<path fill="#B3B3B3" d="M127.1,146.9h-13.6c-1.2,0-2.2-1.2-2.2-2.7v-57c0-1.5,1-2.7,2.2-2.7h13.6c1.2,0,2.2,1.2,2.2,2.7v57
			C129.2,145.7,128.3,146.9,127.1,146.9z M115.6,141.6h9.3V90h-9.3V141.6z"/>
		<path fill="#B3B3B3" d="M154.3,146.9h-13.6c-1.2,0-2.2-1.2-2.2-2.7V61.5c0-1.5,1-2.7,2.2-2.7h13.6c1.2,0,2.2,1.2,2.2,2.7v82.8
			C156.5,145.7,155.5,146.9,154.3,146.9z M142.9,141.6h9.3V64.1h-9.3V141.6z"/>
	</g>
	<g>
		<path fill="#FFFFFF" d="M167.7,106c0.3,23.6,19.6,42.5,43.2,42.2s42.5-19.6,42.2-43.2s-19.6-42.5-43.2-42.2S167.5,82.5,167.7,106z
			"/>
	</g>
	<g>
		<path fill="#B3B3B3" d="M170.4,106c0.2,22.1,18.3,39.8,40.4,39.5s39.8-18.3,39.5-40.4S232,65.3,210,65.6S170.2,83.9,170.4,106z
			 M210.1,81.6C210.2,81.6,210.2,81.6,210.1,81.6c0.4,0,0.7,0.1,1,0.2c0.3,0.1,0.6,0.3,0.9,0.6l16.2,15.8c1.1,1,1.1,2.7,0,3.8
			c-1,1.1-2.7,1.1-3.8,0l-11.6-11.3l0.5,41.5c0,1.5-1.2,2.7-2.6,2.7c-1.5,0-2.7-1.2-2.7-2.6l-0.5-41.5l-11.3,11.6
			c-1,1.1-2.7,1.1-3.8,0s-1.1-2.7,0-3.8l15.8-16.2c0.2-0.2,0.5-0.4,0.9-0.6C209.5,81.6,209.8,81.6,210.1,81.6L210.1,81.6z"/>
	</g>
	<g>
		<g>
			<path fill="#B3B3B3" d="M74.4,60.1c-11,0-20,8.9-20,20s8.9,20,20,20s20-8.9,20-20S85.4,60.1,74.4,60.1z M74.4,97.3
				c-9.5,0-17.3-7.8-17.3-17.3s7.8-17.3,17.3-17.3S91.7,70.5,91.7,80S84,97.3,74.4,97.3z M76.7,70.7c2.4,0,4.4,1.8,4.4,4
				c0,0.7,0.6,1.3,1.3,1.3s1.3-0.6,1.3-1.3c0-3.7-3.2-6.7-7-6.7h-1v-1.3c0-0.7-0.6-1.3-1.3-1.3s-1.3,0.6-1.3,1.3v1.3h-1
				c-3.9,0-7,3-7,6.7c0,3.7,3.2,6.7,7,6.7h1v8h-1c-2.4,0-4.4-1.8-4.4-4c0-0.7-0.6-1.3-1.3-1.3s-1.3,0.6-1.3,1.3c0,3.7,3.2,6.7,7,6.7
				h1v1.3c0,0.7,0.6,1.3,1.3,1.3s1.3-0.6,1.3-1.3V92h1c3.9,0,7-3,7-6.7c0-3.7-3.2-6.7-7-6.7h-1v-8H76.7z M76.7,81.4
				c2.4,0,4.4,1.8,4.4,4c0,2.2-2,4-4.4,4h-1v-8H76.7z M73.1,78.7h-1c-2.4,0-4.4-1.8-4.4-4s2-4,4.4-4h1V78.7z"/>
		</g>
	</g>
</g>
<g>
	<g>
		<g>
			<path fill="#B3B3B3" d="M846.5,93.6h-4.5c0.8,1.7,1.8,3.3,2.9,4.8h5C848.5,96.9,847.4,95.3,846.5,93.6z M869.7,96.2
				c0-1-0.3-1.9-1-2.6h-6.1c-0.6,0.7-1,1.6-1,2.6c0,0.7,0.2,1.4,0.5,1.9c-0.1,0.1-0.2,0.2-0.2,0.3h7.5c-0.1-0.1-0.2-0.2-0.3-0.3
				C869.5,97.5,869.7,96.9,869.7,96.2z M884.9,93.6c-1,1.7-2.1,3.3-3.4,4.8h5c1.1-1.5,2.1-3.2,2.9-4.8H884.9z M898,93.6h-4.1
				c-0.6,1.6-1.4,3.3-2.3,4.8h6.5v7.9l-0.1-0.2l-33.8,23.3l-33.9-23v-7.9h9.6c-0.9-1.6-1.7-3.2-2.3-4.8h-7.3c-2.7,0-4.8,2.2-4.8,4.8
				v48.5c0,2.7,2.2,4.8,4.8,4.8H898c2.7,0,4.8-2.2,4.8-4.8V98.4C902.9,95.8,900.7,93.6,898,93.6z M830.2,112.2l18.6,12.6l-18.6,18.6
				V112.2z M833.6,146.9l19.2-19.2l11.3,7.6l11.2-7.7l19.3,19.3H833.6z M898,143.5l-18.7-18.7l18.7-12.8V143.5z"/>
		</g>
	</g>
	<g>
		<path fill="#FFFFFF" d="M869.2,98.1c-0.8-1-2.1-1.6-3.5-1.6c-1.4,0-2.7,0.6-3.5,1.6c-0.1,0.1-0.2,0.2-0.2,0.3h0.4
			c0.7,1.1,1.9,1.8,3.3,1.8c1.4,0,2.6-0.7,3.3-1.8h0.4C869.4,98.3,869.3,98.2,869.2,98.1z M865.7,64.3c-1.8,0-3.3,1-4,2.3v17.5
			c0,2.2,1.8,4,4,4s4-1.8,4-4V66.6C869,65.2,867.5,64.3,865.7,64.3z M865.7,92.1c-0.4,0-0.8,0.1-1.1,0.2c0.3,0.1,0.7,0.2,1.1,0.2
			c0.4,0,0.8,0,1.1-0.2C866.4,92.2,866.1,92.1,865.7,92.1z M865.7,59.9c-2.2,0-4,1.8-4,4v20.2c0,2.2,1.8,4,4,4s4-1.8,4-4V63.9
			C869.7,61.7,867.9,59.9,865.7,59.9z M869.7,96.2c0-1-0.3-1.9-1-2.6c-0.5-0.6-1.2-1-1.9-1.3c-0.3-0.1-0.7-0.2-1.1-0.2
			c-0.4,0-0.8,0.1-1.1,0.2c-0.8,0.2-1.5,0.7-1.9,1.3c-0.6,0.7-1,1.6-1,2.6c0,0.7,0.2,1.4,0.5,1.9c-0.1,0.1-0.2,0.2-0.2,0.3h0.4
			c0.7,1.1,1.9,1.8,3.3,1.8c1.4,0,2.6-0.7,3.3-1.8h0.4c-0.1-0.1-0.2-0.2-0.3-0.3C869.5,97.5,869.7,96.9,869.7,96.2z M894,68.6
			c-0.5-0.2-1.1-0.3-1.7-0.3c-0.5,0-3.4-0.5-4.2-5.1c-0.2-0.8-0.2-1.8-0.2-2.9c0-1.1-0.5-2.1-1.3-2.9c-0.2-0.1-0.4-0.3-0.7-0.6
			c-1.4-1-4.6-2.8-10.3-3.8c4.6,1.2,6.3,2.9,6.3,2.9c0,12.1,8.1,12.1,8.1,12.1s1.7,13.8-5,25.6c-1,1.7-2.1,3.3-3.4,4.8
			c-3.6,4.2-8.7,7.8-15.8,9.9c-7.1-2.1-12.2-5.6-15.8-9.9c-1.3-1.5-2.4-3.2-3.4-4.8c-6.7-11.8-5-25.6-5-25.6s8.1,0,8.1-12.1
			c0,0,1.7-1.7,6.3-2.9c-5.8,1-9,2.8-10.4,3.9c-0.3,0.2-0.6,0.4-0.7,0.6c-0.9,0.8-1.3,1.8-1.3,2.9c0,1.1-0.1,2.1-0.2,2.9
			c-0.8,4.7-3.7,5.1-4.3,5.2c-0.5,0-1,0.1-1.5,0.2c-0.6,6.6,0.2,16.3,4.6,25c0.8,1.7,1.8,3.3,2.9,4.8c4.2,6,10.5,11.1,19.7,13.7
			c0.3,0.1,0.7,0.2,1.1,0.2c0.4,0,0.8,0,1.1-0.2c9.2-2.6,15.5-7.7,19.7-13.7c1.1-1.5,2.1-3.2,2.9-4.8
			C893.8,84.9,894.6,75.2,894,68.6z"/>
	</g>
	<g>
		<path fill="#B3B3B3" d="M868.7,93.6c-0.5-0.6-1.2-1-1.9-1.3c-0.3-0.1-0.7-0.2-1.1-0.2c-0.4,0-0.8,0.1-1.1,0.2
			c-0.8,0.2-1.5,0.7-1.9,1.3c-0.6,0.7-1,1.6-1,2.6c0,0.7,0.2,1.4,0.5,1.9c0,0.1,0.1,0.2,0.2,0.3c0.7,1.1,1.9,1.8,3.3,1.8
			c1.4,0,2.6-0.7,3.3-1.8c0.1-0.1,0.2-0.2,0.2-0.3c0.3-0.6,0.5-1.2,0.5-1.9C869.7,95.2,869.4,94.3,868.7,93.6z M865.7,59.9
			c-2.2,0-4,1.8-4,4v20.2c0,2.2,1.8,4,4,4s4-1.8,4-4V63.9C869.7,61.7,867.9,59.9,865.7,59.9z M865.7,59.9c-2.2,0-4,1.8-4,4v20.2
			c0,2.2,1.8,4,4,4s4-1.8,4-4V63.9C869.7,61.7,867.9,59.9,865.7,59.9z M868.7,93.6c-0.5-0.6-1.2-1-1.9-1.3c-0.3-0.1-0.7-0.2-1.1-0.2
			c-0.4,0-0.8,0.1-1.1,0.2c-0.8,0.2-1.5,0.7-1.9,1.3c-0.6,0.7-1,1.6-1,2.6c0,0.7,0.2,1.4,0.5,1.9c0,0.1,0.1,0.2,0.2,0.3
			c0.7,1.1,1.9,1.8,3.3,1.8c1.4,0,2.6-0.7,3.3-1.8c0.1-0.1,0.2-0.2,0.2-0.3c0.3-0.6,0.5-1.2,0.5-1.9
			C869.7,95.2,869.4,94.3,868.7,93.6z M868.7,93.6c-0.5-0.6-1.2-1-1.9-1.3c-0.3-0.1-0.7-0.2-1.1-0.2c-0.4,0-0.8,0.1-1.1,0.2
			c-0.8,0.2-1.5,0.7-1.9,1.3c-0.6,0.7-1,1.6-1,2.6c0,0.7,0.2,1.4,0.5,1.9c0,0.1,0.1,0.2,0.2,0.3c0.7,1.1,1.9,1.8,3.3,1.8
			c1.4,0,2.6-0.7,3.3-1.8c0.1-0.1,0.2-0.2,0.2-0.3c0.3-0.6,0.5-1.2,0.5-1.9C869.7,95.2,869.4,94.3,868.7,93.6z M865.7,59.9
			c-2.2,0-4,1.8-4,4v20.2c0,2.2,1.8,4,4,4s4-1.8,4-4V63.9C869.7,61.7,867.9,59.9,865.7,59.9z M865.7,59.9c-2.2,0-4,1.8-4,4v20.2
			c0,2.2,1.8,4,4,4s4-1.8,4-4V63.9C869.7,61.7,867.9,59.9,865.7,59.9z M868.7,93.6c-0.5-0.6-1.2-1-1.9-1.3c-0.3-0.1-0.7-0.2-1.1-0.2
			c-0.4,0-0.8,0.1-1.1,0.2c-0.8,0.2-1.5,0.7-1.9,1.3c-0.6,0.7-1,1.6-1,2.6c0,0.7,0.2,1.4,0.5,1.9c0,0.1,0.1,0.2,0.2,0.3
			c0.7,1.1,1.9,1.8,3.3,1.8c1.4,0,2.6-0.7,3.3-1.8c0.1-0.1,0.2-0.2,0.2-0.3c0.3-0.6,0.5-1.2,0.5-1.9
			C869.7,95.2,869.4,94.3,868.7,93.6z M868.7,93.6c-0.5-0.6-1.2-1-1.9-1.3c-0.3-0.1-0.7-0.2-1.1-0.2c-0.4,0-0.8,0.1-1.1,0.2
			c-0.8,0.2-1.5,0.7-1.9,1.3c-0.6,0.7-1,1.6-1,2.6c0,0.7,0.2,1.4,0.5,1.9c0,0.1,0.1,0.2,0.2,0.3c0.7,1.1,1.9,1.8,3.3,1.8
			c1.4,0,2.6-0.7,3.3-1.8c0.1-0.1,0.2-0.2,0.2-0.3c0.3-0.6,0.5-1.2,0.5-1.9C869.7,95.2,869.4,94.3,868.7,93.6z M865.7,59.9
			c-2.2,0-4,1.8-4,4v20.2c0,2.2,1.8,4,4,4s4-1.8,4-4V63.9C869.7,61.7,867.9,59.9,865.7,59.9z M865.7,59.9c-2.2,0-4,1.8-4,4v20.2
			c0,2.2,1.8,4,4,4s4-1.8,4-4V63.9C869.7,61.7,867.9,59.9,865.7,59.9z M868.7,93.6c-0.5-0.6-1.2-1-1.9-1.3c-0.3-0.1-0.7-0.2-1.1-0.2
			c-0.4,0-0.8,0.1-1.1,0.2c-0.8,0.2-1.5,0.7-1.9,1.3c-0.6,0.7-1,1.6-1,2.6c0,0.7,0.2,1.4,0.5,1.9c0,0.1,0.1,0.2,0.2,0.3
			c0.7,1.1,1.9,1.8,3.3,1.8c1.4,0,2.6-0.7,3.3-1.8c0.1-0.1,0.2-0.2,0.2-0.3c0.3-0.6,0.5-1.2,0.5-1.9
			C869.7,95.2,869.4,94.3,868.7,93.6z M868.7,93.6c-0.5-0.6-1.2-1-1.9-1.3c-0.3-0.1-0.7-0.2-1.1-0.2c-0.4,0-0.8,0.1-1.1,0.2
			c-0.8,0.2-1.5,0.7-1.9,1.3c-0.6,0.7-1,1.6-1,2.6c0,0.7,0.2,1.4,0.5,1.9c0,0.1,0.1,0.2,0.2,0.3c0.7,1.1,1.9,1.8,3.3,1.8
			c1.4,0,2.6-0.7,3.3-1.8c0.1-0.1,0.2-0.2,0.2-0.3c0.3-0.6,0.5-1.2,0.5-1.9C869.7,95.2,869.4,94.3,868.7,93.6z M865.7,59.9
			c-2.2,0-4,1.8-4,4v20.2c0,2.2,1.8,4,4,4s4-1.8,4-4V63.9C869.7,61.7,867.9,59.9,865.7,59.9z M865.7,59.9c-2.2,0-4,1.8-4,4v20.2
			c0,2.2,1.8,4,4,4s4-1.8,4-4V63.9C869.7,61.7,867.9,59.9,865.7,59.9z M868.7,93.6c-0.5-0.6-1.2-1-1.9-1.3c-0.3-0.1-0.7-0.2-1.1-0.2
			c-0.4,0-0.8,0.1-1.1,0.2c-0.8,0.2-1.5,0.7-1.9,1.3c-0.6,0.7-1,1.6-1,2.6c0,0.7,0.2,1.4,0.5,1.9c0,0.1,0.1,0.2,0.2,0.3
			c0.7,1.1,1.9,1.8,3.3,1.8c1.4,0,2.6-0.7,3.3-1.8c0.1-0.1,0.2-0.2,0.2-0.3c0.3-0.6,0.5-1.2,0.5-1.9
			C869.7,95.2,869.4,94.3,868.7,93.6z M868.7,93.6c-0.5-0.6-1.2-1-1.9-1.3c-0.3-0.1-0.7-0.2-1.1-0.2c-0.4,0-0.8,0.1-1.1,0.2
			c-0.8,0.2-1.5,0.7-1.9,1.3c-0.6,0.7-1,1.6-1,2.6c0,0.7,0.2,1.4,0.5,1.9c0,0.1,0.1,0.2,0.2,0.3c0.7,1.1,1.9,1.8,3.3,1.8
			c1.4,0,2.6-0.7,3.3-1.8c0.1-0.1,0.2-0.2,0.2-0.3c0.3-0.6,0.5-1.2,0.5-1.9C869.7,95.2,869.4,94.3,868.7,93.6z M865.7,59.9
			c-2.2,0-4,1.8-4,4v20.2c0,2.2,1.8,4,4,4s4-1.8,4-4V63.9C869.7,61.7,867.9,59.9,865.7,59.9z M865.7,59.9c-2.2,0-4,1.8-4,4v20.2
			c0,2.2,1.8,4,4,4s4-1.8,4-4V63.9C869.7,61.7,867.9,59.9,865.7,59.9z M866.8,92.3c-0.3-0.1-0.7-0.2-1.1-0.2c-0.4,0-0.8,0.1-1.1,0.2
			c-0.8,0.2-1.5,0.7-1.9,1.3c-0.6,0.7-1,1.6-1,2.6c0,0.7,0.2,1.4,0.5,1.9c0,0.1,0.1,0.2,0.2,0.3c0.7,1.1,1.9,1.8,3.3,1.8
			c1.4,0,2.6-0.7,3.3-1.8c0.1-0.1,0.2-0.2,0.2-0.3c0.3-0.6,0.5-1.2,0.5-1.9c0-1-0.3-1.9-1-2.6C868.2,93,867.6,92.5,866.8,92.3z
			 M894,68.6c0-0.4-0.1-0.7-0.1-1.1c-0.3-2-2-3.5-4-3.5c-0.2,0-1-0.1-1.7-0.8c-1-0.9-2.1-2.6-2.3-6.4c0-0.3,0-0.6,0-0.9
			c0-1.1-0.4-2.1-1.2-2.9c-0.9-0.9-5.9-5.2-19-5.2c-13.1,0-18.1,4.3-19,5.2c-0.7,0.8-1.2,1.8-1.2,2.9c0,0.3,0,0.6,0,0.9
			c-0.2,3.7-1.2,5.5-2.3,6.3c-0.8,0.7-1.6,0.8-1.9,0.8c-2,0-3.6,1.5-3.9,3.5c0,0.3-0.1,0.7-0.1,1.1c-0.6,6.6,0.2,16.3,4.6,25
			c0.8,1.7,1.8,3.3,2.9,4.8c4.2,6,10.5,11.1,19.7,13.7c0.3,0.1,0.7,0.2,1.1,0.2c0.4,0,0.8,0,1.1-0.2c9.2-2.6,15.5-7.7,19.7-13.7
			c1.1-1.5,2.1-3.2,2.9-4.8C893.8,84.9,894.6,75.2,894,68.6z M884.9,93.6c-1,1.7-2.1,3.3-3.4,4.8c-3.6,4.2-8.7,7.8-15.8,9.9
			c-7.1-2.1-12.2-5.6-15.8-9.9c-1.3-1.5-2.4-3.2-3.4-4.8c-6.7-11.8-5-25.6-5-25.6s8.1,0,8.1-12.1c0,0,1.7-1.7,6.3-2.9h0
			c2.4-0.6,5.6-1.1,9.8-1.1c4.2,0,7.4,0.5,9.8,1.1c0,0,0,0,0,0c4.6,1.2,6.3,2.9,6.3,2.9c0,12.1,8.1,12.1,8.1,12.1
			S891.6,81.8,884.9,93.6z M865.7,59.9c-2.2,0-4,1.8-4,4v20.2c0,2.2,1.8,4,4,4s4-1.8,4-4V63.9C869.7,61.7,867.9,59.9,865.7,59.9z
			 M866.8,92.3c-0.3-0.1-0.7-0.2-1.1-0.2c-0.4,0-0.8,0.1-1.1,0.2c-0.8,0.2-1.5,0.7-1.9,1.3c-0.6,0.7-1,1.6-1,2.6
			c0,0.7,0.2,1.4,0.5,1.9c0,0.1,0.1,0.2,0.2,0.3c0.7,1.1,1.9,1.8,3.3,1.8c1.4,0,2.6-0.7,3.3-1.8c0.1-0.1,0.2-0.2,0.2-0.3
			c0.3-0.6,0.5-1.2,0.5-1.9c0-1-0.3-1.9-1-2.6C868.2,93,867.6,92.5,866.8,92.3z M868.7,93.6c-0.5-0.6-1.2-1-1.9-1.3
			c-0.3-0.1-0.7-0.2-1.1-0.2c-0.4,0-0.8,0.1-1.1,0.2c-0.8,0.2-1.5,0.7-1.9,1.3c-0.6,0.7-1,1.6-1,2.6c0,0.7,0.2,1.4,0.5,1.9
			c0,0.1,0.1,0.2,0.2,0.3c0.7,1.1,1.9,1.8,3.3,1.8c1.4,0,2.6-0.7,3.3-1.8c0.1-0.1,0.2-0.2,0.2-0.3c0.3-0.6,0.5-1.2,0.5-1.9
			C869.7,95.2,869.4,94.3,868.7,93.6z M865.7,59.9c-2.2,0-4,1.8-4,4v20.2c0,2.2,1.8,4,4,4s4-1.8,4-4V63.9
			C869.7,61.7,867.9,59.9,865.7,59.9z M865.7,59.9c-2.2,0-4,1.8-4,4v20.2c0,2.2,1.8,4,4,4s4-1.8,4-4V63.9
			C869.7,61.7,867.9,59.9,865.7,59.9z M868.7,93.6c-0.5-0.6-1.2-1-1.9-1.3c-0.3-0.1-0.7-0.2-1.1-0.2c-0.4,0-0.8,0.1-1.1,0.2
			c-0.8,0.2-1.5,0.7-1.9,1.3c-0.6,0.7-1,1.6-1,2.6c0,0.7,0.2,1.4,0.5,1.9c0,0.1,0.1,0.2,0.2,0.3c0.7,1.1,1.9,1.8,3.3,1.8
			c1.4,0,2.6-0.7,3.3-1.8c0.1-0.1,0.2-0.2,0.2-0.3c0.3-0.6,0.5-1.2,0.5-1.9C869.7,95.2,869.4,94.3,868.7,93.6z M868.7,93.6
			c-0.5-0.6-1.2-1-1.9-1.3c-0.3-0.1-0.7-0.2-1.1-0.2c-0.4,0-0.8,0.1-1.1,0.2c-0.8,0.2-1.5,0.7-1.9,1.3c-0.6,0.7-1,1.6-1,2.6
			c0,0.7,0.2,1.4,0.5,1.9c0,0.1,0.1,0.2,0.2,0.3c0.7,1.1,1.9,1.8,3.3,1.8c1.4,0,2.6-0.7,3.3-1.8c0.1-0.1,0.2-0.2,0.2-0.3
			c0.3-0.6,0.5-1.2,0.5-1.9C869.7,95.2,869.4,94.3,868.7,93.6z M865.7,59.9c-2.2,0-4,1.8-4,4v20.2c0,2.2,1.8,4,4,4s4-1.8,4-4V63.9
			C869.7,61.7,867.9,59.9,865.7,59.9z M865.7,59.9c-2.2,0-4,1.8-4,4v20.2c0,2.2,1.8,4,4,4s4-1.8,4-4V63.9
			C869.7,61.7,867.9,59.9,865.7,59.9z M868.7,93.6c-0.5-0.6-1.2-1-1.9-1.3c-0.3-0.1-0.7-0.2-1.1-0.2c-0.4,0-0.8,0.1-1.1,0.2
			c-0.8,0.2-1.5,0.7-1.9,1.3c-0.6,0.7-1,1.6-1,2.6c0,0.7,0.2,1.4,0.5,1.9c0,0.1,0.1,0.2,0.2,0.3c0.7,1.1,1.9,1.8,3.3,1.8
			c1.4,0,2.6-0.7,3.3-1.8c0.1-0.1,0.2-0.2,0.2-0.3c0.3-0.6,0.5-1.2,0.5-1.9C869.7,95.2,869.4,94.3,868.7,93.6z M868.7,93.6
			c-0.5-0.6-1.2-1-1.9-1.3c-0.3-0.1-0.7-0.2-1.1-0.2c-0.4,0-0.8,0.1-1.1,0.2c-0.8,0.2-1.5,0.7-1.9,1.3c-0.6,0.7-1,1.6-1,2.6
			c0,0.7,0.2,1.4,0.5,1.9c0,0.1,0.1,0.2,0.2,0.3c0.7,1.1,1.9,1.8,3.3,1.8c1.4,0,2.6-0.7,3.3-1.8c0.1-0.1,0.2-0.2,0.2-0.3
			c0.3-0.6,0.5-1.2,0.5-1.9C869.7,95.2,869.4,94.3,868.7,93.6z M865.7,59.9c-2.2,0-4,1.8-4,4v20.2c0,2.2,1.8,4,4,4s4-1.8,4-4V63.9
			C869.7,61.7,867.9,59.9,865.7,59.9z M865.7,59.9c-2.2,0-4,1.8-4,4v20.2c0,2.2,1.8,4,4,4s4-1.8,4-4V63.9
			C869.7,61.7,867.9,59.9,865.7,59.9z M868.7,93.6c-0.5-0.6-1.2-1-1.9-1.3c-0.3-0.1-0.7-0.2-1.1-0.2c-0.4,0-0.8,0.1-1.1,0.2
			c-0.8,0.2-1.5,0.7-1.9,1.3c-0.6,0.7-1,1.6-1,2.6c0,0.7,0.2,1.4,0.5,1.9c0,0.1,0.1,0.2,0.2,0.3c0.7,1.1,1.9,1.8,3.3,1.8
			c1.4,0,2.6-0.7,3.3-1.8c0.1-0.1,0.2-0.2,0.2-0.3c0.3-0.6,0.5-1.2,0.5-1.9C869.7,95.2,869.4,94.3,868.7,93.6z M868.7,93.6
			c-0.5-0.6-1.2-1-1.9-1.3c-0.3-0.1-0.7-0.2-1.1-0.2c-0.4,0-0.8,0.1-1.1,0.2c-0.8,0.2-1.5,0.7-1.9,1.3c-0.6,0.7-1,1.6-1,2.6
			c0,0.7,0.2,1.4,0.5,1.9c0,0.1,0.1,0.2,0.2,0.3c0.7,1.1,1.9,1.8,3.3,1.8c1.4,0,2.6-0.7,3.3-1.8c0.1-0.1,0.2-0.2,0.2-0.3
			c0.3-0.6,0.5-1.2,0.5-1.9C869.7,95.2,869.4,94.3,868.7,93.6z M865.7,59.9c-2.2,0-4,1.8-4,4v20.2c0,2.2,1.8,4,4,4s4-1.8,4-4V63.9
			C869.7,61.7,867.9,59.9,865.7,59.9z M865.7,59.9c-2.2,0-4,1.8-4,4v20.2c0,2.2,1.8,4,4,4s4-1.8,4-4V63.9
			C869.7,61.7,867.9,59.9,865.7,59.9z M868.7,93.6c-0.5-0.6-1.2-1-1.9-1.3c-0.3-0.1-0.7-0.2-1.1-0.2c-0.4,0-0.8,0.1-1.1,0.2
			c-0.8,0.2-1.5,0.7-1.9,1.3c-0.6,0.7-1,1.6-1,2.6c0,0.7,0.2,1.4,0.5,1.9c0,0.1,0.1,0.2,0.2,0.3c0.7,1.1,1.9,1.8,3.3,1.8
			c1.4,0,2.6-0.7,3.3-1.8c0.1-0.1,0.2-0.2,0.2-0.3c0.3-0.6,0.5-1.2,0.5-1.9C869.7,95.2,869.4,94.3,868.7,93.6z"/>
	</g>
	<g>
		<g>
			<path fill="#B3B3B3" d="M990.4,171.7H737.8V1.6h252.7V171.7z M742.6,166.9h243V6.4h-243V166.9z"/>
			<rect x="740.2" y="33.1" fill="#B3B3B3" width="247.9" height="4.8"/>
			<rect x="755.1" y="17.3" fill="#B3B3B3" width="15.7" height="4.8"/>
			<rect x="786.5" y="17.3" fill="#B3B3B3" width="15.7" height="4.8"/>
			<rect x="818" y="17.3" fill="#B3B3B3" width="15.7" height="4.8"/>
		</g>
	</g>
	<g>
		<g>
			<path fill="#B3B3B3" d="M944.3,96.8c-9.6,0-17.5,7.8-17.5,17.5s7.8,17.5,17.5,17.5s17.5-7.8,17.5-17.5S953.9,96.8,944.3,96.8z
				 M952.4,109.4l-8.4,12.8c0,0,0,0,0,0c0,0.1-0.1,0.1-0.1,0.2c-0.1,0.1-0.2,0.1-0.3,0.2c0,0,0,0-0.1,0c-0.1,0.1-0.3,0.1-0.4,0.2
				c-0.1,0-0.1,0-0.1,0c-0.1,0-0.2,0-0.4,0c-0.1,0-0.2,0-0.3,0c-0.1,0-0.2-0.1-0.3-0.1c-0.1,0-0.1,0-0.2-0.1c0,0-0.1-0.1-0.1-0.1
				c0,0,0,0-0.1,0l-4.9-4.5c-0.6-0.6-0.7-1.5-0.1-2.2c0.6-0.6,1.5-0.7,2.2-0.1l3.5,3.3l7.4-11.3c0.5-0.7,1.4-0.9,2.1-0.4
				C952.7,107.7,952.9,108.7,952.4,109.4z"/>
		</g>
	</g>
	<g>
		<g>
			<path fill="#B3B3B3" d="M782.2,96.1c-9.8,0-17.8,8-17.8,17.8s8,17.8,17.8,17.8s17.8-8,17.8-17.8S792,96.1,782.2,96.1z
				 M790.4,107.3l-6.6,6.6l5.9,6.5c0.5,0.5,0.5,1.2,0,1.7c-0.5,0.5-1.2,0.5-1.7,0l-5.9-6.5l-6.5,6.5c-0.5,0.5-1.2,0.5-1.7,0
				c-0.5-0.5-0.5-1.2,0-1.7l6.6-6.6l-5.9-6.5c-0.5-0.5-0.5-1.2,0-1.7s1.2-0.5,1.7,0l5.9,6.5l6.5-6.5c0.5-0.5,1.2-0.5,1.7,0
				S790.9,106.9,790.4,107.3z"/>
		</g>
	</g>
</g>
</svg>
