<?xml version="1.0" encoding="utf-8"?>
<!-- Generator: Adobe Illustrator 18.0.0, SVG Export Plug-In . SVG Version: 6.00 Build 0)  -->
<!DOCTYPE svg PUBLIC "-//W3C//DTD SVG 1.1//EN" "http://www.w3.org/Graphics/SVG/1.1/DTD/svg11.dtd">
<svg version="1.1" id="Layer_1" xmlns="http://www.w3.org/2000/svg" xmlns:xlink="http://www.w3.org/1999/xlink" x="0px" y="0px"
	 viewBox="0 0 300 172.7" enable-background="new 0 0 300 172.7" xml:space="preserve">
<g>
	<g>
		<path fill="#B3B3B3" d="M-1156.5,171.7h-252.7V1.6h252.7V171.7z M-1404.4,166.9h243V6.4h-243V166.9z"/>
		<rect x="-1406.8" y="33.1" fill="#B3B3B3" width="247.9" height="4.8"/>
		<rect x="-1391.9" y="17.3" fill="#B3B3B3" width="15.7" height="4.8"/>
		<rect x="-1360.4" y="17.3" fill="#B3B3B3" width="15.7" height="4.8"/>
		<rect x="-1328.9" y="17.3" fill="#B3B3B3" width="15.7" height="4.8"/>
	</g>
	<path fill="#B3B3B3" d="M-1172.3,75.5h-149.4V59.2h149.4V75.5z M-1316.9,70.7h139.8V64h-139.8V70.7z"/>
	<path fill="#B3B3B3" d="M-1172.3,110.8h-149.4V94.5h149.4V110.8z M-1316.9,105.9h139.8v-6.6h-139.8V105.9z"/>
	<path fill="#B3B3B3" d="M-1172.3,149.2h-149.4V133h149.4V149.2z M-1316.9,144.4h139.8v-6.6h-139.8V144.4z"/>
	<g>
		<g>
			<path fill="#B3B3B3" d="M-1372.6,55.6c-6.5,0-11.8,5.3-11.8,11.8s5.3,11.8,11.8,11.8s11.8-5.3,11.8-11.8
				S-1366.1,55.6-1372.6,55.6z"/>
		</g>
	</g>
	<g>
		<g>
			<path fill="#B3B3B3" d="M-1372.6,81.5c-7.8,0-14.2-6.4-14.2-14.2s6.4-14.2,14.2-14.2c7.8,0,14.2,6.4,14.2,14.2
				S-1364.8,81.5-1372.6,81.5z M-1372.6,58c-5.2,0-9.4,4.2-9.4,9.4c0,5.2,4.2,9.4,9.4,9.4c5.2,0,9.4-4.2,9.4-9.4
				C-1363.3,62.2-1367.5,58-1372.6,58z"/>
		</g>
	</g>
	<g>
		<g>
			<path fill="#B3B3B3" d="M-1372.6,116.8c-7.8,0-14.2-6.4-14.2-14.2s6.4-14.2,14.2-14.2c7.8,0,14.2,6.4,14.2,14.2
				S-1364.8,116.8-1372.6,116.8z M-1372.6,93.3c-5.2,0-9.4,4.2-9.4,9.4s4.2,9.4,9.4,9.4c5.2,0,9.4-4.2,9.4-9.4
				S-1367.5,93.3-1372.6,93.3z"/>
		</g>
	</g>
	<g>
		<g>
			<path fill="#B3B3B3" d="M-1372.6,155.3c-7.8,0-14.2-6.4-14.2-14.2c0-7.8,6.4-14.2,14.2-14.2c7.8,0,14.2,6.4,14.2,14.2
				C-1358.5,148.9-1364.8,155.3-1372.6,155.3z M-1372.6,131.7c-5.2,0-9.4,4.2-9.4,9.4c0,5.2,4.2,9.4,9.4,9.4c5.2,0,9.4-4.2,9.4-9.4
				C-1363.3,135.9-1367.5,131.7-1372.6,131.7z"/>
		</g>
	</g>
</g>
<g>
	<g>
		<g>
			<path fill="#B3B3B3" d="M-436.1,171.7h-252.7V1.6h252.7V171.7z M-684,166.9h243V6.4h-243V166.9z"/>
			<rect x="-686.4" y="33.1" fill="#B3B3B3" width="247.9" height="4.8"/>
			<rect x="-671.5" y="17.3" fill="#B3B3B3" width="15.7" height="4.8"/>
			<rect x="-640" y="17.3" fill="#B3B3B3" width="15.7" height="4.8"/>
			<rect x="-608.5" y="17.3" fill="#B3B3B3" width="15.7" height="4.8"/>
		</g>
	</g>
	<g>
		<path fill="#B3B3B3" d="M-642,146.9h-13.6c-1.2,0-2.2-1.2-2.2-2.7v-20.2c0-1.5,1-2.7,2.2-2.7h13.6c1.2,0,2.2,1.2,2.2,2.7v20.2
			C-639.8,145.7-640.8,146.9-642,146.9z M-653.4,141.6h9.3v-14.8h-9.3V141.6z"/>
		<path fill="#B3B3B3" d="M-614.7,146.9h-13.6c-1.2,0-2.2-1.2-2.2-2.7v-38.6c0-1.5,1-2.7,2.2-2.7h13.6c1.2,0,2.2,1.2,2.2,2.7v38.6
			C-612.5,145.7-613.5,146.9-614.7,146.9z M-626.2,141.6h9.3v-33.3h-9.3V141.6z"/>
		<path fill="#B3B3B3" d="M-587.4,146.9h-13.6c-1.2,0-2.2-1.2-2.2-2.7v-57c0-1.5,1-2.7,2.2-2.7h13.6c1.2,0,2.2,1.2,2.2,2.7v57
			C-585.3,145.7-586.2,146.9-587.4,146.9z M-598.9,141.6h9.3V90h-9.3V141.6z"/>
		<path fill="#B3B3B3" d="M-560.2,146.9h-13.6c-1.2,0-2.2-1.2-2.2-2.7V61.5c0-1.5,1-2.7,2.2-2.7h13.6c1.2,0,2.2,1.2,2.2,2.7v82.8
			C-558,145.7-559,146.9-560.2,146.9z M-571.6,141.6h9.3V64.1h-9.3V141.6z"/>
	</g>
	<g>
		<path fill="#FFFFFF" d="M-546.8,106c0.3,23.6,19.6,42.5,43.2,42.2s42.5-19.6,42.2-43.2s-19.6-42.5-43.2-42.2
			C-528.1,63.1-547,82.5-546.8,106z"/>
	</g>
	<g>
		<path fill="#B3B3B3" d="M-544,106c0.2,22.1,18.3,39.8,40.4,39.5s39.8-18.3,39.5-40.4s-18.3-39.8-40.4-39.5
			C-526.6,65.8-544.3,83.9-544,106z M-504.3,81.6C-504.3,81.6-504.3,81.6-504.3,81.6c0.4,0,0.7,0.1,1,0.2c0.3,0.1,0.6,0.3,0.9,0.6
			l16.2,15.8c1.1,1,1.1,2.7,0,3.8c-1,1.1-2.7,1.1-3.8,0l-11.6-11.3l0.5,41.5c0,1.5-1.2,2.7-2.6,2.7c-1.5,0-2.7-1.2-2.7-2.6
			l-0.5-41.5l-11.3,11.6c-1,1.1-2.7,1.1-3.8,0s-1.1-2.7,0-3.8l15.8-16.2c0.2-0.2,0.5-0.4,0.9-0.6C-505,81.6-504.7,81.6-504.3,81.6
			L-504.3,81.6z"/>
	</g>
	<g>
		<g>
			<path fill="#B3B3B3" d="M-640.1,60.1c-11,0-20,8.9-20,20s8.9,20,20,20c11,0,20-8.9,20-20S-629.1,60.1-640.1,60.1z M-640.1,97.3
				c-9.5,0-17.3-7.8-17.3-17.3s7.8-17.3,17.3-17.3c9.5,0,17.3,7.8,17.3,17.3S-630.5,97.3-640.1,97.3z M-637.8,70.7
				c2.4,0,4.4,1.8,4.4,4c0,0.7,0.6,1.3,1.3,1.3c0.7,0,1.3-0.6,1.3-1.3c0-3.7-3.2-6.7-7-6.7h-1v-1.3c0-0.7-0.6-1.3-1.3-1.3
				c-0.7,0-1.3,0.6-1.3,1.3v1.3h-1c-3.9,0-7,3-7,6.7c0,3.7,3.2,6.7,7,6.7h1v8h-1c-2.4,0-4.4-1.8-4.4-4c0-0.7-0.6-1.3-1.3-1.3
				c-0.7,0-1.3,0.6-1.3,1.3c0,3.7,3.2,6.7,7,6.7h1v1.3c0,0.7,0.6,1.3,1.3,1.3c0.7,0,1.3-0.6,1.3-1.3V92h1c3.9,0,7-3,7-6.7
				c0-3.7-3.2-6.7-7-6.7h-1v-8H-637.8z M-637.8,81.4c2.4,0,4.4,1.8,4.4,4c0,2.2-2,4-4.4,4h-1v-8H-637.8z M-641.4,78.7h-1
				c-2.4,0-4.4-1.8-4.4-4s2-4,4.4-4h1V78.7z"/>
		</g>
	</g>
</g>
<g>
	<g>
		<g>
			<path fill="#B3B3B3" d="M132,93.6h-4.5c0.8,1.7,1.8,3.3,2.9,4.8h5C134.1,96.9,132.9,95.3,132,93.6z M155.2,96.2
				c0-1-0.3-1.9-1-2.6h-6.1c-0.6,0.7-1,1.6-1,2.6c0,0.7,0.2,1.4,0.5,1.9c-0.1,0.1-0.2,0.2-0.2,0.3h7.5c-0.1-0.1-0.2-0.2-0.3-0.3
				C155,97.5,155.2,96.9,155.2,96.2z M170.4,93.6c-1,1.7-2.1,3.3-3.4,4.8h5c1.1-1.5,2.1-3.2,2.9-4.8H170.4z M183.5,93.6h-4.1
				c-0.6,1.6-1.4,3.3-2.3,4.8h6.5v7.9l-0.1-0.2l-33.8,23.3l-33.9-23v-7.9h9.6c-0.9-1.6-1.7-3.2-2.3-4.8h-7.3c-2.7,0-4.8,2.2-4.8,4.8
				v48.5c0,2.7,2.2,4.8,4.8,4.8h67.8c2.7,0,4.8-2.2,4.8-4.8V98.4C188.4,95.8,186.2,93.6,183.5,93.6z M115.7,112.2l18.6,12.6
				l-18.6,18.6V112.2z M119.1,146.9l19.2-19.2l11.3,7.6l11.2-7.7l19.3,19.3H119.1z M183.5,143.5l-18.7-18.7l18.7-12.8V143.5z"/>
		</g>
	</g>
	<g>
		<path fill="#FFFFFF" d="M154.7,98.1c-0.8-1-2.1-1.6-3.5-1.6c-1.4,0-2.7,0.6-3.5,1.6c-0.1,0.1-0.2,0.2-0.2,0.3h0.4
			c0.7,1.1,1.9,1.8,3.3,1.8c1.4,0,2.6-0.7,3.3-1.8h0.4C154.9,98.3,154.8,98.2,154.7,98.1z M151.2,64.3c-1.8,0-3.3,1-4,2.3v17.5
			c0,2.2,1.8,4,4,4s4-1.8,4-4V66.6C154.5,65.2,153,64.3,151.2,64.3z M151.2,92.1c-0.4,0-0.8,0.1-1.1,0.2c0.3,0.1,0.7,0.2,1.1,0.2
			c0.4,0,0.8,0,1.1-0.2C151.9,92.2,151.6,92.1,151.2,92.1z M151.2,59.9c-2.2,0-4,1.8-4,4v20.2c0,2.2,1.8,4,4,4s4-1.8,4-4V63.9
			C155.2,61.7,153.4,59.9,151.2,59.9z M155.2,96.2c0-1-0.3-1.9-1-2.6c-0.5-0.6-1.2-1-1.9-1.3c-0.3-0.1-0.7-0.2-1.1-0.2
			c-0.4,0-0.8,0.1-1.1,0.2c-0.8,0.2-1.5,0.7-1.9,1.3c-0.6,0.7-1,1.6-1,2.6c0,0.7,0.2,1.4,0.5,1.9c-0.1,0.1-0.2,0.2-0.2,0.3h0.4
			c0.7,1.1,1.9,1.8,3.3,1.8c1.4,0,2.6-0.7,3.3-1.8h0.4c-0.1-0.1-0.2-0.2-0.3-0.3C155,97.5,155.2,96.9,155.2,96.2z M179.5,68.6
			c-0.5-0.2-1.1-0.3-1.7-0.3c-0.5,0-3.4-0.5-4.2-5.1c-0.2-0.8-0.2-1.8-0.2-2.9c0-1.1-0.5-2.1-1.3-2.9c-0.2-0.1-0.4-0.3-0.7-0.6
			c-1.4-1-4.6-2.8-10.3-3.8c4.6,1.2,6.3,2.9,6.3,2.9c0,12.1,8.1,12.1,8.1,12.1s1.7,13.8-5,25.6c-1,1.7-2.1,3.3-3.4,4.8
			c-3.6,4.2-8.7,7.8-15.8,9.9c-7.1-2.1-12.2-5.6-15.8-9.9c-1.3-1.5-2.4-3.2-3.4-4.8c-6.7-11.8-5-25.6-5-25.6s8.1,0,8.1-12.1
			c0,0,1.7-1.7,6.3-2.9c-5.8,1-9,2.8-10.4,3.9c-0.3,0.2-0.6,0.4-0.7,0.6c-0.9,0.8-1.3,1.8-1.3,2.9c0,1.1-0.1,2.1-0.2,2.9
			c-0.8,4.7-3.7,5.1-4.3,5.2c-0.5,0-1,0.1-1.5,0.2c-0.6,6.6,0.2,16.3,4.6,25c0.8,1.7,1.8,3.3,2.9,4.8c4.2,6,10.5,11.1,19.7,13.7
			c0.3,0.1,0.7,0.2,1.1,0.2c0.4,0,0.8,0,1.1-0.2c9.2-2.6,15.5-7.7,19.7-13.7c1.1-1.5,2.1-3.2,2.9-4.8
			C179.3,84.9,180.1,75.2,179.5,68.6z"/>
	</g>
	<g>
		<path fill="#B3B3B3" d="M154.2,93.6c-0.5-0.6-1.2-1-1.9-1.3c-0.3-0.1-0.7-0.2-1.1-0.2c-0.4,0-0.8,0.1-1.1,0.2
			c-0.8,0.2-1.5,0.7-1.9,1.3c-0.6,0.7-1,1.6-1,2.6c0,0.7,0.2,1.4,0.5,1.9c0,0.1,0.1,0.2,0.2,0.3c0.7,1.1,1.9,1.8,3.3,1.8
			c1.4,0,2.6-0.7,3.3-1.8c0.1-0.1,0.2-0.2,0.2-0.3c0.3-0.6,0.5-1.2,0.5-1.9C155.2,95.2,154.9,94.3,154.2,93.6z M151.2,59.9
			c-2.2,0-4,1.8-4,4v20.2c0,2.2,1.8,4,4,4s4-1.8,4-4V63.9C155.2,61.7,153.4,59.9,151.2,59.9z M151.2,59.9c-2.2,0-4,1.8-4,4v20.2
			c0,2.2,1.8,4,4,4s4-1.8,4-4V63.9C155.2,61.7,153.4,59.9,151.2,59.9z M154.2,93.6c-0.5-0.6-1.2-1-1.9-1.3c-0.3-0.1-0.7-0.2-1.1-0.2
			c-0.4,0-0.8,0.1-1.1,0.2c-0.8,0.2-1.5,0.7-1.9,1.3c-0.6,0.7-1,1.6-1,2.6c0,0.7,0.2,1.4,0.5,1.9c0,0.1,0.1,0.2,0.2,0.3
			c0.7,1.1,1.9,1.8,3.3,1.8c1.4,0,2.6-0.7,3.3-1.8c0.1-0.1,0.2-0.2,0.2-0.3c0.3-0.6,0.5-1.2,0.5-1.9
			C155.2,95.2,154.9,94.3,154.2,93.6z M154.2,93.6c-0.5-0.6-1.2-1-1.9-1.3c-0.3-0.1-0.7-0.2-1.1-0.2c-0.4,0-0.8,0.1-1.1,0.2
			c-0.8,0.2-1.5,0.7-1.9,1.3c-0.6,0.7-1,1.6-1,2.6c0,0.7,0.2,1.4,0.5,1.9c0,0.1,0.1,0.2,0.2,0.3c0.7,1.1,1.9,1.8,3.3,1.8
			c1.4,0,2.6-0.7,3.3-1.8c0.1-0.1,0.2-0.2,0.2-0.3c0.3-0.6,0.5-1.2,0.5-1.9C155.2,95.2,154.9,94.3,154.2,93.6z M151.2,59.9
			c-2.2,0-4,1.8-4,4v20.2c0,2.2,1.8,4,4,4s4-1.8,4-4V63.9C155.2,61.7,153.4,59.9,151.2,59.9z M151.2,59.9c-2.2,0-4,1.8-4,4v20.2
			c0,2.2,1.8,4,4,4s4-1.8,4-4V63.9C155.2,61.7,153.4,59.9,151.2,59.9z M154.2,93.6c-0.5-0.6-1.2-1-1.9-1.3c-0.3-0.1-0.7-0.2-1.1-0.2
			c-0.4,0-0.8,0.1-1.1,0.2c-0.8,0.2-1.5,0.7-1.9,1.3c-0.6,0.7-1,1.6-1,2.6c0,0.7,0.2,1.4,0.5,1.9c0,0.1,0.1,0.2,0.2,0.3
			c0.7,1.1,1.9,1.8,3.3,1.8c1.4,0,2.6-0.7,3.3-1.8c0.1-0.1,0.2-0.2,0.2-0.3c0.3-0.6,0.5-1.2,0.5-1.9
			C155.2,95.2,154.9,94.3,154.2,93.6z M154.2,93.6c-0.5-0.6-1.2-1-1.9-1.3c-0.3-0.1-0.7-0.2-1.1-0.2c-0.4,0-0.8,0.1-1.1,0.2
			c-0.8,0.2-1.5,0.7-1.9,1.3c-0.6,0.7-1,1.6-1,2.6c0,0.7,0.2,1.4,0.5,1.9c0,0.1,0.1,0.2,0.2,0.3c0.7,1.1,1.9,1.8,3.3,1.8
			c1.4,0,2.6-0.7,3.3-1.8c0.1-0.1,0.2-0.2,0.2-0.3c0.3-0.6,0.5-1.2,0.5-1.9C155.2,95.2,154.9,94.3,154.2,93.6z M151.2,59.9
			c-2.2,0-4,1.8-4,4v20.2c0,2.2,1.8,4,4,4s4-1.8,4-4V63.9C155.2,61.7,153.4,59.9,151.2,59.9z M151.2,59.9c-2.2,0-4,1.8-4,4v20.2
			c0,2.2,1.8,4,4,4s4-1.8,4-4V63.9C155.2,61.7,153.4,59.9,151.2,59.9z M154.2,93.6c-0.5-0.6-1.2-1-1.9-1.3c-0.3-0.1-0.7-0.2-1.1-0.2
			c-0.4,0-0.8,0.1-1.1,0.2c-0.8,0.2-1.5,0.7-1.9,1.3c-0.6,0.7-1,1.6-1,2.6c0,0.7,0.2,1.4,0.5,1.9c0,0.1,0.1,0.2,0.2,0.3
			c0.7,1.1,1.9,1.8,3.3,1.8c1.4,0,2.6-0.7,3.3-1.8c0.1-0.1,0.2-0.2,0.2-0.3c0.3-0.6,0.5-1.2,0.5-1.9
			C155.2,95.2,154.9,94.3,154.2,93.6z M154.2,93.6c-0.5-0.6-1.2-1-1.9-1.3c-0.3-0.1-0.7-0.2-1.1-0.2c-0.4,0-0.8,0.1-1.1,0.2
			c-0.8,0.2-1.5,0.7-1.9,1.3c-0.6,0.7-1,1.6-1,2.6c0,0.7,0.2,1.4,0.5,1.9c0,0.1,0.1,0.2,0.2,0.3c0.7,1.1,1.9,1.8,3.3,1.8
			c1.4,0,2.6-0.7,3.3-1.8c0.1-0.1,0.2-0.2,0.2-0.3c0.3-0.6,0.5-1.2,0.5-1.9C155.2,95.2,154.9,94.3,154.2,93.6z M151.2,59.9
			c-2.2,0-4,1.8-4,4v20.2c0,2.2,1.8,4,4,4s4-1.8,4-4V63.9C155.2,61.7,153.4,59.9,151.2,59.9z M151.2,59.9c-2.2,0-4,1.8-4,4v20.2
			c0,2.2,1.8,4,4,4s4-1.8,4-4V63.9C155.2,61.7,153.4,59.9,151.2,59.9z M154.2,93.6c-0.5-0.6-1.2-1-1.9-1.3c-0.3-0.1-0.7-0.2-1.1-0.2
			c-0.4,0-0.8,0.1-1.1,0.2c-0.8,0.2-1.5,0.7-1.9,1.3c-0.6,0.7-1,1.6-1,2.6c0,0.7,0.2,1.4,0.5,1.9c0,0.1,0.1,0.2,0.2,0.3
			c0.7,1.1,1.9,1.8,3.3,1.8c1.4,0,2.6-0.7,3.3-1.8c0.1-0.1,0.2-0.2,0.2-0.3c0.3-0.6,0.5-1.2,0.5-1.9
			C155.2,95.2,154.9,94.3,154.2,93.6z M154.2,93.6c-0.5-0.6-1.2-1-1.9-1.3c-0.3-0.1-0.7-0.2-1.1-0.2c-0.4,0-0.8,0.1-1.1,0.2
			c-0.8,0.2-1.5,0.7-1.9,1.3c-0.6,0.7-1,1.6-1,2.6c0,0.7,0.2,1.4,0.5,1.9c0,0.1,0.1,0.2,0.2,0.3c0.7,1.1,1.9,1.8,3.3,1.8
			c1.4,0,2.6-0.7,3.3-1.8c0.1-0.1,0.2-0.2,0.2-0.3c0.3-0.6,0.5-1.2,0.5-1.9C155.2,95.2,154.9,94.3,154.2,93.6z M151.2,59.9
			c-2.2,0-4,1.8-4,4v20.2c0,2.2,1.8,4,4,4s4-1.8,4-4V63.9C155.2,61.7,153.4,59.9,151.2,59.9z M151.2,59.9c-2.2,0-4,1.8-4,4v20.2
			c0,2.2,1.8,4,4,4s4-1.8,4-4V63.9C155.2,61.7,153.4,59.9,151.2,59.9z M152.3,92.3c-0.3-0.1-0.7-0.2-1.1-0.2c-0.4,0-0.8,0.1-1.1,0.2
			c-0.8,0.2-1.5,0.7-1.9,1.3c-0.6,0.7-1,1.6-1,2.6c0,0.7,0.2,1.4,0.5,1.9c0,0.1,0.1,0.2,0.2,0.3c0.7,1.1,1.9,1.8,3.3,1.8
			c1.4,0,2.6-0.7,3.3-1.8c0.1-0.1,0.2-0.2,0.2-0.3c0.3-0.6,0.5-1.2,0.5-1.9c0-1-0.3-1.9-1-2.6C153.8,93,153.1,92.5,152.3,92.3z
			 M179.5,68.6c0-0.4-0.1-0.7-0.1-1.1c-0.3-2-2-3.5-4-3.5c-0.2,0-1-0.1-1.7-0.8c-1-0.9-2.1-2.6-2.3-6.4c0-0.3,0-0.6,0-0.9
			c0-1.1-0.4-2.1-1.2-2.9c-0.9-0.9-5.9-5.2-19-5.2c-13.1,0-18.1,4.3-19,5.2c-0.7,0.8-1.2,1.8-1.2,2.9c0,0.3,0,0.6,0,0.9
			c-0.2,3.7-1.2,5.5-2.3,6.3c-0.8,0.7-1.6,0.8-1.9,0.8c-2,0-3.6,1.5-3.9,3.5c0,0.3-0.1,0.7-0.1,1.1c-0.6,6.6,0.2,16.3,4.6,25
			c0.8,1.7,1.8,3.3,2.9,4.8c4.2,6,10.5,11.1,19.7,13.7c0.3,0.1,0.7,0.2,1.1,0.2c0.4,0,0.8,0,1.1-0.2c9.2-2.6,15.5-7.7,19.7-13.7
			c1.1-1.5,2.1-3.2,2.9-4.8C179.3,84.9,180.1,75.2,179.5,68.6z M170.4,93.6c-1,1.7-2.1,3.3-3.4,4.8c-3.6,4.2-8.7,7.8-15.8,9.9
			c-7.1-2.1-12.2-5.6-15.8-9.9c-1.3-1.5-2.4-3.2-3.4-4.8c-6.7-11.8-5-25.6-5-25.6s8.1,0,8.1-12.1c0,0,1.7-1.7,6.3-2.9h0
			c2.4-0.6,5.6-1.1,9.8-1.1c4.2,0,7.4,0.5,9.8,1.1c0,0,0,0,0,0c4.6,1.2,6.3,2.9,6.3,2.9c0,12.1,8.1,12.1,8.1,12.1
			S177.1,81.8,170.4,93.6z M151.2,59.9c-2.2,0-4,1.8-4,4v20.2c0,2.2,1.8,4,4,4s4-1.8,4-4V63.9C155.2,61.7,153.4,59.9,151.2,59.9z
			 M152.3,92.3c-0.3-0.1-0.7-0.2-1.1-0.2c-0.4,0-0.8,0.1-1.1,0.2c-0.8,0.2-1.5,0.7-1.9,1.3c-0.6,0.7-1,1.6-1,2.6
			c0,0.7,0.2,1.4,0.5,1.9c0,0.1,0.1,0.2,0.2,0.3c0.7,1.1,1.9,1.8,3.3,1.8c1.4,0,2.6-0.7,3.3-1.8c0.1-0.1,0.2-0.2,0.2-0.3
			c0.3-0.6,0.5-1.2,0.5-1.9c0-1-0.3-1.9-1-2.6C153.8,93,153.1,92.5,152.3,92.3z M154.2,93.6c-0.5-0.6-1.2-1-1.9-1.3
			c-0.3-0.1-0.7-0.2-1.1-0.2c-0.4,0-0.8,0.1-1.1,0.2c-0.8,0.2-1.5,0.7-1.9,1.3c-0.6,0.7-1,1.6-1,2.6c0,0.7,0.2,1.4,0.5,1.9
			c0,0.1,0.1,0.2,0.2,0.3c0.7,1.1,1.9,1.8,3.3,1.8c1.4,0,2.6-0.7,3.3-1.8c0.1-0.1,0.2-0.2,0.2-0.3c0.3-0.6,0.5-1.2,0.5-1.9
			C155.2,95.2,154.9,94.3,154.2,93.6z M151.2,59.9c-2.2,0-4,1.8-4,4v20.2c0,2.2,1.8,4,4,4s4-1.8,4-4V63.9
			C155.2,61.7,153.4,59.9,151.2,59.9z M151.2,59.9c-2.2,0-4,1.8-4,4v20.2c0,2.2,1.8,4,4,4s4-1.8,4-4V63.9
			C155.2,61.7,153.4,59.9,151.2,59.9z M154.2,93.6c-0.5-0.6-1.2-1-1.9-1.3c-0.3-0.1-0.7-0.2-1.1-0.2c-0.4,0-0.8,0.1-1.1,0.2
			c-0.8,0.2-1.5,0.7-1.9,1.3c-0.6,0.7-1,1.6-1,2.6c0,0.7,0.2,1.4,0.5,1.9c0,0.1,0.1,0.2,0.2,0.3c0.7,1.1,1.9,1.8,3.3,1.8
			c1.4,0,2.6-0.7,3.3-1.8c0.1-0.1,0.2-0.2,0.2-0.3c0.3-0.6,0.5-1.2,0.5-1.9C155.2,95.2,154.9,94.3,154.2,93.6z M154.2,93.6
			c-0.5-0.6-1.2-1-1.9-1.3c-0.3-0.1-0.7-0.2-1.1-0.2c-0.4,0-0.8,0.1-1.1,0.2c-0.8,0.2-1.5,0.7-1.9,1.3c-0.6,0.7-1,1.6-1,2.6
			c0,0.7,0.2,1.4,0.5,1.9c0,0.1,0.1,0.2,0.2,0.3c0.7,1.1,1.9,1.8,3.3,1.8c1.4,0,2.6-0.7,3.3-1.8c0.1-0.1,0.2-0.2,0.2-0.3
			c0.3-0.6,0.5-1.2,0.5-1.9C155.2,95.2,154.9,94.3,154.2,93.6z M151.2,59.9c-2.2,0-4,1.8-4,4v20.2c0,2.2,1.8,4,4,4s4-1.8,4-4V63.9
			C155.2,61.7,153.4,59.9,151.2,59.9z M151.2,59.9c-2.2,0-4,1.8-4,4v20.2c0,2.2,1.8,4,4,4s4-1.8,4-4V63.9
			C155.2,61.7,153.4,59.9,151.2,59.9z M154.2,93.6c-0.5-0.6-1.2-1-1.9-1.3c-0.3-0.1-0.7-0.2-1.1-0.2c-0.4,0-0.8,0.1-1.1,0.2
			c-0.8,0.2-1.5,0.7-1.9,1.3c-0.6,0.7-1,1.6-1,2.6c0,0.7,0.2,1.4,0.5,1.9c0,0.1,0.1,0.2,0.2,0.3c0.7,1.1,1.9,1.8,3.3,1.8
			c1.4,0,2.6-0.7,3.3-1.8c0.1-0.1,0.2-0.2,0.2-0.3c0.3-0.6,0.5-1.2,0.5-1.9C155.2,95.2,154.9,94.3,154.2,93.6z M154.2,93.6
			c-0.5-0.6-1.2-1-1.9-1.3c-0.3-0.1-0.7-0.2-1.1-0.2c-0.4,0-0.8,0.1-1.1,0.2c-0.8,0.2-1.5,0.7-1.9,1.3c-0.6,0.7-1,1.6-1,2.6
			c0,0.7,0.2,1.4,0.5,1.9c0,0.1,0.1,0.2,0.2,0.3c0.7,1.1,1.9,1.8,3.3,1.8c1.4,0,2.6-0.7,3.3-1.8c0.1-0.1,0.2-0.2,0.2-0.3
			c0.3-0.6,0.5-1.2,0.5-1.9C155.2,95.2,154.9,94.3,154.2,93.6z M151.2,59.9c-2.2,0-4,1.8-4,4v20.2c0,2.2,1.8,4,4,4s4-1.8,4-4V63.9
			C155.2,61.7,153.4,59.9,151.2,59.9z M151.2,59.9c-2.2,0-4,1.8-4,4v20.2c0,2.2,1.8,4,4,4s4-1.8,4-4V63.9
			C155.2,61.7,153.4,59.9,151.2,59.9z M154.2,93.6c-0.5-0.6-1.2-1-1.9-1.3c-0.3-0.1-0.7-0.2-1.1-0.2c-0.4,0-0.8,0.1-1.1,0.2
			c-0.8,0.2-1.5,0.7-1.9,1.3c-0.6,0.7-1,1.6-1,2.6c0,0.7,0.2,1.4,0.5,1.9c0,0.1,0.1,0.2,0.2,0.3c0.7,1.1,1.9,1.8,3.3,1.8
			c1.4,0,2.6-0.7,3.3-1.8c0.1-0.1,0.2-0.2,0.2-0.3c0.3-0.6,0.5-1.2,0.5-1.9C155.2,95.2,154.9,94.3,154.2,93.6z M154.2,93.6
			c-0.5-0.6-1.2-1-1.9-1.3c-0.3-0.1-0.7-0.2-1.1-0.2c-0.4,0-0.8,0.1-1.1,0.2c-0.8,0.2-1.5,0.7-1.9,1.3c-0.6,0.7-1,1.6-1,2.6
			c0,0.7,0.2,1.4,0.5,1.9c0,0.1,0.1,0.2,0.2,0.3c0.7,1.1,1.9,1.8,3.3,1.8c1.4,0,2.6-0.7,3.3-1.8c0.1-0.1,0.2-0.2,0.2-0.3
			c0.3-0.6,0.5-1.2,0.5-1.9C155.2,95.2,154.9,94.3,154.2,93.6z M151.2,59.9c-2.2,0-4,1.8-4,4v20.2c0,2.2,1.8,4,4,4s4-1.8,4-4V63.9
			C155.2,61.7,153.4,59.9,151.2,59.9z M151.2,59.9c-2.2,0-4,1.8-4,4v20.2c0,2.2,1.8,4,4,4s4-1.8,4-4V63.9
			C155.2,61.7,153.4,59.9,151.2,59.9z M154.2,93.6c-0.5-0.6-1.2-1-1.9-1.3c-0.3-0.1-0.7-0.2-1.1-0.2c-0.4,0-0.8,0.1-1.1,0.2
			c-0.8,0.2-1.5,0.7-1.9,1.3c-0.6,0.7-1,1.6-1,2.6c0,0.7,0.2,1.4,0.5,1.9c0,0.1,0.1,0.2,0.2,0.3c0.7,1.1,1.9,1.8,3.3,1.8
			c1.4,0,2.6-0.7,3.3-1.8c0.1-0.1,0.2-0.2,0.2-0.3c0.3-0.6,0.5-1.2,0.5-1.9C155.2,95.2,154.9,94.3,154.2,93.6z"/>
	</g>
	<g>
		<g>
			<path fill="#B3B3B3" d="M276,171.7H23.3V1.6H276V171.7z M28.1,166.9h243V6.4h-243V166.9z"/>
			<rect x="25.7" y="33.1" fill="#B3B3B3" width="247.9" height="4.8"/>
			<rect x="40.6" y="17.3" fill="#B3B3B3" width="15.7" height="4.8"/>
			<rect x="72.1" y="17.3" fill="#B3B3B3" width="15.7" height="4.8"/>
			<rect x="103.5" y="17.3" fill="#B3B3B3" width="15.7" height="4.8"/>
		</g>
	</g>
	<g>
		<g>
			<path fill="#B3B3B3" d="M229.8,96.8c-9.6,0-17.5,7.8-17.5,17.5s7.8,17.5,17.5,17.5s17.5-7.8,17.5-17.5S239.5,96.8,229.8,96.8z
				 M237.9,109.4l-8.4,12.8c0,0,0,0,0,0c0,0.1-0.1,0.1-0.1,0.2c-0.1,0.1-0.2,0.1-0.3,0.2c0,0,0,0-0.1,0c-0.1,0.1-0.3,0.1-0.4,0.2
				c-0.1,0-0.1,0-0.1,0c-0.1,0-0.2,0-0.4,0c-0.1,0-0.2,0-0.3,0c-0.1,0-0.2-0.1-0.3-0.1c-0.1,0-0.1,0-0.2-0.1c0,0-0.1-0.1-0.1-0.1
				c0,0,0,0-0.1,0l-4.9-4.5c-0.6-0.6-0.7-1.5-0.1-2.2s1.5-0.7,2.2-0.1l3.5,3.3l7.4-11.3c0.5-0.7,1.4-0.9,2.1-0.4
				C238.2,107.7,238.4,108.7,237.9,109.4z"/>
		</g>
	</g>
	<g>
		<g>
			<path fill="#B3B3B3" d="M67.7,96.1c-9.8,0-17.8,8-17.8,17.8s8,17.8,17.8,17.8s17.8-8,17.8-17.8S77.5,96.1,67.7,96.1z M75.9,107.3
				l-6.6,6.6l5.9,6.5c0.5,0.5,0.5,1.2,0,1.7c-0.5,0.5-1.2,0.5-1.7,0l-5.9-6.5l-6.5,6.5c-0.5,0.5-1.2,0.5-1.7,0
				c-0.5-0.5-0.5-1.2,0-1.7l6.6-6.6l-5.9-6.5c-0.5-0.5-0.5-1.2,0-1.7c0.5-0.5,1.2-0.5,1.7,0l5.9,6.5l6.5-6.5c0.5-0.5,1.2-0.5,1.7,0
				C76.4,106.1,76.4,106.9,75.9,107.3z"/>
		</g>
	</g>
</g>
</svg>
