<?xml version="1.0" encoding="utf-8"?>
<!-- Generator: Adobe Illustrator 18.0.0, SVG Export Plug-In . SVG Version: 6.00 Build 0)  -->
<!DOCTYPE svg PUBLIC "-//W3C//DTD SVG 1.1//EN" "http://www.w3.org/Graphics/SVG/1.1/DTD/svg11.dtd">
<svg version="1.1" id="Layer_1" xmlns="http://www.w3.org/2000/svg" xmlns:xlink="http://www.w3.org/1999/xlink" x="0px" y="0px"
	 viewBox="0 0 120 120" enable-background="new 0 0 120 120" xml:space="preserve">
<g>
	<defs>
		<path id="SVGID_1_" d="M60.3,52.3c-4.2,0-7.5,3.4-7.5,7.5s3.4,7.5,7.5,7.5c4.2,0,7.5-3.4,7.5-7.5S64.4,52.3,60.3,52.3z M60.3,52.3
			c-4.2,0-7.5,3.4-7.5,7.5s3.4,7.5,7.5,7.5c4.2,0,7.5-3.4,7.5-7.5S64.4,52.3,60.3,52.3z M60,5.3C29.8,5.3,5.3,29.8,5.3,60
			s24.5,54.7,54.7,54.7s54.7-24.5,54.7-54.7S90.2,5.3,60,5.3z M96,67.4H85.6l-1.9,5.8l7,7L80.6,90.3l-7-7l-5.8,1.9v10.4H52.7V85.2
			L47,83.3l-7,7L29.9,80.1l7-7l-1.9-5.8H24.5V52.3h10.4l1.9-5.8l-7-7L40,29.4l7,7l5.8-1.9V24.1h15.1v10.4l5.8,1.9l7-7l10.1,10.1
			l-7,7l1.9,5.8H96V67.4z"/>
	</defs>
	<clipPath id="SVGID_2_">
		<use xlink:href="#SVGID_1_"  overflow="visible"/>
	</clipPath>
	<linearGradient id="SVGID_3_" gradientUnits="userSpaceOnUse" x1="60.5506" y1="-59.2532" x2="60.5506" y2="181.1373">
		<stop  offset="0" style="stop-color:#168478"/>
		<stop  offset="0.3076" style="stop-color:#277376"/>
		<stop  offset="0.6784" style="stop-color:#356574"/>
		<stop  offset="1" style="stop-color:#3A6073"/>
	</linearGradient>
	<rect x="-59.6" y="-59.3" clip-path="url(#SVGID_2_)" fill="url(#SVGID_3_)" width="240.4" height="240.4"/>
</g>
</svg>
