<?xml version="1.0" encoding="utf-8"?>
<!-- Generator: Adobe Illustrator 18.0.0, SVG Export Plug-In . SVG Version: 6.00 Build 0)  -->
<!DOCTYPE svg PUBLIC "-//W3C//DTD SVG 1.1//EN" "http://www.w3.org/Graphics/SVG/1.1/DTD/svg11.dtd">
<svg version="1.1" id="Layer_1" xmlns="http://www.w3.org/2000/svg" xmlns:xlink="http://www.w3.org/1999/xlink" x="0px" y="0px"
	 viewBox="0 0 120 120" enable-background="new 0 0 120 120" xml:space="preserve">
<g>
	<defs>
		<path id="SVGID_1_" d="M60.3,49.7c-5.7,0-10.1,4.6-10.1,10.1s4.6,10.1,10.1,10.1c5.7,0,10.1-4.6,10.1-10.1S65.9,49.7,60.3,49.7z
			 M108.5,70h-14l-2.6,7.8l9.4,9.4l-13.6,13.6l-9.4-9.4l-7.8,2.6v14H50.1v-14l-7.7-2.6l-9.4,9.4L19.3,87.2l9.4-9.4l-2.6-7.8H12V49.7
			h14l2.6-7.8l-9.4-9.4l13.8-13.6l9.4,9.4l7.8-2.6v-14h20.4v14l7.8,2.6l9.4-9.4l13.6,13.6L92,41.8l2.6,7.8h13.9V70z"/>
	</defs>
	<clipPath id="SVGID_2_">
		<use xlink:href="#SVGID_1_"  overflow="visible"/>
	</clipPath>
	
		<linearGradient id="SVGID_3_" gradientUnits="userSpaceOnUse" x1="60.6" y1="179.3" x2="60.6" y2="-61.1" gradientTransform="matrix(1 0 0 -1 0 120)">
		<stop  offset="0" style="stop-color:#168478"/>
		<stop  offset="0.3076" style="stop-color:#277376"/>
		<stop  offset="0.6784" style="stop-color:#356574"/>
		<stop  offset="1" style="stop-color:#3A6073"/>
	</linearGradient>
	<rect x="-59.6" y="-59.3" clip-path="url(#SVGID_2_)" fill="url(#SVGID_3_)" width="240.4" height="240.4"/>
</g>
<circle fill="none" cx="-132.8" cy="99.2" r="55.7"/>
</svg>
