<?xml version="1.0" encoding="utf-8"?>
<!-- Generator: Adobe Illustrator 18.0.0, SVG Export Plug-In . SVG Version: 6.00 Build 0)  -->
<!DOCTYPE svg PUBLIC "-//W3C//DTD SVG 1.1//EN" "http://www.w3.org/Graphics/SVG/1.1/DTD/svg11.dtd">
<svg version="1.1" id="Layer_1" xmlns="http://www.w3.org/2000/svg" xmlns:xlink="http://www.w3.org/1999/xlink" x="0px" y="0px"
	 viewBox="0 0 127 127.3" enable-background="new 0 0 127 127.3" xml:space="preserve">
<circle fill="#252525" cx="63.3" cy="62.2" r="59.3"/>
<g>
	<polygon fill="#3A4349" points="63.3,21.3 55.4,21.3 55.4,33.1 47.5,35.8 39.6,27.9 29,38.4 36.9,46.3 34.3,54.3 22.4,54.3 
		22.4,70.1 34.3,70.1 36.9,78 29,85.9 39.6,96.5 47.5,88.6 55.4,91.2 55.4,103.1 63.3,103.1 71.2,103.1 71.2,91.2 79.2,88.6 
		87.1,96.5 97.6,85.9 89.7,78 92.4,70.1 104.2,70.1 104.2,54.3 92.4,54.3 89.7,46.3 97.6,38.4 87.1,27.9 79.2,35.8 71.2,33.1 
		71.2,21.3 	"/>
</g>
<circle fill="#252525" cx="63.3" cy="62.2" r="12.7"/>
</svg>
