<?xml version="1.0" encoding="utf-8"?>
<!-- Generator: Adobe Illustrator 18.0.0, SVG Export Plug-In . SVG Version: 6.00 Build 0)  -->
<!DOCTYPE svg PUBLIC "-//W3C//DTD SVG 1.1//EN" "http://www.w3.org/Graphics/SVG/1.1/DTD/svg11.dtd">
<svg version="1.1" id="Layer_1" xmlns="http://www.w3.org/2000/svg" xmlns:xlink="http://www.w3.org/1999/xlink" x="0px" y="0px"
	 viewBox="0 0 100 100" enable-background="new 0 0 100 100" xml:space="preserve">
<g opacity="0.3">
	<polygon fill="#444444" stroke="#222222" stroke-miterlimit="10" points="49.9,3.2 40.7,3.2 40.7,17 31.5,20 22.4,10.9 10.2,23.1 
		19.3,32.3 16.3,41.4 2.5,41.4 2.5,59.7 16.3,59.7 19.3,68.9 10.2,78.1 22.4,90.3 31.5,81.1 40.7,84.2 40.7,97.9 49.9,97.9 59,97.9 
		59,84.2 68.2,81.1 77.3,90.3 89.6,78.1 80.4,68.9 83.4,59.7 97.2,59.7 97.2,41.4 83.4,41.4 80.4,32.3 89.6,23.1 77.3,10.9 68.2,20 
		59,17 59,3.2 	"/>
</g>
</svg>
