<?xml version="1.0" encoding="utf-8"?>
<!-- Generator: Adobe Illustrator 18.0.0, SVG Export Plug-In . SVG Version: 6.00 Build 0)  -->
<!DOCTYPE svg PUBLIC "-//W3C//DTD SVG 1.1//EN" "http://www.w3.org/Graphics/SVG/1.1/DTD/svg11.dtd">
<svg version="1.1" id="Layer_1" xmlns="http://www.w3.org/2000/svg" xmlns:xlink="http://www.w3.org/1999/xlink" x="0px" y="0px"
	 viewBox="0 0 20 20" enable-background="new 0 0 20 20" xml:space="preserve">
<path fill="#4D4D4D" d="M-19.4,16.5c0,0.6-0.5,1.2-1.2,1.2h-9.1c-0.6,0-1.2-0.5-1.2-1.2c0-0.1,0-0.1,0-0.2l3.1-8.2c0,0,0,0,0,0V3.3
	H-28c-0.3,0-0.5-0.2-0.5-0.5c0-0.3,0.2-0.5,0.5-0.5h0.9c0.3,0,0.5,0.2,0.5,0.5V8c0,0,0,0.1,0,0.1c0,0.1,0,0.1,0,0.2l-1.9,5h6.8l-2-5
	c0-0.1,0-0.1,0-0.2l0,0c0,0,0,0,0-0.1V2.8c0-0.3,0.2-0.5,0.5-0.5h0.9c0.3,0,0.5,0.2,0.5,0.5c0,0.3-0.2,0.5-0.5,0.5h-0.4V8l3.2,8.2
	C-19.4,16.3-19.4,16.4-19.4,16.5z"/>
<g>
	<g>
		<path fill="#4D4D4D" d="M54.4,3.2h-15c-0.3,0-0.5,0.2-0.5,0.5v12.5c0,0.3,0.2,0.5,0.5,0.5h15c0.3,0,0.5-0.2,0.5-0.5V3.7
			C54.9,3.4,54.7,3.2,54.4,3.2z M53.9,4.2v2h-14v-2H53.9z M39.9,15.7V7.2h14v8.5H39.9z"/>
		<path fill="#4D4D4D" d="M41.4,5.7c0.1,0,0.3-0.1,0.4-0.1c0.1-0.1,0.1-0.2,0.1-0.4s-0.1-0.3-0.1-0.4c-0.2-0.2-0.5-0.2-0.7,0
			c-0.1,0.1-0.1,0.2-0.1,0.4c0,0.1,0.1,0.3,0.1,0.4C41.2,5.6,41.3,5.7,41.4,5.7z"/>
		<path fill="#4D4D4D" d="M42.9,5.7c0.1,0,0.3-0.1,0.4-0.1c0.1-0.1,0.1-0.2,0.1-0.4s-0.1-0.3-0.1-0.4c-0.2-0.2-0.5-0.2-0.7,0
			c-0.1,0.1-0.1,0.2-0.1,0.4s0.1,0.3,0.1,0.4C42.7,5.6,42.8,5.7,42.9,5.7z"/>
		<path fill="#4D4D4D" d="M44.4,5.7c0.1,0,0.3-0.1,0.4-0.1c0.1-0.1,0.1-0.2,0.1-0.4c0-0.1-0.1-0.3-0.1-0.4c-0.2-0.2-0.5-0.2-0.7,0
			c-0.1,0.1-0.1,0.2-0.1,0.4c0,0.1,0.1,0.3,0.1,0.4C44.2,5.6,44.3,5.7,44.4,5.7z"/>
		<path fill="#4D4D4D" d="M46.7,8.2h-5.3c-0.3,0-0.5,0.2-0.5,0.5s0.2,0.5,0.5,0.5h5.3c0.3,0,0.5-0.2,0.5-0.5S47,8.2,46.7,8.2z"/>
		<path fill="#4D4D4D" d="M46.7,10.2h-5.3c-0.3,0-0.5,0.2-0.5,0.5s0.2,0.5,0.5,0.5h5.3c0.3,0,0.5-0.2,0.5-0.5S47,10.2,46.7,10.2z"/>
		<path fill="#4D4D4D" d="M46.7,12.2h-5.3c-0.3,0-0.5,0.2-0.5,0.5c0,0.3,0.2,0.5,0.5,0.5h5.3c0.3,0,0.5-0.2,0.5-0.5
			C47.2,12.4,47,12.2,46.7,12.2z"/>
		<path fill="#4D4D4D" d="M52.4,8.2h-3.8c-0.3,0-0.5,0.2-0.5,0.5v4c0,0.3,0.2,0.5,0.5,0.5h3.8c0.3,0,0.5-0.2,0.5-0.5v-4
			C52.9,8.4,52.7,8.2,52.4,8.2z M51.9,12.2h-2.8v-3h2.8V12.2z"/>
	</g>
</g>
<g>
	<g>
		<path fill="#4D4D4D" d="M16.9,4.3H3.7c-0.5,0-0.9,0.4-0.9,0.9v9.4c0,0.5,0.4,0.9,0.9,0.9h13.2c0.5,0,0.9-0.4,0.9-0.9V5.2
			C17.9,4.7,17.5,4.3,16.9,4.3z M8.2,10.9l2.2,1.5l2.2-1.5l3.8,3.8H4.4L8.2,10.9z M3.7,14V7.9l3.6,2.5L3.7,14z M13.3,10.4l3.6-2.5
			V14L13.3,10.4z M16.9,5.2v1.5l0,0l-6.6,4.5L3.7,6.8V5.2H16.9z"/>
	</g>
</g>
<g>
	<path fill="#4D4D4D" d="M88.6,16.5c0,0,0,0.4,0.4,0.4c0.5,0,4.4,0,4.4,0l0-3.6c0,0-0.1-0.6,0.5-0.6h1.8c0.7,0,0.6,0.6,0.6,0.6
		l0,3.6c0,0,3.7,0,4.3,0c0.5,0,0.5-0.5,0.5-0.5V9.8l-6-5.4l-6.4,5.4V16.5z"/>
	<path fill="#4D4D4D" d="M86.3,9.3c0,0,0.5,1,1.7,0l7.1-6l6.6,6c1.4,1,1.9,0,1.9,0l-8.5-7.7L86.3,9.3z"/>
	<polygon fill="#4D4D4D" points="101.6,3.3 99.9,3.3 99.9,5.3 101.6,6.8 	"/>
</g>
<text transform="matrix(1 0 0 1 -59.6641 16.702)" fill="#4D4D4D" font-family="'MyriadPro-Regular'" font-size="20.8557">i</text>
</svg>
