<?xml version="1.0" encoding="utf-8"?>
<!-- Generator: Adobe Illustrator 18.0.0, SVG Export Plug-In . SVG Version: 6.00 Build 0)  -->
<!DOCTYPE svg PUBLIC "-//W3C//DTD SVG 1.1//EN" "http://www.w3.org/Graphics/SVG/1.1/DTD/svg11.dtd">
<svg version="1.1" id="Layer_1" xmlns="http://www.w3.org/2000/svg" xmlns:xlink="http://www.w3.org/1999/xlink" x="0px" y="0px"
	 viewBox="0 0 20 20" enable-background="new 0 0 20 20" xml:space="preserve">
<path fill="#4D4D4D" d="M47.3,16.5c0,0.6-0.5,1.2-1.2,1.2H37c-0.6,0-1.2-0.5-1.2-1.2c0-0.1,0-0.1,0-0.2L39,8c0,0,0,0,0,0V3.3h-0.4
	c-0.3,0-0.5-0.2-0.5-0.5c0-0.3,0.2-0.5,0.5-0.5h0.9c0.3,0,0.5,0.2,0.5,0.5V8c0,0,0,0.1,0,0.1c0,0.1,0,0.1,0,0.2l-1.9,5h6.8l-2-5
	c0-0.1,0-0.1,0-0.2l0,0c0,0,0,0,0-0.1V2.8c0-0.3,0.2-0.5,0.5-0.5h0.9c0.3,0,0.5,0.2,0.5,0.5c0,0.3-0.2,0.5-0.5,0.5H44V8l3.2,8.2
	C47.2,16.3,47.3,16.4,47.3,16.5z"/>
<g>
	<g>
		<path fill="#4D4D4D" d="M121.1,3.2h-15c-0.3,0-0.5,0.2-0.5,0.5v12.5c0,0.3,0.2,0.5,0.5,0.5h15c0.3,0,0.5-0.2,0.5-0.5V3.7
			C121.6,3.4,121.3,3.2,121.1,3.2z M120.6,4.2v2h-14v-2H120.6z M106.5,15.7V7.2h14v8.5H106.5z"/>
		<path fill="#4D4D4D" d="M108,5.7c0.1,0,0.3-0.1,0.4-0.1c0.1-0.1,0.1-0.2,0.1-0.4s-0.1-0.3-0.1-0.4c-0.2-0.2-0.5-0.2-0.7,0
			c-0.1,0.1-0.1,0.2-0.1,0.4c0,0.1,0.1,0.3,0.1,0.4C107.8,5.6,107.9,5.7,108,5.7z"/>
		<path fill="#4D4D4D" d="M109.5,5.7c0.1,0,0.3-0.1,0.4-0.1c0.1-0.1,0.1-0.2,0.1-0.4s-0.1-0.3-0.1-0.4c-0.2-0.2-0.5-0.2-0.7,0
			c-0.1,0.1-0.1,0.2-0.1,0.4s0.1,0.3,0.1,0.4C109.3,5.6,109.4,5.7,109.5,5.7z"/>
		<path fill="#4D4D4D" d="M111,5.7c0.1,0,0.3-0.1,0.4-0.1c0.1-0.1,0.1-0.2,0.1-0.4c0-0.1-0.1-0.3-0.1-0.4c-0.2-0.2-0.5-0.2-0.7,0
			c-0.1,0.1-0.1,0.2-0.1,0.4c0,0.1,0.1,0.3,0.1,0.4C110.8,5.6,110.9,5.7,111,5.7z"/>
		<path fill="#4D4D4D" d="M113.3,8.2H108c-0.3,0-0.5,0.2-0.5,0.5s0.2,0.5,0.5,0.5h5.3c0.3,0,0.5-0.2,0.5-0.5S113.6,8.2,113.3,8.2z"
			/>
		<path fill="#4D4D4D" d="M113.3,10.2H108c-0.3,0-0.5,0.2-0.5,0.5s0.2,0.5,0.5,0.5h5.3c0.3,0,0.5-0.2,0.5-0.5S113.6,10.2,113.3,10.2
			z"/>
		<path fill="#4D4D4D" d="M113.3,12.2H108c-0.3,0-0.5,0.2-0.5,0.5c0,0.3,0.2,0.5,0.5,0.5h5.3c0.3,0,0.5-0.2,0.5-0.5
			C113.8,12.4,113.6,12.2,113.3,12.2z"/>
		<path fill="#4D4D4D" d="M119.1,8.2h-3.8c-0.3,0-0.5,0.2-0.5,0.5v4c0,0.3,0.2,0.5,0.5,0.5h3.8c0.3,0,0.5-0.2,0.5-0.5v-4
			C119.6,8.4,119.3,8.2,119.1,8.2z M118.6,12.2h-2.8v-3h2.8V12.2z"/>
	</g>
</g>
<g>
	<g>
		<path fill="#4D4D4D" d="M83.6,4.3H70.4c-0.5,0-0.9,0.4-0.9,0.9v9.4c0,0.5,0.4,0.9,0.9,0.9h13.2c0.5,0,0.9-0.4,0.9-0.9V5.2
			C84.5,4.7,84.1,4.3,83.6,4.3z M74.8,10.9l2.2,1.5l2.2-1.5l3.8,3.8H71L74.8,10.9z M70.4,14V7.9l3.6,2.5L70.4,14z M79.9,10.4
			l3.6-2.5V14L79.9,10.4z M83.6,5.2v1.5l0,0L77,11.3l-6.6-4.5V5.2H83.6z"/>
	</g>
</g>
<g>
	<path fill="#4D4D4D" d="M155.2,16.5c0,0,0,0.4,0.4,0.4c0.5,0,4.4,0,4.4,0l0-3.6c0,0-0.1-0.6,0.5-0.6h1.8c0.7,0,0.6,0.6,0.6,0.6
		l0,3.6c0,0,3.7,0,4.3,0c0.5,0,0.5-0.5,0.5-0.5V9.8l-6-5.4l-6.4,5.4V16.5z"/>
	<path fill="#4D4D4D" d="M152.9,9.3c0,0,0.5,1,1.7,0l7.1-6l6.6,6c1.4,1,1.9,0,1.9,0l-8.5-7.7L152.9,9.3z"/>
	<polygon fill="#4D4D4D" points="168.2,3.3 166.5,3.3 166.5,5.3 168.2,6.8 	"/>
</g>
<text transform="matrix(1 0 0 1 6.9565 16.702)" fill="#4D4D4D" font-family="'MyriadPro-Regular'" font-size="20.8557">i</text>
</svg>
