<?xml version="1.0" encoding="utf-8"?>
<!-- Generator: Adobe Illustrator 18.0.0, SVG Export Plug-In . SVG Version: 6.00 Build 0)  -->
<!DOCTYPE svg PUBLIC "-//W3C//DTD SVG 1.1//EN" "http://www.w3.org/Graphics/SVG/1.1/DTD/svg11.dtd">
<svg version="1.1" id="Layer_1" xmlns="http://www.w3.org/2000/svg" xmlns:xlink="http://www.w3.org/1999/xlink" x="0px" y="0px"
	 viewBox="0 0 240 70" enable-background="new 0 0 240 70" xml:space="preserve">
<g>
	<g>
		<path fill="#E6E6E6" d="M10.3,3C9.5,3,9,3.4,9,4.3v39.2h4V4.1C12.8,3.4,11.9,3,10.3,3z M20.6,3h-4.1c-0.8,0-1.2,0.5-1.3,1.4v39.1
			h8.4V4.4C23.6,3.6,22.6,3.1,20.6,3z"/>
		<path fill="#E6E6E6" d="M37.5,3h-6c-0.9,0-1.3,0.4-1.3,1.3v39.2h8.6V4.3C38.8,3.4,38.3,3,37.5,3z M42.2,3c-0.9,0-1.3,0.4-1.3,1.3
			v39.2h4V4.3C44.8,3.4,43.9,3,42.2,3z M54.2,3h-1.3c-0.9,0-1.3,0.4-1.3,1.3v39.2h4V4.3C55.5,3.4,55,3,54.2,3z M60.1,3
			c-1.7,0-2.6,0.4-2.6,1.3v39.2h4V4.3C61.5,3.4,61,3,60.1,3z"/>
		<path fill="#E6E6E6" d="M72,4.3C72,3.4,71.6,3,70.7,3c-1.7,0-2.6,0.4-2.6,1.3v39.2h4V15.2C72,10.3,72,6.7,72,4.3z M76.8,3
			c-1.7,0-2.6,0.4-2.6,1.3v39.2h4V4.3C78.2,3.4,77.7,3,76.8,3z M82.9,3c-1.8,0-2.7,0.4-2.7,1.3v39.2h4.1V5.2C84.2,3.7,83.7,3,82.9,3
			z M96.5,3h-4.5c-0.9,0-1.3,0.4-1.3,1.3v39.2h8.6V4.3C99.3,3.4,98.4,3,96.5,3z"/>
		<path fill="#E6E6E6" d="M106.4,3c-1.8,0-2.6,0.4-2.6,1.3c0,1.5,0,3.7-0.1,6.6v32.6h4.1V4.3C107.7,3.4,107.3,3,106.4,3z M112.3,3
			c-1.8,0-2.6,0.4-2.6,1.3v39.2h4V4.3C113.6,3.4,113.2,3,112.3,3z M127.6,3h-5.9c-0.9,0-1.3,0.4-1.3,1.3l0,39.2h8.7V4.3
			C129.1,3.5,128.6,3.1,127.6,3z M139.3,4.2c0-0.8-0.4-1.2-1.3-1.2c-1.7,0-2.6,0.4-2.6,1.3v39.2h4V7.3C139.3,6,139.3,4.9,139.3,4.2z
			"/>
		<path fill="#E6E6E6" d="M144.2,3h-0.5c-1.5,0-2.2,0.4-2.2,1.3v39.2h4V4.3C145.5,3.4,145.1,3,144.2,3z M150.2,3
			c-1.7,0-2.6,0.4-2.6,1.3v39.2h4V4.3C151.6,3.4,151.1,3,150.2,3z M165.3,3h-5.9c-0.9,0-1.3,0.4-1.3,1.3v39.2h8.6V4.3
			C166.7,3.5,166.3,3.1,165.3,3z M177.3,4.3c0-0.9-0.4-1.3-1.3-1.3c-1.7,0-2.6,0.4-2.6,1.3v39.2h4l0-1.3V10.8
			C177.3,8,177.3,5.8,177.3,4.3z"/>
		<path fill="#E6E6E6" d="M190.2,4.4c0-0.8-0.4-1.2-1.2-1.3C188.6,3,187.3,3,185.1,3H183c-0.9,0-1.3,0.5-1.3,1.4v39.1h8.6V10.3
			C190.2,7.7,190.2,5.7,190.2,4.4z M193.5,3c-0.9,0-1.3,0.5-1.3,1.4v39.1h4V4.4C196.1,3.5,195.2,3,193.5,3z M200.6,3
			c-1.7,0-2.5,0.8-2.5,2.3c0,0.3,0,0.8,0.1,1.5c0.1,0.7,0.1,1.2,0.1,1.6v35.2h4V4.4C202.3,3.5,201.7,3,200.6,3z M211.6,3h-1.4
			c-0.9,0-1.3,0.4-1.3,1.3v39.2h4V4.3C212.9,3.4,212.5,3,211.6,3z"/>
		<path fill="#E6E6E6" d="M222.1,3c-1.7,0-2.6,0.4-2.6,1.3v39.2h4V4.3C223.5,3.4,223.1,3,222.1,3z M232.8,3H227
			c-0.9,0-1.4,0.4-1.4,1.3v39.2h8.6V4.3C234.1,3.4,233.7,3,232.8,3z"/>
	</g>
	<g>
		<path fill="#E6E6E6" d="M14.4,66.3c-1.8,0-3.2-0.8-4.2-2.5c-0.8-1.3-1.2-3-1.2-4.9c0-2,0.4-3.7,1.2-5c1-1.7,2.4-2.5,4.3-2.5
			c1,0,2,0.2,2.9,0.7c1.1,0.5,1.7,1.2,1.7,2.1c0,1-0.5,1.4-1.4,1.4c-0.4,0-0.8-0.2-1.3-0.6c-0.5-0.4-1-0.7-1.8-0.7
			c-1.8,0-2.7,1.6-2.7,4.8c0,2.8,0.9,4.3,2.7,4.3c0.7,0,1.3-0.1,1.7-0.3c0,0.1,0-0.3,0-1.3c0-0.1,0-0.3,0.1-0.6
			c0.1-0.2,0.1-0.4,0.1-0.5c0-0.3-0.2-0.4-0.6-0.4c-0.1,0-0.3,0-0.6,0.1c-0.3,0.1-0.5,0.1-0.7,0.1c-1,0-1.4-0.5-1.4-1.4
			c0-1,0.9-1.5,2.7-1.5c2.2,0,3.3,0.6,3.3,1.7v4.2C19.1,65.4,17.5,66.3,14.4,66.3z"/>
		<path fill="#E6E6E6" d="M37.7,60.1c0-1.7,0-2.6,0-2.7c0-2.7,0-3.9,0-3.5c0.1-1.6,0.6-2.3,1.5-2.3c0.9,0,1.3,0.5,1.3,1.5
			c0,1.3,0,3.3,0.1,5.9c0,2.6,0.1,4.6,0.1,5.9c0,1.1-0.5,1.7-1.6,1.7c-0.9,0-1.5-0.4-2-1.3c-1.3-2.6-2.5-5-3.6-7.2v7
			c0,1-0.5,1.5-1.5,1.5c-1,0-1.4-0.5-1.4-1.4v-9c0-1.8,0-2.8,0.1-2.9c0.2-1.1,0.8-1.6,1.8-1.6c0.7,0,1.2,0.4,1.6,1.1
			C35.1,54.6,36.3,57.1,37.7,60.1z"/>
		<path fill="#E6E6E6" d="M57,66.5c-1.7,0-3.1-0.9-4-2.7c-0.8-1.4-1.2-3-1.2-4.9c0-1.8,0.4-3.4,1.2-4.8c1-1.7,2.3-2.6,4-2.6
			c1.6,0,2.9,0.9,3.9,2.6c0.9,1.5,1.3,3.1,1.3,4.8c0,1.7-0.4,3.4-1.3,4.9C59.9,65.6,58.6,66.5,57,66.5z M57,54.4
			c-0.8,0-1.4,0.6-1.8,1.8c-0.4,0.9-0.5,1.8-0.5,2.8c0,1,0.2,1.9,0.5,2.9c0.4,1.2,1.1,1.8,1.8,1.8c0.7,0,1.3-0.6,1.8-1.9
			c0.4-1,0.6-1.9,0.6-2.8c0-0.9-0.2-1.8-0.5-2.8C58.4,55,57.7,54.4,57,54.4z"/>
		<path fill="#E6E6E6" d="M81.2,56.3c-0.9,0-1.4-0.5-1.4-1.4c-0.5-0.3-1.1-0.5-1.6-0.5c-1.1,0-1.7,0.4-1.7,1.2
			c0,0.6,0.5,1.1,1.6,1.6c1.6,0.7,2.6,1.3,3,1.6c1,0.9,1.6,2,1.6,3.4c0,1.3-0.5,2.3-1.4,3.1c-0.9,0.8-2,1.2-3.3,1.2
			c-1.3,0-2.3-0.3-3.1-1c-1-0.7-1.4-1.7-1.4-2.9c0-1,0.5-1.4,1.5-1.4c0.6,0,1.1,0.4,1.4,1.2c0.3,0.8,0.8,1.2,1.7,1.2
			c0.4,0,0.9-0.1,1.3-0.4c0.4-0.3,0.6-0.6,0.6-1.1c0-0.5-1-1.4-3.1-2.6c-2.1-1.2-3.1-2.5-3.1-4c0-1.1,0.5-2.1,1.4-2.9
			c0.9-0.8,2-1.2,3.2-1.2c1,0,2,0.3,3,1c1,0.7,1.5,1.5,1.5,2.4C82.7,55.8,82.2,56.3,81.2,56.3z"/>
		<path fill="#E6E6E6" d="M103.7,54.7c-1.2,0-2.1,0-2.5-0.1l-0.1,0.8c0,0.1,0,0.3,0.1,0.6c0,0.3,0.1,0.5,0.1,0.6c0,0.8,0,2,0.1,3.6
			c0,1.6,0.1,2.8,0.1,3.6c0,1.9-0.5,2.8-1.5,2.8c-0.8,0-1.3-0.8-1.5-2.4c0,0.1,0.1-1,0.1-3.4c0-3.5,0.1-5.5,0.2-6.1l-0.3-0.1
			c-0.5,0.1-0.8,0.1-1,0.1c-1.8,0-2.7-0.5-2.7-1.4c0-0.8,0.4-1.2,1.3-1.4c0.2,0,1-0.1,2.3-0.1h5.5c0.9,0,1.4,0.5,1.4,1.5
			C105,54.2,104.6,54.7,103.7,54.7z"/>
		<path fill="#E6E6E6" d="M121.4,56.7c0,0,0-0.3,0.1-0.7c0.1-0.6,0.5-1.5,1.3-2.7c0.8-1.2,1.4-1.9,1.9-1.9c1,0,1.4,0.5,1.4,1.4
			c0,0.4-0.5,1.5-1.6,3.3c-1.1,1.8-1.7,2.9-1.7,3.3c0,0,0,0.6,0,1.7c0,2.1,0,3.1,0,3c-0.2,1.3-0.7,2-1.5,2c-1,0-1.5-1-1.5-3
			c0-0.4,0-1,0-1.8c0-0.7,0-1.2,0-1.3c0-0.6-0.6-1.8-1.7-3.7c-1.1-1.9-1.7-3.1-1.7-3.6c0-0.9,0.5-1.4,1.4-1.4c0.6,0,1,0.3,1.3,0.8
			C119.9,53.4,120.6,54.9,121.4,56.7z"/>
		<path fill="#E6E6E6" d="M142.9,56.4c0.4-0.8,0.7-1.6,1.1-2.5c0.7-1.5,1.4-2.2,2.1-2.2c1,0,1.5,0.5,1.5,1.4c0,0.3-0.9,1.9-2.8,4.9
			c-0.4,0.7-0.6,1-0.6,0.8c0,0.2,0.6,1.1,1.7,2.8c1.1,1.7,1.7,2.7,1.7,3.1c0,1.1-0.5,1.7-1.4,1.7c-0.6,0-1.1-0.5-1.8-1.6
			c-0.5-0.9-1.1-2-1.7-3.4c-0.4,0.9-0.8,1.8-1.2,2.7c-0.7,1.5-1.5,2.3-2.2,2.3c-1,0-1.4-0.5-1.4-1.4c0-0.6,0.6-1.7,1.7-3.4
			c1.1-1.7,1.7-2.5,1.7-2.6c0-0.2-0.6-1.1-1.7-2.7c-1.1-1.6-1.7-2.6-1.7-3.2c0-0.9,0.5-1.4,1.5-1.4c0.5,0,1.2,0.6,2.1,1.9
			C142.4,54.8,142.8,55.8,142.9,56.4z"/>
		<path fill="#E6E6E6" d="M165.6,66.7c-1.5,0-2.3,0-2.5-0.1c-1-0.2-1.6-0.6-1.6-1.4v-0.5c0-2,0.5-2.9,1.4-2.9c1.6,0,2.5,0,2.5,0.1
			c1.1,0.1,1.6,0.6,1.6,1.4C167.2,65.6,166.7,66.7,165.6,66.7z"/>
		<path fill="#E6E6E6" d="M186,66.5c-1.6,0-2.9-0.7-3.8-2.2c-0.7-1.3-1.1-2.7-1.1-4.4c0-5.5,1.6-8.3,4.9-8.3c0.9,0,1.7,0.3,2.6,0.9
			c0.8,0.6,1.3,1.3,1.3,2.2c0,0.9-0.5,1.4-1.4,1.4c-0.6,0-1-0.3-1.3-0.8c-0.3-0.5-0.7-0.8-1.1-0.8c-0.7,0-1.2,0.4-1.6,1.1
			c-0.4,0.8-0.6,1.5-0.6,2.3c0,3.8,0.7,5.7,2.2,5.7c0.4,0,0.7-0.3,1-0.8c0.3-0.6,0.7-0.8,1.4-0.8c0.9,0,1.4,0.5,1.4,1.4
			c0,0.8-0.4,1.6-1.3,2.2C187.8,66.1,186.9,66.5,186,66.5z"/>
		<path fill="#E6E6E6" d="M207.3,66.5c-1.7,0-3.1-0.9-4-2.7c-0.8-1.4-1.2-3-1.2-4.9c0-1.8,0.4-3.4,1.2-4.8c1-1.7,2.3-2.6,4-2.6
			c1.6,0,2.9,0.9,3.9,2.6c0.9,1.5,1.3,3.1,1.3,4.8c0,1.7-0.4,3.4-1.3,4.9C210.2,65.6,208.9,66.5,207.3,66.5z M207.3,54.4
			c-0.8,0-1.4,0.6-1.8,1.8c-0.4,0.9-0.5,1.8-0.5,2.8c0,1,0.2,1.9,0.5,2.9c0.4,1.2,1.1,1.8,1.8,1.8c0.7,0,1.3-0.6,1.8-1.9
			c0.4-1,0.6-1.9,0.6-2.8c0-0.9-0.2-1.8-0.5-2.8C208.7,55,208,54.4,207.3,54.4z"/>
		<path fill="#E6E6E6" d="M226.4,57.9c0,0.6,0,1.7,0,3.5c0,1.5,0,2.7,0,3.5c0,0.9-0.5,1.4-1.5,1.4c-1,0-1.5-1.2-1.5-3.6v-9.5
			c0-1.1,1-1.7,3.1-1.7c0.7,0,1.5,1.5,2.4,4.6c0.7-3.1,1.4-4.6,2.2-4.6c1,0,1.7,0.1,2,0.2c0.7,0.2,1,0.7,1,1.5c0,0.9,0,2.4,0,4.4
			c0,2,0,3.4,0,4.4c0,1.5,0,2.4-0.1,2.6c-0.2,1.1-0.6,1.6-1.4,1.6c-1,0-1.6-1-1.6-2.9c0-0.5,0-1.1,0.1-1.8c0.1-0.7,0.1-1.2,0.1-1.4
			c0-0.3,0-0.7,0-1.2c0-0.6,0-1,0-1.2c-0.3,0.9-0.5,1.8-0.7,2.7c-0.4,1.2-1,1.8-1.7,1.8c-0.7,0-1.2-0.6-1.6-1.7
			C226.9,59.7,226.6,58.8,226.4,57.9z"/>
	</g>
</g>
</svg>
