<?xml version="1.0" encoding="utf-8"?>
<!-- Generator: Adobe Illustrator 18.0.0, SVG Export Plug-In . SVG Version: 6.00 Build 0)  -->
<!DOCTYPE svg PUBLIC "-//W3C//DTD SVG 1.1//EN" "http://www.w3.org/Graphics/SVG/1.1/DTD/svg11.dtd">
<svg version="1.1" xmlns="http://www.w3.org/2000/svg" xmlns:xlink="http://www.w3.org/1999/xlink" x="0px" y="0px"
	 viewBox="0 0 120 120" enable-background="new 0 0 120 120" xml:space="preserve">
<g id="Layer_1">
	<circle fill="#FFFFFF" stroke="#CCCCCC" stroke-miterlimit="10" cx="60" cy="60" r="55.7"/>
	<g>
		<polygon fill="#B3B3B3" points="88.6,86.3 84.8,86.3 84.8,85.2 87.4,85.2 87.4,34.7 83.8,28.4 52.3,28.4 52.3,31.3 51.1,31.3 
			51.1,27.2 84.4,27.2 88.6,34.4 		"/>
		<g>
			<path fill="#B3B3B3" d="M82.8,91.1H40.7V32h29.8l12.3,12.3V91.1z M41.8,89.9h39.8V44.8L70,33.1H41.8V89.9z"/>
			<path fill="#B3B3B3" d="M26.9,92.8l-3.5-7V46.7h7v39.2L26.9,92.8z M24.6,85.6l2.3,4.7l2.3-4.7V47.8h-4.7V85.6z"/>
			<rect x="48.2" y="52" fill="#B3B3B3" width="18.6" height="1.2"/>
			<rect x="48.2" y="60" fill="#B3B3B3" width="18.6" height="1.2"/>
			<rect x="48.2" y="68" fill="#B3B3B3" width="18.6" height="1.2"/>
			<rect x="48.2" y="75.9" fill="#B3B3B3" width="18.6" height="1.2"/>
			<polygon fill="#B3B3B3" points="82.2,45.1 69.6,45.1 69.6,32.6 70.8,32.6 70.8,44 82.2,44 			"/>
			<rect x="24" y="53.9" fill="#B3B3B3" width="5.8" height="1.2"/>
		</g>
		<g>
			<g>
				<path fill="#B3B3B3" d="M76.8,49.8c-0.2-0.1-0.5-0.1-0.6,0.1L74,53.2l-1-1c-0.2-0.2-0.5-0.2-0.6,0c-0.2,0.2-0.2,0.5,0,0.6
					l1.4,1.3c0,0,0,0,0,0c0,0,0,0,0,0c0,0,0,0,0.1,0c0,0,0,0,0.1,0c0,0,0,0,0.1,0c0,0,0.1,0,0.1,0c0,0,0,0,0,0c0,0,0.1,0,0.1-0.1
					c0,0,0,0,0,0c0,0,0.1,0,0.1-0.1c0,0,0,0,0-0.1c0,0,0,0,0,0l2.4-3.7C77,50.2,77,49.9,76.8,49.8z"/>
			</g>
		</g>
		<g>
			<g>
				<path fill="#B3B3B3" d="M76.8,62.5c-0.2-0.1-0.5-0.1-0.6,0.1L74,66l-1-1c-0.2-0.2-0.5-0.2-0.6,0c-0.2,0.2-0.2,0.5,0,0.6l1.4,1.3
					c0,0,0,0,0,0c0,0,0,0,0,0c0,0,0,0,0.1,0c0,0,0,0,0.1,0c0,0,0,0,0.1,0c0,0,0.1,0,0.1,0c0,0,0,0,0,0c0,0,0.1,0,0.1-0.1
					c0,0,0,0,0,0c0,0,0.1,0,0.1-0.1c0,0,0,0,0-0.1c0,0,0,0,0,0l2.4-3.7C77,63,77,62.7,76.8,62.5z"/>
			</g>
		</g>
		<g>
			<g>
				<path fill="#B3B3B3" d="M76.8,75.3c-0.2-0.1-0.5-0.1-0.6,0.1L74,78.7l-1-1c-0.2-0.2-0.5-0.2-0.6,0c-0.2,0.2-0.2,0.5,0,0.6
					l1.4,1.3c0,0,0,0,0,0c0,0,0,0,0,0c0,0,0,0,0.1,0c0,0,0,0,0.1,0c0,0,0,0,0.1,0c0,0,0.1,0,0.1,0c0,0,0,0,0,0c0,0,0.1,0,0.1-0.1
					c0,0,0,0,0,0c0,0,0.1,0,0.1-0.1c0,0,0,0,0-0.1c0,0,0,0,0,0l2.4-3.7C77,75.7,77,75.4,76.8,75.3z"/>
			</g>
		</g>
	</g>
</g>
<g id="Layer_2">
	<path opacity="0.2" fill="#B3B3B3" d="M115.7,60c0,1.9-0.1,3.8-0.3,5.6c-2.6,26-23.1,46.7-49,49.7L40.7,89.9L82.2,90l-0.5-45.2
		l-9.4-10.5l-1.6-1.8l-19.6,0.1l1.2-4.2h31.5l31,21.4C115.3,53.1,115.7,56.5,115.7,60z"/>
	<path opacity="0.2" fill="#B3B3B3" d="M115.4,65.6c-2.6,26-23.1,46.7-49,49.7c-2.1,0.2-4.3,0.4-6.4,0.4c-3.5,0-6.9-0.3-10.2-0.9
		L26.9,92.8l2.9-7.3l-0.6-37.7l1.2-1.2L40.7,52v37.9L82.2,90l-0.5-45.2L70,32.6l2.3,1.7L115.4,65.6z"/>
	<polygon opacity="0.2" fill="#B3B3B3" points="69.6,45.1 81.8,53.9 81.8,44.8 	"/>
</g>
<g id="Layer_3">
</g>
</svg>
